<?xml version="1.0" encoding="UTF-8"?>
<svg width="88px" height="88px" viewBox="0 0 88 88" version="1.1" xmlns="http://www.w3.org/2000/svg" xmlns:xlink="http://www.w3.org/1999/xlink">
    <title>404@3x</title>
    <g id="5.-Pages" stroke="none" stroke-width="1" fill="none" fill-rule="evenodd">
        <g id="5.9-Page-404" transform="translate(-144.000000, -177.000000)" fill-rule="nonzero">
            <g id="Top-Header" transform="translate(32.000000, 177.000000)">
                <g id="renewable-energy" transform="translate(112.000000, 0.000000)">
                    <path d="M1.51875862,44.7586207 C1.1,44.7586207 0.760137931,44.4187586 0.760137931,44 C0.760137931,20.1565517 20.158069,0.75862069 44.0015172,0.75862069 C44.4202759,0.75862069 44.7601379,1.09848276 44.7601379,1.51724138 C44.7601379,1.936 44.4202759,2.27586207 44.0015172,2.27586207 C20.994069,2.27586207 2.27737931,20.994069 2.27737931,44 C2.27737931,44.4187586 1.93751724,44.7586207 1.51875862,44.7586207 Z" id="Path" fill="#263238"></path>
                    <path d="M48.5532414,2.27586207 L47.036,2.27586207 C46.6172414,2.27586207 46.2773793,1.936 46.2773793,1.51724138 C46.2773793,1.09848276 46.6172414,0.75862069 47.036,0.75862069 L48.5532414,0.75862069 C48.972,0.75862069 49.3118621,1.09848276 49.3118621,1.51724138 C49.3118621,1.936 48.972,2.27586207 48.5532414,2.27586207 Z" id="Path" fill="#263238"></path>
                    <path d="M44.0015172,87.2413793 C43.5827586,87.2413793 43.2428966,86.9015172 43.2428966,86.4827586 C43.2428966,86.064 43.5827586,85.7241379 44.0015172,85.7241379 C67.0089655,85.7241379 85.7256552,67.005931 85.7256552,44 C85.7256552,43.5812414 86.0655172,43.2413793 86.4842759,43.2413793 C86.9030345,43.2413793 87.2428966,43.5812414 87.2428966,44 C87.2428966,67.8434483 67.8449655,87.2413793 44.0015172,87.2413793 Z" id="Path" fill="#263238"></path>
                    <path d="M40.9670345,87.2413793 L39.4497931,87.2413793 C39.0310345,87.2413793 38.6911724,86.9015172 38.6911724,86.4827586 C38.6911724,86.064 39.0310345,85.7241379 39.4497931,85.7241379 L40.9670345,85.7241379 C41.3857931,85.7241379 41.7256552,86.064 41.7256552,86.4827586 C41.7256552,86.9015172 41.3857931,87.2413793 40.9670345,87.2413793 Z" id="Path" fill="#263238"></path>
                    <path d="M44.0015172,81.1724138 C23.5051034,81.1724138 6.82910345,64.497931 6.82910345,44 C6.82910345,23.502069 23.5051034,6.82758621 44.0015172,6.82758621 C64.497931,6.82758621 81.173931,23.502069 81.173931,44 C81.173931,64.497931 64.497931,81.1724138 44.0015172,81.1724138 Z M44.0015172,8.34482759 C24.3411034,8.34482759 8.34634483,24.3395862 8.34634483,44 C8.34634483,63.6604138 24.3411034,79.6551724 44.0015172,79.6551724 C63.661931,79.6551724 79.6566897,63.6604138 79.6566897,44 C79.6566897,24.3395862 63.661931,8.34482759 44.0015172,8.34482759 Z" id="Shape" fill="#263238"></path>
                    <path d="M44.0015172,72.0689655 C28.5241379,72.0689655 15.9325517,59.4773793 15.9325517,44 C15.9325517,28.5226207 28.5241379,15.9310345 44.0015172,15.9310345 C59.4788966,15.9310345 72.0704828,28.5226207 72.0704828,44 C72.0704828,59.4773793 59.4788966,72.0689655 44.0015172,72.0689655 Z M44.0015172,17.4482759 C29.3616552,17.4482759 17.4497931,29.3601379 17.4497931,44 C17.4497931,58.6398621 29.3616552,70.5517241 44.0015172,70.5517241 C58.6413793,70.5517241 70.5532414,58.6398621 70.5532414,44 C70.5532414,29.3601379 58.6413793,17.4482759 44.0015172,17.4482759 Z" id="Shape" fill="#263238"></path>
                    <path d="M75.862069,5.31034483 L69.7931034,5.31034483 C69.3743448,5.31034483 69.0344828,4.97048276 69.0344828,4.55172414 C69.0344828,4.13296552 69.3743448,3.79310345 69.7931034,3.79310345 L75.862069,3.79310345 C76.2808276,3.79310345 76.6206897,4.13296552 76.6206897,4.55172414 C76.6206897,4.97048276 76.2823448,5.31034483 75.862069,5.31034483 Z" id="Path" fill="#263238"></path>
                    <path d="M72.8275862,8.34482759 C72.4088276,8.34482759 72.0689655,8.00496552 72.0689655,7.5862069 L72.0689655,1.51724138 C72.0689655,1.09848276 72.4088276,0.75862069 72.8275862,0.75862069 C73.2463448,0.75862069 73.5862069,1.09848276 73.5862069,1.51724138 L73.5862069,7.5862069 C73.5862069,8.00496552 73.2478621,8.34482759 72.8275862,8.34482759 Z" id="Path" fill="#263238"></path>
                    <path d="M86.4842759,15.1724138 L80.4153103,15.1724138 C79.9965517,15.1724138 79.6566897,14.8325517 79.6566897,14.4137931 C79.6566897,13.9950345 79.9965517,13.6551724 80.4153103,13.6551724 L86.4842759,13.6551724 C86.9030345,13.6551724 87.2428966,13.9950345 87.2428966,14.4137931 C87.2428966,14.8325517 86.9030345,15.1724138 86.4842759,15.1724138 Z" id="Path" fill="#263238"></path>
                    <path d="M83.4482759,18.2068966 C83.0295172,18.2068966 82.6896552,17.8670345 82.6896552,17.4482759 L82.6896552,11.3793103 C82.6896552,10.9605517 83.0295172,10.6206897 83.4482759,10.6206897 C83.8670345,10.6206897 84.2068966,10.9605517 84.2068966,11.3793103 L84.2068966,17.4482759 C84.2068966,17.8670345 83.8685517,18.2068966 83.4482759,18.2068966 Z" id="Path" fill="#263238"></path>
                    <g id="Group" transform="translate(33.379310, 28.827586)">
                        <polygon id="Path" fill="#FFD740" points="4.55324138 28.8275862 9.10496552 15.1724138 1.51875862 15.1724138 16.6911724 1.51724138 12.1394483 15.1724138 19.7256552 15.1724138"></polygon>
                        <path d="M4.55172414,29.5862069 C4.40758621,29.5862069 4.26344828,29.5452414 4.136,29.4617931 C3.84772414,29.2736552 3.72331034,28.9155862 3.83255172,28.5878621 L8.05048276,15.9310345 L1.51724138,15.9310345 C1.20317241,15.9310345 0.920965517,15.7368276 0.808689655,15.444 C0.696413793,15.1526897 0.776827586,14.8188966 1.00896552,14.608 L16.1813793,0.952827586 C16.4377931,0.722206897 16.8171034,0.696413793 17.1038621,0.883034483 C17.3921379,1.07117241 17.5165517,1.42924138 17.4073103,1.75696552 L13.1908966,14.4137931 L19.7241379,14.4137931 C20.0382069,14.4137931 20.3204138,14.608 20.4326897,14.9008276 C20.5449655,15.1921379 20.4645517,15.525931 20.2324138,15.7368276 L5.06,29.392 C4.91737931,29.5209655 4.73531034,29.5862069 4.55172414,29.5862069 Z M3.49572414,14.4137931 L9.10344828,14.4137931 C9.34772414,14.4137931 9.57682759,14.5306207 9.71944828,14.7293793 C9.86206897,14.9266207 9.90151724,15.1815172 9.82262069,15.4121379 L6.17972414,26.3408276 L17.7471724,15.9310345 L12.137931,15.9310345 C11.8936552,15.9310345 11.6645517,15.8142069 11.521931,15.6154483 C11.3793103,15.4182069 11.3398621,15.1633103 11.4187586,14.9326897 L15.0616552,4.004 L3.49572414,14.4137931 Z" id="Shape" fill="#263238"></path>
                    </g>
                </g>
            </g>
        </g>
    </g>
</svg>