<?xml version="1.0" encoding="UTF-8"?>
<svg width="16px" height="12px" viewBox="0 0 16 12" version="1.1" xmlns="http://www.w3.org/2000/svg" xmlns:xlink="http://www.w3.org/1999/xlink">
    <title>email@3x</title>
    <g id="6.-Components" stroke="none" stroke-width="1" fill="none" fill-rule="evenodd">
        <g id="6.1-Accordion" transform="translate(-51.000000, -879.000000)">
            <g id="INSET-ICONED" transform="translate(31.000000, 572.000000)">
                <g id="ic_12_sd" transform="translate(20.000000, 305.000000)">
                    <polygon id="Path" points="0 0 16 0 16 16 0 16"></polygon>
                    <path d="M10.097931,7.94648276 L8.58372414,9.46013793 C8.26055185,9.78321264 7.73668953,9.78321264 7.41351724,9.46013793 L5.90096552,7.94731034 L1.37655172,11.7177931 L1.37655172,12.7034483 C1.37655172,12.8558027 1.50005938,12.9793103 1.65241379,12.9793103 L14.3451034,12.966069 C14.4973501,12.9659167 14.6206897,12.8424536 14.6206897,12.6902069 L14.6206897,11.7153103 L10.097931,7.94648276 Z M14.6206897,10.9972414 L14.6206897,4.96551724 C14.6206897,4.81316283 14.7441973,4.68965517 14.8965517,4.68965517 C15.0489061,4.68965517 15.1724138,4.81316283 15.1724138,4.96551724 L15.1724138,12.6902069 C15.1724138,13.1469471 14.8023952,13.5173364 14.3456552,13.5177931 L1.65324138,13.5310349 C1.43360852,13.5312541 1.22289605,13.4441592 1.0675145,13.2889329 C0.912132939,13.1337066 0.824827586,12.9230812 0.824827586,12.7034483 L0.824827586,3.31034483 C0.824827586,2.85328159 1.19535055,2.4827586 1.65241379,2.4827586 L14.2303448,2.4827586 C14.45351,2.4827586 14.6547366,2.6170765 14.7401833,2.82323557 C14.8256301,3.02939464 14.7784675,3.26672628 14.6206897,3.42455172 L10.4896552,7.55475862 L14.6206897,10.9972414 Z M1.37655172,10.9994483 L5.50951724,7.55586207 L2.28744828,4.33324138 C2.21776916,4.26351299 2.19058266,4.16190794 2.21612966,4.06669987 C2.24167666,3.97149179 2.31607597,3.89714507 2.41130208,3.87166538 C2.50652819,3.8461857 2.60811399,3.87344402 2.6777931,3.94317241 L7.80358621,9.07034483 C7.9113103,9.1780364 8.08593108,9.1780364 8.19365517,9.07034483 L14.2303448,3.03448276 L1.65241379,3.03448276 C1.50005938,3.03448276 1.37655172,3.15799041 1.37655172,3.31034483 L1.37655172,10.9994483 Z M5.51724138,11.3103448 L10.4827586,11.3103448 C10.635113,11.3103448 10.7586207,11.4338525 10.7586207,11.5862069 C10.7586207,11.7385613 10.635113,11.862069 10.4827586,11.862069 L5.51724138,11.862069 C5.36488697,11.862069 5.24137931,11.7385613 5.24137931,11.5862069 C5.24137931,11.4338525 5.36488697,11.3103448 5.51724138,11.3103448 Z" id="Shape" fill="#333333" fill-rule="nonzero"></path>
                </g>
            </g>
        </g>
    </g>
</svg>