<?xml version="1.0" encoding="UTF-8"?>
<svg width="14px" height="14px" viewBox="0 0 14 14" version="1.1" xmlns="http://www.w3.org/2000/svg" xmlns:xlink="http://www.w3.org/1999/xlink">
    <title>list icon@3x</title>
    <defs>
        <filter id="filter-1">
            <feColorMatrix in="SourceGraphic" type="matrix" values="0 0 0 0 1.000000 0 0 0 0 1.000000 0 0 0 0 1.000000 0 0 0 1.000000 0"></feColorMatrix>
        </filter>
        <path d="M5.65062879,7.18970406 C5.73721337,7.23299873 5.79410602,7.31921536 5.79985795,7.4158499 C5.80556706,7.51243739 5.75931545,7.60473412 5.67852462,7.6579749 C5.59766427,7.71148127 5.49436927,7.71767897 5.40769129,7.6742249 L0.449274621,5.19474573 C0.154934302,5.04763893 -0.021616574,4.73752533 0.00212878731,4.40932906 C0.0253268374,4.0815214 0.243708316,3.79996642 0.555441287,3.69595406 L5.63464962,2.0029749 C5.77584487,1.95785052 5.92708319,2.03461634 5.97400379,2.1752249 C6.02092278,2.31583488 5.94608796,2.46803924 5.80608712,2.51674573 L0.726607954,4.2097249 C0.622696964,4.24439568 0.549903137,4.33824734 0.542170454,4.44751656 C0.534427697,4.55673586 0.593210411,4.6598728 0.691128787,4.70887073 L5.64981629,7.1883499 L5.65062879,7.18970406 Z M5.85727462,7.48762073 L8.08000379,12.0747249 C8.12788842,12.1735269 8.23068563,12.2336435 8.34027462,12.2269332 C8.44976511,12.2202407 8.54440595,12.148164 8.57996212,12.0443916 L12.3916705,0.900141562 C12.424888,0.803122384 12.4004606,0.695662852 12.3285663,0.622537396 C12.2566449,0.549436512 12.1496043,0.523226765 12.0520455,0.554829062 L7.93267045,1.8892249 C7.79189793,1.93071094 7.643695,1.85252608 7.59846212,1.7129124 C7.55322699,1.57327908 7.62745341,1.42302462 7.76583712,1.3740999 L11.8852121,0.0394332292 C12.1778585,-0.0551934936 12.4988511,0.0235346087 12.7145038,0.242829062 C12.9301771,0.4620938 13.0035584,0.784342429 12.9040871,1.07537073 L9.09237879,12.2196207 C8.98576162,12.5311314 8.70168743,12.7475026 8.37304545,12.7675166 C8.04437424,12.7875345 7.7361195,12.6072022 7.59250379,12.3108916 L5.20131629,7.37712073 L9.35942045,3.2192874 C9.46561491,3.11695854 9.63416235,3.11840324 9.73858712,3.2225374 C9.84272128,3.32696217 9.84416597,3.49550961 9.74183712,3.60170406 L5.85727462,7.48762073 Z M3.63914962,9.25670406 L0.457128787,7.57212073 C0.371563111,7.5268926 0.316635406,7.43944191 0.313045454,7.3427249 C0.309480839,7.24600432 0.357801029,7.15473285 0.439795454,7.10330823 C0.521789867,7.0517902 0.625051447,7.04796953 0.710628787,7.0932874 L4.03998295,8.85587073 L5.80256629,12.1852249 C5.83620019,12.2487187 5.84322495,12.3229756 5.82209429,12.3916502 C5.80096364,12.4603248 5.75340961,12.5177881 5.68989962,12.5513916 C5.62640577,12.5850255 5.55214896,12.5920502 5.48347434,12.5709196 C5.41479971,12.5497889 5.35733638,12.5022349 5.32373295,12.4387249 L3.63914962,9.25643323 L3.63914962,9.25670406 Z" id="path-2"></path>
    </defs>
    <g id="6.-Components" stroke="none" stroke-width="1" fill="none" fill-rule="evenodd">
        <g id="6.1-Accordion" transform="translate(-52.000000, -613.000000)">
            <g id="INSET-ICONED" transform="translate(31.000000, 572.000000)">
                <g id="1st-Question" transform="translate(1.536424, 38.000000)">
                    <g id="list-icon" transform="translate(18.155964, 3.692388)" filter="url(#filter-1)">
                        <g transform="translate(6.500000, 6.500000) rotate(45.000000) translate(-6.500000, -6.500000) ">
                            <mask id="mask-3" fill="white">
                                <use xlink:href="#path-2"></use>
                            </mask>
                            <use id="Path_21436" fill="#000000" xlink:href="#path-2"></use>
                        </g>
                    </g>
                </g>
            </g>
        </g>
    </g>
</svg>