<?xml version="1.0" encoding="UTF-8"?>
<svg width="14px" height="14px" viewBox="0 0 14 14" version="1.1" xmlns="http://www.w3.org/2000/svg" xmlns:xlink="http://www.w3.org/1999/xlink">
    <title>chart@3x</title>
    <g id="6.-Components" stroke="none" stroke-width="1" fill="none" fill-rule="evenodd">
        <g id="6.1-Accordion" transform="translate(-52.000000, -832.000000)">
            <g id="INSET-ICONED" transform="translate(31.000000, 572.000000)">
                <g id="3rd-Question" transform="translate(1.000000, 256.000000)">
                    <g id="ic_57_sd" transform="translate(19.000000, 2.000000)">
                        <polygon id="Path" points="0 0 16 0 16 16 0 16"></polygon>
                        <path d="M10.9222069,7.89931034 C10.8270018,7.92483636 10.7254106,7.89763204 10.6557019,7.82794499 C10.5859932,7.75825795 10.5587572,7.65667529 10.5842536,7.56146223 C10.60975,7.46624917 10.6841052,7.39187083 10.7793103,7.36634483 L11.8452414,7.08082759 C11.9923289,7.04152464 12.1434484,7.12881341 12.1828966,7.27586207 L12.4689655,8.34206897 C12.5084253,8.48924333 12.4211054,8.64054021 12.273931,8.68 C12.1267567,8.71945979 11.9754598,8.63213988 11.936,8.48496552 L11.8311724,8.09324138 C10.8885517,9.73406897 9.92082759,10.0808276 7.77517241,9.36551724 C6.24662069,8.856 5.04468966,9.35337931 4.09793103,10.9026207 C4.04707934,10.9877985 3.95440866,11.0391132 3.85522831,11.0370128 C3.75604795,11.0349124 3.66563279,10.9797205 3.61843273,10.8924662 C3.57123268,10.805212 3.57451707,10.6993334 3.62703448,10.6151724 C4.70289655,8.85406897 6.16772414,8.24827586 7.9497931,8.84193103 C9.84110345,9.47255172 10.5608276,9.2342069 11.3771034,7.77793103 L10.9224828,7.89958621 L10.9222069,7.89931034 Z M2.20689655,2.48275862 L13.7931034,2.48275862 C14.2501667,2.48275862 14.6206897,2.85328159 14.6206897,3.31034483 L14.6206897,13.2413793 C14.6206897,13.6984426 14.2501667,14.0689655 13.7931034,14.0689655 L2.20689655,14.0689655 C1.74983331,14.0689655 1.37931034,13.6984426 1.37931034,13.2413793 L1.37931034,3.31034483 C1.37931034,2.85328159 1.74983331,2.48275862 2.20689655,2.48275862 Z M2.20689655,3.03448276 C2.05454214,3.03448276 1.93103448,3.15799041 1.93103448,3.31034483 L1.93103448,13.2413793 C1.93103448,13.3937337 2.05454214,13.5172414 2.20689655,13.5172414 L13.7931034,13.5172414 C13.9454579,13.5172414 14.0689655,13.3937337 14.0689655,13.2413793 L14.0689655,3.31034483 C14.0689655,3.15799041 13.9454579,3.03448276 13.7931034,3.03448276 L2.20689655,3.03448276 Z M2.75862069,14.6206897 L5.51724138,14.6206897 C5.66959579,14.6206897 5.79310345,14.7441973 5.79310345,14.8965517 C5.79310345,15.0489061 5.66959579,15.1724138 5.51724138,15.1724138 L2.75862069,15.1724138 C2.60626628,15.1724138 2.48275862,15.0489061 2.48275862,14.8965517 C2.48275862,14.7441973 2.60626628,14.6206897 2.75862069,14.6206897 Z M10.4827586,14.6206897 L13.2413793,14.6206897 C13.3937337,14.6206897 13.5172414,14.7441973 13.5172414,14.8965517 C13.5172414,15.0489061 13.3937337,15.1724138 13.2413793,15.1724138 L10.4827586,15.1724138 C10.3304042,15.1724138 10.2068966,15.0489061 10.2068966,14.8965517 C10.2068966,14.7441973 10.3304042,14.6206897 10.4827586,14.6206897 Z M2.75862069,3.5862069 L13.2413793,3.5862069 C13.3937337,3.5862069 13.5172414,3.70971455 13.5172414,3.86206897 C13.5172414,4.01442338 13.3937337,4.13793103 13.2413793,4.13793103 L2.75862069,4.13793103 C2.60626628,4.13793103 2.48275862,4.01442338 2.48275862,3.86206897 C2.48275862,3.70971455 2.60626628,3.5862069 2.75862069,3.5862069 Z" id="Shape" fill="#333333" fill-rule="nonzero"></path>
                    </g>
                </g>
            </g>
        </g>
    </g>
</svg>