<?xml version="1.0" encoding="UTF-8"?>
<svg width="12px" height="14px" viewBox="0 0 12 14" version="1.1" xmlns="http://www.w3.org/2000/svg" xmlns:xlink="http://www.w3.org/1999/xlink">
    <title>image@3x</title>
    <g id="6.-Components" stroke="none" stroke-width="1" fill="none" fill-rule="evenodd">
        <g id="6.1-Accordion" transform="translate(-52.000000, -659.000000)">
            <g id="INSET-ICONED" transform="translate(31.000000, 572.000000)">
                <g id="2nd-Question-Active" transform="translate(0.536424, 71.000000)">
                    <g id="ic_17_sd" transform="translate(18.463576, 15.000000)">
                        <polygon id="Path" points="0 0 16 0 16 16 0 16"></polygon>
                        <path d="M10.3034483,11.0171034 C10.4113037,10.9768052 10.4827586,10.8737587 10.4827586,10.7586207 L10.4827586,6.34482759 C10.4827586,6.19247317 10.359251,6.06896552 10.2068966,6.06896552 L5.79310345,6.06896552 C5.64074903,6.06896552 5.51724138,6.19247317 5.51724138,6.34482759 L5.51724138,9.37931034 L6.29406897,8.34344828 C6.4379849,8.15143091 6.65815976,8.0313337 6.89751716,8.01428968 C7.13687456,7.99724565 7.37184522,8.08493312 7.54151724,8.25462069 L10.3034483,11.0171034 Z M9.54124138,11.0344828 L7.15144828,8.64496552 C7.09490563,8.58842531 7.01661182,8.55920115 6.93685097,8.56486432 C6.85709012,8.5705275 6.78371088,8.61052076 6.73572414,8.67448276 L5.51724138,10.2987586 L5.51724138,10.7586207 C5.51724138,10.9109751 5.64074903,11.0344828 5.79310345,11.0344828 L9.54096552,11.0344828 L9.54124138,11.0344828 Z M10.678069,1.46013793 C10.7297829,1.51185365 10.7587694,1.58203679 10.7586207,1.65517241 L10.7586207,4.14703448 C10.7586207,4.2993889 10.8821283,4.42289655 11.0344828,4.42289655 L11.8590345,4.4137931 C12.0113889,4.41211721 12.1362551,4.53426628 12.137931,4.68662069 C12.1396069,4.8389751 12.0174579,4.96384134 11.8651034,4.96551724 L11.0435862,4.97462069 C10.8226788,4.97653141 10.6101346,4.89024554 10.4530715,4.73489134 C10.2960084,4.57953714 10.2074026,4.36794959 10.2068966,4.14703448 L10.2068966,1.93103448 L3.03448276,1.93103448 C2.88212834,1.93103448 2.75862069,2.05454214 2.75862069,2.20689655 L2.75862069,13.7931034 C2.75862069,13.9454579 2.88212834,14.0689655 3.03448276,14.0689655 L12.9655172,14.0689655 C13.1178717,14.0689655 13.2413793,13.9454579 13.2413793,13.7931034 L13.2413793,4.70924138 L11.7765517,3.22841379 C11.7024043,3.15944646 11.6720035,3.05539851 11.6973549,2.95735955 C11.7227063,2.85932059 11.7997343,2.7830521 11.8980196,2.75867328 C11.9963049,2.73429447 12.1000465,2.76572465 12.1682759,2.84055172 L13.7931034,4.48248276 L13.7931034,13.7931034 C13.7931034,14.2501667 13.4225805,14.6206897 12.9655172,14.6206897 L3.03448276,14.6206897 C2.57741952,14.6206897 2.20689655,14.2501667 2.20689655,13.7931034 L2.20689655,2.20689655 C2.20689655,1.74983331 2.57741952,1.37931034 3.03448276,1.37931034 L10.4827586,1.37931034 C10.5588966,1.37931034 10.6278621,1.4102069 10.6777931,1.46013793 L10.678069,1.46013793 Z M5.79310345,5.51724138 L10.2068966,5.51724138 C10.6639598,5.51724138 11.0344828,5.88776434 11.0344828,6.34482759 L11.0344828,10.7586207 C11.0344828,11.2156839 10.6639598,11.5862069 10.2068966,11.5862069 L5.79310345,11.5862069 C5.33604021,11.5862069 4.96551724,11.2156839 4.96551724,10.7586207 L4.96551724,6.34482759 C4.96551724,5.88776434 5.33604021,5.51724138 5.79310345,5.51724138 Z M9.10344828,8.27586207 C8.64638503,8.27586207 8.27586207,7.9053391 8.27586207,7.44827586 C8.27586207,6.99121262 8.64638503,6.62068966 9.10344828,6.62068966 C9.56051152,6.62068966 9.93103448,6.99121262 9.93103448,7.44827586 C9.93103448,7.9053391 9.56051152,8.27586207 9.10344828,8.27586207 Z M9.10344828,7.72413793 C9.25580269,7.72413793 9.37931034,7.60063028 9.37931034,7.44827586 C9.37931034,7.29592145 9.25580269,7.17241379 9.10344828,7.17241379 C8.95109386,7.17241379 8.82758621,7.29592145 8.82758621,7.44827586 C8.82758621,7.60063028 8.95109386,7.72413793 9.10344828,7.72413793 Z" id="Shape" fill="#333333" fill-rule="nonzero"></path>
                    </g>
                </g>
            </g>
        </g>
    </g>
</svg>