<?xml version="1.0" encoding="UTF-8"?>
<svg width="51px" height="45px" viewBox="0 0 51 45" version="1.1" xmlns="http://www.w3.org/2000/svg" xmlns:xlink="http://www.w3.org/1999/xlink">
    <title>Add money icon@3x</title>
    <g id="2.-Home" stroke="none" stroke-width="1" fill="none" fill-rule="evenodd">
        <g id="2.0-Home" transform="translate(-285.000000, -108.000000)" fill-rule="nonzero">
            <g id="TOP-SECTION" transform="translate(0.000000, 74.000000)">
                <g id="business-opportunity" transform="translate(285.000000, 34.000000)">
                    <path d="M50.6015625,22.9017857 L49.8046875,22.9017857 C49.58475,22.9017857 49.40625,22.7217857 49.40625,22.5 C49.40625,22.2782143 49.58475,22.0982143 49.8046875,22.0982143 L50.6015625,22.0982143 C50.8215,22.0982143 51,22.2782143 51,22.5 C51,22.7217857 50.8215,22.9017857 50.6015625,22.9017857 Z" id="Path" fill="#FFFFFF"></path>
                    <path d="M48.2109375,22.9017857 L42.6328125,22.9017857 C42.412875,22.9017857 42.234375,22.7217857 42.234375,22.5 C42.234375,22.2782143 42.412875,22.0982143 42.6328125,22.0982143 L48.2109375,22.0982143 C48.430875,22.0982143 48.609375,22.2782143 48.609375,22.5 C48.609375,22.7217857 48.430875,22.9017857 48.2109375,22.9017857 Z" id="Path" fill="#FFFFFF"></path>
                    <path d="M1.1953125,22.9017857 L0.3984375,22.9017857 C0.1785,22.9017857 0,22.7217857 0,22.5 C0,22.2782143 0.1785,22.0982143 0.3984375,22.0982143 L1.1953125,22.0982143 C1.41525,22.0982143 1.59375,22.2782143 1.59375,22.5 C1.59375,22.7217857 1.41525,22.9017857 1.1953125,22.9017857 Z" id="Path" fill="#FFFFFF"></path>
                    <path d="M8.3671875,22.9017857 L2.7890625,22.9017857 C2.569125,22.9017857 2.390625,22.7217857 2.390625,22.5 C2.390625,22.2782143 2.569125,22.0982143 2.7890625,22.0982143 L8.3671875,22.0982143 C8.587125,22.0982143 8.765625,22.2782143 8.765625,22.5 C8.765625,22.7217857 8.587125,22.9017857 8.3671875,22.9017857 Z" id="Path" fill="#FFFFFF"></path>
                    <path d="M31.4765625,13.2589286 C31.256625,13.2589286 31.078125,13.0789286 31.078125,12.8571429 L31.078125,11.6517857 C31.078125,10.7654464 30.3633281,10.0446429 29.484375,10.0446429 L21.515625,10.0446429 C20.6366719,10.0446429 19.921875,10.7654464 19.921875,11.6517857 L19.921875,12.8571429 C19.921875,13.0789286 19.743375,13.2589286 19.5234375,13.2589286 C19.3035,13.2589286 19.125,13.0789286 19.125,12.8571429 L19.125,11.6517857 C19.125,10.3226786 20.1975937,9.24107143 21.515625,9.24107143 L29.484375,9.24107143 C30.8024062,9.24107143 31.875,10.3226786 31.875,11.6517857 L31.875,12.8571429 C31.875,13.0789286 31.6965,13.2589286 31.4765625,13.2589286 Z" id="Path" fill="#FFFFFF"></path>
                    <path d="M31.7251875,24.0966964 L39.84375,20.8928571 L39.84375,16.4732143 C39.84375,15.3634821 38.9520469,14.4642857 37.8515625,14.4642857 L13.1484375,14.4642857 C12.0479531,14.4642857 11.15625,15.3634821 11.15625,16.4732143 L11.15625,20.8928571 L19.2748125,24.0966964 L31.7251875,24.0966964 Z" id="Path" fill="#40C4FF"></path>
                    <path d="M37.8515625,35.7589286 L13.1484375,35.7589286 C11.8304062,35.7589286 10.7578125,34.6773214 10.7578125,33.3482143 L10.7578125,16.4732143 C10.7578125,15.1441071 11.8304062,14.0625 13.1484375,14.0625 L37.8515625,14.0625 C39.1695937,14.0625 40.2421875,15.1441071 40.2421875,16.4732143 L40.2421875,33.3482143 C40.2421875,34.6773214 39.1695938,35.7589286 37.8515625,35.7589286 Z M13.1484375,14.8660714 C12.2694844,14.8660714 11.5546875,15.586875 11.5546875,16.4732143 L11.5546875,33.3482143 C11.5546875,34.2345536 12.2694844,34.9553571 13.1484375,34.9553571 L37.8515625,34.9553571 C38.7305156,34.9553571 39.4453125,34.2345536 39.4453125,33.3482143 L39.4453125,16.4732143 C39.4453125,15.586875 38.7305156,14.8660714 37.8515625,14.8660714 L13.1484375,14.8660714 Z" id="Shape" fill="#FFFFFF"></path>
                    <path d="M47.015625,14.8451786 C46.9120312,14.8451786 46.8100312,14.8041964 46.7335312,14.7278571 L43.6344844,11.6019643 L40.8430312,14.416875 C40.6876406,14.5735714 40.4350313,14.5735714 40.2796406,14.416875 C40.12425,14.2601786 40.12425,14.0054464 40.2796406,13.84875 L43.3523906,10.7501786 C43.4272969,10.6746429 43.5285,10.6328571 43.6344844,10.6328571 L43.6344844,10.6328571 C43.7404688,10.6328571 43.8416719,10.6754464 43.9165781,10.7501786 L46.6171875,13.4742857 L46.6171875,1.20776786 L34.4536875,1.20776786 L37.1550937,3.931875 C37.23,4.00741071 37.2714375,4.10946429 37.2714375,4.21633929 C37.2714375,4.32321429 37.23,4.42446429 37.1550937,4.5 L32.3069063,9.388125 C32.1515156,9.54482143 31.8989063,9.54482143 31.7435156,9.388125 C31.588125,9.23142857 31.588125,8.97669643 31.7435156,8.82 L36.3096094,4.21633929 L33.2097656,1.09044643 C33.0958125,0.975535714 33.0615469,0.802767857 33.1237031,0.6525 C33.1858594,0.502232143 33.3308906,0.404196429 33.4918594,0.404196429 L47.015625,0.404196429 C47.2355625,0.404196429 47.4140625,0.584196429 47.4140625,0.805982143 L47.4140625,14.4433929 C47.4140625,14.6057143 47.3168438,14.7527679 47.1678281,14.8146429 C47.1192188,14.8347321 47.066625,14.8451786 47.015625,14.8451786 Z" id="Path" fill="#FFFFFF"></path>
                    <path d="M3.984375,14.8451786 C3.933375,14.8451786 3.88078125,14.8347321 3.83217188,14.8146429 C3.68315625,14.7519643 3.5859375,14.6057143 3.5859375,14.4433929 L3.5859375,0.805982143 C3.5859375,0.584196429 3.7644375,0.404196429 3.984375,0.404196429 L17.5081406,0.404196429 C17.6691094,0.404196429 17.8149375,0.502232143 17.8762969,0.6525 C17.9376562,0.802767857 17.9033906,0.975535714 17.7902344,1.09044643 L14.6911875,4.21633929 L19.2564844,8.82 C19.411875,8.97669643 19.411875,9.23142857 19.2564844,9.388125 C19.1010937,9.54482143 18.8484844,9.54482143 18.6930937,9.388125 L13.8457031,4.5 C13.6903125,4.34330357 13.6903125,4.08857143 13.8457031,3.931875 L16.5463125,1.20776786 L4.3828125,1.20776786 L4.3828125,13.4734821 L7.08421875,10.749375 C7.159125,10.6738393 7.26032813,10.6320536 7.3663125,10.6320536 L7.3663125,10.6320536 C7.47229687,10.6320536 7.5735,10.6746429 7.64840625,10.749375 L10.7203594,13.8479464 C10.87575,14.0046429 10.87575,14.259375 10.7203594,14.4160714 C10.5649687,14.5727679 10.3123594,14.5727679 10.1569687,14.4160714 L7.3663125,11.6011607 L4.26646875,14.7270536 C4.18996875,14.8041964 4.08796875,14.8451786 3.984375,14.8451786 Z" id="Path" fill="#FFFFFF"></path>
                    <path d="M17.5081406,44.600625 L3.984375,44.600625 C3.7644375,44.600625 3.5859375,44.420625 3.5859375,44.1988393 L3.5859375,30.5614286 C3.5859375,30.3991071 3.68315625,30.2520536 3.83217188,30.1901786 C3.98039063,30.1291071 4.15251563,30.1628571 4.26646875,30.2769643 L7.36551563,33.4028571 L9.28120313,31.4710714 C9.43659375,31.314375 9.68920312,31.314375 9.84459375,31.4710714 C9.99998438,31.6277679 9.99998438,31.8825 9.84459375,32.0391964 L7.6468125,34.2554464 C7.57190625,34.3309821 7.47070312,34.3727679 7.36471875,34.3727679 L7.36471875,34.3727679 C7.25873438,34.3727679 7.15753125,34.3301786 7.082625,34.2554464 L4.3828125,31.5313393 L4.3828125,43.7970536 L16.5463125,43.7970536 L13.8449062,41.0729464 C13.77,40.9974107 13.7285625,40.8953571 13.7285625,40.7884821 C13.7285625,40.6816071 13.7707969,40.5795536 13.8449062,40.5040179 L17.6388281,36.6790179 C17.7942187,36.5223214 18.0468281,36.5223214 18.2022188,36.6790179 C18.3576094,36.8357143 18.3576094,37.0904464 18.2022188,37.2471429 L14.6903906,40.7876786 L17.7902344,43.9135714 C17.9041875,44.0284821 17.9384531,44.20125 17.8762969,44.3515179 C17.8141406,44.5017857 17.6691094,44.600625 17.5081406,44.600625 Z" id="Path" fill="#FFFFFF"></path>
                    <path d="M47.015625,44.600625 L33.4918594,44.600625 C33.3308906,44.600625 33.1850625,44.5025893 33.1237031,44.3523214 C33.0623437,44.2020536 33.0966094,44.0292857 33.2097656,43.914375 L36.3096094,40.7884821 L32.7977812,37.2479464 C32.6423906,37.09125 32.6423906,36.8365179 32.7977812,36.6798214 C32.9531719,36.523125 33.2057813,36.523125 33.3611719,36.6798214 L37.1550937,40.5048214 C37.23,40.5803571 37.2714375,40.6824107 37.2714375,40.7892857 C37.2714375,40.8961607 37.2292031,40.9982143 37.1550937,41.07375 L34.4536875,43.7978571 L46.6171875,43.7978571 L46.6171875,31.5313393 L43.9165781,34.2554464 C43.7667656,34.4065179 43.5022031,34.4065179 43.3531875,34.2554464 L41.1554062,32.0391964 C41.0000156,31.8825 41.0000156,31.6277679 41.1554062,31.4710714 C41.3107969,31.314375 41.5634062,31.314375 41.7187969,31.4710714 L43.6344844,33.4028571 L46.7335312,30.2769643 C46.8482812,30.16125 47.0196094,30.1275 47.1678281,30.1901786 C47.3168437,30.2520536 47.4140625,30.3991071 47.4140625,30.5614286 L47.4140625,44.1988393 C47.4140625,44.420625 47.2355625,44.600625 47.015625,44.600625 Z" id="Path" fill="#FFFFFF"></path>
                    <g id="Group" transform="translate(19.921875, 21.696429)">
                        <path d="M9.5625,4.01785714 L1.59375,4.01785714 C1.153875,4.01785714 0.796875,3.65785714 0.796875,3.21428571 L0.796875,1.60714286 C0.796875,1.16357143 1.153875,0.803571429 1.59375,0.803571429 L9.5625,0.803571429 C10.002375,0.803571429 10.359375,1.16357143 10.359375,1.60714286 L10.359375,3.21428571 C10.359375,3.65785714 10.002375,4.01785714 9.5625,4.01785714 Z" id="Path" fill="#FFD740"></path>
                        <path d="M9.5625,4.41964286 L1.59375,4.41964286 C0.934734375,4.41964286 0.3984375,3.87883929 0.3984375,3.21428571 L0.3984375,1.60714286 C0.3984375,0.942589286 0.934734375,0.401785714 1.59375,0.401785714 L9.5625,0.401785714 C10.2215156,0.401785714 10.7578125,0.942589286 10.7578125,1.60714286 L10.7578125,3.21428571 C10.7578125,3.87883929 10.2215156,4.41964286 9.5625,4.41964286 Z M1.59375,1.20535714 C1.37460938,1.20535714 1.1953125,1.38616071 1.1953125,1.60714286 L1.1953125,3.21428571 C1.1953125,3.43526786 1.37460938,3.61607143 1.59375,3.61607143 L9.5625,3.61607143 C9.78164062,3.61607143 9.9609375,3.43526786 9.9609375,3.21428571 L9.9609375,1.60714286 C9.9609375,1.38616071 9.78164062,1.20535714 9.5625,1.20535714 L1.59375,1.20535714 Z" id="Shape" fill="#F6F6F6"></path>
                    </g>
                    <path d="M31.7251875,24.4984821 C31.5666094,24.4984821 31.4152031,24.4020536 31.3538437,24.24375 C31.2733594,24.0364286 31.3745625,23.8033929 31.5793594,23.7230357 L39.4453125,20.6196429 L39.4453125,16.4732143 C39.4453125,15.586875 38.7305156,14.8660714 37.8515625,14.8660714 L13.1484375,14.8660714 C12.2694844,14.8660714 11.5546875,15.586875 11.5546875,16.4732143 L11.5546875,20.6188393 L19.4206406,23.7222321 C19.6254375,23.8033929 19.7266406,24.0364286 19.6461563,24.2429464 C19.5656719,24.4494643 19.3369688,24.5507143 19.1297813,24.4703571 L11.0112188,21.2665179 C10.8582187,21.2070536 10.7578125,21.0583929 10.7578125,20.8928571 L10.7578125,16.4732143 C10.7578125,15.1441071 11.8304062,14.0625 13.1484375,14.0625 L37.8515625,14.0625 C39.1695937,14.0625 40.2421875,15.1441071 40.2421875,16.4732143 L40.2421875,20.8928571 C40.2421875,21.0583929 40.1417813,21.2070536 39.9895781,21.2673214 L31.8710156,24.4711607 C31.8224062,24.4904464 31.773,24.4984821 31.7251875,24.4984821 Z" id="Path" fill="#FFFFFF"></path>
                    <g id="Group" transform="translate(23.109375, 24.910714)">
                        <path d="M2.390625,4.01785714 L2.390625,4.01785714 C1.29014062,4.01785714 0.3984375,3.11866071 0.3984375,2.00892857 L0.3984375,0.803571429 L4.3828125,0.803571429 L4.3828125,2.00892857 C4.3828125,3.11866071 3.49110938,4.01785714 2.390625,4.01785714 Z" id="Path" fill="#FFD740"></path>
                        <path d="M2.390625,4.41964286 C1.07259375,4.41964286 0,3.33803571 0,2.00892857 L0,0.803571429 C0,0.581785714 0.1785,0.401785714 0.3984375,0.401785714 L4.3828125,0.401785714 C4.60275,0.401785714 4.78125,0.581785714 4.78125,0.803571429 L4.78125,2.00892857 C4.78125,3.33803571 3.70865625,4.41964286 2.390625,4.41964286 Z M0.796875,1.20535714 L0.796875,2.00892857 C0.796875,2.89526786 1.51167187,3.61607143 2.390625,3.61607143 C3.26957813,3.61607143 3.984375,2.89526786 3.984375,2.00892857 L3.984375,1.20535714 L0.796875,1.20535714 Z" id="Shape" fill="#F6F6F6"></path>
                    </g>
                </g>
            </g>
        </g>
    </g>
</svg>