<svg xmlns="http://www.w3.org/2000/svg" width="51" height="45" viewBox="0 0 51 45">
    <g fill="none" fill-rule="evenodd">
        <g fill-rule="nonzero">
            <g>
                <g>
                    <path fill="#263238" d="M50.602 22.902h-.797c-.22 0-.399-.18-.399-.402 0-.222.179-.402.399-.402h.797c.22 0 .398.18.398.402 0 .222-.178.402-.398.402zM48.21 22.902h-5.577c-.22 0-.399-.18-.399-.402 0-.222.179-.402.399-.402h5.578c.22 0 .398.18.398.402 0 .222-.178.402-.398.402zM1.195 22.902H.398c-.22 0-.398-.18-.398-.402 0-.222.178-.402.398-.402h.797c.22 0 .399.18.399.402 0 .222-.179.402-.399.402zM8.367 22.902H2.79c-.22 0-.398-.18-.398-.402 0-.222.178-.402.398-.402h5.578c.22 0 .399.18.399.402 0 .222-.179.402-.399.402zM31.477 13.259c-.22 0-.399-.18-.399-.402v-1.205c0-.887-.715-1.607-1.594-1.607h-7.968c-.88 0-1.594.72-1.594 1.607v1.205c0 .222-.179.402-.399.402-.22 0-.398-.18-.398-.402v-1.205c0-1.33 1.073-2.41 2.39-2.41h7.97c1.317 0 2.39 1.08 2.39 2.41v1.205c0 .222-.178.402-.398.402z" transform="translate(-285 -108) translate(0 74) translate(285 34)"/>
                    <path fill="#40C4FF" d="M31.725 24.097l8.119-3.204v-4.42c0-1.11-.892-2.009-1.992-2.009H13.148c-1.1 0-1.992.9-1.992 2.01v4.419l8.119 3.204h12.45z" transform="translate(-285 -108) translate(0 74) translate(285 34)"/>
                    <path fill="#263238" d="M37.852 35.759H13.148c-1.318 0-2.39-1.082-2.39-2.41V16.472c0-1.329 1.072-2.41 2.39-2.41h24.704c1.318 0 2.39 1.081 2.39 2.41v16.875c0 1.33-1.072 2.41-2.39 2.41zM13.148 14.866c-.879 0-1.593.72-1.593 1.607v16.875c0 .887.714 1.607 1.593 1.607h24.704c.879 0 1.593-.72 1.593-1.607V16.473c0-.886-.714-1.607-1.593-1.607H13.148zM47.016 14.845c-.104 0-.206-.04-.282-.117l-3.1-3.126-2.791 2.815c-.155.157-.408.157-.563 0-.156-.157-.156-.412 0-.568l3.072-3.099c.075-.075.177-.117.282-.117.106 0 .208.042.283.117l2.7 2.724V1.208H34.454l2.701 2.724c.075.075.116.177.116.284 0 .107-.041.208-.116.284l-4.848 4.888c-.155.157-.408.157-.563 0-.156-.157-.156-.411 0-.568l4.566-4.604-3.1-3.126c-.114-.114-.148-.287-.086-.438.062-.15.207-.248.368-.248h13.524c.22 0 .398.18.398.402v13.637c0 .163-.097.31-.246.372-.049.02-.101.03-.152.03zM3.984 14.845c-.05 0-.103-.01-.152-.03-.149-.063-.246-.21-.246-.372V.806c0-.222.178-.402.398-.402h13.524c.161 0 .307.098.368.248.062.15.027.324-.086.438l-3.099 3.126 4.565 4.604c.156.157.156.411 0 .568-.155.157-.408.157-.563 0L13.846 4.5c-.156-.157-.156-.411 0-.568l2.7-2.724H4.383v12.265l2.701-2.724c.075-.075.176-.117.282-.117.106 0 .208.043.282.117l3.072 3.099c.156.157.156.411 0 .568-.155.157-.408.157-.563 0l-2.79-2.815-3.1 3.126c-.077.077-.179.118-.283.118z" transform="translate(-285 -108) translate(0 74) translate(285 34)"/>
                    <path fill="#263238" d="M17.508 44.6H3.984c-.22 0-.398-.18-.398-.401V30.56c0-.162.097-.309.246-.37.148-.062.32-.028.434.086l3.1 3.126L9.28 31.47c.156-.157.408-.157.564 0 .155.157.155.412 0 .568l-2.198 2.216c-.075.076-.176.118-.282.118-.106 0-.207-.043-.282-.118l-2.7-2.724v12.266h12.163l-2.701-2.724c-.075-.076-.116-.178-.116-.285 0-.106.042-.208.116-.284l3.794-3.825c.155-.157.408-.157.563 0 .156.157.156.411 0 .568l-3.512 3.54 3.1 3.127c.114.114.148.287.086.438-.062.15-.207.249-.368.249zM47.016 44.6H33.492c-.161 0-.307-.097-.368-.248-.062-.15-.027-.323.086-.438l3.1-3.126-3.512-3.54c-.156-.157-.156-.411 0-.568.155-.157.408-.157.563 0l3.794 3.825c.075.075.116.177.116.284 0 .107-.042.21-.116.285l-2.701 2.724h12.163V31.53l-2.7 2.724c-.15.152-.415.152-.564 0l-2.198-2.216c-.155-.157-.155-.411 0-.568.156-.157.408-.157.564 0l1.915 1.932 3.1-3.126c.114-.116.286-.15.434-.087.149.062.246.21.246.371V44.2c0 .222-.178.402-.398.402z" transform="translate(-285 -108) translate(0 74) translate(285 34)"/>
                    <g>
                        <path fill="#FFD740" d="M9.563 4.018h-7.97c-.44 0-.796-.36-.796-.804V1.607c0-.443.357-.803.797-.803h7.968c.44 0 .797.36.797.803v1.607c0 .444-.357.804-.796.804z" transform="translate(-285 -108) translate(0 74) translate(285 34) translate(19.922 21.696)"/>
                        <path fill="#263238" d="M9.563 4.42h-7.97C.936 4.42.399 3.879.399 3.214V1.607C.398.943.935.402 1.594.402h7.968c.66 0 1.196.54 1.196 1.205v1.607c0 .665-.536 1.206-1.195 1.206zm-7.97-3.215c-.218 0-.398.181-.398.402v1.607c0 .221.18.402.399.402h7.968c.22 0 .399-.18.399-.402V1.607c0-.22-.18-.402-.399-.402H1.595z" transform="translate(-285 -108) translate(0 74) translate(285 34) translate(19.922 21.696)"/>
                    </g>
                    <path fill="#263238" d="M31.725 24.498c-.158 0-.31-.096-.371-.254-.08-.208.02-.44.225-.521l7.866-3.103v-4.147c0-.886-.714-1.607-1.593-1.607H13.148c-.879 0-1.593.72-1.593 1.607v4.146l7.866 3.103c.204.081.306.314.225.52-.08.207-.309.309-.516.228l-8.119-3.203c-.153-.06-.253-.209-.253-.374v-4.42c0-1.329 1.072-2.41 2.39-2.41h24.704c1.318 0 2.39 1.081 2.39 2.41v4.42c0 .165-.1.314-.252.374l-8.119 3.204c-.049.02-.098.027-.146.027z" transform="translate(-285 -108) translate(0 74) translate(285 34)"/>
                    <g>
                        <path fill="#FFD740" d="M2.39 4.018c-1.1 0-1.992-.9-1.992-2.01V.805h3.985v1.205c0 1.11-.892 2.009-1.992 2.009z" transform="translate(-285 -108) translate(0 74) translate(285 34) translate(23.11 24.91)"/>
                        <path fill="#263238" d="M2.39 4.42C1.074 4.42 0 3.338 0 2.009V.804C0 .582.178.402.398.402h3.985c.22 0 .398.18.398.402v1.205c0 1.329-1.072 2.41-2.39 2.41zM.798 1.205v.804c0 .886.715 1.607 1.594 1.607.879 0 1.593-.72 1.593-1.607v-.804H.797z" transform="translate(-285 -108) translate(0 74) translate(285 34) translate(23.11 24.91)"/>
                    </g>
                </g>
            </g>
        </g>
    </g>
</svg>
