<?xml version="1.0" encoding="UTF-8"?>
<svg width="23px" height="30px" viewBox="0 0 23 30" version="1.1" xmlns="http://www.w3.org/2000/svg" xmlns:xlink="http://www.w3.org/1999/xlink">
    <title>Apple Pay Icon@3x</title>
    <g id="2.-Home" stroke="none" stroke-width="1" fill="none" fill-rule="evenodd">
        <g id="2.0-Home" transform="translate(-60.000000, -1158.000000)" fill="#FFFFFF" fill-rule="nonzero">
            <g id="TRANSACTION-SECTION" transform="translate(32.000000, 929.000000)">
                <g id="3rd-Transaction-block" transform="translate(0.000000, 205.000000)">
                    <g id="Apple-Pay-Icon" transform="translate(28.000000, 24.029406)">
                        <path d="M14.6961324,5.13169027 C13.8226452,6.22186677 12.4250657,7.08172429 11.0274862,6.9588875 C10.8527887,5.48484604 11.5370204,3.91867698 12.337717,2.95133727 C13.2112042,1.83045158 14.7398068,1.03201245 15.977247,0.970594058 C16.1228282,2.50605391 15.5550615,4.01080457 14.6961324,5.13169027 L14.6961324,5.13169027 Z" id="XMLID_34_-path"></path>
                        <path d="M17.0970477,6.9795089 C14.7726558,6.84228999 12.7827087,8.33454561 11.6790406,8.33454561 C10.5586502,8.33454561 8.86970351,7.04811835 7.03025663,7.08242308 C4.63897568,7.1167278 2.41491718,8.50606925 1.19419334,10.7187241 C-1.31414331,15.1440339 0.542025811,21.6962368 2.96675124,25.2982331 C4.1540306,27.0820789 5.57542137,29.0374484 7.44831274,28.9688389 C9.22087064,28.9002295 9.9232049,27.7853258 12.0636522,27.7853258 C14.2208217,27.7853258 14.8395447,28.9688389 16.7124361,28.9345342 C18.6522165,28.9002295 19.8729403,27.1506884 21.0602197,25.3668426 C22.4147214,23.3428637 22.9665555,21.3703419 23,21.2674277 C22.9665555,21.233123 19.2542173,19.7751721 19.2207728,15.384167 C19.1873283,11.7135612 22.1471655,9.96402015 22.2809435,9.86110596 C20.6087191,7.32255617 18.0000489,7.04811835 17.0970477,6.9795089 L17.0970477,6.9795089 Z" id="XMLID_34_-path"></path>
                    </g>
                </g>
            </g>
        </g>
    </g>
</svg>