<svg xmlns="http://www.w3.org/2000/svg" width="23" height="30" viewBox="0 0 23 30">
    <g fill="none" fill-rule="evenodd">
        <g fill="#000" fill-rule="nonzero">
            <g>
                <g>
                    <g>
                        <path d="M14.696 5.132c-.873 1.09-2.27 1.95-3.669 1.827-.174-1.474.51-3.04 1.31-4.008.874-1.12 2.403-1.919 3.64-1.98.146 1.535-.422 3.04-1.28 4.16z" transform="translate(-60 -1158) translate(32 929) translate(0 205) translate(28 24.03)"/>
                        <path d="M17.097 6.98c-2.324-.138-4.314 1.355-5.418 1.355-1.12 0-2.81-1.287-4.649-1.253-2.391.035-4.615 1.424-5.836 3.637-2.508 4.425-.652 10.977 1.773 14.58 1.187 1.783 2.608 3.738 4.481 3.67 1.773-.069 2.475-1.184 4.616-1.184 2.157 0 2.776 1.184 4.648 1.15 1.94-.035 3.16-1.784 4.348-3.568 1.355-2.024 1.907-3.997 1.94-4.1-.033-.034-3.746-1.492-3.78-5.883-.033-3.67 2.927-5.42 3.06-5.523C20.61 7.323 18 7.048 17.098 6.98z" transform="translate(-60 -1158) translate(32 929) translate(0 205) translate(28 24.03)"/>
                    </g>
                </g>
            </g>
        </g>
    </g>
</svg>
