<?xml version="1.0" encoding="UTF-8"?>
<svg width="65px" height="65px" viewBox="0 0 65 65" version="1.1" xmlns="http://www.w3.org/2000/svg" xmlns:xlink="http://www.w3.org/1999/xlink">
    <title>approved@3x</title>
    <g id="5.-Pages" stroke="none" stroke-width="1" fill="none" fill-rule="evenodd">
        <g id="5.2.6-Success-Payment" transform="translate(-157.000000, -505.000000)" fill-rule="nonzero">
            <g id="approved" transform="translate(157.000000, 505.000000)">
                <path d="M1.12068966,33.0603448 C0.81137931,33.0603448 0.560344828,32.8093103 0.560344828,32.5 C0.560344828,14.8883621 14.8883621,0.560344828 32.5,0.560344828 C32.8093103,0.560344828 33.0603448,0.81137931 33.0603448,1.12068966 C33.0603448,1.43 32.8093103,1.68103448 32.5,1.68103448 C15.5058621,1.68103448 1.68103448,15.5058621 1.68103448,32.5 C1.68103448,32.8093103 1.43,33.0603448 1.12068966,33.0603448 Z" id="Path" fill="#FFFFFF"></path>
                <path d="M35.862069,1.68103448 L34.7413793,1.68103448 C34.432069,1.68103448 34.1810345,1.43 34.1810345,1.12068966 C34.1810345,0.81137931 34.432069,0.560344828 34.7413793,0.560344828 L35.862069,0.560344828 C36.1713793,0.560344828 36.4224138,0.81137931 36.4224138,1.12068966 C36.4224138,1.43 36.1713793,1.68103448 35.862069,1.68103448 Z" id="Path" fill="#FFFFFF"></path>
                <path d="M32.5,64.4396552 C32.1906897,64.4396552 31.9396552,64.1886207 31.9396552,63.8793103 C31.9396552,63.57 32.1906897,63.3189655 32.5,63.3189655 C49.4930172,63.3189655 63.3189655,49.4941379 63.3189655,32.5 C63.3189655,32.1906897 63.57,31.9396552 63.8793103,31.9396552 C64.1886207,31.9396552 64.4396552,32.1906897 64.4396552,32.5 C64.4396552,50.1116379 50.1116379,64.4396552 32.5,64.4396552 Z" id="Path" fill="#FFFFFF"></path>
                <path d="M30.2586207,64.4396552 L29.137931,64.4396552 C28.8286207,64.4396552 28.5775862,64.1886207 28.5775862,63.8793103 C28.5775862,63.57 28.8286207,63.3189655 29.137931,63.3189655 L30.2586207,63.3189655 C30.567931,63.3189655 30.8189655,63.57 30.8189655,63.8793103 C30.8189655,64.1886207 30.567931,64.4396552 30.2586207,64.4396552 Z" id="Path" fill="#FFFFFF"></path>
                <path d="M32.5,59.9568966 C17.3606034,59.9568966 5.04310345,47.6393966 5.04310345,32.5 C5.04310345,17.3606034 17.3606034,5.04310345 32.5,5.04310345 C47.6405172,5.04310345 59.9568966,17.3606034 59.9568966,32.5 C59.9568966,47.6393966 47.6405172,59.9568966 32.5,59.9568966 Z M32.5,6.1637931 C17.9781034,6.1637931 6.1637931,17.9781034 6.1637931,32.5 C6.1637931,47.0218966 17.9781034,58.8362069 32.5,58.8362069 C47.0218966,58.8362069 58.8362069,47.0218966 58.8362069,32.5 C58.8362069,17.9781034 47.0218966,6.1637931 32.5,6.1637931 Z" id="Shape" fill="#FFFFFF"></path>
                <g id="Group" transform="translate(11.206897, 11.206897)">
                    <path d="M21.2931034,1.12068966 C10.1523276,1.12068966 1.12068966,10.1523276 1.12068966,21.2931034 C1.12068966,32.4338793 10.1523276,41.4655172 21.2931034,41.4655172 C32.4338793,41.4655172 41.4655172,32.4338793 41.4655172,21.2931034 C41.4655172,10.1523276 32.4338793,1.12068966 21.2931034,1.12068966 Z" id="Path" fill="#4DB6AC"></path>
                    <path d="M21.2931034,42.0258621 C9.86094828,42.0258621 0.560344828,32.7252586 0.560344828,21.2931034 C0.560344828,9.86094828 9.86094828,0.560344828 21.2931034,0.560344828 C32.7252586,0.560344828 42.0258621,9.86094828 42.0258621,21.2931034 C42.0258621,32.7252586 32.7252586,42.0258621 21.2931034,42.0258621 Z M21.2931034,1.68103448 C10.479569,1.68103448 1.68103448,10.479569 1.68103448,21.2931034 C1.68103448,32.1066379 10.479569,40.9051724 21.2931034,40.9051724 C32.1066379,40.9051724 40.9051724,32.1066379 40.9051724,21.2931034 C40.9051724,10.479569 32.1066379,1.68103448 21.2931034,1.68103448 Z" id="Shape" fill="#FFFFFF"></path>
                </g>
                <path d="M56.0344828,3.92241379 L51.5517241,3.92241379 C51.2424138,3.92241379 50.9913793,3.67137931 50.9913793,3.36206897 C50.9913793,3.05275862 51.2424138,2.80172414 51.5517241,2.80172414 L56.0344828,2.80172414 C56.3437931,2.80172414 56.5948276,3.05275862 56.5948276,3.36206897 C56.5948276,3.67137931 56.3437931,3.92241379 56.0344828,3.92241379 Z" id="Path" fill="#FFFFFF"></path>
                <path d="M53.7931034,6.1637931 C53.4837931,6.1637931 53.2327586,5.91275862 53.2327586,5.60344828 L53.2327586,1.12068966 C53.2327586,0.81137931 53.4837931,0.560344828 53.7931034,0.560344828 C54.1024138,0.560344828 54.3534483,0.81137931 54.3534483,1.12068966 L54.3534483,5.60344828 C54.3534483,5.91275862 54.1024138,6.1637931 53.7931034,6.1637931 Z" id="Path" fill="#FFFFFF"></path>
                <path d="M63.8793103,11.2068966 L59.3965517,11.2068966 C59.0872414,11.2068966 58.8362069,10.9558621 58.8362069,10.6465517 C58.8362069,10.3372414 59.0872414,10.0862069 59.3965517,10.0862069 L63.8793103,10.0862069 C64.1886207,10.0862069 64.4396552,10.3372414 64.4396552,10.6465517 C64.4396552,10.9558621 64.1886207,11.2068966 63.8793103,11.2068966 Z" id="Path" fill="#FFFFFF"></path>
                <path d="M61.637931,13.4482759 C61.3286207,13.4482759 61.0775862,13.1972414 61.0775862,12.887931 L61.0775862,8.40517241 C61.0775862,8.09586207 61.3286207,7.84482759 61.637931,7.84482759 C61.9472414,7.84482759 62.1982759,8.09586207 62.1982759,8.40517241 L62.1982759,12.887931 C62.1982759,13.1972414 61.9472414,13.4482759 61.637931,13.4482759 Z" id="Path" fill="#FFFFFF"></path>
                <g id="Group" transform="translate(19.051724, 22.413793)">
                    <path d="M10.0806034,18.8993103 C9.65025862,18.8993103 9.21991379,18.7356897 8.89155172,18.4073276 L1.36275862,10.8796552 C0.706034483,10.2240517 0.706034483,9.15939655 1.36275862,8.50267241 C2.01948276,7.84594828 3.08301724,7.84594828 3.73974138,8.50267241 L10.0794828,14.8424138 L23.154569,1.76732759 C23.8112931,1.11060345 24.8748276,1.11060345 25.5315517,1.76732759 C26.1882759,2.42293103 26.1882759,3.4887069 25.5315517,4.14431034 L11.2696552,18.4062069 C10.9412931,18.734569 10.5109483,18.8993103 10.0806034,18.8993103 Z" id="Path" fill="#FFFFFF"></path>
                    <path d="M10.0806034,19.4596552 C9.48215517,19.4596552 8.91956897,19.2265517 8.49594828,18.802931 L0.967155172,11.2752586 C0.543534483,10.8527586 0.310431034,10.2901724 0.310431034,9.69060345 C0.310431034,9.09215517 0.543534483,8.52956897 0.967155172,8.10594828 C1.81439655,7.2587069 3.28922414,7.2587069 4.13646552,8.10594828 L10.0806034,14.0489655 L22.7589655,1.37060345 C23.6062069,0.523362069 25.0810345,0.523362069 25.9282759,1.37060345 C26.3518966,1.79310345 26.585,2.35681034 26.585,2.95525862 C26.585,3.5537069 26.3518966,4.11741379 25.9282759,4.53991379 L11.6652586,18.802931 C11.2416379,19.2265517 10.6790517,19.4596552 10.0806034,19.4596552 Z M2.55181034,8.5687931 C2.25258621,8.5687931 1.9712931,8.68534483 1.75948276,8.89715517 C1.54767241,9.10896552 1.43112069,9.39025862 1.43112069,9.68948276 C1.43112069,9.9887069 1.54767241,10.27 1.75948276,10.4818103 L9.28827586,18.0094828 C9.71189655,18.4331034 10.4493103,18.4331034 10.872931,18.0094828 L25.137069,3.74646552 C25.3477586,3.53465517 25.465431,3.25336207 25.465431,2.95413793 C25.465431,2.65491379 25.3488793,2.37362069 25.137069,2.16181034 C24.6988793,1.72474138 23.9906034,1.72474138 23.5524138,2.16181034 L10.4773276,15.2368966 C10.2587931,15.455431 9.90353448,15.455431 9.685,15.2368966 L3.34525862,8.89715517 C3.13232759,8.68534483 2.85103448,8.5687931 2.55181034,8.5687931 Z" id="Shape" fill="#263238"></path>
                </g>
            </g>
        </g>
    </g>
</svg>