<?xml version="1.0" encoding="UTF-8"?>
<svg width="72px" height="72px" viewBox="0 0 72 72" version="1.1" xmlns="http://www.w3.org/2000/svg" xmlns:xlink="http://www.w3.org/1999/xlink">
    <title>approved@3x</title>
    <g id="5.-Pages" stroke="none" stroke-width="1" fill="none" fill-rule="evenodd">
        <g id="5.1.4-Transaction-Confirmed" transform="translate(-153.000000, -257.000000)" fill-rule="nonzero">
            <g id="popup" transform="translate(34.000000, 200.000000)">
                <g id="approved" transform="translate(118.692388, 57.000000)">
                    <path d="M1.24137931,36.6206897 C0.898758621,36.6206897 0.620689655,36.3426207 0.620689655,36 C0.620689655,16.4917241 16.4917241,0.620689655 36,0.620689655 C36.3426207,0.620689655 36.6206897,0.898758621 36.6206897,1.24137931 C36.6206897,1.584 36.3426207,1.86206897 36,1.86206897 C17.1757241,1.86206897 1.86206897,17.1757241 1.86206897,36 C1.86206897,36.3426207 1.584,36.6206897 1.24137931,36.6206897 Z" id="Path" fill="#263238"></path>
                    <path d="M39.7241379,1.86206897 L38.4827586,1.86206897 C38.1401379,1.86206897 37.862069,1.584 37.862069,1.24137931 C37.862069,0.898758621 38.1401379,0.620689655 38.4827586,0.620689655 L39.7241379,0.620689655 C40.0667586,0.620689655 40.3448276,0.898758621 40.3448276,1.24137931 C40.3448276,1.584 40.0667586,1.86206897 39.7241379,1.86206897 Z" id="Path" fill="#263238"></path>
                    <path d="M36,71.3793103 C35.6573793,71.3793103 35.3793103,71.1012414 35.3793103,70.7586207 C35.3793103,70.416 35.6573793,70.137931 36,70.137931 C54.8230345,70.137931 70.137931,54.8242759 70.137931,36 C70.137931,35.6573793 70.416,35.3793103 70.7586207,35.3793103 C71.1012414,35.3793103 71.3793103,35.6573793 71.3793103,36 C71.3793103,55.5082759 55.5082759,71.3793103 36,71.3793103 Z" id="Path" fill="#263238"></path>
                    <path d="M33.5172414,71.3793103 L32.2758621,71.3793103 C31.9332414,71.3793103 31.6551724,71.1012414 31.6551724,70.7586207 C31.6551724,70.416 31.9332414,70.137931 32.2758621,70.137931 L33.5172414,70.137931 C33.8598621,70.137931 34.137931,70.416 34.137931,70.7586207 C34.137931,71.1012414 33.8598621,71.3793103 33.5172414,71.3793103 Z" id="Path" fill="#263238"></path>
                    <path d="M36,66.4137931 C19.2302069,66.4137931 5.5862069,52.7697931 5.5862069,36 C5.5862069,19.2302069 19.2302069,5.5862069 36,5.5862069 C52.7710345,5.5862069 66.4137931,19.2302069 66.4137931,36 C66.4137931,52.7697931 52.7710345,66.4137931 36,66.4137931 Z M36,6.82758621 C19.9142069,6.82758621 6.82758621,19.9142069 6.82758621,36 C6.82758621,52.0857931 19.9142069,65.1724138 36,65.1724138 C52.0857931,65.1724138 65.1724138,52.0857931 65.1724138,36 C65.1724138,19.9142069 52.0857931,6.82758621 36,6.82758621 Z" id="Shape" fill="#263238"></path>
                    <g id="Group" transform="translate(12.413793, 12.413793)">
                        <path d="M23.5862069,1.24137931 C11.2456552,1.24137931 1.24137931,11.2456552 1.24137931,23.5862069 C1.24137931,35.9267586 11.2456552,45.9310345 23.5862069,45.9310345 C35.9267586,45.9310345 45.9310345,35.9267586 45.9310345,23.5862069 C45.9310345,11.2456552 35.9267586,1.24137931 23.5862069,1.24137931 Z" id="Path" fill="#4DB6AC"></path>
                        <path d="M23.5862069,46.5517241 C10.9228966,46.5517241 0.620689655,36.2495172 0.620689655,23.5862069 C0.620689655,10.9228966 10.9228966,0.620689655 23.5862069,0.620689655 C36.2495172,0.620689655 46.5517241,10.9228966 46.5517241,23.5862069 C46.5517241,36.2495172 36.2495172,46.5517241 23.5862069,46.5517241 Z M23.5862069,1.86206897 C11.6081379,1.86206897 1.86206897,11.6081379 1.86206897,23.5862069 C1.86206897,35.5642759 11.6081379,45.3103448 23.5862069,45.3103448 C35.5642759,45.3103448 45.3103448,35.5642759 45.3103448,23.5862069 C45.3103448,11.6081379 35.5642759,1.86206897 23.5862069,1.86206897 Z" id="Shape" fill="#263238"></path>
                    </g>
                    <path d="M62.0689655,4.34482759 L57.1034483,4.34482759 C56.7608276,4.34482759 56.4827586,4.06675862 56.4827586,3.72413793 C56.4827586,3.38151724 56.7608276,3.10344828 57.1034483,3.10344828 L62.0689655,3.10344828 C62.4115862,3.10344828 62.6896552,3.38151724 62.6896552,3.72413793 C62.6896552,4.06675862 62.4115862,4.34482759 62.0689655,4.34482759 Z" id="Path" fill="#263238"></path>
                    <path d="M59.5862069,6.82758621 C59.2435862,6.82758621 58.9655172,6.54951724 58.9655172,6.20689655 L58.9655172,1.24137931 C58.9655172,0.898758621 59.2435862,0.620689655 59.5862069,0.620689655 C59.9288276,0.620689655 60.2068966,0.898758621 60.2068966,1.24137931 L60.2068966,6.20689655 C60.2068966,6.54951724 59.9288276,6.82758621 59.5862069,6.82758621 Z" id="Path" fill="#263238"></path>
                    <path d="M70.7586207,12.4137931 L65.7931034,12.4137931 C65.4504828,12.4137931 65.1724138,12.1357241 65.1724138,11.7931034 C65.1724138,11.4504828 65.4504828,11.1724138 65.7931034,11.1724138 L70.7586207,11.1724138 C71.1012414,11.1724138 71.3793103,11.4504828 71.3793103,11.7931034 C71.3793103,12.1357241 71.1012414,12.4137931 70.7586207,12.4137931 Z" id="Path" fill="#263238"></path>
                    <path d="M68.2758621,14.8965517 C67.9332414,14.8965517 67.6551724,14.6184828 67.6551724,14.2758621 L67.6551724,9.31034483 C67.6551724,8.96772414 67.9332414,8.68965517 68.2758621,8.68965517 C68.6184828,8.68965517 68.8965517,8.96772414 68.8965517,9.31034483 L68.8965517,14.2758621 C68.8965517,14.6184828 68.6184828,14.8965517 68.2758621,14.8965517 Z" id="Path" fill="#263238"></path>
                    <g id="Group" transform="translate(21.103448, 24.827586)">
                        <path d="M11.1662069,20.9346207 C10.6895172,20.9346207 10.2128276,20.7533793 9.84910345,20.3896552 L1.50951724,12.0513103 C0.782068966,11.3251034 0.782068966,10.1457931 1.50951724,9.41834483 C2.23696552,8.69089655 3.41503448,8.69089655 4.14248276,9.41834483 L11.1649655,16.4408276 L25.6481379,1.95765517 C26.3755862,1.2302069 27.5536552,1.2302069 28.2811034,1.95765517 C29.0085517,2.68386207 29.0085517,3.86441379 28.2811034,4.59062069 L12.4833103,20.3884138 C12.1195862,20.7521379 11.6428966,20.9346207 11.1662069,20.9346207 Z" id="Path" fill="#FFFFFF"></path>
                        <path d="M11.1662069,21.5553103 C10.5033103,21.5553103 9.88013793,21.2971034 9.41089655,20.8278621 L1.07131034,12.4895172 C0.602068966,12.0215172 0.343862069,11.3983448 0.343862069,10.7342069 C0.343862069,10.0713103 0.602068966,9.44813793 1.07131034,8.97889655 C2.0097931,8.04041379 3.64344828,8.04041379 4.58193103,8.97889655 L11.1662069,15.561931 L25.209931,1.5182069 C26.1484138,0.579724138 27.782069,0.579724138 28.7205517,1.5182069 C29.1897931,1.9862069 29.448,2.61062069 29.448,3.27351724 C29.448,3.93641379 29.1897931,4.56082759 28.7205517,5.02882759 L12.9215172,20.8278621 C12.4522759,21.2971034 11.8291034,21.5553103 11.1662069,21.5553103 Z M2.82662069,9.49158621 C2.49517241,9.49158621 2.18358621,9.62068966 1.94896552,9.85531034 C1.71434483,10.089931 1.58524138,10.4015172 1.58524138,10.7329655 C1.58524138,11.0644138 1.71434483,11.376 1.94896552,11.6106207 L10.2885517,19.9489655 C10.7577931,20.4182069 11.5746207,20.4182069 12.0438621,19.9489655 L27.8441379,4.14993103 C28.0775172,3.91531034 28.2078621,3.60372414 28.2078621,3.27227586 C28.2078621,2.94082759 28.0787586,2.62924138 27.8441379,2.39462069 C27.3587586,1.91048276 26.5742069,1.91048276 26.0888276,2.39462069 L11.6056552,16.8777931 C11.3635862,17.1198621 10.970069,17.1198621 10.728,16.8777931 L3.70551724,9.85531034 C3.46965517,9.62068966 3.15806897,9.49158621 2.82662069,9.49158621 Z" id="Shape" fill="#263238"></path>
                    </g>
                </g>
            </g>
        </g>
    </g>
</svg>