<?xml version="1.0" encoding="UTF-8"?>
<svg width="6px" height="10px" viewBox="0 0 6 10" version="1.1" xmlns="http://www.w3.org/2000/svg" xmlns:xlink="http://www.w3.org/1999/xlink">
    <title>Path@3x</title>
    <g id="5.-Pages" stroke="none" stroke-width="1" fill="none" fill-rule="evenodd">
        <g id="5.6-Settings" transform="translate(-316.000000, -530.000000)" fill="#FFFFFF" fill-rule="nonzero">
            <g id="NOTIFICATIONS" transform="translate(31.000000, 441.000000)">
                <g id="Sounds" transform="translate(1.000000, 71.000000)">
                    <g id="Aurora" transform="translate(238.000000, 13.000000)">
                        <path d="M53.8377105,7.5 C53.7951562,7.5007668 53.754727,7.5178148 53.7256558,7.54729678 L48.9875357,12.1289601 L44.2776428,7.57024334 C44.2135562,7.51147243 44.1118801,7.51147243 44.0477935,7.57024334 C44.0172433,7.59833571 44,7.63697026 44,7.67732729 C44,7.71768433 44.0172433,7.75631888 44.0477935,7.78441124 L48.8705949,12.4540364 C48.9013554,12.4838044 48.9435911,12.5003797 48.9875357,12.4999295 C49.0304782,12.501232 49.0718231,12.4844268 49.1004441,12.4540364 L53.955505,7.76146468 C54.0163616,7.69965789 54.0145776,7.60321657 53.9514726,7.54347235 C53.9213101,7.51499355 53.8802648,7.4993254 53.8377105,7.5 Z" id="Path" transform="translate(49.000000, 10.000000) rotate(-90.000000) translate(-49.000000, -10.000000) "></path>
                    </g>
                </g>
            </g>
        </g>
    </g>
</svg>