<svg xmlns="http://www.w3.org/2000/svg" width="6" height="11" viewBox="0 0 6 11">
    <g fill="none" fill-rule="evenodd">
        <g fill="#000" fill-rule="nonzero">
            <g>
                <g>
                    <path d="M291.301 7.738c-.042 0-.083.018-.112.047l-4.738 4.582-4.71-4.559c-.064-.059-.166-.059-.23 0-.03.028-.047.067-.047.107 0 .04.017.08.047.107l4.823 4.67c.03.03.073.046.117.046.043.001.084-.016.113-.046l4.855-4.693c.06-.061.06-.158-.004-.218-.03-.028-.071-.044-.114-.043z" transform="translate(-316 -255) translate(31 104) translate(1.536 146) rotate(-90 286.464 10.238)"/>
                </g>
            </g>
        </g>
    </g>
</svg>
