<svg xmlns="http://www.w3.org/2000/svg" width="35" height="38" viewBox="0 0 35 38">
    <g fill="none" fill-rule="evenodd">
        <g fill-rule="nonzero">
            <g>
                <g>
                    <g>
                        <g>
                            <path fill="#40C4FF" d="M.625.628l1.261 1.63c2.932 3.788 4.277 8.577 3.75 13.348l-.011.1.2-.27c2.4-3.216 7.2-3.216 9.6 0l.2.27c0-8.328-6.716-15.078-15-15.078z" transform="translate(-47 -207) translate(0 74) translate(32 122) translate(15 11) translate(16.875)"/>
                            <path fill="#263238" d="M5.625 16.02c-.039 0-.077-.008-.116-.023-.13-.052-.21-.186-.195-.327l.012-.099c.52-4.715-.788-9.375-3.686-13.12L.379.82C.306.726.292.598.344.49.397.382.506.314.625.314c8.444 0 15.313 6.905 15.313 15.391 0 .135-.087.255-.214.298-.127.043-.269-.001-.349-.11l-.2-.268c-1.084-1.453-2.743-2.287-4.55-2.287s-3.466.834-4.55 2.287l-.2.269c-.06.08-.154.125-.25.125zm5-3.31c1.8 0 3.466.745 4.659 2.063C14.817 7.28 8.764 1.287 1.275.957l.857 1.108C4.94 5.692 6.306 10.15 6.027 14.707c1.189-1.277 2.83-1.997 4.599-1.997z" transform="translate(-47 -207) translate(0 74) translate(32 122) translate(15 11) translate(16.875)"/>
                        </g>
                        <path fill="#263238" d="M29.95 11.84c-.13 0-.252-.083-.296-.214-1.27-3.814-4.295-6.856-8.09-8.135-.163-.055-.25-.233-.196-.398.055-.164.233-.252.396-.198 3.98 1.342 7.15 4.531 8.483 8.532.055.165-.033.342-.196.398-.034.01-.067.015-.1.015z" transform="translate(-47 -207) translate(0 74) translate(32 122) translate(15 11)"/>
                        <g>
                            <path fill="#40C4FF" d="M.625 15.705l.2-.268c2.4-3.217 7.2-3.217 9.6 0l.2.268-.01-.098c-.528-4.771.817-9.56 3.75-13.349l1.26-1.63c-8.284 0-15 6.75-15 15.077z" transform="translate(-47 -207) translate(0 74) translate(32 122) translate(15 11) translate(1.875)"/>
                            <path fill="#263238" d="M10.625 16.02c-.096 0-.19-.045-.25-.126l-.2-.269c-1.084-1.453-2.743-2.287-4.55-2.287-1.806 0-3.465.834-4.549 2.287l-.202.269c-.08.108-.22.152-.348.109-.127-.043-.214-.163-.214-.298C.313 7.22 7.183.315 15.626.315c.12 0 .228.068.28.175.053.107.04.236-.034.331l-1.261 1.63c-2.898 3.744-4.207 8.404-3.686 13.12l.012.099c.015.14-.065.275-.195.327-.038.015-.077.022-.116.022zM14.975.956C7.485 1.287 1.433 7.28.966 14.773c1.193-1.317 2.86-2.063 4.659-2.063 1.77 0 3.41.72 4.598 1.997-.28-4.558 1.087-9.015 3.894-12.642l.858-1.108z" transform="translate(-47 -207) translate(0 74) translate(32 122) translate(15 11) translate(1.875)"/>
                        </g>
                        <g>
                            <path fill="#FFF" d="M6.886 2.258L5.625.628l-1.261 1.63C1.432 6.046.087 10.835.614 15.606l.011.1.2-.27c2.4-3.216 7.2-3.216 9.6 0l.2.27.01-.1c.528-4.77-.817-9.559-3.749-13.348z" transform="translate(-47 -207) translate(0 74) translate(32 122) translate(15 11) translate(11.875)"/>
                            <path fill="#263238" d="M10.625 16.02c-.097 0-.19-.046-.25-.126l-.2-.269c-1.084-1.453-2.743-2.287-4.55-2.287-1.806 0-3.465.834-4.549 2.287l-.202.269c-.077.103-.207.148-.332.114-.123-.034-.214-.14-.228-.268l-.01-.099c-.54-4.88.815-9.701 3.813-13.576L5.38.435c.118-.152.375-.152.493 0l1.261 1.63c2.999 3.875 4.354 8.696 3.814 13.576l-.01.1c-.014.127-.106.234-.229.268-.028.006-.056.01-.083.01zm-5-3.31c1.853 0 3.564.79 4.763 2.181.329-4.482-.99-8.875-3.749-12.44L5.625 1.14 4.611 2.45C1.85 6.016.533 10.41.86 14.892c1.2-1.392 2.912-2.18 4.764-2.18z" transform="translate(-47 -207) translate(0 74) translate(32 122) translate(15 11) translate(11.875)"/>
                        </g>
                        <path fill="#263238" d="M15.625 37.378c-1.723 0-3.125-1.409-3.125-3.14v-1.885c0-.174.14-.315.313-.315h1.874c.173 0 .313.141.313.315v1.884c0 .346.28.628.625.628s.625-.282.625-.628v-1.884c0-.174.14-.315.313-.315h1.875c.172 0 .312.141.312.315v1.884c0 1.732-1.402 3.141-3.125 3.141zm-2.5-4.711v1.57c0 1.386 1.121 2.513 2.5 2.513s2.5-1.127 2.5-2.513v-1.57h-1.25v1.57c0 .693-.56 1.257-1.25 1.257s-1.25-.564-1.25-1.257v-1.57h-1.25z" transform="translate(-47 -207) translate(0 74) translate(32 122) translate(15 11)"/>
                        <g transform="translate(-47 -207) translate(0 74) translate(32 122) translate(15 11) translate(11.875 17.59)">
                            <ellipse cx="5.625" cy="5.811" fill="#FFD740" rx="5" ry="5.026"/>
                            <path fill="#263238" d="M5.625 11.15c-2.93 0-5.313-2.395-5.313-5.34C.313 2.868 2.696.472 5.625.472c2.93 0 5.313 2.395 5.313 5.34 0 2.944-2.384 5.34-5.313 5.34zm0-10.05C3.04 1.1.937 3.212.937 5.81c0 2.6 2.103 4.712 4.688 4.712 2.585 0 4.688-2.113 4.688-4.711 0-2.598-2.103-4.712-4.688-4.712z"/>
                        </g>
                        <path fill="#263238" d="M16.875 17.433c-.172 0-.313-.141-.313-.314v-2.67c0-.174.14-.314.313-.314.172 0 .313.14.313.314v2.67c0 .173-.14.314-.313.314zM18.125 17.433c-.172 0-.313-.141-.313-.314v-2.67c0-.174.14-.314.313-.314.172 0 .313.14.313.314v2.67c0 .173-.14.314-.313.314zM18.125 32.667c-.172 0-.313-.141-.313-.314V29.84c0-.174.14-.314.313-.314.172 0 .313.14.313.314v2.513c0 .173-.14.314-.313.314zM16.875 32.667c-.172 0-.313-.141-.313-.314V29.84c0-.174.14-.314.313-.314.172 0 .313.14.313.314v2.513c0 .173-.14.314-.313.314zM17.5 22.144c-.172 0-.313-.14-.313-.314v-.942c0-.174.14-.314.313-.314.172 0 .313.14.313.314v.942c0 .174-.14.314-.313.314zM17.5 26.228c-.172 0-.313-.141-.313-.315v-.942c0-.173.14-.314.313-.314.172 0 .313.14.313.314v.942c0 .174-.14.315-.313.315z" transform="translate(-47 -207) translate(0 74) translate(32 122) translate(15 11)"/>
                        <path fill="#263238" d="M17.969 25.285H16.25c-.172 0-.313-.14-.313-.314 0-.173.14-.314.313-.314h1.719c.258 0 .468-.211.468-.471s-.21-.471-.468-.471h-.938c-.603 0-1.093-.493-1.093-1.1 0-.606.49-1.099 1.093-1.099h1.407c.172 0 .312.14.312.314s-.14.314-.313.314h-1.406c-.258 0-.468.211-.468.471s.21.472.468.472h.938c.603 0 1.093.493 1.093 1.099s-.49 1.1-1.093 1.1zM1.25 27.013H.625c-.172 0-.313-.14-.313-.314s.14-.314.313-.314h.625c.173 0 .313.14.313.314 0 .173-.14.314-.313.314zM9.375 27.013H2.5c-.172 0-.313-.14-.313-.314s.14-.314.313-.314h6.875c.172 0 .313.14.313.314 0 .173-.14.314-.313.314zM11.875 28.897H3.75c-.172 0-.313-.14-.313-.314 0-.173.14-.314.313-.314h8.125c.172 0 .313.14.313.314s-.14.314-.313.314zM34.375 27.013h-.625c-.172 0-.313-.14-.313-.314s.14-.314.313-.314h.625c.172 0 .313.14.313.314 0 .173-.14.314-.313.314zM32.5 27.013h-6.875c-.172 0-.313-.14-.313-.314s.14-.314.313-.314H32.5c.172 0 .313.14.313.314 0 .173-.14.314-.313.314zM31.25 28.897h-8.125c-.172 0-.313-.14-.313-.314 0-.173.14-.314.313-.314h8.125c.172 0 .313.14.313.314s-.14.314-.313.314z" transform="translate(-47 -207) translate(0 74) translate(32 122) translate(15 11)"/>
                    </g>
                </g>
            </g>
        </g>
    </g>
</svg>
