<?xml version="1.0" encoding="UTF-8"?>
<svg width="35px" height="38px" viewBox="0 0 35 38" version="1.1" xmlns="http://www.w3.org/2000/svg" xmlns:xlink="http://www.w3.org/1999/xlink">
    <title>withdraw icon@3x</title>
    <g id="2.-Home" stroke="none" stroke-width="1" fill="none" fill-rule="evenodd">
        <g id="2.0-Home" transform="translate(-47.000000, -207.000000)" fill-rule="nonzero">
            <g id="TOP-SECTION" transform="translate(0.000000, 74.000000)">
                <g id="BIG-BUTTONS" transform="translate(32.000000, 122.000000)">
                    <g id="assets-protection" transform="translate(15.000000, 11.000000)">
                        <g id="Group" transform="translate(16.875000, 0.000000)">
                            <path d="M0.625,0.628205128 L1.88625,2.25776923 C4.818125,6.04647436 6.163125,10.8352821 5.63625,15.6058718 L5.625,15.7051282 L5.825,15.4368846 C8.225,12.2204744 13.025,12.2204744 15.425,15.4368846 L15.625,15.7051282 C15.625,7.37826923 8.909375,0.628205128 0.625,0.628205128 Z" id="Path" fill="#40C4FF"></path>
                            <path d="M5.625,16.0192308 C5.58625,16.0192308 5.5475,16.0123205 5.509375,15.9972436 C5.37875,15.9451026 5.29875,15.8112949 5.314375,15.6699487 L5.325625,15.5713205 C5.846875,10.8560128 4.5375,6.19598718 1.64,2.45062821 L0.37875,0.821064103 C0.305625,0.726205128 0.291875,0.598051282 0.344375,0.49 C0.396875,0.381948718 0.505625,0.314102564 0.625,0.314102564 C9.06875,0.314102564 15.9375,7.21870513 15.9375,15.7051282 C15.9375,15.8401923 15.85125,15.9601795 15.72375,16.0028974 C15.596875,16.0456154 15.455,16.001641 15.375,15.8935897 L15.175,15.6253462 C14.090625,14.1723077 12.431875,13.3380513 10.625,13.3380513 C8.818125,13.3380513 7.159375,14.1716795 6.075625,15.6247179 L5.874375,15.8935897 C5.815,15.9746282 5.720625,16.0192308 5.625,16.0192308 Z M10.625,12.7104744 C12.424375,12.7104744 14.090625,13.4548974 15.28375,14.7728718 C14.816875,7.28089744 8.764375,1.2865641 1.275,0.95675641 L2.1325,2.06491026 C4.939375,5.69216667 6.30625,10.1499103 6.02625,14.7069103 C7.215,13.4303974 8.855625,12.7104744 10.625,12.7104744 Z" id="Shape" fill="#FFFFFF"></path>
                        </g>
                        <path d="M29.950625,11.8404103 C29.82,11.8404103 29.698125,11.7574872 29.65375,11.6261923 C28.383125,7.81173077 25.35875,4.76996154 21.564375,3.4909359 C21.400625,3.43565385 21.313125,3.25787179 21.368125,3.09328205 C21.4225,2.92869231 21.60125,2.84137179 21.76375,2.89539744 C25.743125,4.23724359 28.914375,7.42601282 30.246875,11.4270513 C30.301875,11.591641 30.21375,11.7694231 30.050625,11.8247051 C30.016875,11.8353846 29.98375,11.8404103 29.950625,11.8404103 Z" id="Path" fill="#FFFFFF"></path>
                        <g id="Group" transform="translate(1.875000, 0.000000)">
                            <path d="M0.625,15.7051282 L0.825,15.4368846 C3.225,12.2204744 8.025,12.2204744 10.425,15.4368846 L10.625,15.7051282 L10.614375,15.6065 C10.086875,10.8359103 11.4325,6.04710256 14.364375,2.25839744 L15.625,0.628205128 C7.340625,0.628205128 0.625,7.37826923 0.625,15.7051282 Z" id="Path" fill="#40C4FF"></path>
                            <path d="M10.625,16.019307 C10.529375,16.019307 10.435,15.9746282 10.375625,15.8935897 L10.175625,15.6253462 C9.09125,14.1723077 7.4325,13.3380513 5.625625,13.3380513 C3.81875,13.3380513 2.16,14.1716795 1.07625,15.6247179 L0.874375,15.8935897 C0.79375,16.001641 0.653125,16.0462436 0.525625,16.0028974 C0.39875,15.9601795 0.3125,15.8401923 0.3125,15.7051282 C0.3125,7.21870513 7.18125,0.314102564 15.625,0.314102564 C15.744375,0.314102564 15.853125,0.382576923 15.905625,0.49 C15.958125,0.597423077 15.944375,0.726205128 15.87125,0.821064103 L14.61,2.45062821 C11.711875,6.19535897 10.403125,10.8553846 10.924375,15.5713205 L10.935625,15.6699487 C10.950625,15.8106667 10.870625,15.9451026 10.740625,15.9972436 C10.7025,16.0123205 10.66375,16.019307 10.625,16.019307 Z M14.975,0.95675641 C7.485625,1.2865641 1.433125,7.28089744 0.96625,14.7728718 C2.159375,13.4555256 3.825625,12.7104744 5.625,12.7104744 C7.394375,12.7104744 9.035,13.4303974 10.223125,14.7069103 C9.94375,10.1492821 11.31,5.69216667 14.116875,2.06491026 L14.975,0.95675641 Z" id="Shape" fill="#FFFFFF"></path>
                        </g>
                        <g id="Group" transform="translate(11.875000, 0.000000)" fill="#FFFFFF">
                            <path d="M6.88625,2.25776923 L5.625,0.628205128 L4.36375,2.25776923 C1.431875,6.04647436 0.086875,10.8352821 0.61375,15.6058718 L0.625,15.7051282 L0.825,15.4368846 C3.225,12.2204744 8.025,12.2204744 10.425,15.4368846 L10.625,15.7051282 L10.635625,15.6065 C11.163125,10.8359103 9.818125,6.04710256 6.88625,2.25776923 Z" id="Path"></path>
                            <path d="M10.625,16.0192308 C10.528125,16.0192308 10.435,15.974 10.375625,15.8935897 L10.175625,15.6253462 C9.09125,14.1723077 7.4325,13.3380513 5.625625,13.3380513 C3.81875,13.3380513 2.16,14.1716795 1.07625,15.6247179 L0.874375,15.8935897 C0.7975,15.9966154 0.6675,16.0418462 0.5425,16.0079231 C0.419375,15.974 0.328125,15.8678333 0.314375,15.7396795 L0.303125,15.6410513 C-0.23625,10.7611538 1.11875,5.93967949 4.1175,2.06491026 L5.37875,0.435346154 C5.496875,0.282692308 5.75375,0.282692308 5.871875,0.435346154 L7.133125,2.06491026 C10.131875,5.93967949 11.486875,10.7611538 10.9475,15.6410513 L10.93625,15.7403077 C10.9225,15.8684615 10.83125,15.9746282 10.708125,16.0085513 C10.68,16.0154615 10.6525,16.0192308 10.625,16.0192308 Z M5.625,12.7104744 C7.4775,12.7104744 9.18875,13.4995 10.388125,14.8909744 C10.716875,10.409359 9.398125,6.01569231 6.639375,2.45062821 L6.639375,2.45062821 L5.625,1.1395641 L4.610625,2.45062821 C1.851875,6.0150641 0.533125,10.4087308 0.861875,14.8909744 C2.060625,13.4995 3.7725,12.7104744 5.625,12.7104744 Z" id="Shape"></path>
                        </g>
                        <path d="M15.625,37.3782051 C13.901875,37.3782051 12.5,35.969141 12.5,34.2371795 L12.5,32.3525641 C12.5,32.1791795 12.64,32.0384615 12.8125,32.0384615 L14.6875,32.0384615 C14.86,32.0384615 15,32.1791795 15,32.3525641 L15,34.2371795 C15,34.5833205 15.28,34.8653846 15.625,34.8653846 C15.97,34.8653846 16.25,34.5833205 16.25,34.2371795 L16.25,32.3525641 C16.25,32.1791795 16.39,32.0384615 16.5625,32.0384615 L18.4375,32.0384615 C18.61,32.0384615 18.75,32.1791795 18.75,32.3525641 L18.75,34.2371795 C18.75,35.969141 17.348125,37.3782051 15.625,37.3782051 Z M13.125,32.6666667 L13.125,34.2371795 C13.125,35.623 14.24625,36.75 15.625,36.75 C17.00375,36.75 18.125,35.623 18.125,34.2371795 L18.125,32.6666667 L16.875,32.6666667 L16.875,34.2371795 C16.875,34.9300897 16.314375,35.4935897 15.625,35.4935897 C14.935625,35.4935897 14.375,34.9300897 14.375,34.2371795 L14.375,32.6666667 L13.125,32.6666667 Z" id="Shape" fill="#FFFFFF"></path>
                        <g id="Group" transform="translate(11.875000, 17.589744)">
                            <ellipse id="Oval" fill="#FFD740" cx="5.625" cy="5.81089744" rx="5" ry="5.02564103"></ellipse>
                            <path d="M5.625,11.150641 C2.695625,11.150641 0.3125,8.75529487 0.3125,5.81089744 C0.3125,2.8665 2.695625,0.471153846 5.625,0.471153846 C8.554375,0.471153846 10.9375,2.8665 10.9375,5.81089744 C10.9375,8.75529487 8.554375,11.150641 5.625,11.150641 Z M5.625,1.09935897 C3.04,1.09935897 0.9375,3.21264103 0.9375,5.81089744 C0.9375,8.40915385 3.04,10.5224359 5.625,10.5224359 C8.21,10.5224359 10.3125,8.40915385 10.3125,5.81089744 C10.3125,3.21264103 8.21,1.09935897 5.625,1.09935897 Z" id="Shape" fill="#FFFFFF"></path>
                        </g>
                        <path d="M16.875,17.4326923 C16.7025,17.4326923 16.5625,17.2919744 16.5625,17.1185897 L16.5625,14.4487179 C16.5625,14.2753333 16.7025,14.1346154 16.875,14.1346154 C17.0475,14.1346154 17.1875,14.2753333 17.1875,14.4487179 L17.1875,17.1185897 C17.1875,17.2919744 17.0475,17.4326923 16.875,17.4326923 Z" id="Path" fill="#FFFFFF"></path>
                        <path d="M18.125,17.4326923 C17.9525,17.4326923 17.8125,17.2919744 17.8125,17.1185897 L17.8125,14.4487179 C17.8125,14.2753333 17.9525,14.1346154 18.125,14.1346154 C18.2975,14.1346154 18.4375,14.2753333 18.4375,14.4487179 L18.4375,17.1185897 C18.4375,17.2919744 18.2975,17.4326923 18.125,17.4326923 Z" id="Path" fill="#FFFFFF"></path>
                        <path d="M18.125,32.6666667 C17.9525,32.6666667 17.8125,32.5259487 17.8125,32.3525641 L17.8125,29.8397436 C17.8125,29.666359 17.9525,29.525641 18.125,29.525641 C18.2975,29.525641 18.4375,29.666359 18.4375,29.8397436 L18.4375,32.3525641 C18.4375,32.5259487 18.2975,32.6666667 18.125,32.6666667 Z" id="Path" fill="#FFFFFF"></path>
                        <path d="M16.875,32.6666667 C16.7025,32.6666667 16.5625,32.5259487 16.5625,32.3525641 L16.5625,29.8397436 C16.5625,29.666359 16.7025,29.525641 16.875,29.525641 C17.0475,29.525641 17.1875,29.666359 17.1875,29.8397436 L17.1875,32.3525641 C17.1875,32.5259487 17.0475,32.6666667 16.875,32.6666667 Z" id="Path" fill="#FFFFFF"></path>
                        <path d="M17.5,22.1442308 C17.3275,22.1442308 17.1875,22.0035128 17.1875,21.8301282 L17.1875,20.8878205 C17.1875,20.7144359 17.3275,20.5737179 17.5,20.5737179 C17.6725,20.5737179 17.8125,20.7144359 17.8125,20.8878205 L17.8125,21.8301282 C17.8125,22.0035128 17.6725,22.1442308 17.5,22.1442308 Z" id="Path" fill="#263238"></path>
                        <path d="M17.5,26.2275641 C17.3275,26.2275641 17.1875,26.0868462 17.1875,25.9134615 L17.1875,24.9711538 C17.1875,24.7977692 17.3275,24.6570513 17.5,24.6570513 C17.6725,24.6570513 17.8125,24.7977692 17.8125,24.9711538 L17.8125,25.9134615 C17.8125,26.0868462 17.6725,26.2275641 17.5,26.2275641 Z" id="Path" fill="#263238"></path>
                        <path d="M17.96875,25.2852564 L16.25,25.2852564 C16.0775,25.2852564 15.9375,25.1445385 15.9375,24.9711538 C15.9375,24.7977692 16.0775,24.6570513 16.25,24.6570513 L17.96875,24.6570513 C18.226875,24.6570513 18.4375,24.4459744 18.4375,24.1858974 C18.4375,23.9258205 18.226875,23.7147436 17.96875,23.7147436 L17.03125,23.7147436 C16.428125,23.7147436 15.9375,23.2216026 15.9375,22.6153846 C15.9375,22.0091667 16.428125,21.5160256 17.03125,21.5160256 L18.4375,21.5160256 C18.61,21.5160256 18.75,21.6567436 18.75,21.8301282 C18.75,22.0035128 18.61,22.1442308 18.4375,22.1442308 L17.03125,22.1442308 C16.773125,22.1442308 16.5625,22.3553077 16.5625,22.6153846 C16.5625,22.8754615 16.773125,23.0865385 17.03125,23.0865385 L17.96875,23.0865385 C18.571875,23.0865385 19.0625,23.5796795 19.0625,24.1858974 C19.0625,24.7921154 18.571875,25.2852564 17.96875,25.2852564 Z" id="Path" fill="#263238"></path>
                        <path d="M1.25,27.0128205 L0.625,27.0128205 C0.4525,27.0128205 0.3125,26.8721026 0.3125,26.6987179 C0.3125,26.5253333 0.4525,26.3846154 0.625,26.3846154 L1.25,26.3846154 C1.4225,26.3846154 1.5625,26.5253333 1.5625,26.6987179 C1.5625,26.8721026 1.4225,27.0128205 1.25,27.0128205 Z" id="Path" fill="#FFFFFF"></path>
                        <path d="M9.375,27.0128205 L2.5,27.0128205 C2.3275,27.0128205 2.1875,26.8721026 2.1875,26.6987179 C2.1875,26.5253333 2.3275,26.3846154 2.5,26.3846154 L9.375,26.3846154 C9.5475,26.3846154 9.6875,26.5253333 9.6875,26.6987179 C9.6875,26.8721026 9.5475,27.0128205 9.375,27.0128205 Z" id="Path" fill="#FFFFFF"></path>
                        <path d="M11.875,28.8974359 L3.75,28.8974359 C3.5775,28.8974359 3.4375,28.7567179 3.4375,28.5833333 C3.4375,28.4099487 3.5775,28.2692308 3.75,28.2692308 L11.875,28.2692308 C12.0475,28.2692308 12.1875,28.4099487 12.1875,28.5833333 C12.1875,28.7567179 12.0475,28.8974359 11.875,28.8974359 Z" id="Path" fill="#FFFFFF"></path>
                        <path d="M34.375,27.0128205 L33.75,27.0128205 C33.5775,27.0128205 33.4375,26.8721026 33.4375,26.6987179 C33.4375,26.5253333 33.5775,26.3846154 33.75,26.3846154 L34.375,26.3846154 C34.5475,26.3846154 34.6875,26.5253333 34.6875,26.6987179 C34.6875,26.8721026 34.5475,27.0128205 34.375,27.0128205 Z" id="Path" fill="#FFFFFF"></path>
                        <path d="M32.5,27.0128205 L25.625,27.0128205 C25.4525,27.0128205 25.3125,26.8721026 25.3125,26.6987179 C25.3125,26.5253333 25.4525,26.3846154 25.625,26.3846154 L32.5,26.3846154 C32.6725,26.3846154 32.8125,26.5253333 32.8125,26.6987179 C32.8125,26.8721026 32.6725,27.0128205 32.5,27.0128205 Z" id="Path" fill="#FFFFFF"></path>
                        <path d="M31.25,28.8974359 L23.125,28.8974359 C22.9525,28.8974359 22.8125,28.7567179 22.8125,28.5833333 C22.8125,28.4099487 22.9525,28.2692308 23.125,28.2692308 L31.25,28.2692308 C31.4225,28.2692308 31.5625,28.4099487 31.5625,28.5833333 C31.5625,28.7567179 31.4225,28.8974359 31.25,28.8974359 Z" id="Path" fill="#FFFFFF"></path>
                    </g>
                </g>
            </g>
        </g>
    </g>
</svg>