<?xml version="1.0" encoding="UTF-8"?>
<svg width="20px" height="19px" viewBox="0 0 20 19" version="1.1" xmlns="http://www.w3.org/2000/svg" xmlns:xlink="http://www.w3.org/1999/xlink">
    <title>bills icon@3x</title>
    <g id="5.-Pages" stroke="none" stroke-width="1" fill="none" fill-rule="evenodd">
        <g id="5.4-Waiting-bills" transform="translate(-32.000000, -108.000000)" fill-rule="nonzero">
            <g id="Top-Profile-image" transform="translate(0.000000, 76.000000)">
                <g id="bills" transform="translate(32.000000, 32.000000)">
                    <path d="M16.8269231,0.285 C16.8269231,0.59964 16.5684615,0.855 16.25,0.855 C15.9315385,0.855 15.6730769,0.59964 15.6730769,0.285 L14.5192308,0.285 C14.5192308,0.59964 14.2607692,0.855 13.9423077,0.855 C13.6238462,0.855 13.3653846,0.59964 13.3653846,0.285 L12.2115385,0.285 C12.2115385,0.59964 11.9530769,0.855 11.6346154,0.855 C11.3161538,0.855 11.0576923,0.59964 11.0576923,0.285 L9.90384615,0.285 C9.90384615,0.59964 9.64538462,0.855 9.32692308,0.855 C9.00846154,0.855 8.75,0.59964 8.75,0.285 L7.59615385,0.285 L7.59615385,3.325 L8.55769231,3.325 C8.78730769,3.325 8.99346154,3.42456 9.13461538,3.58226 C9.27576923,3.42418 9.48192308,3.325 9.71153846,3.325 L10.8653846,3.325 C11.095,3.325 11.3011538,3.42456 11.4423077,3.58226 C11.5834615,3.42418 11.7896154,3.325 12.0192308,3.325 L13.1730769,3.325 C13.5980769,3.325 13.9423077,3.6651 13.9423077,4.085 L13.9423077,5.225 L15.6730769,5.225 C16.2042308,5.225 16.6346154,5.65022 16.6346154,6.175 L16.6346154,11.115 C16.6346154,11.63978 16.2042308,12.065 15.6730769,12.065 L13.9423077,12.065 L13.9423077,14.345 C14.2607692,14.345 14.5192308,14.60036 14.5192308,14.915 L15.6730769,14.915 C15.6730769,14.60036 15.9315385,14.345 16.25,14.345 C16.5684615,14.345 16.8269231,14.60036 16.8269231,14.915 L17.9807692,14.915 L17.9807692,0.285 L16.8269231,0.285 Z" id="Path" fill="#4DB6AC"></path>
                    <path d="M13.1730769,18.905 L12.0192308,18.905 C11.9130769,18.905 11.8269231,18.81988 11.8269231,18.715 C11.8269231,18.50562 11.6542308,18.335 11.4423077,18.335 C11.2303846,18.335 11.0576923,18.50562 11.0576923,18.715 C11.0576923,18.81988 10.9715385,18.905 10.8653846,18.905 L9.71153846,18.905 C9.60538462,18.905 9.51923077,18.81988 9.51923077,18.715 C9.51923077,18.50562 9.34653846,18.335 9.13461538,18.335 C8.92269231,18.335 8.75,18.50562 8.75,18.715 C8.75,18.81988 8.66384615,18.905 8.55769231,18.905 L7.40384615,18.905 C7.29769231,18.905 7.21153846,18.81988 7.21153846,18.715 C7.21153846,18.50562 7.03884615,18.335 6.82692308,18.335 C6.615,18.335 6.44230769,18.50562 6.44230769,18.715 C6.44230769,18.81988 6.35615385,18.905 6.25,18.905 L5.09615385,18.905 C4.99,18.905 4.90384615,18.81988 4.90384615,18.715 C4.90384615,18.50562 4.73115385,18.335 4.51923077,18.335 C4.30730769,18.335 4.13461538,18.50562 4.13461538,18.715 C4.13461538,18.81988 4.04846154,18.905 3.94230769,18.905 L2.78846154,18.905 C2.68230769,18.905 2.59615385,18.81988 2.59615385,18.715 L2.59615385,4.085 C2.59615385,3.98012 2.68230769,3.895 2.78846154,3.895 L3.94230769,3.895 C4.04846154,3.895 4.13461538,3.98012 4.13461538,4.085 C4.13461538,4.29438 4.30730769,4.465 4.51923077,4.465 C4.73115385,4.465 4.90384615,4.29438 4.90384615,4.085 C4.90384615,3.98012 4.99,3.895 5.09615385,3.895 L6.25,3.895 C6.35615385,3.895 6.44230769,3.98012 6.44230769,4.085 C6.44230769,4.29438 6.615,4.465 6.82692308,4.465 C7.03884615,4.465 7.21153846,4.29438 7.21153846,4.085 C7.21153846,3.98012 7.29769231,3.895 7.40384615,3.895 L8.55769231,3.895 C8.66384615,3.895 8.75,3.98012 8.75,4.085 C8.75,4.29438 8.92269231,4.465 9.13461538,4.465 C9.34653846,4.465 9.51923077,4.29438 9.51923077,4.085 C9.51923077,3.98012 9.60538462,3.895 9.71153846,3.895 L10.8653846,3.895 C10.9715385,3.895 11.0576923,3.98012 11.0576923,4.085 C11.0576923,4.29438 11.2303846,4.465 11.4423077,4.465 C11.6542308,4.465 11.8269231,4.29438 11.8269231,4.085 C11.8269231,3.98012 11.9130769,3.895 12.0192308,3.895 L13.1730769,3.895 C13.2792308,3.895 13.3653846,3.98012 13.3653846,4.085 L13.3653846,18.715 C13.3653846,18.81988 13.2792308,18.905 13.1730769,18.905 Z M12.1873077,18.525 L12.9807692,18.525 L12.9807692,4.275 L12.1873077,4.275 C12.1019231,4.60256 11.8003846,4.845 11.4423077,4.845 C11.0842308,4.845 10.7830769,4.60256 10.6973077,4.275 L9.87923077,4.275 C9.79384615,4.60256 9.49230769,4.845 9.13423077,4.845 C8.77615385,4.845 8.475,4.60256 8.38923077,4.275 L7.57115385,4.275 C7.48576923,4.60256 7.18423077,4.845 6.82615385,4.845 C6.46807692,4.845 6.16692308,4.60256 6.08115385,4.275 L5.26307692,4.275 C5.17769231,4.60256 4.87615385,4.845 4.51807692,4.845 C4.16,4.845 3.85884615,4.60256 3.77307692,4.275 L2.98076923,4.275 L2.98076923,18.525 L3.77423077,18.525 C3.85961538,18.19744 4.16115385,17.955 4.51923077,17.955 C4.87730769,17.955 5.17846154,18.19744 5.26423077,18.525 L6.08230769,18.525 C6.16769231,18.19744 6.46923077,17.955 6.82730769,17.955 C7.18538462,17.955 7.48653846,18.19744 7.57230769,18.525 L8.39038462,18.525 C8.47576923,18.19744 8.77730769,17.955 9.13538462,17.955 C9.49346154,17.955 9.79461538,18.19744 9.88038462,18.525 L10.6984615,18.525 C10.7838462,18.19744 11.0853846,17.955 11.4434615,17.955 C11.8015385,17.955 12.1015385,18.19744 12.1873077,18.525 Z" id="Shape" fill="#FFFFFF"></path>
                    <path d="M17.9807692,15.105 L16.8269231,15.105 C16.7207692,15.105 16.6346154,15.01988 16.6346154,14.915 C16.6346154,14.70562 16.4619231,14.535 16.25,14.535 C16.0380769,14.535 15.8653846,14.70562 15.8653846,14.915 C15.8653846,15.01988 15.7792308,15.105 15.6730769,15.105 L14.5192308,15.105 C14.4130769,15.105 14.3269231,15.01988 14.3269231,14.915 C14.3269231,14.70562 14.1542308,14.535 13.9423077,14.535 C13.8361538,14.535 13.75,14.44988 13.75,14.345 C13.75,14.24012 13.8361538,14.155 13.9423077,14.155 C14.3,14.155 14.6015385,14.39744 14.6873077,14.725 L15.5053846,14.725 C15.5907692,14.39744 15.8923077,14.155 16.2503846,14.155 C16.6084615,14.155 16.9096154,14.39744 16.9953846,14.725 L17.7888462,14.725 L17.7888462,0.475 L16.9953846,0.475 C16.91,0.80256 16.6084615,1.045 16.2503846,1.045 C15.8923077,1.045 15.5911538,0.80256 15.5053846,0.475 L14.6873077,0.475 C14.6019231,0.80256 14.3003846,1.045 13.9423077,1.045 C13.5842308,1.045 13.2830769,0.80256 13.1973077,0.475 L12.3792308,0.475 C12.2938462,0.80256 11.9923077,1.045 11.6342308,1.045 C11.2761538,1.045 10.975,0.80256 10.8892308,0.475 L10.0711538,0.475 C9.98576923,0.80256 9.68423077,1.045 9.32615385,1.045 C8.96807692,1.045 8.66692308,0.80256 8.58115385,0.475 L7.78846154,0.475 L7.78846154,3.325 C7.78846154,3.42988 7.70230769,3.515 7.59615385,3.515 C7.49,3.515 7.40384615,3.42988 7.40384615,3.325 L7.40384615,0.285 C7.40384615,0.18012 7.49,0.095 7.59615385,0.095 L8.75,0.095 C8.85615385,0.095 8.94230769,0.18012 8.94230769,0.285 C8.94230769,0.49438 9.115,0.665 9.32692308,0.665 C9.53884615,0.665 9.71153846,0.49438 9.71153846,0.285 C9.71153846,0.18012 9.79769231,0.095 9.90384615,0.095 L11.0576923,0.095 C11.1638462,0.095 11.25,0.18012 11.25,0.285 C11.25,0.49438 11.4226923,0.665 11.6346154,0.665 C11.8465385,0.665 12.0192308,0.49438 12.0192308,0.285 C12.0192308,0.18012 12.1053846,0.095 12.2115385,0.095 L13.3653846,0.095 C13.4715385,0.095 13.5576923,0.18012 13.5576923,0.285 C13.5576923,0.49438 13.7303846,0.665 13.9423077,0.665 C14.1542308,0.665 14.3269231,0.49438 14.3269231,0.285 C14.3269231,0.18012 14.4130769,0.095 14.5192308,0.095 L15.6730769,0.095 C15.7792308,0.095 15.8653846,0.18012 15.8653846,0.285 C15.8653846,0.49438 16.0380769,0.665 16.25,0.665 C16.4619231,0.665 16.6346154,0.49438 16.6346154,0.285 C16.6346154,0.18012 16.7207692,0.095 16.8269231,0.095 L17.9807692,0.095 C18.0869231,0.095 18.1730769,0.18012 18.1730769,0.285 L18.1730769,14.915 C18.1730769,15.01988 18.0869231,15.105 17.9807692,15.105 Z" id="Path" fill="#FFFFFF"></path>
                    <g id="Group" transform="translate(10.000000, 5.700000)">
                        <path d="M5.48076923,5.605 L0.865384615,5.605 C0.653076923,5.605 0.480769231,5.43476 0.480769231,5.225 L0.480769231,0.665 C0.480769231,0.45524 0.653076923,0.285 0.865384615,0.285 L5.48076923,0.285 C5.69307692,0.285 5.86538462,0.45524 5.86538462,0.665 L5.86538462,5.225 C5.86538462,5.43476 5.69307692,5.605 5.48076923,5.605 Z" id="Path" fill="#FFD740"></path>
                        <path d="M5.48076923,5.795 L0.865384615,5.795 C0.547307692,5.795 0.288461538,5.53926 0.288461538,5.225 L0.288461538,0.665 C0.288461538,0.35074 0.547307692,0.095 0.865384615,0.095 L5.48076923,0.095 C5.79884615,0.095 6.05769231,0.35074 6.05769231,0.665 L6.05769231,5.225 C6.05769231,5.53926 5.79884615,5.795 5.48076923,5.795 Z M0.865384615,0.475 C0.759230769,0.475 0.673076923,0.56012 0.673076923,0.665 L0.673076923,5.225 C0.673076923,5.32988 0.759230769,5.415 0.865384615,5.415 L5.48076923,5.415 C5.58692308,5.415 5.67307692,5.32988 5.67307692,5.225 L5.67307692,0.665 C5.67307692,0.56012 5.58692308,0.475 5.48076923,0.475 L0.865384615,0.475 Z" id="Shape" fill="#FFFFFF"></path>
                    </g>
                    <path d="M13.1730769,7.885 C13.0669231,7.885 12.9807692,7.79988 12.9807692,7.695 L12.9807692,7.125 C12.9807692,7.02012 13.0669231,6.935 13.1730769,6.935 C13.2792308,6.935 13.3653846,7.02012 13.3653846,7.125 L13.3653846,7.695 C13.3653846,7.79988 13.2792308,7.885 13.1730769,7.885 Z" id="Path" fill="#263238"></path>
                    <path d="M13.1730769,10.355 C13.0669231,10.355 12.9807692,10.26988 12.9807692,10.165 L12.9807692,9.595 C12.9807692,9.49012 13.0669231,9.405 13.1730769,9.405 C13.2792308,9.405 13.3653846,9.49012 13.3653846,9.595 L13.3653846,10.165 C13.3653846,10.26988 13.2792308,10.355 13.1730769,10.355 Z" id="Path" fill="#263238"></path>
                    <path d="M13.4615385,9.785 L12.4038462,9.785 C12.2976923,9.785 12.2115385,9.69988 12.2115385,9.595 C12.2115385,9.49012 12.2976923,9.405 12.4038462,9.405 L13.4615385,9.405 C13.6207692,9.405 13.75,9.27732 13.75,9.12 C13.75,8.96268 13.6207692,8.835 13.4615385,8.835 L12.8846154,8.835 C12.5134615,8.835 12.2115385,8.5367 12.2115385,8.17 C12.2115385,7.8033 12.5134615,7.505 12.8846154,7.505 L13.75,7.505 C13.8561538,7.505 13.9423077,7.59012 13.9423077,7.695 C13.9423077,7.79988 13.8561538,7.885 13.75,7.885 L12.8846154,7.885 C12.7253846,7.885 12.5961538,8.01268 12.5961538,8.17 C12.5961538,8.32732 12.7253846,8.455 12.8846154,8.455 L13.4615385,8.455 C13.8326923,8.455 14.1346154,8.7533 14.1346154,9.12 C14.1346154,9.4867 13.8326923,9.785 13.4615385,9.785 Z" id="Path" fill="#263238"></path>
                    <path d="M6.73076923,8.075 L4.71153846,8.075 C4.60538462,8.075 4.51923077,7.98988 4.51923077,7.885 C4.51923077,7.78012 4.60538462,7.695 4.71153846,7.695 L6.73076923,7.695 C6.83692308,7.695 6.92307692,7.78012 6.92307692,7.885 C6.92307692,7.98988 6.83692308,8.075 6.73076923,8.075 Z" id="Path" fill="#FFFFFF"></path>
                    <path d="M6.73076923,9.595 L4.71153846,9.595 C4.60538462,9.595 4.51923077,9.50988 4.51923077,9.405 C4.51923077,9.30012 4.60538462,9.215 4.71153846,9.215 L6.73076923,9.215 C6.83692308,9.215 6.92307692,9.30012 6.92307692,9.405 C6.92307692,9.50988 6.83692308,9.595 6.73076923,9.595 Z" id="Path" fill="#FFFFFF"></path>
                    <path d="M6.73076923,11.115 L4.71153846,11.115 C4.60538462,11.115 4.51923077,11.02988 4.51923077,10.925 C4.51923077,10.82012 4.60538462,10.735 4.71153846,10.735 L6.73076923,10.735 C6.83692308,10.735 6.92307692,10.82012 6.92307692,10.925 C6.92307692,11.02988 6.83692308,11.115 6.73076923,11.115 Z" id="Path" fill="#FFFFFF"></path>
                    <path d="M10.5769231,13.015 L4.71153846,13.015 C4.60538462,13.015 4.51923077,12.92988 4.51923077,12.825 C4.51923077,12.72012 4.60538462,12.635 4.71153846,12.635 L10.5769231,12.635 C10.6830769,12.635 10.7692308,12.72012 10.7692308,12.825 C10.7692308,12.92988 10.6830769,13.015 10.5769231,13.015 Z" id="Path" fill="#FFFFFF"></path>
                    <path d="M8.55769231,15.675 L4.71153846,15.675 C4.60538462,15.675 4.51923077,15.58988 4.51923077,15.485 L4.51923077,13.965 C4.51923077,13.86012 4.60538462,13.775 4.71153846,13.775 L8.55769231,13.775 C8.66384615,13.775 8.75,13.86012 8.75,13.965 L8.75,15.485 C8.75,15.58988 8.66384615,15.675 8.55769231,15.675 Z M4.90384615,15.295 L8.36538462,15.295 L8.36538462,14.155 L4.90384615,14.155 L4.90384615,15.295 Z" id="Shape" fill="#FFFFFF"></path>
                    <path d="M0.673076923,2.375 L0.288461538,2.375 C0.182307692,2.375 0.0961538462,2.28988 0.0961538462,2.185 C0.0961538462,2.08012 0.182307692,1.995 0.288461538,1.995 L0.673076923,1.995 C0.779230769,1.995 0.865384615,2.08012 0.865384615,2.185 C0.865384615,2.28988 0.779230769,2.375 0.673076923,2.375 Z" id="Path" fill="#FFFFFF"></path>
                    <path d="M5.67307692,2.375 L1.44230769,2.375 C1.33615385,2.375 1.25,2.28988 1.25,2.185 C1.25,2.08012 1.33615385,1.995 1.44230769,1.995 L5.67307692,1.995 C5.77923077,1.995 5.86538462,2.08012 5.86538462,2.185 C5.86538462,2.28988 5.77923077,2.375 5.67307692,2.375 Z" id="Path" fill="#FFFFFF"></path>
                    <path d="M19.7115385,17.005 L19.3269231,17.005 C19.2207692,17.005 19.1346154,16.91988 19.1346154,16.815 C19.1346154,16.71012 19.2207692,16.625 19.3269231,16.625 L19.7115385,16.625 C19.8176923,16.625 19.9038462,16.71012 19.9038462,16.815 C19.9038462,16.91988 19.8176923,17.005 19.7115385,17.005 Z" id="Path" fill="#FFFFFF"></path>
                    <path d="M18.5576923,17.005 L14.3269231,17.005 C14.2207692,17.005 14.1346154,16.91988 14.1346154,16.815 C14.1346154,16.71012 14.2207692,16.625 14.3269231,16.625 L18.5576923,16.625 C18.6638462,16.625 18.75,16.71012 18.75,16.815 C18.75,16.91988 18.6638462,17.005 18.5576923,17.005 Z" id="Path" fill="#FFFFFF"></path>
                </g>
            </g>
        </g>
    </g>
</svg>