<?xml version="1.0" encoding="UTF-8"?>
<svg width="35px" height="35px" viewBox="0 0 35 35" version="1.1" xmlns="http://www.w3.org/2000/svg" xmlns:xlink="http://www.w3.org/1999/xlink">
    <title>Send icon@3x</title>
    <g id="2.-Home" stroke="none" stroke-width="1" fill="none" fill-rule="evenodd">
        <g id="2.0-Home" transform="translate(-128.000000, -209.000000)" fill-rule="nonzero">
            <g id="TOP-SECTION" transform="translate(0.000000, 74.000000)">
                <g id="BIG-BUTTONS" transform="translate(32.000000, 122.000000)">
                    <g id="Send" transform="translate(81.000000, 0.000000)">
                        <g id="budget-balance" transform="translate(15.000000, 13.000000)">
                            <path d="M0.603448276,17.8017241 C0.436896552,17.8017241 0.301724138,17.6665517 0.301724138,17.5 C0.301724138,8.01681034 8.01681034,0.301724138 17.5,0.301724138 C17.6665517,0.301724138 17.8017241,0.436896552 17.8017241,0.603448276 C17.8017241,0.77 17.6665517,0.905172414 17.5,0.905172414 C8.34931034,0.905172414 0.905172414,8.34931034 0.905172414,17.5 C0.905172414,17.6665517 0.77,17.8017241 0.603448276,17.8017241 Z" id="Path" fill="#FFFFFF"></path>
                            <path d="M19.3103448,0.905172414 L18.7068966,0.905172414 C18.5403448,0.905172414 18.4051724,0.77 18.4051724,0.603448276 C18.4051724,0.436896552 18.5403448,0.301724138 18.7068966,0.301724138 L19.3103448,0.301724138 C19.4768966,0.301724138 19.612069,0.436896552 19.612069,0.603448276 C19.612069,0.77 19.4768966,0.905172414 19.3103448,0.905172414 Z" id="Path" fill="#FFFFFF"></path>
                            <path d="M17.5,34.6982759 C17.3334483,34.6982759 17.1982759,34.5631034 17.1982759,34.3965517 C17.1982759,34.23 17.3334483,34.0948276 17.5,34.0948276 C26.6500862,34.0948276 34.0948276,26.6506897 34.0948276,17.5 C34.0948276,17.3334483 34.23,17.1982759 34.3965517,17.1982759 C34.5631034,17.1982759 34.6982759,17.3334483 34.6982759,17.5 C34.6982759,26.9831897 26.9831897,34.6982759 17.5,34.6982759 Z" id="Path" fill="#FFFFFF"></path>
                            <path d="M16.2931034,34.6982759 L15.6896552,34.6982759 C15.5231034,34.6982759 15.387931,34.5631034 15.387931,34.3965517 C15.387931,34.23 15.5231034,34.0948276 15.6896552,34.0948276 L16.2931034,34.0948276 C16.4596552,34.0948276 16.5948276,34.23 16.5948276,34.3965517 C16.5948276,34.5631034 16.4596552,34.6982759 16.2931034,34.6982759 Z" id="Path" fill="#FFFFFF"></path>
                            <g id="Group" transform="translate(9.051724, 9.051724)">
                                <path d="M8.44827586,16.5948276 C3.94896552,16.5948276 0.301724138,12.9475862 0.301724138,8.44827586 C0.301724138,3.94896552 3.94896552,0.301724138 8.44827586,0.301724138 C12.9475862,0.301724138 16.5948276,3.94896552 16.5948276,8.44827586 C16.5948276,12.9475862 12.9475862,16.5948276 8.44827586,16.5948276 Z" id="Path" fill="#FFD740"></path>
                                <path d="M8.44827586,16.8965517 C3.78965517,16.8965517 0,13.1068966 0,8.44827586 C0,3.78965517 3.78965517,0 8.44827586,0 C13.1068966,0 16.8965517,3.78965517 16.8965517,8.44827586 C16.8965517,13.1068966 13.1068966,16.8965517 8.44827586,16.8965517 Z M8.44827586,0.603448276 C4.12275862,0.603448276 0.603448276,4.12275862 0.603448276,8.44827586 C0.603448276,12.7737931 4.12275862,16.2931034 8.44827586,16.2931034 C12.7737931,16.2931034 16.2931034,12.7737931 16.2931034,8.44827586 C16.2931034,4.12275862 12.7737931,0.603448276 8.44827586,0.603448276 Z" id="Shape" fill="#263238"></path>
                            </g>
                            <path d="M30.1724138,2.11206897 L27.7586207,2.11206897 C27.592069,2.11206897 27.4568966,1.97689655 27.4568966,1.81034483 C27.4568966,1.6437931 27.592069,1.50862069 27.7586207,1.50862069 L30.1724138,1.50862069 C30.3389655,1.50862069 30.4741379,1.6437931 30.4741379,1.81034483 C30.4741379,1.97689655 30.3389655,2.11206897 30.1724138,2.11206897 Z" id="Path" fill="#FFFFFF"></path>
                            <path d="M28.9655172,3.31896552 C28.7989655,3.31896552 28.6637931,3.1837931 28.6637931,3.01724138 L28.6637931,0.603448276 C28.6637931,0.436896552 28.7989655,0.301724138 28.9655172,0.301724138 C29.132069,0.301724138 29.2672414,0.436896552 29.2672414,0.603448276 L29.2672414,3.01724138 C29.2672414,3.1837931 29.132069,3.31896552 28.9655172,3.31896552 Z" id="Path" fill="#FFFFFF"></path>
                            <path d="M34.3965517,6.03448276 L31.9827586,6.03448276 C31.8162069,6.03448276 31.6810345,5.89931034 31.6810345,5.73275862 C31.6810345,5.5662069 31.8162069,5.43103448 31.9827586,5.43103448 L34.3965517,5.43103448 C34.5631034,5.43103448 34.6982759,5.5662069 34.6982759,5.73275862 C34.6982759,5.89931034 34.5631034,6.03448276 34.3965517,6.03448276 Z" id="Path" fill="#FFFFFF"></path>
                            <path d="M33.1896552,7.24137931 C33.0231034,7.24137931 32.887931,7.1062069 32.887931,6.93965517 L32.887931,4.52586207 C32.887931,4.35931034 33.0231034,4.22413793 33.1896552,4.22413793 C33.3562069,4.22413793 33.4913793,4.35931034 33.4913793,4.52586207 L33.4913793,6.93965517 C33.4913793,7.1062069 33.3562069,7.24137931 33.1896552,7.24137931 Z" id="Path" fill="#FFFFFF"></path>
                            <g id="Group" transform="translate(13.275862, 11.465517)">
                                <path d="M5.43103448,5.12931034 L3.01724138,5.12931034 C2.51818966,5.12931034 2.11206897,4.72318966 2.11206897,4.22413793 C2.11206897,3.72508621 2.51818966,3.31896552 3.01724138,3.31896552 L6.93965517,3.31896552 L6.93965517,1.50862069 L5.12931034,1.50862069 L5.12931034,0.301724138 L3.31896552,0.301724138 L3.31896552,1.50862069 L3.01724138,1.50862069 C1.52008621,1.50862069 0.301724138,2.72698276 0.301724138,4.22413793 C0.301724138,5.7212931 1.52008621,6.93965517 3.01724138,6.93965517 L5.43103448,6.93965517 C5.93008621,6.93965517 6.3362069,7.34577586 6.3362069,7.84482759 C6.3362069,8.34387931 5.93008621,8.75 5.43103448,8.75 L1.20689655,8.75 L1.20689655,10.5603448 L3.31896552,10.5603448 L3.31896552,11.7672414 L5.12931034,11.7672414 L5.12931034,10.5603448 L5.43103448,10.5603448 C6.92818966,10.5603448 8.14655172,9.34198276 8.14655172,7.84482759 C8.14655172,6.34767241 6.92818966,5.12931034 5.43103448,5.12931034 Z" id="Path" fill="#FFFFFF"></path>
                                <path d="M5.12931034,12.0689655 L3.31896552,12.0689655 C3.15241379,12.0689655 3.01724138,11.9337931 3.01724138,11.7672414 L3.01724138,10.862069 L1.20689655,10.862069 C1.04034483,10.862069 0.905172414,10.7268966 0.905172414,10.5603448 L0.905172414,8.75 C0.905172414,8.58344828 1.04034483,8.44827586 1.20689655,8.44827586 L5.43103448,8.44827586 C5.76413793,8.44827586 6.03448276,8.17732759 6.03448276,7.84482759 C6.03448276,7.51232759 5.76413793,7.24137931 5.43103448,7.24137931 L3.01724138,7.24137931 C1.35353448,7.24137931 0,5.88784483 0,4.22413793 C0,2.56043103 1.35353448,1.20689655 3.01724138,1.20689655 L3.01724138,0.301724138 C3.01724138,0.135172414 3.15241379,0 3.31896552,0 L5.12931034,0 C5.29586207,0 5.43103448,0.135172414 5.43103448,0.301724138 L5.43103448,1.20689655 L6.93965517,1.20689655 C7.1062069,1.20689655 7.24137931,1.34206897 7.24137931,1.50862069 L7.24137931,3.31896552 C7.24137931,3.48551724 7.1062069,3.62068966 6.93965517,3.62068966 L3.01724138,3.62068966 C2.68474138,3.62068966 2.4137931,3.89163793 2.4137931,4.22413793 C2.4137931,4.55663793 2.68474138,4.82758621 3.01724138,4.82758621 L5.43103448,4.82758621 C7.09474138,4.82758621 8.44827586,6.18112069 8.44827586,7.84482759 C8.44827586,9.50853448 7.09474138,10.862069 5.43103448,10.862069 L5.43103448,11.7672414 C5.43103448,11.9337931 5.29586207,12.0689655 5.12931034,12.0689655 Z M3.62068966,11.4655172 L4.82758621,11.4655172 L4.82758621,10.5603448 C4.82758621,10.3937931 4.96275862,10.2586207 5.12931034,10.2586207 L5.43103448,10.2586207 C6.76224138,10.2586207 7.84482759,9.17603448 7.84482759,7.84482759 C7.84482759,6.51362069 6.76224138,5.43103448 5.43103448,5.43103448 L3.01724138,5.43103448 C2.35163793,5.43103448 1.81034483,4.88974138 1.81034483,4.22413793 C1.81034483,3.55853448 2.35163793,3.01724138 3.01724138,3.01724138 L6.63793103,3.01724138 L6.63793103,1.81034483 L5.12931034,1.81034483 C4.96275862,1.81034483 4.82758621,1.67517241 4.82758621,1.50862069 L4.82758621,0.603448276 L3.62068966,0.603448276 L3.62068966,1.50862069 C3.62068966,1.67517241 3.48551724,1.81034483 3.31896552,1.81034483 L3.01724138,1.81034483 C1.68603448,1.81034483 0.603448276,2.89293103 0.603448276,4.22413793 C0.603448276,5.55534483 1.68603448,6.63793103 3.01724138,6.63793103 L5.43103448,6.63793103 C6.09663793,6.63793103 6.63793103,7.17922414 6.63793103,7.84482759 C6.63793103,8.51043103 6.09663793,9.05172414 5.43103448,9.05172414 L1.50862069,9.05172414 L1.50862069,10.2586207 L3.31896552,10.2586207 C3.48551724,10.2586207 3.62068966,10.3937931 3.62068966,10.5603448 L3.62068966,11.4655172 Z" id="Shape" fill="#000000"></path>
                            </g>
                            <g id="Group" transform="translate(2.413793, 2.413793)">
                                <path d="M15.0862069,3.62068966 L15.0862069,0.603448276 C7.0875,0.603448276 0.603448276,7.0875 0.603448276,15.0862069 L3.62068966,15.0862069 C3.62068966,8.75422414 8.75422414,3.62068966 15.0862069,3.62068966 Z" id="Path" fill="#FF5252"></path>
                                <path d="M3.62068966,15.387931 L0.603448276,15.387931 C0.436896552,15.387931 0.301724138,15.2527586 0.301724138,15.0862069 C0.301724138,6.93422414 6.93422414,0.301724138 15.0862069,0.301724138 C15.2527586,0.301724138 15.387931,0.436896552 15.387931,0.603448276 L15.387931,3.62068966 C15.387931,3.78724138 15.2527586,3.92241379 15.0862069,3.92241379 C8.93043103,3.92241379 3.92241379,8.93043103 3.92241379,15.0862069 C3.92241379,15.2527586 3.78724138,15.387931 3.62068966,15.387931 Z M0.908189655,14.7844828 L3.32258621,14.7844828 C3.48068966,8.53577586 8.53517241,3.4812931 14.7844828,3.32258621 L14.7844828,0.908189655 C7.20396552,1.0675 1.0675,7.20396552 0.908189655,14.7844828 Z" id="Shape" fill="#FFFFFF"></path>
                            </g>
                            <path d="M31.9827586,17.8017241 L28.9655172,17.8017241 C28.7989655,17.8017241 28.6637931,17.6665517 28.6637931,17.5 C28.6637931,11.3442241 23.6557759,6.3362069 17.5,6.3362069 C17.3334483,6.3362069 17.1982759,6.20103448 17.1982759,6.03448276 L17.1982759,3.01724138 C17.1982759,2.85068966 17.3334483,2.71551724 17.5,2.71551724 C25.6525862,2.71551724 32.2844828,9.34801724 32.2844828,17.5 C32.2844828,17.6665517 32.1493103,17.8017241 31.9827586,17.8017241 Z M29.2636207,17.1982759 L31.6780172,17.1982759 C31.5187069,9.61775862 25.3822414,3.4812931 17.8017241,3.32198276 L17.8017241,5.73637931 C24.050431,5.89508621 29.1049138,10.949569 29.2636207,17.1982759 Z" id="Shape" fill="#FFFFFF"></path>
                            <g id="Group" transform="translate(16.896552, 16.896552)">
                                <path d="M0.603448276,12.0689655 L0.603448276,15.0862069 C8.60215517,15.0862069 15.0862069,8.60215517 15.0862069,0.603448276 L12.0689655,0.603448276 C12.0689655,6.93543103 6.93543103,12.0689655 0.603448276,12.0689655 Z" id="Path" fill="#40C4FF"></path>
                                <path d="M0.603448276,15.387931 C0.436896552,15.387931 0.301724138,15.2527586 0.301724138,15.0862069 L0.301724138,12.0689655 C0.301724138,11.9024138 0.436896552,11.7672414 0.603448276,11.7672414 C6.75922414,11.7672414 11.7672414,6.75922414 11.7672414,0.603448276 C11.7672414,0.436896552 11.9024138,0.301724138 12.0689655,0.301724138 L15.0862069,0.301724138 C15.2527586,0.301724138 15.387931,0.436896552 15.387931,0.603448276 C15.387931,8.75543103 8.75603448,15.387931 0.603448276,15.387931 Z M0.905172414,12.367069 L0.905172414,14.7814655 C8.48568966,14.6221552 14.6221552,8.48568966 14.7814655,0.905172414 L12.367069,0.905172414 C12.2083621,7.15387931 7.15387931,12.2083621 0.905172414,12.367069 Z" id="Shape" fill="#FFFFFF"></path>
                            </g>
                            <path d="M17.5,32.2844828 C9.34801724,32.2844828 2.71551724,25.6519828 2.71551724,17.5 C2.71551724,17.3334483 2.85068966,17.1982759 3.01724138,17.1982759 L6.03448276,17.1982759 C6.20103448,17.1982759 6.3362069,17.3334483 6.3362069,17.5 C6.3362069,23.6557759 11.3442241,28.6637931 17.5,28.6637931 C17.6665517,28.6637931 17.8017241,28.7989655 17.8017241,28.9655172 L17.8017241,31.9827586 C17.8017241,32.1493103 17.6665517,32.2844828 17.5,32.2844828 Z M3.32198276,17.8017241 C3.4812931,25.3822414 9.61775862,31.5187069 17.1982759,31.6780172 L17.1982759,29.2636207 C10.949569,29.1049138 5.89508621,24.050431 5.73637931,17.8017241 L3.32198276,17.8017241 Z" id="Shape" fill="#FFFFFF"></path>
                        </g>
                    </g>
                </g>
            </g>
        </g>
    </g>
</svg>