<svg xmlns="http://www.w3.org/2000/svg" width="35" height="35" viewBox="0 0 35 35">
    <g fill="none" fill-rule="evenodd">
        <g fill-rule="nonzero">
            <g>
                <g>
                    <g>
                        <g>
                            <path fill="#263238" d="M.603 17.802c-.166 0-.301-.135-.301-.302C.302 8.017 8.017.302 17.5.302c.167 0 .302.135.302.301 0 .167-.135.302-.302.302C8.35.905.905 8.35.905 17.5c0 .167-.135.302-.302.302zM19.31.905h-.603c-.167 0-.302-.135-.302-.302 0-.166.135-.301.302-.301h.603c.167 0 .302.135.302.301 0 .167-.135.302-.302.302zM17.5 34.698c-.167 0-.302-.135-.302-.301 0-.167.135-.302.302-.302 9.15 0 16.595-7.444 16.595-16.595 0-.167.135-.302.302-.302.166 0 .301.135.301.302 0 9.483-7.715 17.198-17.198 17.198zM16.293 34.698h-.603c-.167 0-.302-.135-.302-.301 0-.167.135-.302.302-.302h.603c.167 0 .302.135.302.302 0 .166-.135.301-.302.301z" transform="translate(-128 -209) translate(0 74) translate(32 122) translate(81) translate(15 13)"/>
                            <g>
                                <path fill="#FFD740" d="M8.448 16.595c-4.499 0-8.146-3.647-8.146-8.147C.302 3.95 3.949.302 8.448.302c4.5 0 8.147 3.647 8.147 8.146 0 4.5-3.647 8.147-8.147 8.147z" transform="translate(-128 -209) translate(0 74) translate(32 122) translate(81) translate(15 13) translate(9.052 9.052)"/>
                                <path fill="#263238" d="M8.448 16.897C3.79 16.897 0 13.107 0 8.448 0 3.79 3.79 0 8.448 0c4.659 0 8.449 3.79 8.449 8.448 0 4.659-3.79 8.449-8.449 8.449zm0-16.294C4.123.603.603 4.123.603 8.448c0 4.326 3.52 7.845 7.845 7.845 4.326 0 7.845-3.52 7.845-7.845 0-4.325-3.52-7.845-7.845-7.845z" transform="translate(-128 -209) translate(0 74) translate(32 122) translate(81) translate(15 13) translate(9.052 9.052)"/>
                            </g>
                            <path fill="#263238" d="M30.172 2.112H27.76c-.167 0-.302-.135-.302-.302 0-.166.135-.301.302-.301h2.413c.167 0 .302.135.302.301 0 .167-.135.302-.302.302z" transform="translate(-128 -209) translate(0 74) translate(32 122) translate(81) translate(15 13)"/>
                            <path fill="#263238" d="M28.966 3.319c-.167 0-.302-.135-.302-.302V.603c0-.166.135-.301.302-.301.166 0 .301.135.301.301v2.414c0 .167-.135.302-.301.302zM34.397 6.034h-2.414c-.167 0-.302-.135-.302-.301 0-.167.135-.302.302-.302h2.414c.166 0 .301.135.301.302 0 .166-.135.301-.301.301z" transform="translate(-128 -209) translate(0 74) translate(32 122) translate(81) translate(15 13)"/>
                            <path fill="#263238" d="M33.19 7.241c-.167 0-.302-.135-.302-.301V4.526c0-.167.135-.302.302-.302.166 0 .301.135.301.302V6.94c0 .166-.135.301-.301.301z" transform="translate(-128 -209) translate(0 74) translate(32 122) translate(81) translate(15 13)"/>
                            <g>
                                <path fill="#FFF" d="M5.431 5.13H3.017c-.499 0-.905-.407-.905-.906 0-.499.406-.905.905-.905H6.94v-1.81H5.13V.302H3.318v1.207h-.302C1.52 1.509.302 2.727.302 4.224c0 1.497 1.218 2.716 2.715 2.716h2.414c.5 0 .905.406.905.905s-.406.905-.905.905H1.207v1.81h2.112v1.207h1.81V10.56h.302c1.497 0 2.716-1.218 2.716-2.715 0-1.497-1.219-2.716-2.716-2.716z" transform="translate(-128 -209) translate(0 74) translate(32 122) translate(81) translate(15 13) translate(13.276 11.466)"/>
                                <path fill="#263238" d="M5.13 12.069H3.318c-.167 0-.302-.135-.302-.302v-.905h-1.81c-.167 0-.302-.135-.302-.302V8.75c0-.167.135-.302.302-.302H5.43c.333 0 .603-.27.603-.603 0-.333-.27-.604-.603-.604H3.017C1.354 7.241 0 5.888 0 4.224s1.354-3.017 3.017-3.017V.302c0-.167.135-.302.302-.302h1.81c.167 0 .302.135.302.302v.905H6.94c.166 0 .301.135.301.302v1.81c0 .167-.135.302-.301.302H3.017c-.332 0-.603.27-.603.603 0 .333.27.604.603.604h2.414c1.664 0 3.017 1.353 3.017 3.017s-1.353 3.017-3.017 3.017v.905c0 .167-.135.302-.302.302zm-1.51-.603h1.208v-.906c0-.166.135-.301.301-.301h.302c1.331 0 2.414-1.083 2.414-2.414 0-1.331-1.083-2.414-2.414-2.414H3.017c-.665 0-1.207-.541-1.207-1.207 0-.665.542-1.207 1.207-1.207h3.62V1.81H5.13c-.166 0-.301-.135-.301-.301V.603H3.62v.906c0 .166-.135.301-.302.301h-.302C1.686 1.81.603 2.893.603 4.224c0 1.331 1.083 2.414 2.414 2.414h2.414c.666 0 1.207.541 1.207 1.207 0 .665-.541 1.207-1.207 1.207H1.509v1.207h1.81c.167 0 .302.135.302.301v.906z" transform="translate(-128 -209) translate(0 74) translate(32 122) translate(81) translate(15 13) translate(13.276 11.466)"/>
                            </g>
                            <g>
                                <path fill="#FF5252" d="M15.086 3.62V.604C7.088.603.603 7.088.603 15.086h3.018c0-6.332 5.133-11.465 11.465-11.465z" transform="translate(-128 -209) translate(0 74) translate(32 122) translate(81) translate(15 13) translate(2.414 2.414)"/>
                                <path fill="#263238" d="M3.62 15.388H.604c-.166 0-.301-.135-.301-.302C.302 6.934 6.934.302 15.086.302c.167 0 .302.135.302.301v3.018c0 .166-.135.301-.302.301-6.156 0-11.164 5.008-11.164 11.164 0 .167-.135.302-.301.302zm-2.712-.604h2.415C3.48 8.536 8.535 3.481 14.784 3.323V.908C7.204 1.068 1.067 7.204.908 14.784z" transform="translate(-128 -209) translate(0 74) translate(32 122) translate(81) translate(15 13) translate(2.414 2.414)"/>
                            </g>
                            <path fill="#263238" d="M31.983 17.802h-3.017c-.167 0-.302-.135-.302-.302 0-6.156-5.008-11.164-11.164-11.164-.167 0-.302-.135-.302-.302V3.017c0-.166.135-.301.302-.301 8.153 0 14.784 6.632 14.784 14.784 0 .167-.135.302-.301.302zm-2.72-.604h2.415c-.16-7.58-6.296-13.717-13.876-13.876v2.414c6.248.16 11.303 5.214 11.462 11.462z" transform="translate(-128 -209) translate(0 74) translate(32 122) translate(81) translate(15 13)"/>
                            <g>
                                <path fill="#40C4FF" d="M.603 12.069v3.017c8 0 14.483-6.484 14.483-14.483H12.07c0 6.332-5.134 11.466-11.466 11.466z" transform="translate(-128 -209) translate(0 74) translate(32 122) translate(81) translate(15 13) translate(16.897 16.897)"/>
                                <path fill="#263238" d="M.603 15.388c-.166 0-.301-.135-.301-.302V12.07c0-.167.135-.302.301-.302 6.156 0 11.164-5.008 11.164-11.164 0-.166.135-.301.302-.301h3.017c.167 0 .302.135.302.301 0 8.152-6.632 14.785-14.785 14.785zm.302-3.02v2.413c7.58-.159 13.717-6.295 13.876-13.876h-2.414C12.208 7.154 7.154 12.208.905 12.367z" transform="translate(-128 -209) translate(0 74) translate(32 122) translate(81) translate(15 13) translate(16.897 16.897)"/>
                            </g>
                            <path fill="#263238" d="M17.5 32.284c-8.152 0-14.784-6.632-14.784-14.784 0-.167.135-.302.301-.302h3.017c.167 0 .302.135.302.302 0 6.156 5.008 11.164 11.164 11.164.167 0 .302.135.302.302v3.017c0 .166-.135.301-.302.301zM3.322 17.802c.16 7.58 6.296 13.717 13.876 13.876v-2.414c-6.248-.16-11.303-5.214-11.462-11.462H3.322z" transform="translate(-128 -209) translate(0 74) translate(32 122) translate(81) translate(15 13)"/>
                        </g>
                    </g>
                </g>
            </g>
        </g>
    </g>
</svg>
