<?xml version="1.0" encoding="UTF-8"?>
<svg width="22px" height="21px" viewBox="0 0 22 21" version="1.1" xmlns="http://www.w3.org/2000/svg" xmlns:xlink="http://www.w3.org/1999/xlink">
    <title>card@3x</title>
    <g id="5.-Pages" stroke="none" stroke-width="1" fill="none" fill-rule="evenodd">
        <g id="5.0-All-Pages" transform="translate(-250.000000, -756.000000)">
            <g id="Footer-Menu" transform="translate(0.000000, 711.000000)">
                <g id="My-Cards" transform="translate(243.000000, 42.300000)">
                    <g id="card" transform="translate(6.000000, 0.000000)">
                        <polygon id="Path_14675" points="0 0 24 0 24 24 0 24"></polygon>
                        <path d="M1.24137931,20.6896552 C1.24137931,20.4624101 1.42462427,20.27768 1.65186207,20.2758621 L22.3481379,20.2758621 C22.5766696,20.2758621 22.761931,20.4611236 22.761931,20.6896552 C22.761931,20.9181868 22.5766696,21.1034483 22.3481379,21.1034483 L1.65186207,21.1034483 C1.42528131,21.1000781 1.24292946,20.9162557 1.24137931,20.6896552 Z M1.24137931,22.3448276 C1.24137931,22.1175825 1.42462427,21.9328524 1.65186207,21.9310345 L22.3481379,21.9310345 C22.5766696,21.9310345 22.761931,22.116296 22.761931,22.3448276 C22.761931,22.5733592 22.5766696,22.7586207 22.3481379,22.7586207 L1.65186207,22.7586207 C1.42528131,22.7552505 1.24292946,22.5714281 1.24137931,22.3448276 Z M1.24137931,19.0344828 C1.24137931,18.8072377 1.42462427,18.6225076 1.65186207,18.6206897 L22.3481379,18.6206897 C22.5766696,18.6206897 22.761931,18.8059511 22.761931,19.0344828 C22.761931,19.2630144 22.5766696,19.4482759 22.3481379,19.4482759 L1.65186207,19.4482759 C1.42528131,19.4449057 1.24292946,19.2610833 1.24137931,19.0344828 Z M1.241376,4.55751724 C1.24061043,4.11776981 1.41456237,3.69572792 1.72496755,3.38423631 C2.03537274,3.07274471 2.45680429,2.89731927 2.89655172,2.89655172 L21.1034483,2.89655172 C21.5432296,2.89720953 21.964725,3.07259983 22.2751539,3.38411527 C22.5855829,3.69563072 22.7594994,4.11773635 22.758624,4.55751724 L22.758624,14.4769655 C22.7593896,14.916713 22.5854376,15.3387548 22.2750324,15.6502464 C21.9646273,15.9617381 21.5431957,16.1371635 21.1034483,16.137931 L2.89655172,16.137931 C2.45677044,16.1372732 2.03527504,15.9618829 1.72484609,15.6503675 C1.41441714,15.338852 1.24050057,14.9167464 1.241376,14.4769655 L1.241376,4.55751724 Z M2.06896044,4.55751724 L2.06896044,14.4769655 C2.06819596,14.6972236 2.15495582,14.9087661 2.31015863,15.0650554 C2.46536144,15.2213446 2.67629359,15.309578 2.89655172,15.3103448 L21.1034483,15.3103448 C21.3237064,15.309578 21.5346386,15.2213446 21.6898414,15.0650554 C21.8450442,14.9087661 21.931804,14.6972236 21.9310396,14.4769655 L21.9310396,4.55751724 C21.931804,4.33725911 21.8450442,4.12571663 21.6898414,3.9694274 C21.5346386,3.81313817 21.3237064,3.72490481 21.1034483,3.72413793 L2.89655172,3.72413793 C2.67629359,3.72490481 2.46536144,3.81313817 2.31015863,3.9694274 C2.15495582,4.12571663 2.06819596,4.33725911 2.06896044,4.55751724 Z M3.72413793,5.79310345 C3.72593866,5.56532188 3.91014947,5.38111107 4.13793103,5.37931034 L5.95862069,5.37931034 C6.18715231,5.37931034 6.37241379,5.56457183 6.37241379,5.79310345 C6.37241379,6.02163507 6.18715231,6.20689655 5.95862069,6.20689655 L4.13793103,6.20689655 C3.91042707,6.20443441 3.72660007,6.02060741 3.72413793,5.79310345 L3.72413793,5.79310345 Z M17.6275862,5.79310345 C17.6293869,5.56532188 17.8135977,5.38111107 18.0413793,5.37931034 L19.862069,5.37931034 C20.0906006,5.37931034 20.2758621,5.56457183 20.2758621,5.79310345 C20.2758621,6.02163507 20.0906006,6.20689655 19.862069,6.20689655 L18.0413793,6.20689655 C17.8138753,6.20443441 17.6300483,6.02060741 17.6275862,5.79310345 Z M17.6275862,13.2413793 C17.6293869,13.0135977 17.8135977,12.8293869 18.0413793,12.8275862 L19.862069,12.8275862 C20.0906006,12.8275862 20.2758621,13.0128477 20.2758621,13.2413793 C20.2758621,13.4699109 20.0906006,13.6551724 19.862069,13.6551724 L18.0413793,13.6551724 C17.8138753,13.6527103 17.6300483,13.4688833 17.6275862,13.2413793 Z M3.72413793,13.2413793 C3.72593866,13.0135977 3.91014947,12.8293869 4.13793103,12.8275862 L5.95862069,12.8275862 C6.18715231,12.8275862 6.37241379,13.0128477 6.37241379,13.2413793 C6.37241379,13.4699109 6.18715231,13.6551724 5.95862069,13.6551724 L4.13793103,13.6551724 C3.91042707,13.6527103 3.72660007,13.4688833 3.72413793,13.2413793 L3.72413793,13.2413793 Z M14.2593103,8.48689655 C13.771958,7.42104995 12.6065034,6.84021908 11.462069,7.09282759 C10.7263408,7.25559632 10.1043467,7.74368484 9.77129562,8.4196039 C9.43824454,9.09552297 9.43018207,9.88611898 9.74937931,10.5686897 C10.3292011,11.8111756 11.8064367,12.3484196 13.0489655,11.7686897 C13.2547021,11.6790974 13.4943558,11.7698151 13.589195,11.9731863 C13.6840342,12.1765575 13.5994927,12.4184589 13.3986207,12.5184828 C12.0650323,13.1401333 10.4811813,12.8069506 9.51108043,11.7006903 C8.5409796,10.5944301 8.4174858,8.98063199 9.20796663,7.73964554 C9.99844746,6.49865908 11.513161,5.92836268 12.9258097,6.33986102 C14.3384584,6.75135936 15.3099592,8.04587903 15.3103448,9.51724138 C15.3103448,9.745773 15.1250833,9.93103448 14.8965517,9.93103448 C14.6680201,9.93103448 14.4827586,9.745773 14.4827586,9.51724138 C14.4833512,9.1617085 14.4071299,8.81024368 14.2593103,8.48689655 L14.2593103,8.48689655 Z" id="Path_14676" fill="#FFFFFF"></path>
                    </g>
                </g>
            </g>
        </g>
    </g>
</svg>