<svg xmlns="http://www.w3.org/2000/svg" width="18" height="17" viewBox="0 0 18 17">
    <g fill="none" fill-rule="evenodd">
        <g fill="#FFF">
            <g>
                <g>
                    <g>
                        <path d="M0 14.884c0-.19.153-.344.343-.346h17.313c.191 0 .346.155.346.346 0 .191-.155.346-.346.346H.343c-.19-.003-.342-.157-.343-.346zm0 1.385c0-.19.153-.344.343-.346h17.313c.191 0 .346.155.346.346 0 .191-.155.346-.346.346H.343c-.19-.003-.342-.157-.343-.346zM0 13.5c0-.19.153-.344.343-.346h17.313c.191 0 .346.155.346.346 0 .191-.155.346-.346.346H.343c-.19-.003-.342-.157-.343-.346zM0 1.39C-.002 1.023.142.67.4.408c.26-.26.612-.407.98-.408h15.23c.368 0 .72.148.98.408.258.261.402.615.4.982v8.3c.002.367-.142.72-.4.982-.26.26-.612.407-.98.408H1.38c-.368 0-.72-.147-.98-.408-.258-.261-.402-.615-.4-.982v-8.3zm.692 0v8.3c0 .384.31.696.693.7h15.23c.184-.001.36-.075.49-.205.129-.131.2-.308.2-.492v-8.3c0-.184-.071-.36-.2-.492-.13-.13-.307-.204-.491-.205H1.384C1.2.697 1.024.771.893.901c-.129.13-.201.305-.201.488v.001zm1.385 1.034c.002-.19.156-.344.346-.346h1.523c.19.002.344.156.346.346-.002.19-.156.344-.346.346H2.423c-.19-.002-.344-.156-.346-.347v.001zm11.63 0c.002-.19.156-.344.346-.346h1.523c.19.002.344.156.346.346-.002.19-.156.344-.346.346h-1.523c-.19-.002-.344-.156-.346-.347v.001zm0 6.231c.002-.19.156-.344.346-.346h1.523c.19.002.344.156.346.346-.002.19-.156.344-.346.346h-1.523c-.19-.002-.344-.156-.346-.347v.001zm-11.63 0c.002-.19.156-.344.346-.346h1.523c.19.002.344.156.346.346-.002.19-.156.344-.346.346H2.423c-.19-.002-.344-.156-.346-.347v.001zm8.813-3.977c-.042-.091-.09-.18-.145-.264-.162-.251-.377-.465-.629-.626-.334-.212-.72-.324-1.116-.325-.151 0-.302.016-.45.049-.24.053-.47.148-.676.282-.252.162-.465.377-.626.63-.161.252-.266.536-.306.833-.055.396.006.8.175 1.161.168.358.433.66.766.874.339.215.732.328 1.133.325.298-.002.591-.069.861-.195.172-.075.373 0 .452.171.079.17.008.372-.16.456-.482.226-1.02.307-1.547.234-.395-.054-.775-.193-1.111-.408-.337-.214-.623-.498-.839-.834-.178-.275-.306-.58-.377-.9-.071-.32-.085-.65-.04-.976.054-.396.193-.775.408-1.111.214-.337.498-.623.834-.839.275-.178.58-.306.9-.377.32-.071.652-.084.977-.039.396.054.775.193 1.111.408.337.214.623.499.839.834.289.447.442.968.442 1.5 0 .191-.155.346-.346.346-.191 0-.346-.155-.346-.346 0-.297-.063-.591-.187-.862l.003-.001z" transform="translate(-36 -413) translate(35 227) translate(1 184) translate(0 2)"/>
                    </g>
                </g>
            </g>
        </g>
    </g>
</svg>
