<svg xmlns="http://www.w3.org/2000/svg" width="24" height="25" viewBox="0 0 24 25">
    <g fill="none" fill-rule="evenodd">
        <g>
            <g>
                <g>
                    <g>
                        <path d="M0 0L24 0 24 24 0 24z" transform="translate(-249 -752) translate(0 710) translate(243 42.3) translate(6)"/>
                        <path fill="#333" d="M1.241 20.69c0-.228.184-.412.41-.414h20.697c.229 0 .414.185.414.414 0 .228-.185.413-.414.413H1.652c-.227-.003-.41-.187-.41-.413zm0 1.655c0-.227.184-.412.41-.414h20.697c.229 0 .414.185.414.414 0 .228-.185.414-.414.414H1.652c-.227-.004-.41-.188-.41-.414zm0-3.31c0-.228.184-.412.41-.414h20.697c.229 0 .414.185.414.413 0 .229-.185.414-.414.414H1.652c-.227-.003-.41-.187-.41-.414zm0-14.477c0-.44.174-.862.484-1.174.31-.311.732-.487 1.172-.487h18.206c.44 0 .862.176 1.172.487.31.312.484.734.484 1.174v9.919c0 .44-.174.862-.484 1.173-.31.312-.732.487-1.172.488H2.897c-.44 0-.862-.176-1.172-.488-.31-.311-.484-.733-.484-1.173v-9.92zm.828 0v9.919c0 .22.086.432.241.588.155.156.366.245.587.245h18.206c.22 0 .432-.089.587-.245.155-.156.242-.368.241-.588v-9.92c0-.22-.086-.431-.241-.588-.155-.156-.366-.244-.587-.245H2.897c-.22 0-.432.09-.587.245-.155.157-.242.368-.241.589zm1.655 1.235c.002-.228.186-.412.414-.414h1.82c.23 0 .414.186.414.414 0 .229-.185.414-.413.414H4.138c-.228-.003-.411-.186-.414-.414zm13.904 0c.001-.228.186-.412.413-.414h1.821c.229 0 .414.186.414.414 0 .229-.185.414-.414.414h-1.82c-.228-.003-.412-.186-.414-.414zm0 7.448c.001-.227.186-.412.413-.413h1.821c.229 0 .414.185.414.413 0 .229-.185.414-.414.414h-1.82c-.228-.002-.412-.186-.414-.414zm-13.904 0c.002-.227.186-.412.414-.413h1.82c.23 0 .414.185.414.413 0 .229-.185.414-.413.414H4.138c-.228-.002-.411-.186-.414-.414zM14.26 8.487c-.487-1.066-1.652-1.647-2.797-1.394-.736.163-1.358.65-1.69 1.327-.334.676-.342 1.466-.023 2.149.58 1.242 2.057 1.78 3.3 1.2.206-.09.445 0 .54.204.095.204.01.445-.19.545-1.334.622-2.918.289-3.888-.817-.97-1.107-1.094-2.72-.303-3.961.79-1.241 2.305-1.812 3.718-1.4 1.412.411 2.384 1.706 2.384 3.177 0 .229-.185.414-.413.414-.229 0-.414-.185-.414-.414 0-.355-.076-.707-.224-1.03z" transform="translate(-249 -752) translate(0 710) translate(243 42.3) translate(6)"/>
                    </g>
                </g>
            </g>
        </g>
    </g>
</svg>
