<svg xmlns="http://www.w3.org/2000/svg" width="28" height="28" viewBox="0 0 28 28">
    <g fill="none" fill-rule="evenodd">
        <g fill-rule="nonzero">
            <g>
                <g>
                    <path fill="#263238" d="M27.517 28H.483c-.133 0-.242-.108-.242-.241V7.966c0-.134.109-.242.242-.242s.241.108.241.242v19.551h26.793c.133 0 .242.108.242.242 0 .133-.109.241-.242.241z" transform="translate(-32 -99) translate(0 79) translate(32 20)"/>
                    <g>
                        <path fill="#FFD740" d="M5.31 14.724H.483v-14c0-.266.216-.483.483-.483h3.862c.266 0 .482.217.482.483v14z" transform="translate(-32 -99) translate(0 79) translate(32 20) translate(2.897 13.034)"/>
                        <path fill="#263238" d="M5.31 14.966H.483c-.133 0-.242-.109-.242-.242v-14C.241.324.566 0 .966 0h3.862c.399 0 .724.325.724.724v14c0 .133-.108.242-.242.242zm-4.586-.483H5.07V.724c0-.133-.108-.241-.241-.241H.966C.832.483.724.59.724.724v13.759z" transform="translate(-32 -99) translate(0 79) translate(32 20) translate(2.897 13.034)"/>
                    </g>
                    <g>
                        <path fill="#40C4FF" d="M5.069 10.38H.241V.723c0-.266.217-.483.483-.483h3.862c.267 0 .483.217.483.483v9.655z" transform="translate(-32 -99) translate(0 79) translate(32 20) translate(11.103 17.38)"/>
                        <path fill="#263238" d="M5.069 10.62H.241c-.133 0-.241-.107-.241-.24V.723C0 .324.325 0 .724 0h3.862c.4 0 .724.325.724.724v9.655c0 .134-.108.242-.241.242zm-4.586-.482h4.345V.724c0-.133-.109-.241-.242-.241H.724C.591.483.483.59.483.724v9.414z" transform="translate(-32 -99) translate(0 79) translate(32 20) translate(11.103 17.38)"/>
                    </g>
                    <g>
                        <path fill="#FF5252" d="M5.31 18.586H.483V.966c0-.267.216-.483.483-.483h3.862c.266 0 .482.216.482.483v17.62z" transform="translate(-32 -99) translate(0 79) translate(32 20) translate(18.828 9.172)"/>
                        <path fill="#263238" d="M5.31 18.828H.483c-.133 0-.242-.109-.242-.242V.966c0-.4.325-.725.725-.725h3.862c.399 0 .724.325.724.725v17.62c0 .133-.108.242-.242.242zm-4.586-.483H5.07V.965c0-.132-.108-.24-.241-.24H.966c-.134 0-.242.108-.242.24v17.38z" transform="translate(-32 -99) translate(0 79) translate(32 20) translate(18.828 9.172)"/>
                    </g>
                    <path fill="#263238" d="M8.705 1.448h-1.93c-.134 0-.242-.108-.242-.241s.108-.241.241-.241h1.931c.133 0 .241.108.241.24 0 .134-.108.242-.24.242z" transform="translate(-32 -99) translate(0 79) translate(32 20)"/>
                    <path fill="#263238" d="M7.74 2.414c-.134 0-.242-.108-.242-.242V.242c0-.134.108-.242.242-.242.133 0 .241.108.241.241v1.931c0 .134-.108.242-.241.242zM5.326 4.586H3.395c-.133 0-.242-.108-.242-.241s.109-.242.242-.242h1.93c.134 0 .242.109.242.242s-.108.241-.241.241z" transform="translate(-32 -99) translate(0 79) translate(32 20)"/>
                    <path fill="#263238" d="M4.36 5.552c-.133 0-.241-.108-.241-.242V3.38c0-.134.108-.242.241-.242.134 0 .242.108.242.241V5.31c0 .134-.108.242-.242.242zM13.759 11.103c-.034 0-.067-.006-.098-.02L9.423 9.199l-3.516 1.876c-.035.018-.074.028-.114.028H3.38c-.133 0-.241-.108-.241-.24 0-.134.108-.242.241-.242h2.354L9.3 8.718c.066-.035.144-.037.212-.008l4.2 1.867 7.85-7.135c.098-.09.251-.083.341.016.09.099.082.252-.016.341l-7.966 7.242c-.045.04-.103.062-.162.062z" transform="translate(-32 -99) translate(0 79) translate(32 20)"/>
                    <g transform="translate(-32 -99) translate(0 79) translate(32 20) translate(12.069 9.172)">
                        <circle cx="1.69" cy="1.69" r="1.207" fill="#FFF"/>
                        <path fill="#263238" d="M1.69 3.138C.89 3.138.24 2.488.24 1.69.241.89.891.24 1.69.24c.798 0 1.448.65 1.448 1.449 0 .798-.65 1.448-1.448 1.448zm0-2.414c-.533 0-.966.433-.966.966 0 .532.433.965.966.965.532 0 .965-.433.965-.965 0-.533-.433-.966-.965-.966z"/>
                    </g>
                    <g transform="translate(-32 -99) translate(0 79) translate(32 20) translate(4.345 9.172)">
                        <circle cx="1.448" cy="1.69" r="1.207" fill="#FFF"/>
                        <path fill="#263238" d="M1.448 3.138C.65 3.138 0 2.488 0 1.69 0 .89.65.24 1.448.24c.799 0 1.449.65 1.449 1.449 0 .798-.65 1.448-1.449 1.448zm0-2.414c-.532 0-.965.433-.965.966 0 .532.433.965.965.965.533 0 .966-.433.966-.965 0-.533-.433-.966-.966-.966z"/>
                    </g>
                    <g transform="translate(-32 -99) translate(0 79) translate(32 20) translate(20.276 1.931)">
                        <circle cx="1.448" cy="1.69" r="1.207" fill="#FFF"/>
                        <path fill="#263238" d="M1.448 3.138C.65 3.138 0 2.488 0 1.69 0 .89.65.24 1.448.24c.799 0 1.449.65 1.449 1.449 0 .798-.65 1.448-1.449 1.448zm0-2.414c-.532 0-.965.433-.965.966 0 .532.433.965.965.965.533 0 .966-.433.966-.965 0-.533-.433-.966-.966-.966z"/>
                    </g>
                </g>
            </g>
        </g>
    </g>
</svg>
