<svg xmlns="http://www.w3.org/2000/svg" width="18" height="21" viewBox="0 0 18 21">
    <g fill="none" fill-rule="evenodd">
        <g fill="#FFF">
            <g>
                <g>
                    <path d="M13.16.128c.08.082.126.193.126.31v3.951c0 .242.192.438.428.438l1.281-.014c.114-.002.223.043.305.124.081.081.127.192.129.308 0 .116-.043.228-.123.311-.08.083-.188.13-.301.131l-1.277.015h-.014c-.71 0-1.285-.588-1.285-1.313V.875H1.286c-.237 0-.429.196-.429.438v18.375c0 .241.192.437.429.437h15.428c.237 0 .429-.196.429-.438V5.281l-2.276-2.348c-.115-.11-.162-.275-.123-.43.04-.156.16-.277.312-.316.153-.038.314.013.42.132L18 4.923v14.764c0 .725-.576 1.313-1.286 1.313H1.286C.576 21 0 20.412 0 19.687V1.313C0 .589.576 0 1.286 0h11.571c.114 0 .223.046.303.128zM4.286 8.312c.015-.255.23-.45.48-.437h8.468c.25-.011.463.183.48.438-.014.255-.229.45-.48.437H4.766c-.25.011-.463-.183-.48-.438zm0 3.063c.015-.256.23-.451.48-.438h8.468c.25-.01.463.183.48.438-.014.256-.229.451-.48.438H4.766c-.25.01-.463-.183-.48-.438zm0 3.063c0-.242.128-.438.284-.438h5.003c.157 0 .284.203.284.438 0 .241-.128.437-.284.437H4.57c-.156 0-.284-.203-.284-.438zM12 15.75c-.71 0-1.286-.588-1.286-1.313 0-.724.576-1.312 1.286-1.312.71 0 1.286.588 1.286 1.313 0 .724-.576 1.312-1.286 1.312zm0-.875c.237 0 .429-.196.429-.438 0-.241-.192-.437-.429-.437s-.429.196-.429.438c0 .241.192.437.429.437z" transform="translate(-36 -361) translate(35 227) translate(1 134)"/>
                </g>
            </g>
        </g>
    </g>
</svg>
