<?xml version="1.0" encoding="UTF-8"?>
<svg width="23px" height="23px" viewBox="0 0 23 23" version="1.1" xmlns="http://www.w3.org/2000/svg" xmlns:xlink="http://www.w3.org/1999/xlink">
    <title>components@3x</title>
    <g id="6.-Components" stroke="none" stroke-width="1" fill="none" fill-rule="evenodd">
        <g id="6.1-Accordion" transform="translate(-32.000000, -104.000000)" fill-rule="nonzero">
            <g id="Top-Info-Box" transform="translate(0.000000, 76.000000)">
                <g id="Content" transform="translate(32.000000, 25.000000)">
                    <g id="software-developer" transform="translate(-0.000000, 3.000000)">
                        <g id="Group" transform="translate(14.275862, 7.931034)">
                            <path d="M7.13793103,5.15517241 L0.793103448,5.15517241 C0.574206897,5.15517241 0.396551724,4.97751724 0.396551724,4.75862069 L0.396551724,0.793103448 C0.396551724,0.574206897 0.574206897,0.396551724 0.793103448,0.396551724 L7.13793103,0.396551724 C7.35682759,0.396551724 7.53448276,0.574206897 7.53448276,0.793103448 L7.53448276,4.75862069 C7.53448276,4.97751724 7.35682759,5.15517241 7.13793103,5.15517241 Z" id="Path" fill="#FFD740"></path>
                            <path d="M7.13793103,5.35344828 L0.793103448,5.35344828 C0.465155172,5.35344828 0.198275862,5.08656897 0.198275862,4.75862069 L0.198275862,0.793103448 C0.198275862,0.465155172 0.465155172,0.198275862 0.793103448,0.198275862 L7.13793103,0.198275862 C7.46587931,0.198275862 7.73275862,0.465155172 7.73275862,0.793103448 L7.73275862,4.75862069 C7.73275862,5.08656897 7.46587931,5.35344828 7.13793103,5.35344828 Z M0.793103448,0.594827586 C0.684051724,0.594827586 0.594827586,0.683655172 0.594827586,0.793103448 L0.594827586,4.75862069 C0.594827586,4.86806897 0.684051724,4.95689655 0.793103448,4.95689655 L7.13793103,4.95689655 C7.24698276,4.95689655 7.3362069,4.86806897 7.3362069,4.75862069 L7.3362069,0.793103448 C7.3362069,0.683655172 7.24698276,0.594827586 7.13793103,0.594827586 L0.793103448,0.594827586 Z" id="Shape" fill="#FFFFFF"></path>
                        </g>
                        <path d="M17.1508621,11.8965517 C17.1001034,11.8965517 17.0493448,11.8771207 17.0104828,11.8386552 L16.0191034,10.8472759 C15.9417759,10.7699483 15.9417759,10.6442414 16.0191034,10.5669138 L17.0104828,9.57553448 C17.0878103,9.4982069 17.2135172,9.4982069 17.2908448,9.57553448 C17.3681724,9.65286207 17.3681724,9.77856897 17.2908448,9.85589655 L16.4398448,10.7068966 L17.2908448,11.5578966 C17.3681724,11.6352241 17.3681724,11.760931 17.2908448,11.8382586 C17.2523793,11.8771207 17.2016207,11.8965517 17.1508621,11.8965517 Z" id="Path" fill="#263238"></path>
                        <path d="M19.3318966,11.8965517 C19.2811379,11.8965517 19.2303793,11.8771207 19.1915172,11.8386552 C19.1141897,11.7613276 19.1141897,11.6356207 19.1915172,11.5582931 L20.0429138,10.7068966 L19.1919138,9.85589655 C19.1145862,9.77856897 19.1145862,9.65286207 19.1919138,9.57553448 C19.2692414,9.4982069 19.3949483,9.4982069 19.4722759,9.57553448 L20.4636552,10.5669138 C20.5409828,10.6442414 20.5409828,10.7699483 20.4636552,10.8472759 L19.4722759,11.8386552 C19.4334138,11.8771207 19.3826552,11.8965517 19.3318966,11.8965517 Z" id="Path" fill="#263238"></path>
                        <path d="M17.7456897,12.0948276 C17.7203103,12.0948276 17.6941379,12.090069 17.6695517,12.0793621 C17.568431,12.0373276 17.5208448,11.9211379 17.5624828,11.8200172 L18.5538621,9.4407069 C18.5958966,9.33958621 18.7136724,9.292 18.8132069,9.33403448 C18.9143276,9.37606897 18.9619138,9.49225862 18.9202759,9.59337931 L17.9288966,11.9726897 C17.8971724,12.0488276 17.8230172,12.0948276 17.7456897,12.0948276 Z" id="Path" fill="#263238"></path>
                        <path d="M11.8965517,8.92241379 L5.94827586,8.92241379 C5.83882759,8.92241379 5.75,8.83358621 5.75,8.72413793 C5.75,8.61468966 5.83882759,8.52586207 5.94827586,8.52586207 L11.8965517,8.52586207 C12.006,8.52586207 12.0948276,8.61468966 12.0948276,8.72413793 C12.0948276,8.83358621 12.006,8.92241379 11.8965517,8.92241379 Z" id="Path" fill="#FFFFFF"></path>
                        <path d="M11.8965517,10.112069 L5.94827586,10.112069 C5.83882759,10.112069 5.75,10.0232414 5.75,9.9137931 C5.75,9.80434483 5.83882759,9.71551724 5.94827586,9.71551724 L11.8965517,9.71551724 C12.006,9.71551724 12.0948276,9.80434483 12.0948276,9.9137931 C12.0948276,10.0232414 12.006,10.112069 11.8965517,10.112069 Z" id="Path" fill="#FFFFFF"></path>
                        <path d="M8.92241379,12.0948276 L5.94827586,12.0948276 C5.83882759,12.0948276 5.75,12.006 5.75,11.8965517 C5.75,11.7871034 5.83882759,11.6982759 5.94827586,11.6982759 L8.92241379,11.6982759 C9.03186207,11.6982759 9.12068966,11.7871034 9.12068966,11.8965517 C9.12068966,12.006 9.03186207,12.0948276 8.92241379,12.0948276 Z" id="Path" fill="#FFFFFF"></path>
                        <path d="M11.8965517,13.2844828 L5.94827586,13.2844828 C5.83882759,13.2844828 5.75,13.1956552 5.75,13.0862069 C5.75,12.9767586 5.83882759,12.887931 5.94827586,12.887931 L11.8965517,12.887931 C12.006,12.887931 12.0948276,12.9767586 12.0948276,13.0862069 C12.0948276,13.1956552 12.006,13.2844828 11.8965517,13.2844828 Z" id="Path" fill="#FFFFFF"></path>
                        <path d="M11.8965517,14.4741379 L5.94827586,14.4741379 C5.83882759,14.4741379 5.75,14.3853103 5.75,14.2758621 C5.75,14.1664138 5.83882759,14.0775862 5.94827586,14.0775862 L11.8965517,14.0775862 C12.006,14.0775862 12.0948276,14.1664138 12.0948276,14.2758621 C12.0948276,14.3853103 12.006,14.4741379 11.8965517,14.4741379 Z" id="Path" fill="#FFFFFF"></path>
                        <path d="M8.92241379,16.4568966 L5.94827586,16.4568966 C5.83882759,16.4568966 5.75,16.368069 5.75,16.2586207 C5.75,16.1491724 5.83882759,16.0603448 5.94827586,16.0603448 L8.92241379,16.0603448 C9.03186207,16.0603448 9.12068966,16.1491724 9.12068966,16.2586207 C9.12068966,16.368069 9.03186207,16.4568966 8.92241379,16.4568966 Z" id="Path" fill="#FFFFFF"></path>
                        <path d="M15.0646034,21.2155172 L4.95689655,21.2155172 C4.301,21.2155172 3.76724138,20.6817586 3.76724138,20.0258621 L3.76724138,5.15517241 C3.76724138,5.04572414 3.85606897,4.95689655 3.96551724,4.95689655 L18.2413793,4.95689655 C18.3508276,4.95689655 18.4396552,5.04572414 18.4396552,5.15517241 L18.4396552,7.53448276 C18.4396552,7.64393103 18.3508276,7.73275862 18.2413793,7.73275862 C18.131931,7.73275862 18.0431034,7.64393103 18.0431034,7.53448276 L18.0431034,5.35344828 L4.1637931,5.35344828 L4.1637931,20.0258621 C4.1637931,20.4632586 4.5195,20.8189655 4.95689655,20.8189655 L15.065,20.8189655 C15.1744483,20.8189655 15.2632759,20.9077931 15.2632759,21.0172414 C15.2632759,21.1266897 15.1744483,21.2155172 15.0646034,21.2155172 Z" id="Path" fill="#FFFFFF"></path>
                        <path d="M4.75862069,1.38793103 L3.17241379,1.38793103 C3.06296552,1.38793103 2.97413793,1.29910345 2.97413793,1.18965517 C2.97413793,1.0802069 3.06296552,0.99137931 3.17241379,0.99137931 L4.75862069,0.99137931 C4.86806897,0.99137931 4.95689655,1.0802069 4.95689655,1.18965517 C4.95689655,1.29910345 4.86806897,1.38793103 4.75862069,1.38793103 Z" id="Path" fill="#FFFFFF"></path>
                        <path d="M3.96551724,2.18103448 C3.85606897,2.18103448 3.76724138,2.0922069 3.76724138,1.98275862 L3.76724138,0.396551724 C3.76724138,0.287103448 3.85606897,0.198275862 3.96551724,0.198275862 C4.07496552,0.198275862 4.1637931,0.287103448 4.1637931,0.396551724 L4.1637931,1.98275862 C4.1637931,2.0922069 4.07496552,2.18103448 3.96551724,2.18103448 Z" id="Path" fill="#FFFFFF"></path>
                        <path d="M1.98275862,3.96551724 L0.396551724,3.96551724 C0.287103448,3.96551724 0.198275862,3.87668966 0.198275862,3.76724138 C0.198275862,3.6577931 0.287103448,3.56896552 0.396551724,3.56896552 L1.98275862,3.56896552 C2.0922069,3.56896552 2.18103448,3.6577931 2.18103448,3.76724138 C2.18103448,3.87668966 2.0922069,3.96551724 1.98275862,3.96551724 Z" id="Path" fill="#FFFFFF"></path>
                        <path d="M1.18965517,4.75862069 C1.0802069,4.75862069 0.99137931,4.6697931 0.99137931,4.56034483 L0.99137931,2.97413793 C0.99137931,2.86468966 1.0802069,2.77586207 1.18965517,2.77586207 C1.29910345,2.77586207 1.38793103,2.86468966 1.38793103,2.97413793 L1.38793103,4.56034483 C1.38793103,4.6697931 1.29910345,4.75862069 1.18965517,4.75862069 Z" id="Path" fill="#FFFFFF"></path>
                        <path d="M7.73275862,22.8017241 L7.3362069,22.8017241 C7.22675862,22.8017241 7.13793103,22.7128966 7.13793103,22.6034483 C7.13793103,22.494 7.22675862,22.4051724 7.3362069,22.4051724 L7.73275862,22.4051724 C7.8422069,22.4051724 7.93103448,22.494 7.93103448,22.6034483 C7.93103448,22.7128966 7.8422069,22.8017241 7.73275862,22.8017241 Z" id="Path" fill="#FFFFFF"></path>
                        <path d="M14.8706897,22.8017241 L8.52586207,22.8017241 C8.41641379,22.8017241 8.32758621,22.7128966 8.32758621,22.6034483 C8.32758621,22.494 8.41641379,22.4051724 8.52586207,22.4051724 L14.8706897,22.4051724 C14.9801379,22.4051724 15.0689655,22.494 15.0689655,22.6034483 C15.0689655,22.7128966 14.9801379,22.8017241 14.8706897,22.8017241 Z" id="Path" fill="#FFFFFF"></path>
                        <g id="Group" transform="translate(3.568966, 2.775862)">
                            <path d="M14.6724138,2.37931034 L0.396551724,2.37931034 L0.396551724,1.38793103 C0.396551724,0.840293103 0.840293103,0.396551724 1.38793103,0.396551724 L13.6810345,0.396551724 C14.2286724,0.396551724 14.6724138,0.840293103 14.6724138,1.38793103 L14.6724138,2.37931034 Z" id="Path" fill="#FF5252"></path>
                            <path d="M14.6724138,2.57758621 L0.396551724,2.57758621 C0.287103448,2.57758621 0.198275862,2.48875862 0.198275862,2.37931034 L0.198275862,1.38793103 C0.198275862,0.732034483 0.732034483,0.198275862 1.38793103,0.198275862 L13.6810345,0.198275862 C14.336931,0.198275862 14.8706897,0.732034483 14.8706897,1.38793103 L14.8706897,2.37931034 C14.8706897,2.48875862 14.7818621,2.57758621 14.6724138,2.57758621 Z M0.594827586,2.18103448 L14.4741379,2.18103448 L14.4741379,1.38793103 C14.4741379,0.950534483 14.118431,0.594827586 13.6810345,0.594827586 L1.38793103,0.594827586 C0.950534483,0.594827586 0.594827586,0.950534483 0.594827586,1.38793103 L0.594827586,2.18103448 Z" id="Shape" fill="#FFFFFF"></path>
                        </g>
                        <g id="Group" transform="translate(14.672414, 14.275862)">
                            <path d="M6.22189655,4.35215517 C6.26393103,4.1637931 6.28772414,3.9682931 6.28772414,3.76724138 C6.28772414,3.56618966 6.26393103,3.37068966 6.22189655,3.18232759 L6.33134483,3.11967241 L6.60536207,2.88094828 C6.74851724,2.75603448 6.78301724,2.54744828 6.68744828,2.38367241 L6.33531034,1.77853448 C6.24053448,1.61555172 6.04344828,1.54139655 5.8642069,1.60167241 L5.51563793,1.71865517 L5.40460345,1.7825 C5.11472414,1.5187931 4.76932759,1.31456897 4.38467241,1.19481034 L4.38467241,1.07068966 L4.31289655,0.714982759 C4.27562069,0.529793103 4.11224138,0.396551724 3.92268966,0.396551724 L3.21524138,0.396551724 C3.02568966,0.396551724 2.86231034,0.529793103 2.82503448,0.714982759 L2.75325862,1.07068966 L2.75325862,1.19441379 C2.369,1.31417241 2.0232069,1.51839655 1.73332759,1.78210345 L1.62189655,1.71825862 L1.27332759,1.60127586 C1.09408621,1.541 0.897,1.61515517 0.802224138,1.77813793 L0.450086207,2.38327586 C0.354517241,2.54744828 0.389017241,2.75603448 0.532172414,2.88055172 L0.806189655,3.11927586 L0.915637931,3.18193103 C0.873603448,3.3702931 0.849810345,3.5657931 0.849810345,3.76684483 C0.849810345,3.96789655 0.873603448,4.16339655 0.915637931,4.35175862 L0.805793103,4.41441379 L0.531775862,4.65313793 C0.38862069,4.77805172 0.35412069,4.98663793 0.449689655,5.15041379 L0.801827586,5.75555172 C0.896603448,5.91853448 1.09368966,5.99268966 1.27293103,5.93241379 L1.6215,5.81543103 L1.73293103,5.75158621 C2.02281034,6.0152931 2.3682069,6.21951724 2.75286207,6.33927586 L2.75286207,6.4637931 L2.82463793,6.8195 C2.86231034,7.00468966 3.02568966,7.13793103 3.21524138,7.13793103 L3.92268966,7.13793103 C4.11224138,7.13793103 4.27562069,7.00468966 4.31289655,6.8195 L4.38467241,6.4637931 L4.38467241,6.33967241 C4.76893103,6.21991379 5.11472414,6.01568966 5.40460345,5.75198276 L5.51603448,5.81582759 L5.86460345,5.93281034 C6.04384483,5.99308621 6.24093103,5.91893103 6.3357069,5.75594828 L6.68784483,5.15081034 C6.78341379,4.98663793 6.74891379,4.77805172 6.60575862,4.65353448 L6.33174138,4.41481034 L6.22189655,4.35215517 Z M3.57967241,5.15517241 C2.81313793,5.15517241 2.19174138,4.53377586 2.19174138,3.76724138 C2.19174138,3.0007069 2.81313793,2.37931034 3.57967241,2.37931034 C4.3462069,2.37931034 4.96760345,3.0007069 4.96760345,3.76724138 C4.96760345,4.53377586 4.3462069,5.15517241 3.57967241,5.15517241 Z" id="Shape" fill="#40C4FF"></path>
                            <path d="M3.92308621,7.3362069 L3.21563793,7.3362069 C2.93289655,7.3362069 2.68703448,7.13555172 2.63072414,6.85875862 L2.55855172,6.48322414 C2.25043103,6.3702069 1.96531034,6.20563793 1.70755172,5.99268966 L1.33637931,6.12117241 C1.06910345,6.21118966 0.772482759,6.09975862 0.630517241,5.85627586 L0.27837931,5.25153448 C0.13562069,5.00567241 0.187568966,4.69160345 0.402103448,4.50482759 L0.694362069,4.255 C0.665810345,4.09122414 0.651534483,3.92824138 0.651534483,3.76763793 C0.651534483,3.60703448 0.665810345,3.44405172 0.694362069,3.28027586 L0.402103448,3.03044828 C0.187568966,2.84327586 0.13562069,2.52960345 0.278775862,2.28374138 L0.630517241,1.679 C0.772086207,1.43551724 1.0702931,1.32487931 1.33637931,1.41410345 L1.70675862,1.54298276 C1.96451724,1.32963793 2.25003448,1.16467241 2.55855172,1.05165517 L2.63032759,0.676517241 C2.68663793,0.399724138 2.9325,0.198672414 3.21524138,0.198672414 L3.92268966,0.198672414 C4.20582759,0.198672414 4.45168966,0.399724138 4.5072069,0.676517241 L4.57937931,1.05165517 C4.88789655,1.16506897 5.17301724,1.32924138 5.43037931,1.54218966 L5.80155172,1.4137069 C6.06843103,1.32448276 6.36584483,1.43551724 6.50741379,1.67860345 L6.85955172,2.28334483 C7.00231034,2.5292069 6.95036207,2.84287931 6.73582759,3.03005172 L6.44356897,3.27987931 C6.47212069,3.44365517 6.48639655,3.60663793 6.48639655,3.76724138 C6.48639655,3.92744828 6.47212069,4.09043103 6.44356897,4.2542069 L6.73622414,4.50443103 C6.95036207,4.69160345 7.00231034,5.00527586 6.85915517,5.25113793 L6.50741379,5.85587931 C6.36544828,6.09936207 6.06803448,6.20960345 5.80155172,6.12077586 L5.43117241,5.99189655 C5.17381034,6.20524138 4.8882931,6.36981034 4.57937931,6.48322414 L4.50760345,6.85875862 C4.45168966,7.13555172 4.20582759,7.3362069 3.92308621,7.3362069 Z M1.73332759,5.55410345 C1.78131034,5.55410345 1.8292931,5.57155172 1.86656897,5.60565517 C2.14455172,5.85865517 2.46298276,6.04186207 2.81234483,6.15091379 C2.89522414,6.17668966 2.95193103,6.25362069 2.95193103,6.34046552 L2.95193103,6.4637931 L3.01974138,6.78024138 C3.03837931,6.87224138 3.12086207,6.93965517 3.21563793,6.93965517 L3.92308621,6.93965517 C4.01786207,6.93965517 4.09994828,6.87263793 4.11858621,6.78063793 L4.19036207,6.42493103 L4.18639655,6.34006897 C4.18639655,6.25322414 4.24310345,6.17668966 4.32598276,6.15051724 C4.67613793,6.04146552 4.99417241,5.85825862 5.27136207,5.60565517 C5.3352069,5.54775862 5.4287931,5.53824138 5.50374138,5.58027586 L5.61517241,5.64412069 L5.92765517,5.74484483 C6.01687931,5.77418966 6.1172069,5.7377069 6.16439655,5.65641379 L6.51653448,5.05167241 C6.56412069,4.96998276 6.54706897,4.86568966 6.47568966,4.80343103 L6.20167241,4.56431034 L6.12394828,4.52425862 C6.04860345,4.48143103 6.00974138,4.3937931 6.02877586,4.30893103 C6.07001724,4.12691379 6.09024138,3.94489655 6.09024138,3.76724138 C6.09024138,3.58958621 6.06962069,3.40756897 6.02877586,3.22555172 C6.00974138,3.14068966 6.04860345,3.05305172 6.12394828,3.01022414 L6.23339655,2.94756897 L6.47568966,2.73144828 C6.54706897,2.66918966 6.56412069,2.56489655 6.51693103,2.4832069 L6.16439655,1.87846552 C6.11760345,1.79677586 6.01727586,1.7595 5.92765517,1.79003448 L5.57908621,1.90701724 L5.50374138,1.95460345 C5.42918966,1.99743103 5.3352069,1.98712069 5.27136207,1.92922414 C4.99417241,1.67662069 4.67613793,1.49341379 4.32598276,1.38436207 C4.24310345,1.35858621 4.18639655,1.28165517 4.18639655,1.19481034 L4.18639655,1.07068966 L4.11858621,0.754241379 C4.09994828,0.661844828 4.01786207,0.594827586 3.92308621,0.594827586 L3.21563793,0.594827586 C3.12086207,0.594827586 3.03837931,0.661844828 3.01974138,0.754241379 L2.94796552,1.10955172 L2.95193103,1.19401724 C2.95193103,1.28086207 2.89522414,1.35739655 2.81234483,1.38356897 C2.46298276,1.49222414 2.14455172,1.67582759 1.86656897,1.92882759 C1.80351724,1.98632759 1.70953448,1.99663793 1.63458621,1.95381034 L1.52355172,1.88996552 L1.21067241,1.78924138 C1.12105172,1.75791379 1.02072414,1.79598276 0.973931034,1.87767241 L0.621793103,2.48241379 C0.574206897,2.56410345 0.591258621,2.66839655 0.662637931,2.73065517 L0.936655172,2.96977586 L1.01437931,3.00982759 C1.08972414,3.05305172 1.12858621,3.1402931 1.10955172,3.22515517 C1.06831034,3.40717241 1.04808621,3.58918966 1.04808621,3.76684483 C1.04808621,3.9445 1.0687069,4.12651724 1.10955172,4.30853448 C1.12858621,4.39339655 1.08972414,4.48103448 1.01437931,4.52386207 L0.904931034,4.58651724 L0.662637931,4.80263793 C0.591258621,4.86489655 0.574206897,4.96918966 0.621396552,5.05087931 L0.973931034,5.65562069 C1.02112069,5.73731034 1.12144828,5.77498276 1.21067241,5.74405172 L1.55924138,5.62746552 L1.63458621,5.57948276 C1.66512069,5.56282759 1.69922414,5.55410345 1.73332759,5.55410345 Z M3.57967241,5.35344828 C2.70487931,5.35344828 1.99346552,4.64203448 1.99346552,3.76724138 C1.99346552,2.89244828 2.70487931,2.18103448 3.57967241,2.18103448 C4.45446552,2.18103448 5.16587931,2.89244828 5.16587931,3.76724138 C5.16587931,4.64203448 4.45446552,5.35344828 3.57967241,5.35344828 Z M3.57967241,2.57758621 C2.92377586,2.57758621 2.39001724,3.11134483 2.39001724,3.76724138 C2.39001724,4.42313793 2.92377586,4.95689655 3.57967241,4.95689655 C4.23556897,4.95689655 4.76932759,4.42313793 4.76932759,3.76724138 C4.76932759,3.11134483 4.23596552,2.57758621 3.57967241,2.57758621 Z" id="Shape" fill="#FFFFFF"></path>
                        </g>
                    </g>
                </g>
            </g>
        </g>
    </g>
</svg>