<svg xmlns="http://www.w3.org/2000/svg" width="23" height="23" viewBox="0 0 23 23">
    <g fill="none" fill-rule="evenodd">
        <g fill-rule="nonzero">
            <g>
                <g>
                    <g>
                        <g>
                            <path fill="#FFD740" d="M7.138 5.155H.793c-.219 0-.396-.177-.396-.396V.793c0-.219.177-.396.396-.396h6.345c.219 0 .396.177.396.396V4.76c0 .219-.177.396-.396.396z" transform="translate(-32 -104) translate(0 76) translate(32 25) translate(0 3) translate(14.276 7.931)"/>
                            <path fill="#263238" d="M7.138 5.353H.793c-.328 0-.595-.266-.595-.594V.793c0-.328.267-.595.595-.595h6.345c.328 0 .595.267.595.595V4.76c0 .328-.267.594-.595.594zM.793.595C.684.595.595.684.595.793V4.76c0 .11.09.198.198.198h6.345c.109 0 .198-.089.198-.198V.793c0-.11-.089-.198-.198-.198H.793z" transform="translate(-32 -104) translate(0 76) translate(32 25) translate(0 3) translate(14.276 7.931)"/>
                        </g>
                        <path fill="#263238" d="M17.15 11.897c-.05 0-.1-.02-.14-.058l-.99-.992c-.078-.077-.078-.203 0-.28l.99-.991c.078-.078.204-.078.28 0 .078.077.078.203 0 .28l-.85.85.85.852c.078.077.078.203 0 .28-.038.04-.088.059-.14.059zM19.332 11.897c-.05 0-.102-.02-.14-.058-.078-.078-.078-.203 0-.28l.85-.852-.85-.851c-.077-.077-.077-.203 0-.28.077-.078.203-.078.28 0l.992.99c.077.078.077.204 0 .281l-.992.992c-.039.038-.09.058-.14.058zM17.746 12.095c-.026 0-.052-.005-.076-.016-.102-.042-.15-.158-.108-.259l.992-2.38c.042-.1.16-.148.26-.106.1.042.148.158.106.26l-.991 2.379c-.032.076-.106.122-.183.122zM11.897 8.922H5.948c-.11 0-.198-.088-.198-.198 0-.11.089-.198.198-.198h5.949c.109 0 .198.089.198.198 0 .11-.089.198-.198.198zM11.897 10.112H5.948c-.11 0-.198-.089-.198-.198 0-.11.089-.198.198-.198h5.949c.109 0 .198.088.198.198 0 .11-.089.198-.198.198zM8.922 12.095H5.948c-.11 0-.198-.089-.198-.198 0-.11.089-.199.198-.199h2.974c.11 0 .199.09.199.199 0 .109-.09.198-.199.198zM11.897 13.284H5.948c-.11 0-.198-.088-.198-.198 0-.11.089-.198.198-.198h5.949c.109 0 .198.089.198.198 0 .11-.089.198-.198.198zM11.897 14.474H5.948c-.11 0-.198-.089-.198-.198 0-.11.089-.198.198-.198h5.949c.109 0 .198.088.198.198 0 .11-.089.198-.198.198zM8.922 16.457H5.948c-.11 0-.198-.089-.198-.198 0-.11.089-.199.198-.199h2.974c.11 0 .199.09.199.199 0 .11-.09.198-.199.198z" transform="translate(-32 -104) translate(0 76) translate(32 25) translate(0 3)"/>
                        <path fill="#263238" d="M15.065 21.216H4.957c-.656 0-1.19-.534-1.19-1.19V5.156c0-.11.09-.2.199-.2H18.24c.11 0 .199.09.199.2v2.378c0 .11-.09.199-.199.199-.11 0-.198-.09-.198-.199v-2.18H4.163v14.672c0 .437.356.793.794.793h10.108c.11 0 .198.089.198.198 0 .11-.089.199-.198.199zM4.759 1.388H3.172c-.109 0-.198-.089-.198-.198 0-.11.089-.199.198-.199H4.76c.11 0 .198.09.198.199 0 .11-.089.198-.198.198z" transform="translate(-32 -104) translate(0 76) translate(32 25) translate(0 3)"/>
                        <path fill="#263238" d="M3.966 2.181c-.11 0-.199-.089-.199-.198V.397c0-.11.09-.199.199-.199.109 0 .198.09.198.199v1.586c0 .11-.089.198-.198.198zM1.983 3.966H.397c-.11 0-.199-.09-.199-.199 0-.11.09-.198.199-.198h1.586c.11 0 .198.089.198.198 0 .11-.089.199-.198.199z" transform="translate(-32 -104) translate(0 76) translate(32 25) translate(0 3)"/>
                        <path fill="#263238" d="M1.19 4.759c-.11 0-.199-.09-.199-.199V2.974c0-.11.09-.198.199-.198.11 0 .198.089.198.198V4.56c0 .11-.089.199-.198.199zM7.733 22.802h-.397c-.11 0-.198-.09-.198-.199 0-.109.089-.198.198-.198h.397c.11 0 .198.089.198.198 0 .11-.089.199-.198.199zM14.87 22.802H8.527c-.11 0-.198-.09-.198-.199 0-.109.088-.198.198-.198h6.345c.11 0 .198.089.198.198 0 .11-.089.199-.198.199z" transform="translate(-32 -104) translate(0 76) translate(32 25) translate(0 3)"/>
                        <g>
                            <path fill="#FF5252" d="M14.672 2.38H.397v-.992c0-.548.443-.991.99-.991h12.294c.548 0 .991.443.991.99v.992z" transform="translate(-32 -104) translate(0 76) translate(32 25) translate(0 3) translate(3.569 2.776)"/>
                            <path fill="#263238" d="M14.672 2.578H.397c-.11 0-.199-.09-.199-.199v-.991c0-.656.534-1.19 1.19-1.19H13.68c.656 0 1.19.534 1.19 1.19v.991c0 .11-.09.199-.199.199zM.595 2.18h13.88v-.793c0-.437-.357-.793-.794-.793H1.388C.95.595.595.95.595 1.388v.793z" transform="translate(-32 -104) translate(0 76) translate(32 25) translate(0 3) translate(3.569 2.776)"/>
                        </g>
                        <g>
                            <path fill="#40C4FF" d="M6.222 4.352c.042-.188.066-.384.066-.585 0-.2-.024-.396-.066-.585l.11-.062.273-.24c.144-.124.178-.333.082-.496l-.352-.605c-.094-.163-.292-.238-.47-.177l-.35.117-.11.063c-.29-.263-.636-.467-1.02-.587V1.07L4.313.715c-.037-.185-.2-.318-.39-.318h-.708c-.19 0-.353.133-.39.318l-.072.356v.123c-.384.12-.73.324-1.02.588l-.111-.064-.349-.117c-.179-.06-.376.014-.47.177l-.353.605c-.095.164-.061.373.082.498l.274.238.11.063c-.042.188-.066.384-.066.585 0 .2.024.396.066.585l-.11.062-.274.24c-.143.124-.178.333-.082.496l.352.606c.095.163.292.237.47.176l.35-.117.11-.063c.29.263.636.468 1.02.587v.125l.073.355c.037.186.2.319.39.319h.708c.19 0 .353-.133.39-.319l.072-.355V6.34c.384-.12.73-.324 1.02-.588l.111.064.349.117c.179.06.376-.014.47-.177l.353-.605c.095-.164.06-.373-.082-.497l-.274-.24-.11-.062zm-2.642.803c-.767 0-1.388-.621-1.388-1.388 0-.766.621-1.388 1.388-1.388.766 0 1.388.622 1.388 1.388 0 .767-.622 1.388-1.388 1.388z" transform="translate(-32 -104) translate(0 76) translate(32 25) translate(0 3) translate(14.672 14.276)"/>
                            <path fill="#263238" d="M3.923 7.336h-.707c-.283 0-.529-.2-.585-.477l-.072-.376c-.309-.113-.594-.277-.851-.49l-.372.128c-.267.09-.564-.021-.705-.265l-.353-.604c-.142-.246-.09-.56.124-.747l.292-.25c-.028-.164-.042-.327-.042-.487 0-.161.014-.324.042-.488l-.292-.25c-.214-.187-.266-.5-.123-.746l.352-.605c.141-.243.44-.354.705-.265l.37.129c.259-.213.544-.378.853-.491L2.63.677c.057-.277.303-.478.585-.478h.708c.283 0 .529.2.584.478l.072.375c.309.113.594.277.851.49l.372-.128c.266-.09.564.022.705.265l.353.604c.142.246.09.56-.124.747l-.292.25c.028.164.042.327.042.487 0 .16-.014.323-.042.487l.292.25c.214.188.266.501.123.747l-.352.605c-.142.243-.439.354-.705.265l-.37-.13c-.258.214-.544.379-.853.492l-.071.376c-.056.277-.302.477-.585.477zm-2.19-1.782c.048 0 .096.018.134.052.278.253.596.436.945.545.083.026.14.103.14.19v.123l.068.316c.018.092.1.16.196.16h.707c.095 0 .177-.067.196-.16l.071-.355-.004-.085c0-.087.057-.163.14-.19.35-.109.668-.292.945-.544.064-.058.158-.068.233-.026l.111.064.313.1c.089.03.19-.006.236-.088l.353-.604c.047-.082.03-.186-.041-.249l-.274-.239-.078-.04c-.075-.043-.114-.13-.095-.215.041-.182.061-.364.061-.542 0-.177-.02-.36-.061-.541-.02-.085.02-.173.095-.216l.11-.062.242-.217c.071-.062.088-.166.04-.248l-.352-.605c-.046-.081-.147-.118-.236-.088l-.349.117-.075.048c-.075.042-.169.032-.233-.026-.277-.252-.595-.436-.945-.545-.083-.025-.14-.102-.14-.19v-.123L4.12.754c-.02-.092-.101-.16-.196-.16h-.707c-.095 0-.178.068-.196.16l-.072.356.004.084c0 .087-.057.163-.14.19-.349.108-.667.292-.945.545-.063.057-.157.068-.232.025l-.111-.064-.313-.1c-.09-.032-.19.006-.237.088l-.352.604c-.048.082-.03.186.04.249l.275.239.077.04c.076.043.115.13.096.215-.042.182-.062.364-.062.542 0 .178.02.36.062.542.019.084-.02.172-.096.215l-.11.063-.241.216c-.072.062-.089.166-.042.248l.353.605c.047.081.147.119.237.088l.348-.117.076-.048c.03-.016.064-.025.098-.025zm1.847-.2c-.875 0-1.587-.712-1.587-1.587s.712-1.586 1.587-1.586c.874 0 1.586.711 1.586 1.586 0 .875-.712 1.586-1.586 1.586zm0-2.776c-.656 0-1.19.533-1.19 1.19 0 .655.534 1.189 1.19 1.189.656 0 1.19-.534 1.19-1.19 0-.656-.534-1.19-1.19-1.19z" transform="translate(-32 -104) translate(0 76) translate(32 25) translate(0 3) translate(14.672 14.276)"/>
                        </g>
                    </g>
                </g>
            </g>
        </g>
    </g>
</svg>
