<?xml version="1.0" encoding="UTF-8"?>
<svg width="22px" height="22px" viewBox="0 0 22 22" version="1.1" xmlns="http://www.w3.org/2000/svg" xmlns:xlink="http://www.w3.org/1999/xlink">
    <title>Group@3x</title>
    <g id="6.-Components" stroke="none" stroke-width="1" fill="none" fill-rule="evenodd">
        <g id="6.1-Accordion" transform="translate(-176.000000, -756.000000)">
            <g id="Footer-Menu" transform="translate(0.000000, 711.000000)">
                <g id="Components" transform="translate(163.000000, 43.700000)">
                    <g id="Group" transform="translate(12.000000, 0.000000)">
                        <rect id="Active" fill="#40C4FF" transform="translate(12.383883, 12.640990) rotate(-45.000000) translate(-12.383883, -12.640990) " x="9.38388348" y="3.64099026" width="6" height="18"></rect>
                        <g id="components">
                            <polygon id="Path_14735" points="0 0 24 0 24 24 0 24"></polygon>
                            <path d="M9.12662069,8.54151724 C9.23418893,8.64541013 9.27732935,8.79925982 9.23946089,8.94393407 C9.20159243,9.08860831 9.08860831,9.20159243 8.94393407,9.23946089 C8.79925982,9.27732935 8.64541013,9.23418893 8.54151724,9.12662069 L5.90813793,6.49324138 L4.44537931,7.95641379 L3.85986207,7.37131034 L7.37131034,3.85986207 L7.95641379,4.44537931 L6.49324138,5.90813793 L9.12662069,8.54151724 Z M5.90813793,2.39668966 C5.74655179,2.2351523 5.48462063,2.2351523 5.32303448,2.39668966 L2.39710345,5.32303448 C2.23556609,5.48462063 2.23556609,5.74655179 2.39710345,5.90813793 L17.462069,20.9755862 L16.9746207,20.4877241 L20.4856552,16.9766897 L20.7297931,17.2208276 L5.90813793,2.39710345 L5.90813793,2.39668966 Z M21.0562759,17.5787586 L17.5804138,21.0546207 C17.6183316,21.0727845 17.6587961,21.0850634 17.7004138,21.0910345 L21.1137931,21.5784828 C21.2426735,21.5968368 21.3726775,21.5534706 21.4647292,21.4614189 C21.5567809,21.3693672 21.6001471,21.2393632 21.5817931,21.1104828 L21.0943448,17.6966897 C21.0883737,17.655072 21.0760948,17.6146074 21.057931,17.5766897 L21.0562759,17.5787586 Z M7.95641379,12.638069 L6.7862069,13.8082759 L8.24937931,15.2714483 C8.35694755,15.3753412 8.40008797,15.5291909 8.36221951,15.6738651 C8.32435105,15.8185393 8.21136693,15.9315235 8.06669269,15.9693919 C7.92201844,16.0072604 7.76816875,15.96412 7.66427586,15.8565517 L6.20110345,14.3933793 L4.4457931,16.1491034 L5.90855172,17.6118621 C6.01314431,17.7163807 6.0540318,17.8687594 6.01581227,18.0115986 C5.97759274,18.1544378 5.86607266,18.2660367 5.72326054,18.3043572 C5.58044843,18.3426777 5.42804086,18.301898 5.32344828,18.1973793 L3.86027586,16.7342069 L2.39751724,18.1973793 C2.23597989,18.3589655 2.23597989,18.6208966 2.39751724,18.7824828 L5.32344828,21.708 C5.48503442,21.8695374 5.74696558,21.8695374 5.90855172,21.708 L11.4674483,16.1491034 L7.95641379,12.638069 Z M12.638069,7.95641379 L16.1491034,11.4674483 L21.7084138,5.90813793 C21.8699511,5.74655179 21.8699511,5.48462063 21.7084138,5.32303448 L18.7824828,2.39710345 C18.6208966,2.23556609 18.3589655,2.23556609 18.1973793,2.39710345 L16.7342069,3.85986207 L18.1973793,5.32303448 C18.301898,5.42762706 18.3426777,5.58003464 18.3043572,5.72284675 C18.2660367,5.86565886 18.1544378,5.97717895 18.0115986,6.01539848 C17.8687594,6.05361801 17.7163807,6.01273052 17.6118621,5.90813793 L16.1491034,4.44537931 L14.3933793,6.20068966 L15.8565517,7.66386207 C15.96412,7.76775495 16.0072604,7.92160465 15.9693919,8.06627889 C15.9315235,8.21095314 15.8185393,8.32393726 15.6738651,8.36180572 C15.5291909,8.39967418 15.3753412,8.35653376 15.2714483,8.24896552 L13.8082759,6.7862069 L12.638069,7.95682759 L12.638069,7.95641379 Z M7.37131034,12.0529655 L1.812,6.49282759 C1.32738794,6.00806915 1.32738794,5.22227568 1.812,4.73751724 L4.73751724,1.81158621 C4.97032706,1.57873695 5.28610861,1.44792028 5.61537931,1.44792028 C5.94465001,1.44792028 6.26043156,1.57873695 6.49324138,1.81158621 L12.0525517,7.37089655 L17.6118621,1.81158621 C17.8446719,1.57873695 18.1604534,1.44792028 18.4897241,1.44792028 C18.8189948,1.44792028 19.1347764,1.57873695 19.3675862,1.81158621 L22.2935172,4.73710345 C22.5263665,4.96991327 22.6571832,5.28569482 22.6571832,5.61496552 C22.6571832,5.94423621 22.5263665,6.26001776 22.2935172,6.49282759 L16.7342069,12.0525517 L21.5606897,16.8790345 C21.7507708,17.0693135 21.8739131,17.316179 21.9115862,17.5824828 L22.3994483,20.9962759 C22.4546865,21.3830653 22.3246019,21.7732904 22.0483254,22.0495668 C21.772049,22.3258432 21.3818239,22.4559278 20.9950345,22.4006897 L17.5812414,21.9128276 C17.3149376,21.8751545 17.0680722,21.7520122 16.8777931,21.561931 L12.0525517,16.7337931 L6.49324138,22.2935172 C6.00848294,22.7781293 5.22268947,22.7781293 4.73793103,22.2935172 L1.812,19.368 C1.57902413,19.1351734 1.44812709,18.8193031 1.44812709,18.489931 C1.44812709,18.1605589 1.57902413,17.8446887 1.812,17.6118621 L7.37131034,12.0525517 L7.37131034,12.0529655 Z M10.8827586,10.8827586 C10.7212213,11.0443448 10.7212213,11.3062759 10.8827586,11.4678621 L16.3804138,16.9655172 C16.4843067,17.0730855 16.6381564,17.1162259 16.7828306,17.0783574 C16.9275049,17.040489 17.040489,16.9275049 17.0783574,16.7828306 C17.1162259,16.6381564 17.0730855,16.4843067 16.9655172,16.3804138 L11.4674483,10.8827586 C11.3059096,10.7214969 11.0442973,10.7214969 10.8827586,10.8827586 Z" id="Path_14736" fill="#FFFFFF" fill-rule="nonzero"></path>
                        </g>
                    </g>
                </g>
            </g>
        </g>
    </g>
</svg>