<svg xmlns="http://www.w3.org/2000/svg" width="24" height="25" viewBox="0 0 24 25">
    <g fill="none" fill-rule="evenodd">
        <g>
            <g>
                <g>
                    <g>
                        <path fill="#40C4FF" fill-opacity=".5" d="M9.384 3.641H15.384V21.641H9.384z" transform="translate(-175 -753) translate(0 710) translate(161 43.7) translate(14) rotate(-45 12.384 12.641)"/>
                        <g>
                            <path d="M0 0L24 0 24 24 0 24z" transform="translate(-175 -753) translate(0 710) translate(161 43.7) translate(14)"/>
                            <path fill="#333" fill-rule="nonzero" d="M9.127 8.542c.107.103.15.257.112.402-.037.145-.15.258-.295.295-.145.038-.299-.005-.402-.112L5.908 6.493 4.445 7.956l-.585-.585L7.37 3.86l.585.585-1.463 1.463 2.634 2.634zM5.908 2.397c-.161-.162-.423-.162-.585 0L2.397 5.323c-.161.162-.161.424 0 .585l15.065 15.068-.487-.488 3.51-3.511.245.244L5.908 2.397zm15.148 15.182l-3.476 3.476c.038.018.079.03.12.036l3.414.487c.129.019.259-.025.35-.117.093-.092.136-.222.118-.35l-.488-3.414c-.006-.042-.018-.082-.036-.12l-.002.002zm-13.1-4.94l-1.17 1.17L8.25 15.27c.108.104.151.258.113.403-.038.145-.15.258-.295.295-.145.038-.299-.005-.403-.112l-1.463-1.464-1.755 1.756 1.463 1.463c.104.104.145.257.107.4-.038.142-.15.254-.293.292-.143.039-.295-.002-.4-.107L3.86 16.734l-1.462 1.463c-.162.162-.162.424 0 .585l2.925 2.926c.162.162.424.162.586 0l5.558-5.559-3.51-3.51zm4.682-4.683l3.511 3.511 5.56-5.559c.161-.161.161-.423 0-.585l-2.927-2.926c-.161-.161-.423-.161-.585 0L16.734 3.86l1.463 1.463c.105.105.146.257.107.4-.038.143-.15.254-.292.292-.143.039-.296-.002-.4-.107l-1.463-1.463-1.756 1.756 1.464 1.463c.107.104.15.258.112.402-.037.145-.15.258-.295.296-.145.038-.299-.005-.403-.113l-1.463-1.463-1.17 1.17zm-5.267 4.097l-5.559-5.56c-.485-.485-.485-1.27 0-1.755l2.926-2.926c.232-.233.548-.364.877-.364.33 0 .645.13.878.364l5.56 5.559 5.559-5.56c.233-.232.548-.363.878-.363.329 0 .645.13.878.364l2.926 2.925c.232.233.363.549.363.878 0 .33-.13.645-.363.878l-5.56 5.56 4.827 4.826c.19.19.313.437.35.703l.488 3.414c.056.387-.074.777-.35 1.054-.277.276-.667.406-1.054.35l-3.414-.487c-.266-.038-.513-.161-.703-.351l-4.825-4.828-5.56 5.56c-.485.484-1.27.484-1.755 0l-2.926-2.926c-.233-.233-.364-.549-.364-.878 0-.33.131-.645.364-.878l5.56-5.56v.001zm3.512-1.17c-.162.161-.162.423 0 .585l5.497 5.498c.104.107.258.15.403.112.145-.038.257-.15.295-.295.038-.145-.005-.299-.112-.403l-5.499-5.497c-.161-.162-.423-.162-.584 0z" transform="translate(-175 -753) translate(0 710) translate(161 43.7) translate(14)"/>
                        </g>
                    </g>
                </g>
            </g>
        </g>
    </g>
</svg>
