<?xml version="1.0" encoding="UTF-8"?>
<svg width="58px" height="66px" viewBox="0 0 58 66" version="1.1" xmlns="http://www.w3.org/2000/svg" xmlns:xlink="http://www.w3.org/1999/xlink">
    <title>underbanked icon@3x</title>
    <g id="5.-Pages" stroke="none" stroke-width="1" fill="none" fill-rule="evenodd">
        <g id="5.2.3-Delete-Card" transform="translate(-156.000000, -242.000000)" fill-rule="nonzero">
            <g id="popup" transform="translate(33.000000, 198.000000)">
                <g id="underbanked" transform="translate(123.000000, 44.000000)">
                    <path d="M13.5543478,37.7596154 L7.25,37.7596154 C6.902,37.7596154 6.61956522,37.4753077 6.61956522,37.125 C6.61956522,36.7746923 6.902,36.4903846 7.25,36.4903846 L13.5543478,36.4903846 C13.9023478,36.4903846 14.1847826,36.7746923 14.1847826,37.125 C14.1847826,37.4753077 13.9023478,37.7596154 13.5543478,37.7596154 Z" id="Path" fill="#fcfcfc"></path>
                    <path d="M17.3369565,42.8365385 L7.25,42.8365385 C6.902,42.8365385 6.61956522,42.5522308 6.61956522,42.2019231 C6.61956522,41.8516154 6.902,41.5673077 7.25,41.5673077 L17.3369565,41.5673077 C17.6849565,41.5673077 17.9673913,41.8516154 17.9673913,42.2019231 C17.9673913,42.5522308 17.6849565,42.8365385 17.3369565,42.8365385 Z" id="Path" fill="#fcfcfc"></path>
                    <path d="M23.6413043,37.7596154 L17.3369565,37.7596154 C16.9889565,37.7596154 16.7065217,37.4753077 16.7065217,37.125 C16.7065217,36.7746923 16.9889565,36.4903846 17.3369565,36.4903846 L23.6413043,36.4903846 C23.9893043,36.4903846 24.2717391,36.7746923 24.2717391,37.125 C24.2717391,37.4753077 23.9893043,37.7596154 23.6413043,37.7596154 Z" id="Path" fill="#fcfcfc"></path>
                    <path d="M26.7934783,42.8365385 L20.4891304,42.8365385 C20.1411304,42.8365385 19.8586957,42.5522308 19.8586957,42.2019231 C19.8586957,41.8516154 20.1411304,41.5673077 20.4891304,41.5673077 L26.7934783,41.5673077 C27.1414783,41.5673077 27.423913,41.8516154 27.423913,42.2019231 C27.423913,42.5522308 27.1414783,42.8365385 26.7934783,42.8365385 Z" id="Path" fill="#fcfcfc"></path>
                    <path d="M39.4021739,42.8365385 L33.7282609,42.8365385 C33.3802609,42.8365385 33.0978261,42.5522308 33.0978261,42.2019231 C33.0978261,41.8516154 33.3802609,41.5673077 33.7282609,41.5673077 L39.4021739,41.5673077 C39.7501739,41.5673077 40.0326087,41.8516154 40.0326087,42.2019231 C40.0326087,42.5522308 39.7501739,42.8365385 39.4021739,42.8365385 Z" id="Path" fill="#fcfcfc"></path>
                    <path d="M49.4891304,42.8365385 L43.1847826,42.8365385 C42.8367826,42.8365385 42.5543478,42.5522308 42.5543478,42.2019231 C42.5543478,41.8516154 42.8367826,41.5673077 43.1847826,41.5673077 L49.4891304,41.5673077 C49.8371304,41.5673077 50.1195652,41.8516154 50.1195652,42.2019231 C50.1195652,42.5522308 49.8371304,42.8365385 49.4891304,42.8365385 Z" id="Path" fill="#fcfcfc"></path>
                    <g id="Group" transform="translate(6.304348, 17.769231)">
                        <path d="M8.51086957,9.83653846 L2.20652174,9.83653846 C1.51052174,9.83653846 0.945652174,9.26792308 0.945652174,8.56730769 L0.945652174,2.22115385 C0.945652174,1.52053846 1.51052174,0.951923077 2.20652174,0.951923077 L8.51086957,0.951923077 C9.20686957,0.951923077 9.77173913,1.52053846 9.77173913,2.22115385 L9.77173913,8.56730769 C9.77173913,9.26792308 9.20686957,9.83653846 8.51086957,9.83653846 Z" id="Path" fill="#FFD740"></path>
                        <path d="M8.51086957,10.4711538 L2.20652174,10.4711538 C1.16378261,10.4711538 0.315217391,9.61696154 0.315217391,8.56730769 L0.315217391,2.22115385 C0.315217391,1.1715 1.16378261,0.317307692 2.20652174,0.317307692 L8.51086957,0.317307692 C9.5536087,0.317307692 10.4021739,1.1715 10.4021739,2.22115385 L10.4021739,8.56730769 C10.4021739,9.61696154 9.5536087,10.4711538 8.51086957,10.4711538 Z M2.20652174,1.58653846 C1.85978261,1.58653846 1.57608696,1.87211538 1.57608696,2.22115385 L1.57608696,8.56730769 C1.57608696,8.91634615 1.85978261,9.20192308 2.20652174,9.20192308 L8.51086957,9.20192308 C8.8576087,9.20192308 9.14130435,8.91634615 9.14130435,8.56730769 L9.14130435,2.22115385 C9.14130435,1.87211538 8.8576087,1.58653846 8.51086957,1.58653846 L2.20652174,1.58653846 Z" id="Shape" fill="#fcfcfc"></path>
                    </g>
                    <path d="M11.6630435,21.8942308 C11.3150435,21.8942308 11.0326087,21.6099231 11.0326087,21.2596154 L11.0326087,18.7211538 C11.0326087,18.3708462 11.3150435,18.0865385 11.6630435,18.0865385 C12.0110435,18.0865385 12.2934783,18.3708462 12.2934783,18.7211538 L12.2934783,21.2596154 C12.2934783,21.6099231 12.0110435,21.8942308 11.6630435,21.8942308 Z" id="Path" fill="#fcfcfc"></path>
                    <path d="M11.6630435,28.2403846 C11.3150435,28.2403846 11.0326087,27.9560769 11.0326087,27.6057692 L11.0326087,25.0673077 C11.0326087,24.717 11.3150435,24.4326923 11.6630435,24.4326923 C12.0110435,24.4326923 12.2934783,24.717 12.2934783,25.0673077 L12.2934783,27.6057692 C12.2934783,27.9560769 12.0110435,28.2403846 11.6630435,28.2403846 Z" id="Path" fill="#fcfcfc"></path>
                    <g id="Group" transform="translate(39.086957, 24.115385)">
                        <path d="M10.4021739,6.66346154 L2.83695652,6.66346154 C2.14095652,6.66346154 1.57608696,6.09484615 1.57608696,5.39423077 L1.57608696,2.85576923 C1.57608696,2.15515385 2.14095652,1.58653846 2.83695652,1.58653846 L10.4021739,1.58653846 C11.0981739,1.58653846 11.6630435,2.15515385 11.6630435,2.85576923 L11.6630435,5.39423077 C11.6630435,6.09484615 11.0981739,6.66346154 10.4021739,6.66346154 Z" id="Path" fill="#40C4FF"></path>
                        <path d="M10.4021739,7.29807692 L2.83695652,7.29807692 C1.79421739,7.29807692 0.945652174,6.44388462 0.945652174,5.39423077 L0.945652174,2.85576923 C0.945652174,1.80611538 1.79421739,0.951923077 2.83695652,0.951923077 L10.4021739,0.951923077 C11.444913,0.951923077 12.2934783,1.80611538 12.2934783,2.85576923 L12.2934783,5.39423077 C12.2934783,6.44388462 11.444913,7.29807692 10.4021739,7.29807692 Z M2.83695652,2.22115385 C2.49021739,2.22115385 2.20652174,2.50673077 2.20652174,2.85576923 L2.20652174,5.39423077 C2.20652174,5.74326923 2.49021739,6.02884615 2.83695652,6.02884615 L10.4021739,6.02884615 C10.748913,6.02884615 11.0326087,5.74326923 11.0326087,5.39423077 L11.0326087,2.85576923 C11.0326087,2.50673077 10.748913,2.22115385 10.4021739,2.22115385 L2.83695652,2.22115385 Z" id="Shape" fill="#fcfcfc"></path>
                    </g>
                    <path d="M4.09908696,49.8173077 C2.01234783,49.8173077 0.315217391,48.1089231 0.315217391,46.0096154 L0.315217391,15.5480769 C0.315217391,13.4487692 2.01234783,11.7403846 4.09782609,11.7403846 L27.2436087,11.7403846 C27.4503913,11.7403846 27.6445652,11.8431923 27.763087,12.0145385 C27.8803478,12.1871538 27.9055652,12.4067308 27.8324348,12.6009231 L24.341087,21.8256923 L30.479,31.713 C30.5622174,31.8462692 30.5937391,32.0074615 30.5634783,32.1635769 L27.4163478,49.2715385 C27.3621304,49.5723462 27.1011304,49.7906538 26.7985217,49.7906538 L4.09908696,49.8173077 Z M4.09782609,13.0096154 C2.70708696,13.0096154 1.57608696,14.1481154 1.57608696,15.5480769 L1.57608696,46.0096154 C1.57608696,47.4095769 2.70708696,48.5480769 4.09782609,48.5480769 L26.274,48.5214231 L29.2811739,32.175 L23.1079565,22.2293077 C23.0033043,22.0605 22.9818696,21.8536154 23.0537391,21.6683077 L26.3307391,13.0096154 L4.09782609,13.0096154 Z" id="Shape" fill="#fcfcfc"></path>
                    <path d="M28.8020435,54.8663077 C28.5927391,54.8663077 28.3973043,54.7622308 28.2800435,54.5870769 C28.1627826,54.4119231 28.1388261,54.1910769 28.217,53.9943462 L34.9462609,37.1097692 L31.2418261,26.5472308 C31.193913,26.4126923 31.193913,26.2629231 31.2418261,26.1271154 L34.3309565,17.2425 C34.4192174,16.9873846 34.6575217,16.8173077 34.926087,16.8173077 L53.9021739,16.8173077 C55.9876522,16.8173077 57.6847826,18.5256923 57.6847826,20.625 L57.6847826,51.0268846 C57.6847826,53.1236538 55.9901739,54.8320385 53.9072174,54.8345769 L28.8020435,54.8663077 C28.8020435,54.8663077 28.8020435,54.8663077 28.8020435,54.8663077 Z M32.5052174,26.3352692 L36.2134348,36.9143077 C36.2638696,37.059 36.260087,37.2176538 36.2033478,37.3623462 L29.7325652,53.5958077 L53.9034348,53.5666154 C55.292913,53.5640769 56.4226522,52.4268462 56.4226522,51.0281538 L56.4226522,20.625 C56.4226522,19.2250385 55.2916522,18.0865385 53.900913,18.0865385 L35.3736957,18.0865385 L32.5052174,26.3352692 Z" id="Shape" fill="#fcfcfc"></path>
                    <path d="M45.076087,12.375 C41.9478696,12.375 39.4021739,9.81242308 39.4021739,6.66346154 C39.4021739,3.5145 41.9478696,0.951923077 45.076087,0.951923077 C48.2043043,0.951923077 50.75,3.5145 50.75,6.66346154 C50.75,9.81242308 48.2043043,12.375 45.076087,12.375 Z M45.076087,2.22115385 C42.6426087,2.22115385 40.6630435,4.21384615 40.6630435,6.66346154 C40.6630435,9.11307692 42.6426087,11.1057692 45.076087,11.1057692 C47.5095652,11.1057692 49.4891304,9.11307692 49.4891304,6.66346154 C49.4891304,4.21384615 47.5095652,2.22115385 45.076087,2.22115385 Z" id="Shape" fill="#fcfcfc"></path>
                    <path d="M46.4138696,8.64473077 C46.2524783,8.64473077 46.091087,8.58253846 45.9675217,8.45942308 L43.2932174,5.76738462 C43.0473478,5.51988462 43.0473478,5.11753846 43.2932174,4.87003846 C43.539087,4.62253846 43.9387826,4.62253846 44.1846522,4.87003846 L46.8589565,7.56207692 C47.1048261,7.80957692 47.1048261,8.21192308 46.8589565,8.45942308 C46.7353913,8.58253846 46.574,8.64473077 46.4138696,8.64473077 Z" id="Path" fill="#fcfcfc"></path>
                    <path d="M11.6630435,65.0480769 C8.53482609,65.0480769 5.98913043,62.4855 5.98913043,59.3365385 C5.98913043,56.1875769 8.53482609,53.625 11.6630435,53.625 C14.7912609,53.625 17.3369565,56.1875769 17.3369565,59.3365385 C17.3369565,62.4855 14.7912609,65.0480769 11.6630435,65.0480769 Z M11.6630435,54.8942308 C9.22956522,54.8942308 7.25,56.8869231 7.25,59.3365385 C7.25,61.7861538 9.22956522,63.7788462 11.6630435,63.7788462 C14.0965217,63.7788462 16.076087,61.7861538 16.076087,59.3365385 C16.076087,56.8869231 14.0965217,54.8942308 11.6630435,54.8942308 Z" id="Shape" fill="#fcfcfc"></path>
                    <path d="M10.3252609,61.3178077 C10.1638696,61.3178077 10.0024783,61.2556154 9.87891304,61.1325 C9.63304348,60.885 9.63304348,60.4826538 9.87891304,60.2351538 L12.5532174,57.5431154 C12.799087,57.2956154 13.1987826,57.2956154 13.4446522,57.5431154 C13.6905217,57.7906154 13.6905217,58.1929615 13.4446522,58.4404615 L10.7703478,61.1325 C10.6480435,61.2556154 10.4866522,61.3178077 10.3252609,61.3178077 Z" id="Path" fill="#fcfcfc"></path>
                    <path d="M9.77173913,6.66346154 L8.51086957,6.66346154 C8.16286957,6.66346154 7.88043478,6.37915385 7.88043478,6.02884615 C7.88043478,5.67853846 8.16286957,5.39423077 8.51086957,5.39423077 L9.77173913,5.39423077 C10.1197391,5.39423077 10.4021739,5.67853846 10.4021739,6.02884615 C10.4021739,6.37915385 10.1197391,6.66346154 9.77173913,6.66346154 Z" id="Path" fill="#fcfcfc"></path>
                    <path d="M31.2065217,6.66346154 L12.2934783,6.66346154 C11.9454783,6.66346154 11.6630435,6.37915385 11.6630435,6.02884615 C11.6630435,5.67853846 11.9454783,5.39423077 12.2934783,5.39423077 L31.2065217,5.39423077 C31.5545217,5.39423077 31.8369565,5.67853846 31.8369565,6.02884615 C31.8369565,6.37915385 31.5545217,6.66346154 31.2065217,6.66346154 Z" id="Path" fill="#fcfcfc"></path>
                    <path d="M49.4891304,61.2124615 L48.2282609,61.2124615 C47.8802609,61.2124615 47.5978261,60.9281538 47.5978261,60.5778462 C47.5978261,60.2275385 47.8802609,59.9432308 48.2282609,59.9432308 L49.4891304,59.9432308 C49.8371304,59.9432308 50.1195652,60.2275385 50.1195652,60.5778462 C50.1195652,60.9281538 49.8371304,61.2124615 49.4891304,61.2124615 Z" id="Path" fill="#fcfcfc"></path>
                    <path d="M45.7065217,61.2124615 L26.7934783,61.2124615 C26.4454783,61.2124615 26.1630435,60.9281538 26.1630435,60.5778462 C26.1630435,60.2275385 26.4454783,59.9432308 26.7934783,59.9432308 L45.7065217,59.9432308 C46.0545217,59.9432308 46.3369565,60.2275385 46.3369565,60.5778462 C46.3369565,60.9281538 46.0545217,61.2124615 45.7065217,61.2124615 Z" id="Path" fill="#fcfcfc"></path>
                </g>
            </g>
        </g>
    </g>
</svg>