<?xml version="1.0" encoding="UTF-8"?>
<svg width="15px" height="14px" viewBox="0 0 15 14" version="1.1" xmlns="http://www.w3.org/2000/svg" xmlns:xlink="http://www.w3.org/1999/xlink">
    <title>Down Arrow@1,5x</title>
    <defs>
        <filter id="filter-1">
            <feColorMatrix in="SourceGraphic" type="matrix" values="0 0 0 0 1.000000 0 0 0 0 1.000000 0 0 0 0 1.000000 0 0 0 1.000000 0"></feColorMatrix>
        </filter>
    </defs>
    <g id="5.-Pages" stroke="none" stroke-width="1" fill="none" fill-rule="evenodd">
        <g id="5.5-Notifications" transform="translate(-55.000000, -240.000000)">
            <g id="Down-Arrow" transform="translate(32.000000, 210.000000)" filter="url(#filter-1)">
                <g transform="translate(30.500000, 37.000000) rotate(-90.000000) translate(-30.500000, -37.000000) translate(23.000000, 30.000000)">
                    <path d="M7.5,0.291666667 C8.05228475,0.291666667 8.5,0.739381917 8.5,1.29166667 L8.5,12.7083333 C8.5,13.2606181 8.05228475,13.7083333 7.5,13.7083333 C6.94771525,13.7083333 6.5,13.2606181 6.5,12.7083333 L6.5,1.29166667 C6.5,0.739381917 6.94771525,0.291666667 7.5,0.291666667 Z" id="Line" fill="#000000" transform="translate(7.500000, 7.000000) scale(-1, 1) rotate(-90.000000) translate(-7.500000, -7.000000) "></path>
                    <path d="M-0.667895532,10.5526417 C-1.05841982,10.9268941 -1.6915848,10.9268941 -2.08210909,10.5526417 C-2.47263339,10.1783892 -2.47263339,9.57160613 -2.08210909,9.19735369 L3.91789091,3.44735369 C4.29646984,3.08454887 4.90605628,3.07185515 5.30072232,3.4185583 L11.3007223,8.68939164 C11.7078413,9.04703436 11.7353442,9.65324476 11.3621518,10.0434005 C10.9889594,10.4335562 10.356392,10.4599131 9.94927306,10.1022704 L4.65507343,5.45146309 L-0.667895532,10.5526417 Z" id="Path" fill="#000000" fill-rule="nonzero" transform="translate(4.625001, 6.999997) scale(-1, -1) rotate(90.000000) translate(-4.625001, -6.999997) "></path>
                </g>
            </g>
        </g>
    </g>
</svg>