<svg xmlns="http://www.w3.org/2000/svg" width="15" height="13" viewBox="0 0 15 13">
    <defs>
        <filter id="rkq1nc837a">
            <feColorMatrix in="SourceGraphic" values="0 0 0 0 1.000000 0 0 0 0 1.000000 0 0 0 0 1.000000 0 0 0 1.000000 0"/>
        </filter>
    </defs>
    <g fill="none" fill-rule="evenodd">
        <g>
            <g>
                <g filter="url(#rkq1nc837a)" transform="translate(-255.000000, -304.000000) translate(31.927654, 276.338780) translate(223.428210, 22.411220)">
                    <g>
                        <path fill="#000" d="M7.729 1.851l-.932.96c-.103.104-.268.104-.371 0-.05-.05-.078-.119-.078-.19 0-.072.028-.141.078-.191L8.476.316c.412-.421 1.076-.421 1.488 0l1.497 1.542c.41.424.41 1.109 0 1.532L5 10.045l-2.261.333c-.29.053-.587-.043-.794-.257-.208-.215-.301-.52-.249-.819l.324-2.328 3.293-3.392c.103-.105.268-.105.371 0 .05.05.077.118.078.19 0 .072-.028.14-.078.191l-2.796 2.88.932.96 4.844-4.99-.936-.962zm.373-.384l2.235 2.303.746-.768c.203-.211.203-.553 0-.764L9.586.695c-.206-.21-.537-.21-.742 0l-.742.772zm1.863 2.687l-.932-.96-4.844 4.99.932.96 4.845-4.99zM2.511 7.226l-.299 2.15c-.029.128.009.263.1.357.09.093.221.132.346.103l2.088-.307-2.235-2.303zM.263 11.699c-.145 0-.263-.121-.263-.271 0-.15.118-.271.263-.271H13.44c.146 0 .263.121.263.271 0 .15-.117.271-.263.271H.263z" transform="translate(0.000000, 5.500000)"/>
                    </g>
                </g>
            </g>
        </g>
    </g>
</svg>
