<?xml version="1.0" encoding="UTF-8"?>
<svg width="34px" height="36px" viewBox="0 0 34 36" version="1.1" xmlns="http://www.w3.org/2000/svg" xmlns:xlink="http://www.w3.org/1999/xlink">
    <title>energy-consumption@3x</title>
    <defs>
        <filter id="filter-1">
            <feColorMatrix in="SourceGraphic" type="matrix" values="0 0 0 0 1.000000 0 0 0 0 1.000000 0 0 0 0 1.000000 0 0 0 1.000000 0"></feColorMatrix>
        </filter>
        <filter id="filter-2">
            <feColorMatrix in="SourceGraphic" type="matrix" values="0 0 0 0 1.000000 0 0 0 0 1.000000 0 0 0 0 1.000000 0 0 0 1.000000 0"></feColorMatrix>
        </filter>
    </defs>
    <g id="5.-Pages" stroke="none" stroke-width="1" fill="none" fill-rule="evenodd">
        <g id="5.4-Waiting-bills" transform="translate(-248.000000, -275.000000)">
            <g id="List-of-Bills" transform="translate(31.000000, 250.000000)">
                <g id="TV-Montly-subscrabtion" transform="translate(160.000000, 0.000000)">
                    <g id="energy-consumption" transform="translate(57.500000, 25.500000)">
                        <circle id="Oval" fill="#40C4FF" fill-rule="nonzero" cx="15.5859375" cy="19.4140625" r="10.8828125"></circle>
                        <polygon id="Path" stroke="#FFFFFF" fill="#FFD740" fill-rule="nonzero" stroke-linecap="round" stroke-linejoin="round" points="25.9765625 13.3984375 28.1640625 6.8359375 24.8828125 6.8359375 31.4453125 0.2734375 29.2578125 6.8359375 32.5390625 6.8359375"></polygon>
                        <g id="Group" transform="translate(8.750000, 7.109375)" stroke="#263238" stroke-linecap="round" stroke-linejoin="round">
                            <path d="M8.203125,16.6796875 L5.46875,16.6796875 C3.2265625,16.6796875 1.3671875,14.8203125 1.3671875,12.578125 L1.3671875,7.9296875 L12.3046875,7.9296875 L12.3046875,12.578125 C12.3046875,14.8203125 10.4453125,16.6796875 8.203125,16.6796875 Z" id="Path" fill="#FFFFFF" fill-rule="nonzero"></path>
                            <polyline id="Path" fill="#FFFFFF" fill-rule="nonzero" points="9.5703125 9.5703125 10.6640625 9.5703125 10.6640625 10.6640625"></polyline>
                            <polyline id="Path" points="6.015625 24.3359375 6.015625 18.3203125 7.65625 18.3203125 7.65625 24.3359375"></polyline>
                            <path d="M4.1015625,5.7421875 L4.1015625,1.3671875 C4.1015625,0.765625 3.609375,0.2734375 3.0078125,0.2734375 L3.0078125,0.2734375 C2.40625,0.2734375 1.9140625,0.765625 1.9140625,1.3671875 L1.9140625,5.7421875 L4.1015625,5.7421875 Z" id="Path" fill="#FFFFFF" fill-rule="nonzero"></path>
                            <path d="M11.7578125,5.7421875 L11.7578125,1.3671875 C11.7578125,0.765625 11.265625,0.2734375 10.6640625,0.2734375 L10.6640625,0.2734375 C10.0625,0.2734375 9.5703125,0.765625 9.5703125,1.3671875 L9.5703125,5.7421875 L11.7578125,5.7421875 Z" id="Path" fill="#FFFFFF" fill-rule="nonzero"></path>
                            <path d="M12.8515625,7.9296875 L0.8203125,7.9296875 C0.4921875,7.9296875 0.2734375,7.7109375 0.2734375,7.3828125 L0.2734375,6.2890625 C0.2734375,5.9609375 0.4921875,5.7421875 0.8203125,5.7421875 L12.8515625,5.7421875 C13.1796875,5.7421875 13.3984375,5.9609375 13.3984375,6.2890625 L13.3984375,7.3828125 C13.3984375,7.7109375 13.1796875,7.9296875 12.8515625,7.9296875 Z" id="Path" fill="#FFFFFF" fill-rule="nonzero"></path>
                            <path d="M7.9296875,16.6796875 L5.7421875,16.6796875 C5.4140625,16.6796875 5.1953125,16.8984375 5.1953125,17.2265625 L5.1953125,17.7734375 C5.1953125,18.1015625 5.4140625,18.3203125 5.7421875,18.3203125 L7.9296875,18.3203125 C8.2578125,18.3203125 8.4765625,18.1015625 8.4765625,17.7734375 L8.4765625,17.2265625 C8.4765625,16.8984375 8.2578125,16.6796875 7.9296875,16.6796875 Z" id="Path" fill="#FFFFFF" fill-rule="nonzero"></path>
                            <line x1="4.1015625" y1="13.671875" x2="9.5703125" y2="13.671875" id="Path" fill="#FFFFFF" fill-rule="nonzero"></line>
                            <line x1="4.1015625" y1="12.03125" x2="9.5703125" y2="12.03125" id="Path" fill="#FFFFFF" fill-rule="nonzero"></line>
                        </g>
                        <g filter="url(#filter-1)" id="Group" stroke-linecap="round" stroke-linejoin="round">
                            <g transform="translate(0.000000, 3.828125)">
                                <g id="Path" stroke="#263238">
                                    <path d="M0.2734375,15.5859375 C0.2734375,7.109375 7.109375,0.2734375 15.5859375,0.2734375"></path>
                                    <line x1="16.6796875" y1="0.2734375" x2="17.2265625" y2="0.2734375"></line>
                                </g>
                                <g transform="translate(13.671875, 15.312500)" id="Path" stroke="#263238">
                                    <path d="M17.2265625,0.2734375 C17.2265625,8.75 10.390625,15.5859375 1.9140625,15.5859375"></path>
                                    <line x1="0.2734375" y1="15.5859375" x2="0.8203125" y2="15.5859375"></line>
                                </g>
                            </g>
                        </g>
                        <g filter="url(#filter-2)" id="Group" stroke-linecap="round" stroke-linejoin="round">
                            <g transform="translate(1.640625, 23.515625)">
                                <g transform="translate(3.828125, 0.000000)" id="Path" stroke="#263238">
                                    <line x1="2.515625" y1="1.3125" x2="0.328125" y2="1.3125"></line>
                                    <line x1="1.421875" y1="0.21875" x2="1.421875" y2="2.40625"></line>
                                </g>
                                <g transform="translate(0.000000, 3.281250)" id="Path" stroke="#263238">
                                    <line x1="2.515625" y1="1.5859375" x2="0.328125" y2="1.5859375"></line>
                                    <line x1="1.421875" y1="0.4921875" x2="1.421875" y2="2.6796875"></line>
                                </g>
                            </g>
                        </g>
                    </g>
                </g>
            </g>
        </g>
    </g>
</svg>