<?xml version="1.0" encoding="UTF-8"?>
<svg width="18px" height="14px" viewBox="0 0 18 14" version="1.1" xmlns="http://www.w3.org/2000/svg" xmlns:xlink="http://www.w3.org/1999/xlink">
    <title>email@3x</title>
    <g id="6.-Components" stroke="none" stroke-width="1" fill="none" fill-rule="evenodd">
        <g id="6.6-Buttons" transform="translate(-145.000000, -1701.000000)">
            <g id="Full-width-shadowed" transform="translate(31.000000, 1161.000000)">
                <g id="Light" transform="translate(1.000000, 519.000000)">
                    <g id="ic_12_sd" transform="translate(113.000000, 19.000000)">
                        <polygon id="Path" points="0 0 18 0 18 18 0 18"></polygon>
                        <path d="M11.3601724,8.9397931 L9.65668966,10.6426552 C9.29312083,11.0061142 8.70377572,11.0061142 8.3402069,10.6426552 L6.63858621,8.94072414 L1.54862069,13.1825172 L1.54862069,14.2913793 C1.54862069,14.462778 1.6875668,14.6017241 1.85896552,14.6017241 L16.1382414,14.5868276 C16.3095189,14.5866563 16.4482759,14.4477604 16.4482759,14.2764828 L16.4482759,13.1797241 L11.3601724,8.9397931 Z M16.4482759,12.3718966 L16.4482759,5.5862069 C16.4482759,5.41480818 16.587222,5.27586207 16.7586207,5.27586207 C16.9300194,5.27586207 17.0689655,5.41480818 17.0689655,5.5862069 L17.0689655,14.2764828 C17.0689655,14.7903155 16.6526946,15.2070034 16.1388621,15.2075172 L1.85989655,15.2224143 C1.61280958,15.2226609 1.37575806,15.1246791 1.20095381,14.9500495 C1.02614956,14.7754199 0.927931034,14.5384664 0.927931034,14.2913793 L0.927931034,3.72413793 C0.927931034,3.20994178 1.34476937,2.79310342 1.85896552,2.79310342 L16.0091379,2.79310342 C16.2601988,2.79310342 16.4865787,2.94421106 16.5827063,3.17614001 C16.6788338,3.40806897 16.6257759,3.67506707 16.4482759,3.85262069 L11.8008621,8.49910345 L16.4482759,12.3718966 Z M1.54862069,12.3743793 L6.1982069,8.50034483 L2.57337931,4.87489655 C2.49499031,4.79645212 2.46440549,4.68214643 2.49314587,4.57503735 C2.52188624,4.46792827 2.60558546,4.3842882 2.71271484,4.35562355 C2.81984421,4.32695891 2.93412824,4.35762453 3.01251724,4.43606897 L8.77903448,10.2041379 C8.90022409,10.3252909 9.09667246,10.3252909 9.21786207,10.2041379 L16.0091379,3.4137931 L1.85896552,3.4137931 C1.6875668,3.4137931 1.54862069,3.55273922 1.54862069,3.72413793 L1.54862069,12.3743793 Z M6.20689655,12.7241379 L11.7931034,12.7241379 C11.9645022,12.7241379 12.1034483,12.863084 12.1034483,13.0344828 C12.1034483,13.2058815 11.9645022,13.3448276 11.7931034,13.3448276 L6.20689655,13.3448276 C6.03549784,13.3448276 5.89655172,13.2058815 5.89655172,13.0344828 C5.89655172,12.863084 6.03549784,12.7241379 6.20689655,12.7241379 Z" id="Shape" fill="#333333" fill-rule="nonzero"></path>
                    </g>
                </g>
            </g>
        </g>
    </g>
</svg>