<?xml version="1.0" encoding="UTF-8"?>
<svg width="35px" height="31px" viewBox="0 0 35 31" version="1.1" xmlns="http://www.w3.org/2000/svg" xmlns:xlink="http://www.w3.org/1999/xlink">
    <title>exchange icon@3x</title>
    <g id="2.-Home" stroke="none" stroke-width="1" fill="none" fill-rule="evenodd">
        <g id="2.0-Home" transform="translate(-210.000000, -209.000000)" fill-rule="nonzero">
            <g id="TOP-SECTION" transform="translate(0.000000, 74.000000)">
                <g id="BIG-BUTTONS" transform="translate(32.000000, 122.000000)">
                    <g id="Exchange" transform="translate(163.000000, 0.000000)">
                        <g id="conflict-of-interest" transform="translate(15.000000, 13.000000)">
                            <g id="Group" transform="translate(1.250000, 4.355556)">
                                <polygon id="Path" fill="#40C4FF" points="19.875625 4.35555556 8.000625 4.35555556 8.000625 0.622222222 0.500625 8.08888889 8.000625 15.5555556 8.000625 11.8222222 19.875625 11.8222222"></polygon>
                                <path d="M8.000625,15.8666667 C7.919375,15.8666667 7.839375,15.8349333 7.779375,15.7758222 L0.279375,8.30915556 C0.1575,8.18782222 0.1575,7.99057778 0.279375,7.86924444 L7.779375,0.402577778 C7.86875,0.312977778 8.003125,0.286222222 8.12,0.335377778 C8.236875,0.383288889 8.313125,0.497155556 8.313125,0.622844444 L8.313125,4.04506667 L19.875625,4.04506667 C20.048125,4.04506667 20.188125,4.18444444 20.188125,4.35617778 L20.188125,11.8228444 C20.188125,11.9945778 20.048125,12.1339556 19.875625,12.1339556 L8.313125,12.1339556 L8.313125,15.5555556 C8.313125,15.6812444 8.236875,15.7951111 8.12,15.8430222 C8.081875,15.8592 8.04125,15.8666667 8.000625,15.8666667 Z M0.9425,8.08888889 L7.688125,14.8045333 L7.688125,11.8222222 C7.688125,11.6504889 7.828125,11.5111111 8.000625,11.5111111 L19.563125,11.5111111 L19.563125,4.66666667 L8.000625,4.66666667 C7.828125,4.66666667 7.688125,4.52728889 7.688125,4.35555556 L7.688125,1.37324444 L0.9425,8.08888889 Z" id="Shape" fill="#FFFFFF"></path>
                            </g>
                            <g id="Group" transform="translate(11.875000, 14.933333)">
                                <polygon id="Path" fill="#FF5252" points="19.875625 8.08888889 12.375625 0.622222222 12.375625 4.35555556 0.500625 4.35555556 0.500625 11.8222222 12.375625 11.8222222 12.375625 15.5555556"></polygon>
                                <path d="M12.375625,15.8666667 C12.335625,15.8666667 12.295,15.8592 12.25625,15.8430222 C12.139375,15.7951111 12.063125,15.6812444 12.063125,15.5555556 L12.063125,12.1333333 L0.500625,12.1333333 C0.328125,12.1333333 0.188125,11.9939556 0.188125,11.8222222 L0.188125,4.35555556 C0.188125,4.18382222 0.328125,4.04444444 0.500625,4.04444444 L12.063125,4.04444444 L12.063125,0.622222222 C12.063125,0.496533333 12.139375,0.382666667 12.25625,0.334755556 C12.373125,0.286844444 12.5075,0.3136 12.596875,0.401955556 L20.096875,7.86862222 C20.21875,7.98995556 20.21875,8.1872 20.096875,8.30853333 L12.596875,15.7752 C12.536875,15.8349333 12.456875,15.8666667 12.375625,15.8666667 Z M0.813125,11.5111111 L12.375625,11.5111111 C12.548125,11.5111111 12.688125,11.6504889 12.688125,11.8222222 L12.688125,14.8045333 L19.43375,8.08888889 L12.688125,1.37324444 L12.688125,4.35555556 C12.688125,4.52728889 12.548125,4.66666667 12.375625,4.66666667 L0.813125,4.66666667 L0.813125,11.5111111 Z" id="Shape" fill="#FFFFFF"></path>
                            </g>
                            <path d="M32.5,12.7555556 L26.25,12.7555556 C26.0775,12.7555556 25.9375,12.6161778 25.9375,12.4444444 C25.9375,12.2727111 26.0775,12.1333333 26.25,12.1333333 L32.5,12.1333333 C32.6725,12.1333333 32.8125,12.2727111 32.8125,12.4444444 C32.8125,12.6161778 32.6725,12.7555556 32.5,12.7555556 Z" id="Path" fill="#FFFFFF"></path>
                            <path d="M34.375,12.7555556 L33.75,12.7555556 C33.5775,12.7555556 33.4375,12.6161778 33.4375,12.4444444 C33.4375,12.2727111 33.5775,12.1333333 33.75,12.1333333 L34.375,12.1333333 C34.5475,12.1333333 34.6875,12.2727111 34.6875,12.4444444 C34.6875,12.6161778 34.5475,12.7555556 34.375,12.7555556 Z" id="Path" fill="#FFFFFF"></path>
                            <path d="M8.75,24.0787556 L2.5,24.0787556 C2.3275,24.0787556 2.1875,23.9393778 2.1875,23.7676444 C2.1875,23.5959111 2.3275,23.4565333 2.5,23.4565333 L8.75,23.4565333 C8.9225,23.4565333 9.0625,23.5959111 9.0625,23.7676444 C9.0625,23.9393778 8.9225,24.0787556 8.75,24.0787556 Z" id="Path" fill="#FFFFFF"></path>
                            <path d="M1.25,24.0793778 L0.625,24.0793778 C0.4525,24.0793778 0.3125,23.94 0.3125,23.7682667 C0.3125,23.5965333 0.4525,23.4571556 0.625,23.4571556 L1.25,23.4571556 C1.4225,23.4571556 1.5625,23.5965333 1.5625,23.7682667 C1.5625,23.94 1.4225,24.0793778 1.25,24.0793778 Z" id="Path" fill="#FFFFFF"></path>
                            <path d="M23.625625,2.17777778 L21.125625,2.17777778 C20.953125,2.17777778 20.813125,2.0384 20.813125,1.86666667 C20.813125,1.69493333 20.953125,1.55555556 21.125625,1.55555556 L23.625625,1.55555556 C23.798125,1.55555556 23.938125,1.69493333 23.938125,1.86666667 C23.938125,2.0384 23.79875,2.17777778 23.625625,2.17777778 Z" id="Path" fill="#FFFFFF"></path>
                            <path d="M22.375625,3.42222222 C22.203125,3.42222222 22.063125,3.28284444 22.063125,3.11111111 L22.063125,0.622222222 C22.063125,0.450488889 22.203125,0.311111111 22.375625,0.311111111 C22.548125,0.311111111 22.688125,0.450488889 22.688125,0.622222222 L22.688125,3.11111111 C22.688125,3.28284444 22.54875,3.42222222 22.375625,3.42222222 Z" id="Path" fill="#FFFFFF"></path>
                            <path d="M27.375625,5.6 L24.875625,5.6 C24.703125,5.6 24.563125,5.46062222 24.563125,5.28888889 C24.563125,5.11715556 24.703125,4.97777778 24.875625,4.97777778 L27.375625,4.97777778 C27.548125,4.97777778 27.688125,5.11715556 27.688125,5.28888889 C27.688125,5.46062222 27.54875,5.6 27.375625,5.6 Z" id="Path" fill="#FFFFFF"></path>
                            <path d="M26.125625,6.84444444 C25.953125,6.84444444 25.813125,6.70506667 25.813125,6.53333333 L25.813125,4.04444444 C25.813125,3.87271111 25.953125,3.73333333 26.125625,3.73333333 C26.298125,3.73333333 26.438125,3.87271111 26.438125,4.04444444 L26.438125,6.53333333 C26.438125,6.70506667 26.29875,6.84444444 26.125625,6.84444444 Z" id="Path" fill="#FFFFFF"></path>
                        </g>
                    </g>
                </g>
            </g>
        </g>
    </g>
</svg>