<svg xmlns="http://www.w3.org/2000/svg" width="35" height="32" viewBox="0 0 35 32">
    <g fill="none" fill-rule="evenodd">
        <g fill-rule="nonzero">
            <g>
                <g>
                    <g>
                        <g>
                            <g>
                                <path fill="#40C4FF" d="M19.876 4.356L8.001 4.356 8.001 0.622 0.501 8.089 8.001 15.556 8.001 11.822 19.876 11.822z" transform="translate(-210 -209) translate(0 74) translate(32 122) translate(163) translate(15 13) translate(1.25 4.356)"/>
                                <path fill="#263238" d="M8 15.867c-.08 0-.16-.032-.22-.091L.28 8.309c-.123-.121-.123-.318 0-.44L7.78.403c.089-.09.223-.117.34-.068.117.048.193.162.193.288v3.422h11.563c.172 0 .312.14.312.311v7.467c0 .172-.14.311-.312.311H8.313v3.422c0 .125-.076.24-.193.287-.038.016-.079.024-.12.024zM.943 8.089l6.746 6.716v-2.983c0-.172.14-.31.313-.31h11.562V4.666H8.001c-.173 0-.313-.14-.313-.311V1.373L.943 8.09z" transform="translate(-210 -209) translate(0 74) translate(32 122) translate(163) translate(15 13) translate(1.25 4.356)"/>
                            </g>
                            <g>
                                <path fill="#FF5252" d="M19.876 8.089L12.376 0.622 12.376 4.356 0.501 4.356 0.501 11.822 12.376 11.822 12.376 15.556z" transform="translate(-210 -209) translate(0 74) translate(32 122) translate(163) translate(15 13) translate(11.875 14.933)"/>
                                <path fill="#263238" d="M12.376 15.867c-.04 0-.081-.008-.12-.024-.117-.048-.193-.162-.193-.287v-3.423H.501c-.173 0-.313-.139-.313-.31V4.355c0-.172.14-.312.313-.312h11.562V.622c0-.125.076-.24.193-.287.117-.048.252-.021.34.067l7.5 7.467c.123.121.123.318 0 .44l-7.5 7.466c-.06.06-.14.092-.22.092zM.813 11.51h11.563c.172 0 .312.14.312.311v2.983l6.746-6.716-6.746-6.716v2.983c0 .171-.14.31-.312.31H.813v6.845z" transform="translate(-210 -209) translate(0 74) translate(32 122) translate(163) translate(15 13) translate(11.875 14.933)"/>
                            </g>
                            <path fill="#263238" d="M32.5 12.756h-6.25c-.172 0-.313-.14-.313-.312 0-.171.14-.31.313-.31h6.25c.172 0 .313.139.313.31 0 .172-.14.312-.313.312zM34.375 12.756h-.625c-.172 0-.313-.14-.313-.312 0-.171.14-.31.313-.31h.625c.172 0 .313.139.313.31 0 .172-.14.312-.313.312zM8.75 24.079H2.5c-.172 0-.313-.14-.313-.311 0-.172.14-.311.313-.311h6.25c.172 0 .313.139.313.31 0 .172-.14.312-.313.312zM1.25 24.08H.625c-.172 0-.313-.14-.313-.312 0-.171.14-.31.313-.31h.625c.173 0 .313.139.313.31 0 .172-.14.311-.313.311zM23.626 2.178h-2.5c-.173 0-.313-.14-.313-.311 0-.172.14-.311.313-.311h2.5c.172 0 .312.139.312.31 0 .172-.14.312-.312.312z" transform="translate(-210 -209) translate(0 74) translate(32 122) translate(163) translate(15 13)"/>
                            <path fill="#263238" d="M22.376 3.422c-.173 0-.313-.14-.313-.31V.621c0-.172.14-.31.313-.31.172 0 .312.138.312.31v2.49c0 .17-.14.31-.312.31zM27.376 5.6h-2.5c-.173 0-.313-.14-.313-.311 0-.172.14-.311.313-.311h2.5c.172 0 .312.14.312.31 0 .173-.14.312-.312.312z" transform="translate(-210 -209) translate(0 74) translate(32 122) translate(163) translate(15 13)"/>
                            <path fill="#263238" d="M26.126 6.844c-.173 0-.313-.139-.313-.31v-2.49c0-.171.14-.31.313-.31.172 0 .312.139.312.31v2.49c0 .171-.14.31-.312.31z" transform="translate(-210 -209) translate(0 74) translate(32 122) translate(163) translate(15 13)"/>
                        </g>
                    </g>
                </g>
            </g>
        </g>
    </g>
</svg>
