<?xml version="1.0" encoding="UTF-8"?>
<svg width="79px" height="92px" viewBox="0 0 79 92" version="1.1" xmlns="http://www.w3.org/2000/svg" xmlns:xlink="http://www.w3.org/1999/xlink">
    <title>personal-data-protection@3x</title>
    <g id="1.-Welcome" stroke="none" stroke-width="1" fill="none" fill-rule="evenodd">
        <g id="1.3-Reset-Password" transform="translate(-148.000000, -126.000000)" fill-rule="nonzero">
            <g id="personal-data-protection" transform="translate(147.000000, 125.000000)">
                <path d="M60.9750943,92.625 L47.3916981,92.625 C42.8150943,92.625 39.0898113,88.923 39.0898113,84.375 L39.0898113,79.875 C39.0898113,79.461 39.4279245,79.125 39.8445283,79.125 C40.2611321,79.125 40.5992453,79.461 40.5992453,79.875 L40.5992453,84.375 C40.5992453,88.0965 43.6467925,91.125 47.3916981,91.125 L60.9750943,91.125 C64.72,91.125 67.7675472,88.0965 67.7675472,84.375 L67.7675472,64.875 C67.7675472,64.461 68.1056604,64.125 68.5222642,64.125 C68.9388679,64.125 69.2769811,64.461 69.2769811,64.875 L69.2769811,84.375 C69.2769811,88.923 65.5532075,92.625 60.9750943,92.625 Z" id="Path" fill="#263238"></path>
                <path d="M35.314717,45.375 L26.2581132,45.375 C25.8415094,45.375 25.5033962,45.039 25.5033962,44.625 C25.5033962,44.211 25.8415094,43.875 26.2581132,43.875 L35.314717,43.875 C35.7313208,43.875 36.069434,44.211 36.069434,44.625 C36.069434,45.039 35.7328302,45.375 35.314717,45.375 Z" id="Path" fill="#263238"></path>
                <path d="M33.5849057,85.125 L32.0754717,85.125 C31.6588679,85.125 31.3207547,84.789 31.3207547,84.375 C31.3207547,83.961 31.6588679,83.625 32.0754717,83.625 L33.5849057,83.625 C34.0015094,83.625 34.3396226,83.961 34.3396226,84.375 C34.3396226,84.789 34.0015094,85.125 33.5849057,85.125 Z" id="Path" fill="#263238"></path>
                <path d="M29.0566038,85.125 L14.7169811,85.125 C14.3003774,85.125 13.9622642,84.789 13.9622642,84.375 C13.9622642,83.961 14.3003774,83.625 14.7169811,83.625 L29.0566038,83.625 C29.4732075,83.625 29.8113208,83.961 29.8113208,84.375 C29.8113208,84.789 29.4732075,85.125 29.0566038,85.125 Z" id="Path" fill="#263238"></path>
                <path d="M32.6732075,13.125 L31.1637736,13.125 C30.7471698,13.125 30.4090566,12.789 30.4090566,12.375 C30.4090566,11.961 30.7471698,11.625 31.1637736,11.625 L32.6732075,11.625 C33.0898113,11.625 33.4279245,11.961 33.4279245,12.375 C33.4279245,12.789 33.0913208,13.125 32.6732075,13.125 Z" id="Path" fill="#263238"></path>
                <path d="M50.0316981,13.125 L35.6920755,13.125 C35.2754717,13.125 34.9373585,12.789 34.9373585,12.375 C34.9373585,11.961 35.2754717,11.625 35.6920755,11.625 L50.0316981,11.625 C50.4483019,11.625 50.7864151,11.961 50.7864151,12.375 C50.7864151,12.789 50.4498113,13.125 50.0316981,13.125 Z" id="Path" fill="#263238"></path>
                <path d="M4.90566038,25.125 C4.4890566,25.125 4.1509434,24.789 4.1509434,24.375 L4.1509434,18.375 C4.1509434,17.961 4.4890566,17.625 4.90566038,17.625 C5.32226415,17.625 5.66037736,17.961 5.66037736,18.375 L5.66037736,24.375 C5.66037736,24.789 5.32226415,25.125 4.90566038,25.125 Z" id="Path" fill="#263238"></path>
                <path d="M7.9245283,22.125 L1.88679245,22.125 C1.47018868,22.125 1.13207547,21.789 1.13207547,21.375 C1.13207547,20.961 1.47018868,20.625 1.88679245,20.625 L7.9245283,20.625 C8.34113208,20.625 8.67924528,20.961 8.67924528,21.375 C8.67924528,21.789 8.34113208,22.125 7.9245283,22.125 Z" id="Path" fill="#263238"></path>
                <path d="M15.4716981,14.625 C15.0550943,14.625 14.7169811,14.289 14.7169811,13.875 L14.7169811,7.875 C14.7169811,7.461 15.0550943,7.125 15.4716981,7.125 C15.8883019,7.125 16.2264151,7.461 16.2264151,7.875 L16.2264151,13.875 C16.2264151,14.289 15.8883019,14.625 15.4716981,14.625 Z" id="Path" fill="#263238"></path>
                <path d="M18.490566,11.625 L12.4528302,11.625 C12.0362264,11.625 11.6981132,11.289 11.6981132,10.875 C11.6981132,10.461 12.0362264,10.125 12.4528302,10.125 L18.490566,10.125 C18.9071698,10.125 19.245283,10.461 19.245283,10.875 C19.245283,11.289 18.9071698,11.625 18.490566,11.625 Z" id="Path" fill="#263238"></path>
                <g id="Group" transform="translate(55.849057, 42.000000)">
                    <path d="M20.2218868,1.875 L5.12754717,1.875 C3.45962264,1.875 2.10867925,3.264 2.10867925,4.9785 L2.10867925,16.7715 C2.10867925,18.486 3.45962264,19.875 5.12754717,19.875 L20.2218868,19.875 C21.8898113,19.875 23.2407547,18.486 23.2407547,16.7715 L23.2407547,4.9785 C23.2407547,3.264 21.8898113,1.875 20.2218868,1.875 Z" id="Path" fill="#FFD740"></path>
                    <path d="M20.2203774,20.625 L5.12603774,20.625 C3.0445283,20.625 1.35245283,18.897 1.35245283,16.7715 L1.35245283,4.98 C1.35245283,2.8545 3.0445283,1.1265 5.12603774,1.1265 L20.2203774,1.1265 C22.3018868,1.1265 23.9939623,2.8545 23.9939623,4.98 L23.9939623,16.7715 C23.9939623,18.897 22.3018868,20.625 20.2203774,20.625 Z M5.12603774,2.625 C3.87773585,2.625 2.86188679,3.681 2.86188679,4.9785 L2.86188679,16.77 C2.86188679,18.0675 3.87773585,19.1235 5.12603774,19.1235 L20.2203774,19.1235 C21.4686792,19.1235 22.4845283,18.0675 22.4845283,16.77 L22.4845283,4.9785 C22.4845283,3.681 21.4686792,2.625 20.2203774,2.625 L5.12603774,2.625 L5.12603774,2.625 Z" id="Shape" fill="#263238"></path>
                </g>
                <path d="M76.0709434,44.625 L71.5426415,44.625 C71.1260377,44.625 70.7879245,44.289 70.7879245,43.875 L70.7879245,38.625 C70.7879245,38.2125 70.4483019,37.875 70.0332075,37.875 L67.0143396,37.875 C66.5992453,37.875 66.2596226,38.2125 66.2596226,38.625 L66.2596226,43.875 C66.2596226,44.289 65.9215094,44.625 65.5049057,44.625 L60.9766038,44.625 C60.56,44.625 60.2218868,44.289 60.2218868,43.875 L60.2218868,38.625 C60.2218868,34.9035 63.269434,31.875 67.0143396,31.875 L70.0332075,31.875 C73.7781132,31.875 76.8256604,34.9035 76.8256604,38.625 L76.8256604,43.875 C76.8256604,44.289 76.4890566,44.625 76.0709434,44.625 Z M72.2973585,43.125 L75.3162264,43.125 L75.3162264,38.625 C75.3162264,35.73 72.9464151,33.375 70.0332075,33.375 L67.0143396,33.375 C64.1011321,33.375 61.7313208,35.73 61.7313208,38.625 L61.7313208,43.125 L64.7501887,43.125 L64.7501887,38.625 C64.7501887,37.3845 65.7660377,36.375 67.0143396,36.375 L70.0332075,36.375 C71.2815094,36.375 72.2973585,37.3845 72.2973585,38.625 L72.2973585,43.125 Z" id="Shape" fill="#263238"></path>
                <path d="M47.3916981,77.625 L30.0316981,77.625 C23.3735849,77.625 17.9562264,72.2415 17.9562264,65.625 L17.9562264,61.125 L14.7230189,61.125 C13.0188679,61.125 11.4762264,60.189 10.6958491,58.683 C9.9154717,57.177 10.0467925,55.3875 11.0384906,54.009 L17.9562264,44.385 L17.9562264,38.625 C17.9562264,27.873 26.7592453,19.125 37.5788679,19.125 L49.6543396,19.125 C56.8362264,19.125 63.4384906,23.0265 66.8845283,29.3055 C67.0837736,29.6685 66.9479245,30.1245 66.5826415,30.324 C66.2173585,30.5205 65.7584906,30.3885 65.5577358,30.024 C62.3788679,24.228 56.2822642,20.625 49.6543396,20.625 L37.5788679,20.625 C27.5909434,20.625 19.4656604,28.6995 19.4656604,38.625 L19.4656604,44.625 C19.4656604,44.781 19.4173585,44.934 19.325283,45.0615 L12.2671698,54.882 C11.5969811,55.8135 11.5109434,56.9775 12.0377358,57.9975 C12.5660377,59.0175 13.5698113,59.625 14.7230189,59.625 L18.7109434,59.625 C19.1275472,59.625 19.4656604,59.961 19.4656604,60.375 L19.4656604,65.625 C19.4656604,71.4135 24.2067925,76.125 30.0316981,76.125 L47.3916981,76.125 C47.8083019,76.125 48.1464151,76.461 48.1464151,76.875 C48.1464151,77.289 47.8098113,77.625 47.3916981,77.625 Z" id="Path" fill="#263238"></path>
                <ellipse id="Oval" fill="#4DB6AC" cx="68.3018868" cy="12.375" rx="11.3207547" ry="11.25"></ellipse>
                <path d="M66.1675472,16.617 C65.9743396,16.617 65.7811321,16.5435 65.6332075,16.398 L61.3645283,12.156 C61.0701887,11.8635 61.0701887,11.388 61.3645283,11.0955 C61.6588679,10.803 62.1373585,10.803 62.4316981,11.0955 L66.1675472,14.808 L73.6377358,7.3845 C73.9320755,7.092 74.410566,7.092 74.7049057,7.3845 C74.9992453,7.677 74.9992453,8.1525 74.7049057,8.445 L66.7003774,16.3995 C66.5539623,16.5435 66.3607547,16.617 66.1675472,16.617 Z" id="Path" fill="#263238"></path>
            </g>
        </g>
    </g>
</svg>