<?xml version="1.0" encoding="UTF-8"?>
<svg width="32px" height="36px" viewBox="0 0 32 36" version="1.1" xmlns="http://www.w3.org/2000/svg" xmlns:xlink="http://www.w3.org/1999/xlink">
    <title>Insurance_bill@3x</title>
    <defs>
        <filter id="filter-1">
            <feColorMatrix in="SourceGraphic" type="matrix" values="0 0 0 0 1.000000 0 0 0 0 1.000000 0 0 0 0 1.000000 0 0 0 1.000000 0"></feColorMatrix>
        </filter>
        <filter id="filter-2">
            <feColorMatrix in="SourceGraphic" type="matrix" values="0 0 0 0 1.000000 0 0 0 0 1.000000 0 0 0 0 1.000000 0 0 0 1.000000 0"></feColorMatrix>
        </filter>
        <filter id="filter-3">
            <feColorMatrix in="SourceGraphic" type="matrix" values="0 0 0 0 1.000000 0 0 0 0 1.000000 0 0 0 0 1.000000 0 0 0 1.000000 0"></feColorMatrix>
        </filter>
    </defs>
    <g id="5.-Pages" stroke="none" stroke-width="1" fill="none" fill-rule="evenodd" stroke-linecap="round" stroke-linejoin="round">
        <g id="5.4-Waiting-bills" transform="translate(-249.000000, -699.000000)">
            <g id="List-of-Bills" transform="translate(31.000000, 250.000000)">
                <g id="6th-Amazon-Subscription" transform="translate(159.000000, 424.000000)">
                    <g id="smart-care" transform="translate(60.000000, 25.500000)">
                        <path d="M7.3828125,12.8515625 L7.3828125,10.6640625 C7.3828125,9.1328125 8.5859375,7.9296875 10.1171875,7.9296875 L17.2265625,7.9296875 C18.7578125,7.9296875 19.9609375,9.1328125 19.9609375,10.6640625 L19.9609375,12.8515625 M18.046875,12.8515625 L18.046875,11.2109375 C18.046875,10.4453125 17.4453125,9.84375 16.6796875,9.84375 L10.6640625,9.84375 C9.8984375,9.84375 9.296875,10.4453125 9.296875,11.2109375 L9.296875,12.8515625" id="Shape" stroke="#FFFFFF"></path>
                        <path d="M27.0703125,22.6953125 L27.0703125,16.6796875 C27.0703125,15.1484375 25.8671875,13.9453125 24.3359375,13.9453125 L3.0078125,13.9453125 C1.4765625,13.9453125 0.2734375,15.1484375 0.2734375,16.6796875 L0.2734375,29.8046875 C0.2734375,31.3359375 1.4765625,32.5390625 3.0078125,32.5390625 L22.6953125,32.5390625" id="Path" stroke="#FFFFFF"></path>
                        <g id="Group" transform="translate(7.109375, 16.406250)" fill-rule="nonzero">
                            <circle id="Oval" stroke="#FFFFFF" fill="#40C4FF" cx="6.5625" cy="6.8359375" r="6.5625"></circle>
                            <path d="M3.28125,5.46875 L5.1953125,5.46875 L5.1953125,3.5546875 C5.1953125,3.2265625 5.4140625,3.0078125 5.7421875,3.0078125 L7.3828125,3.0078125 C7.7109375,3.0078125 7.9296875,3.2265625 7.9296875,3.5546875 L7.9296875,5.46875 L9.84375,5.46875 C10.171875,5.46875 10.390625,5.6875 10.390625,6.015625 L10.390625,7.65625 C10.390625,7.984375 10.171875,8.203125 9.84375,8.203125 L7.9296875,8.203125 L7.9296875,10.1171875 C7.9296875,10.4453125 7.7109375,10.6640625 7.3828125,10.6640625 L5.7421875,10.6640625 C5.4140625,10.6640625 5.1953125,10.4453125 5.1953125,10.1171875 L5.1953125,8.203125 L3.28125,8.203125 C2.953125,8.203125 2.734375,7.984375 2.734375,7.65625 L2.734375,6.015625 C2.734375,5.6875 2.953125,5.46875 3.28125,5.46875 Z" id="Path" stroke="#263238" fill="#FFFFFF"></path>
                        </g>
                        <g filter="url(#filter-1)" id="Group">
                            <g transform="translate(23.515625, 23.515625)">
                                <path d="M6.8359375,10.1171875 L6.8359375,1.3671875 C6.8359375,0.765625 6.34375,0.2734375 5.7421875,0.2734375 L1.3671875,0.2734375 C0.765625,0.2734375 0.2734375,0.765625 0.2734375,1.3671875 L0.2734375,10.1171875 C0.2734375,10.71875 0.765625,11.2109375 1.3671875,11.2109375 L5.7421875,11.2109375 C6.34375,11.2109375 6.8359375,10.71875 6.8359375,10.1171875 Z" id="Path" stroke="#263238"></path>
                                <path d="M0.2734375,9.0234375 L6.8359375,9.0234375 L6.8359375,10.1171875 C6.8359375,10.71875 6.34375,11.2109375 5.7421875,11.2109375 L1.3671875,11.2109375 C0.765625,11.2109375 0.2734375,10.71875 0.2734375,10.1171875 L0.2734375,9.0234375 Z" id="Path" stroke="#263238"></path>
                                <line x1="4.1015625" y1="10.1171875" x2="3.0078125" y2="10.1171875" id="Path" stroke="#263238"></line>
                            </g>
                        </g>
                        <g filter="url(#filter-2)" id="Group">
                            <g>
                                <g id="Path" stroke="#263238">
                                    <path d="M8.8046875,2.0234375 C6.453125,-0.328125 2.625,-0.328125 0.2734375,2.0234375"></path>
                                    <path d="M7.21875,3.609375 C5.7421875,2.1328125 3.28125,2.1328125 1.8046875,3.609375"></path>
                                    <path d="M5.6875,5.140625 C5.03125,4.484375 3.9921875,4.484375 3.390625,5.140625"></path>
                                </g>
                                <g transform="translate(3.281250, 7.109375)" id="Path" stroke="#263238">
                                    <g transform="translate(1.640625, 0.000000)">
                                        <line x1="0.4375" y1="9.5703125" x2="0.4375" y2="10.1171875"></line>
                                        <line x1="0.4375" y1="0.2734375" x2="0.4375" y2="8.4765625"></line>
                                    </g>
                                    <g>
                                        <line x1="0.4375" y1="0.8203125" x2="0.4375" y2="0.2734375"></line>
                                        <line x1="0.4375" y1="10.1171875" x2="0.4375" y2="1.9140625"></line>
                                    </g>
                                </g>
                            </g>
                        </g>
                        <path d="M22.6953125,15.5859375 L24.0625,15.5859375 C24.828125,15.5859375 25.4296875,16.1875 25.4296875,16.953125 L25.4296875,18.3203125" id="Path" stroke="#FFFFFF"></path>
                        <g filter="url(#filter-3)" id="Group">
                            <g transform="translate(24.062500, 8.203125)">
                                <g id="Path" stroke="#263238">
                                    <line x1="0.1640625" y1="1.3671875" x2="2.3515625" y2="1.3671875"></line>
                                    <line x1="1.2578125" y1="0.2734375" x2="1.2578125" y2="2.4609375"></line>
                                </g>
                                <g transform="translate(3.828125, 3.828125)" id="Path" stroke="#263238">
                                    <line x1="0.1640625" y1="1.09375" x2="2.3515625" y2="1.09375"></line>
                                    <line x1="1.2578125" y1="0" x2="1.2578125" y2="2.1875"></line>
                                </g>
                            </g>
                        </g>
                    </g>
                </g>
            </g>
        </g>
    </g>
</svg>