<?xml version="1.0" encoding="UTF-8"?>
<svg width="21px" height="26px" viewBox="0 0 21 26" version="1.1" xmlns="http://www.w3.org/2000/svg" xmlns:xlink="http://www.w3.org/1999/xlink">
    <title>Cart_for_invoice@3x</title>
    <g id="5.-Pages" stroke="none" stroke-width="1" fill="none" fill-rule="evenodd">
        <g id="5.2.8-Invoice" transform="translate(-32.000000, -101.000000)" fill-rule="nonzero">
            <g id="invoice" transform="translate(32.000000, 101.000000)">
                <path d="M0.21,23.73 C0.09408,23.73 0,23.63592 0,23.52 L0,23.1 C0,22.98408 0.09408,22.89 0.21,22.89 C0.32592,22.89 0.42,22.98408 0.42,23.1 L0.42,23.52 C0.42,23.63592 0.32592,23.73 0.21,23.73 Z" id="Path" fill="#FFFFFF"></path>
                <path d="M0.21,22.47 C0.09408,22.47 0,22.37592 0,22.26 L0,16.38 C0,16.26408 0.09408,16.17 0.21,16.17 C0.32592,16.17 0.42,16.26408 0.42,16.38 L0.42,22.26 C0.42,22.37592 0.32592,22.47 0.21,22.47 Z" id="Path" fill="#FFFFFF"></path>
                <path d="M20.79,8.61 C20.67408,8.61 20.58,8.51592 20.58,8.4 L20.58,7.98 C20.58,7.86408 20.67408,7.77 20.79,7.77 C20.90592,7.77 21,7.86408 21,7.98 L21,8.4 C21,8.51592 20.90592,8.61 20.79,8.61 Z" id="Path" fill="#FFFFFF"></path>
                <path d="M20.79,15.33 C20.67408,15.33 20.58,15.23592 20.58,15.12 L20.58,9.24 C20.58,9.12408 20.67408,9.03 20.79,9.03 C20.90592,9.03 21,9.12408 21,9.24 L21,15.12 C21,15.23592 20.90592,15.33 20.79,15.33 Z" id="Path" fill="#FFFFFF"></path>
                <path d="M5.88,7.14 L1.89,7.14 C1.80516,7.14 1.7283,7.08876 1.69596,7.01022 C1.6632,6.93168 1.68126,6.84138 1.74132,6.78132 L5.73132,2.79132 C5.79138,2.73126 5.88168,2.71278 5.96022,2.74596 C6.03876,2.7783 6.09,2.85516 6.09,2.94 L6.09,6.93 C6.09,7.04592 5.99592,7.14 5.88,7.14 Z M2.39694,6.72 L5.67,6.72 L5.67,3.44694 L2.39694,6.72 Z" id="Shape" fill="#FFFFFF"></path>
                <path d="M18.06,25.83 L2.94,25.83 C2.24532,25.83 1.68,25.26468 1.68,24.57 L1.68,6.93 C1.68,6.87414 1.70226,6.8208 1.74132,6.78132 L5.73132,2.79132 C5.7708,2.75226 5.82414,2.73 5.88,2.73 L18.06,2.73 C18.75468,2.73 19.32,3.29532 19.32,3.99 L19.32,24.57 C19.32,25.26468 18.75468,25.83 18.06,25.83 Z M2.1,7.01694 L2.1,24.57 C2.1,25.03326 2.47674,25.41 2.94,25.41 L18.06,25.41 C18.52326,25.41 18.9,25.03326 18.9,24.57 L18.9,3.99 C18.9,3.52674 18.52326,3.15 18.06,3.15 L5.96694,3.15 L2.1,7.01694 Z" id="Shape" fill="#FFFFFF"></path>
                <path d="M3.99,1.47 L2.31,1.47 C2.19408,1.47 2.1,1.37592 2.1,1.26 C2.1,1.14408 2.19408,1.05 2.31,1.05 L3.99,1.05 C4.10592,1.05 4.2,1.14408 4.2,1.26 C4.2,1.37592 4.10592,1.47 3.99,1.47 Z" id="Path" fill="#FFFFFF"></path>
                <path d="M3.15,2.31 C3.03408,2.31 2.94,2.21592 2.94,2.1 L2.94,0.42 C2.94,0.30408 3.03408,0.21 3.15,0.21 C3.26592,0.21 3.36,0.30408 3.36,0.42 L3.36,2.1 C3.36,2.21592 3.26592,2.31 3.15,2.31 Z" id="Path" fill="#FFFFFF"></path>
                <path d="M1.89,3.78 L0.21,3.78 C0.09408,3.78 0,3.68592 0,3.57 C0,3.45408 0.09408,3.36 0.21,3.36 L1.89,3.36 C2.00592,3.36 2.1,3.45408 2.1,3.57 C2.1,3.68592 2.00592,3.78 1.89,3.78 Z" id="Path" fill="#FFFFFF"></path>
                <path d="M1.05,4.62 C0.93408,4.62 0.84,4.52592 0.84,4.41 L0.84,2.73 C0.84,2.61408 0.93408,2.52 1.05,2.52 C1.16592,2.52 1.26,2.61408 1.26,2.73 L1.26,4.41 C1.26,4.52592 1.16592,4.62 1.05,4.62 Z" id="Path" fill="#FFFFFF"></path>
                <path d="M17.85,6.51 C17.73408,6.51 17.64,6.41592 17.64,6.3 L17.64,4.62 C17.64,4.50408 17.54592,4.41 17.43,4.41 L15.75,4.41 C15.63408,4.41 15.54,4.31592 15.54,4.2 C15.54,4.08408 15.63408,3.99 15.75,3.99 L17.43,3.99 C17.77734,3.99 18.06,4.27266 18.06,4.62 L18.06,6.3 C18.06,6.41592 17.96592,6.51 17.85,6.51 Z" id="Path" fill="#FFFFFF"></path>
                <path d="M17.43,17.64 L3.57,17.64 C3.45408,17.64 3.36,17.54592 3.36,17.43 L3.36,9.03 C3.36,8.91408 3.45408,8.82 3.57,8.82 L17.43,8.82 C17.54592,8.82 17.64,8.91408 17.64,9.03 L17.64,17.43 C17.64,17.54592 17.54592,17.64 17.43,17.64 Z M3.78,17.22 L17.22,17.22 L17.22,9.24 L3.78,9.24 L3.78,17.22 Z" id="Shape" fill="#FFFFFF"></path>
                <g id="Group" transform="translate(3.360000, 8.820000)">
                    <rect id="Rectangle" fill="#FFD740" x="0.21" y="0.21" width="13.86" height="1.68"></rect>
                    <path d="M14.07,2.1 L0.21,2.1 C0.09408,2.1 0,2.00592 0,1.89 L0,0.21 C0,0.09408 0.09408,0 0.21,0 L14.07,0 C14.18592,0 14.28,0.09408 14.28,0.21 L14.28,1.89 C14.28,2.00592 14.18592,2.1 14.07,2.1 Z M0.42,1.68 L13.86,1.68 L13.86,0.42 L0.42,0.42 L0.42,1.68 Z" id="Shape" fill="#FFFFFF"></path>
                </g>
                <path d="M11.13,17.64 C11.01408,17.64 10.92,17.54592 10.92,17.43 L10.92,9.03 C10.92,8.91408 11.01408,8.82 11.13,8.82 C11.24592,8.82 11.34,8.91408 11.34,9.03 L11.34,17.43 C11.34,17.54592 11.24592,17.64 11.13,17.64 Z" id="Path" fill="#FFFFFF"></path>
                <path d="M13.23,17.64 C13.11408,17.64 13.02,17.54592 13.02,17.43 L13.02,9.03 C13.02,8.91408 13.11408,8.82 13.23,8.82 C13.34592,8.82 13.44,8.91408 13.44,9.03 L13.44,17.43 C13.44,17.54592 13.34592,17.64 13.23,17.64 Z" id="Path" fill="#FFFFFF"></path>
                <g id="Group" transform="translate(13.020000, 17.220000)">
                    <rect id="Rectangle" fill="#FF5252" x="0.21" y="0.21" width="4.2" height="1.68"></rect>
                    <path d="M4.41,2.1 L0.21,2.1 C0.09408,2.1 0,2.00592 0,1.89 L0,0.21 C0,0.09408 0.09408,0 0.21,0 L4.41,0 C4.52592,0 4.62,0.09408 4.62,0.21 L4.62,1.89 C4.62,2.00592 4.52592,2.1 4.41,2.1 Z M0.42,1.68 L4.2,1.68 L4.2,0.42 L0.42,0.42 L0.42,1.68 Z" id="Shape" fill="#FFFFFF"></path>
                </g>
                <path d="M8.61,20.58 L3.57,20.58 C3.45408,20.58 3.36,20.48592 3.36,20.37 C3.36,20.25408 3.45408,20.16 3.57,20.16 L8.61,20.16 C8.72592,20.16 8.82,20.25408 8.82,20.37 C8.82,20.48592 8.72592,20.58 8.61,20.58 Z" id="Path" fill="#FFFFFF"></path>
                <path d="M6.09,21.84 L3.57,21.84 C3.45408,21.84 3.36,21.74592 3.36,21.63 C3.36,21.51408 3.45408,21.42 3.57,21.42 L6.09,21.42 C6.20592,21.42 6.3,21.51408 6.3,21.63 C6.3,21.74592 6.20592,21.84 6.09,21.84 Z" id="Path" fill="#FFFFFF"></path>
                <g id="Group" transform="translate(7.980000, 5.040000)">
                    <rect id="Rectangle" fill="#40C4FF" x="0.42" y="0.21" width="4.2" height="1.68"></rect>
                    <path d="M4.62,2.1 L0.42,2.1 C0.30408,2.1 0.21,2.00592 0.21,1.89 L0.21,0.21 C0.21,0.09408 0.30408,0 0.42,0 L4.62,0 C4.73592,0 4.83,0.09408 4.83,0.21 L4.83,1.89 C4.83,2.00592 4.73592,2.1 4.62,2.1 Z M0.63,1.68 L4.41,1.68 L4.41,0.42 L0.63,0.42 L0.63,1.68 Z" id="Shape" fill="#FFFFFF"></path>
                </g>
            </g>
        </g>
    </g>
</svg>