<?xml version="1.0" encoding="UTF-8"?>
<svg width="103px" height="89px" viewBox="0 0 103 89" version="1.1" xmlns="http://www.w3.org/2000/svg" xmlns:xlink="http://www.w3.org/1999/xlink">
    <title>maintenance@3x</title>
    <g id="5.-Pages" stroke="none" stroke-width="1" fill="none" fill-rule="evenodd">
        <g id="5.7-Maintenance" transform="translate(-136.000000, -198.000000)">
            <g id="Group" transform="translate(137.000000, 199.000000)">
                <g transform="translate(81.451613, 61.925926)" stroke="#37474F" stroke-linecap="round" stroke-linejoin="round">
                    <line x1="0" y1="1.62962963" x2="8.14516129" y2="1.62962963" id="Path"></line>
                    <line x1="11.4032258" y1="1.62962963" x2="13.0322581" y2="1.62962963" id="Path"></line>
                </g>
                <g transform="translate(0.000000, 14.666667)" stroke="#37474F" stroke-linecap="round" stroke-linejoin="round">
                    <line x1="13.0322581" y1="1.62962963" x2="4.88709677" y2="1.62962963" id="Path"></line>
                    <line x1="1.62903226" y1="1.62962963" x2="0" y2="1.62962963" id="Path"></line>
                </g>
                <g transform="translate(66.790323, 13.037037)" stroke="#37474F" stroke-linecap="round" stroke-linejoin="round">
                    <g id="Path">
                        <path d="M32.2548387,11.0814815 C34.2096774,9.12592593 34.6983871,6.35555556 33.7209677,3.91111111 L28.833871,8.8 L25.4129032,5.37777778 L30.3,0.488888889 C27.8564516,-0.488888889 25.0870968,-5.78960748e-15 23.1322581,1.95555556 C21.5032258,3.58518519 20.8516129,6.02962963 21.5032258,8.31111111 L0.977419355,28.6814815 C-0.325806452,29.9851852 -0.325806452,31.9407407 0.977419355,33.2444444 L0.977419355,33.2444444 C2.28064516,34.5481481 4.23548387,34.5481481 5.53870968,33.2444444 L26.0645161,12.7111111 C28.1822581,13.362963 30.6258065,12.7111111 32.2548387,11.0814815 Z" fill="#90CAF9" fill-rule="nonzero"></path>
                        <line x1="5.53870968" y1="28.6814815" x2="3.25806452" y2="30.962963"></line>
                    </g>
                    <polyline id="Path" points="13.683871 11.4074074 7.00483871 4.72592593 5.86451613 2.44444444 3.58387097 0.162962963 0.162903226 3.74814815 2.60645161 6.02962963 4.88709677 7.17037037 11.2403226 13.6888889"></polyline>
                    <path d="M25.0870968,18.2518519 L18.2451613,25.0962963 L20.5258065,27.3777778 L21.666129,26.237037 L28.3451613,32.9185185 C29.6483871,34.2222222 31.6032258,34.2222222 32.9064516,32.9185185 C34.2096774,31.6148148 34.2096774,29.6592593 32.9064516,28.3555556 L26.2274194,21.6740741 L27.3677419,20.5333333 L25.0870968,18.2518519 Z" id="Path"></path>
                </g>
                <g transform="translate(9.774194, 0.000000)">
                    <g transform="translate(6.516129, 0.000000)">
                        <path d="M40.7258065,25.2592593 C40.5629032,25.2592593 40.4,25.2592593 40.2370968,25.2592593 C38.4451613,17.2740741 31.2774194,11.4074074 22.8064516,11.4074074 C14.3354839,11.4074074 7.16774194,17.2740741 5.37580645,25.2592593 C5.21290323,25.2592593 5.05,25.2592593 4.88709677,25.2592593 C2.60645161,25.2592593 0.814516129,27.0518519 0.814516129,29.3333333 C0.814516129,31.6148148 2.60645161,33.4074074 4.88709677,33.4074074 C5.05,33.4074074 5.21290323,33.4074074 5.37580645,33.4074074 C7.16774194,41.3925926 14.3354839,47.2592593 22.8064516,47.2592593 C31.2774194,47.2592593 38.4451613,41.3925926 40.2370968,33.4074074 C40.4,33.4074074 40.5629032,33.4074074 40.7258065,33.4074074 C43.0064516,33.4074074 44.7983871,31.6148148 44.7983871,29.3333333 C44.7983871,27.0518519 43.0064516,25.2592593 40.7258065,25.2592593 Z" id="Path" stroke="#37474F" stroke-linecap="round" stroke-linejoin="round"></path>
                        <path d="M6.51612903,27.7037037 L5.7016129,27.7037037 L5.7016129,17.1111111 L10.5887097,17.1111111 L10.5887097,23.6296296 C10.5887097,25.9111111 8.79677419,27.7037037 6.51612903,27.7037037 Z" id="Path" stroke="#37474F" fill="#FFB300" fill-rule="nonzero" stroke-linecap="round" stroke-linejoin="round"></path>
                        <path d="M34.2096774,17.1111111 L5.7016129,17.1111111 L5.7016129,17.1111111 C5.7016129,10.4296296 11.2403226,4.88888889 17.9193548,4.88888889 L26.3903226,4.88888889 C29.9741935,4.88888889 33.3951613,4.07407407 36.6532258,2.60740741 L42.3548387,0 L42.3548387,8.96296296 C42.3548387,13.5259259 38.7709677,17.1111111 34.2096774,17.1111111 Z" id="Path" stroke="#37474F" fill="#FFB300" fill-rule="nonzero" stroke-linecap="round" stroke-linejoin="round"></path>
                        <path d="M35.0241935,16.9481481 L35.0241935,23.6296296 C35.0241935,25.9111111 36.816129,27.7037037 39.0967742,27.7037037 L39.9112903,27.7037037 L39.9112903,14.8296296 C38.6080645,15.9703704 36.9790323,16.7851852 35.0241935,16.9481481 Z" id="Path" stroke="#37474F" fill="#FFB300" fill-rule="nonzero" stroke-linecap="round" stroke-linejoin="round"></path>
                        <g transform="translate(14.661290, 24.444444)" fill="#37474F" fill-rule="nonzero" id="Oval">
                            <ellipse cx="13.8467742" cy="2.44444444" rx="1.62903226" ry="1.62962963"></ellipse>
                            <ellipse cx="2.44354839" cy="2.44444444" rx="1.62903226" ry="1.62962963"></ellipse>
                        </g>
                        <path d="M17.1048387,35.037037 C20.3629032,38.2962963 25.4129032,38.2962963 28.6709677,35.037037" id="Path" stroke="#37474F" stroke-linecap="round" stroke-linejoin="round"></path>
                    </g>
                    <g transform="translate(0.000000, 45.629630)" stroke="#37474F" stroke-linecap="round" stroke-linejoin="round">
                        <line x1="13.0322581" y1="29.3333333" x2="0" y2="29.3333333" id="Path"></line>
                        <line x1="58.6451613" y1="29.3333333" x2="45.6129032" y2="29.3333333" id="Path"></line>
                        <path d="M58.6451613,42.3703704 L58.6451613,21.0222222 C58.6451613,16.1333333 55.7129032,11.7333333 51.3145161,9.77777778 L35.8387097,3.25925926 L35.8387097,3.25925926 C32.7435484,7.98518519 25.9016129,7.98518519 22.8064516,3.25925926 L22.8064516,3.25925926 L7.33064516,9.94074074 C2.93225806,11.7333333 0,16.1333333 0,21.0222222 L0,42.3703704" id="Path"></path>
                        <path d="M29.3225806,1.62962963 C27.0419355,1.62962963 24.7612903,1.14074074 22.8064516,0.325925926 L22.8064516,3.25925926 L22.8064516,3.25925926 C25.9016129,7.98518519 32.7435484,7.98518519 35.8387097,3.25925926 L35.8387097,3.25925926 L35.8387097,0.325925926 C33.883871,1.14074074 31.6032258,1.62962963 29.3225806,1.62962963 Z" id="Path"></path>
                        <polygon id="Path" points="17.9193548 5.37777778 13.0322581 7.4962963 13.0322581 24.4444444 17.9193548 24.4444444"></polygon>
                        <polygon id="Path" points="45.6129032 7.4962963 40.7258065 5.37777778 40.7258065 24.4444444 45.6129032 24.4444444"></polygon>
                        <polyline id="Path" points="13.0322581 42.3703704 13.0322581 24.4444444 45.6129032 24.4444444 45.6129032 42.3703704"></polyline>
                        <rect id="Rectangle" x="24.4354839" y="29.3333333" width="9.77419355" height="4.88888889"></rect>
                    </g>
                </g>
            </g>
        </g>
    </g>
</svg>