<svg xmlns="http://www.w3.org/2000/svg" width="24" height="14" viewBox="0 0 24 14">
    <g fill="none" fill-rule="evenodd">
        <g fill-rule="nonzero">
            <g>
                <g>
                    <g>
                        <g>
                            <path fill="#E9B040" d="M11.962 11.485c1.198 1.102 2.766 1.713 4.394 1.71 3.573-.098 6.418-3.023 6.418-6.598 0-3.574-2.845-6.499-6.418-6.597-1.628-.003-3.196.608-4.394 1.71-1.379 1.251-2.165 3.026-2.165 4.888 0 1.861.786 3.636 2.165 4.887zM22.043 10.27c0-.11.09-.2.2-.2.055-.003.11.017.15.055.04.037.064.09.065.145.002.058-.02.113-.06.154-.042.041-.097.063-.155.061-.055-.001-.108-.025-.145-.065-.038-.04-.058-.095-.055-.15zm.2.171c.093-.002.168-.077.17-.17-.002-.044-.02-.085-.052-.114-.032-.03-.074-.046-.118-.044-.086.002-.156.072-.158.158 0 .09.068.165.158.173v-.003zm-.022-.069h-.045v-.192h.079c.016-.002.032.002.045.011.023.011.023.023.023.045s-.011.045-.034.045l.045.09h-.057l-.022-.079h-.034v-.034h.045c.011 0 .011-.011.011-.023s0-.011-.011-.023h-.045v.16z" transform="translate(-112 -607) translate(0 321) translate(32 233) translate(0 49) translate(80 4)"/>
                            <path fill="#CC2131" d="M14.081 5.901c-.023-.237-.068-.465-.113-.7H9.959c.048-.233.109-.464.181-.691h3.635c-.08-.239-.17-.472-.271-.7h-3.082c.113-.239.238-.474.374-.7h2.322c-.15-.242-.317-.473-.5-.691h-1.323c.205-.25.428-.484.668-.7C9.78-.238 6.566-.515 4.081 1.04 1.595 2.595.439 5.607 1.245 8.426s3.38 4.764 6.312 4.77c1.631.003 3.204-.607 4.406-1.71.236-.213.456-.444.657-.691h-1.325c-.18-.224-.346-.458-.5-.7h2.322c.146-.223.274-.457.385-.7h-3.08c-.1-.226-.2-.453-.284-.691h3.636c.076-.23.14-.464.192-.7.05-.231.087-.465.113-.7.023-.229.034-.46.034-.691.001-.235-.01-.47-.033-.705l.001-.007z" transform="translate(-112 -607) translate(0 321) translate(32 233) translate(0 49) translate(80 4)"/>
                            <path fill="#FFF" d="M22.043 8.132c-.002-.055.017-.109.055-.15.038-.04.09-.063.145-.065.058-.002.113.02.154.06.041.042.063.097.061.155 0 .119-.096.215-.215.215-.114-.006-.202-.101-.2-.215zm.2.159c.06.007.12-.022.152-.073.033-.052.033-.118 0-.17-.032-.051-.091-.08-.152-.073-.087 0-.158.07-.158.158 0 .087.07.158.158.158zm-.022-.069h-.045v-.181h.124c.023.011.023.034.023.056-.003.02-.016.036-.034.045l.045.079h-.057l-.022-.068h-.034v-.036h.022c.011 0 .022 0 .022-.011s.011-.011.011-.023c0-.006-.005-.011-.011-.011 0-.011-.011 0-.022 0h-.022v.15zM16.3 5.087l-.124.725c-.193-.111-.411-.174-.634-.181-.532 0-.906.521-.906 1.257 0 .51.249.815.668.815.21-.01.415-.069.6-.17l-.124.758c-.202.061-.412.095-.623.1-.77 0-1.246-.555-1.246-1.449 0-1.189.657-2.028 1.6-2.028.11-.002.22.01.328.034l.284.068c.09.035.113.046.181.069l-.004.002zm-2.288.5h-.068c-.237 0-.374.113-.589.442l.068-.419h-.646l-.443 2.716h.713c.26-1.665.328-1.948.668-1.948h.045c.052-.272.143-.535.271-.781l-.021-.012.002.002zm-4.1 2.707c-.163.06-.336.09-.51.09-.16.015-.319-.045-.429-.162-.11-.117-.161-.279-.137-.438.003-.08.01-.16.023-.238l.045-.271.034-.215.306-1.857h.7l-.079.408h.369l-.09.668H9.78l-.192 1.133c-.009.037-.012.075-.011.113 0 .136.068.192.237.192.065.006.13-.002.192-.023l-.089.6h-.005zM7.182 6.47c-.004.34.21.646.532.758.295.136.34.181.34.295 0 .17-.124.249-.408.249-.215-.001-.429-.035-.634-.1l-.1.623.034.011.124.023c.063.016.127.024.192.023.128.017.256.025.385.023.747 0 1.1-.284 1.1-.906.022-.336-.182-.646-.5-.758-.306-.136-.34-.17-.34-.295 0-.147.124-.215.351-.215.17.001.34.013.51.034l.1-.623c-.206-.035-.414-.054-.623-.057-.793 0-1.076.42-1.065.918l.002-.003zm14.541 1.858h-.668l.034-.261c-.164.191-.405.299-.657.295-.521 0-.86-.442-.86-1.121 0-.906.532-1.676 1.155-1.676.275.001.53.142.679.374l.158-.952h.7l-.544 3.341h.003zm-1.042-.634c.329 0 .555-.385.555-.918 0-.351-.124-.532-.374-.532-.318 0-.555.374-.555.906 0 .362.125.544.374.544zm-8.6.577c-.238.077-.486.115-.736.113-.333.041-.667-.076-.902-.315-.235-.24-.345-.576-.298-.908 0-.929.521-1.62 1.234-1.62.264-.016.522.083.707.272.185.19.279.45.256.714-.002.23-.032.457-.09.679h-1.4c-.008.025-.012.052-.011.079 0 .318.215.476.623.476.256.005.508-.054.736-.17l-.113.679-.006.001zm-.4-1.619v-.136c.012-.094-.02-.189-.086-.257-.066-.069-.16-.104-.254-.095-.226 0-.385.17-.453.487l.793.001zM4.466 8.328h-.7l.408-2.571-.918 2.571h-.487l-.057-2.549-.431 2.549h-.647l.555-3.341h1.019l.034 2.073.679-2.073h1.113l-.555 3.341h-.013zm1.768-1.212c-.068 0-.1-.011-.158-.011-.4 0-.6.147-.6.419-.01.07.012.142.06.194.049.053.118.081.189.077.295 0 .5-.272.51-.679h-.001zm.521 1.212h-.591l.011-.284c-.18.225-.46.348-.747.329-.187-.002-.363-.084-.487-.224-.123-.14-.18-.327-.158-.512 0-.668.453-1.053 1.246-1.053.079 0 .181.011.295.023.016-.055.024-.112.023-.17 0-.181-.124-.249-.453-.249-.198-.002-.396.02-.589.068l-.1.034-.068.011.1-.612c.275-.088.561-.134.85-.136.611 0 .94.271.94.792-.004.183-.024.364-.057.544l-.158.963-.023.17-.011.136-.011.1-.013.068.001.002zm10.689-1.212c-.079 0-.113-.011-.158-.011-.408 0-.611.147-.611.419-.007.072.018.144.068.196.05.052.12.08.193.075.283 0 .5-.272.509-.679h-.001zm.521 1.212h-.589l.011-.284c-.18.225-.46.348-.747.329-.187-.002-.363-.084-.487-.224-.123-.14-.18-.327-.158-.512 0-.668.453-1.053 1.246-1.053.095.003.19.01.284.023.018-.055.03-.112.034-.17 0-.181-.124-.249-.453-.249-.202-.002-.404.02-.6.068l-.09.034-.068.011.1-.612c.275-.088.561-.134.85-.136.611 0 .929.271.929.792.001.183-.018.365-.057.544l-.147.963-.023.17-.023.136-.011.1v.068l-.001.002zm1.9-2.741h-.068c-.237 0-.374.113-.589.442l.068-.419h-.642l-.431 2.718h.7c.261-1.665.329-1.948.668-1.948h.045c.052-.272.143-.535.271-.781l-.022-.012z" transform="translate(-112 -607) translate(0 321) translate(32 233) translate(0 49) translate(80 4)"/>
                        </g>
                    </g>
                </g>
            </g>
        </g>
    </g>
</svg>
