<?xml version="1.0" encoding="UTF-8"?>
<svg width="34px" height="37px" viewBox="0 0 34 37" version="1.1" xmlns="http://www.w3.org/2000/svg" xmlns:xlink="http://www.w3.org/1999/xlink">
    <title>mobile_bill@3x</title>
    <g id="5.-Pages" stroke="none" stroke-width="1" fill="none" fill-rule="evenodd">
        <g id="5.4-Waiting-bills" transform="translate(-90.000000, -698.000000)">
            <g id="List-of-Bills" transform="translate(32.000000, 250.000000)">
                <g id="5th-Apple-TV-Subscription" transform="translate(0.000000, 424.000000)">
                    <g id="on-demand-service" transform="translate(59.000000, 25.000000)">
                        <g id="Group">
                            <g transform="translate(0.000000, 3.281250)">
                                <circle id="Oval" fill="#FF5252" fill-rule="nonzero" cx="9.40625" cy="14.21875" r="6.5625"></circle>
                                <g id="Path" stroke="#263238" stroke-linecap="round" stroke-linejoin="round">
                                    <path d="M17.8828125,27.0703125 C17.390625,27.7265625 16.5703125,28.1640625 15.6953125,28.1640625 L3.1171875,28.1640625 C1.5859375,28.1640625 0.3828125,26.9609375 0.3828125,25.4296875 L0.3828125,3.0078125 C0.3828125,1.4765625 1.5859375,0.2734375 3.1171875,0.2734375 L11.8671875,0.2734375"></path>
                                    <line x1="18.484375" y1="6.8359375" x2="18.484375" y2="11.1015625"></line>
                                    <line x1="10.5" y1="24.8828125" x2="0.4375" y2="24.8828125"></line>
                                    <line x1="0.4375" y1="3.5546875" x2="11.921875" y2="3.5546875"></line>
                                    <line x1="7.765625" y1="1.9140625" x2="11.046875" y2="1.9140625"></line>
                                    <path d="M10.5546875,27.0703125 L8.3671875,27.0703125 C8.0390625,27.0703125 7.8203125,26.8515625 7.8203125,26.5234375 L7.8203125,26.5234375 C7.8203125,26.1953125 8.0390625,25.9765625 8.3671875,25.9765625 L10.5546875,25.9765625 C10.8828125,25.9765625 11.1015625,26.1953125 11.1015625,26.5234375 L11.1015625,26.5234375 C11.046875,26.796875 10.828125,27.0703125 10.5546875,27.0703125 Z"></path>
                                </g>
                                <path d="M11.59375,16.953125 L7.21875,16.953125 C6.890625,16.953125 6.671875,16.734375 6.671875,16.40625 L6.671875,12.03125 C6.671875,11.703125 6.890625,11.484375 7.21875,11.484375 L11.59375,11.484375 C11.921875,11.484375 12.140625,11.703125 12.140625,12.03125 L12.140625,16.40625 C12.140625,16.734375 11.921875,16.953125 11.59375,16.953125 Z" id="Path" stroke="#263238" stroke-linecap="round" stroke-linejoin="round"></path>
                            </g>
                            <g transform="translate(8.750000, 14.765625)" id="Path" stroke="#263238" stroke-linecap="round" stroke-linejoin="round">
                                <g fill="#FFFFFF" fill-rule="nonzero">
                                    <path d="M23.2421875,12.578125 L21.7109375,11.046875 C21.1640625,10.5 20.2890625,10.5 19.796875,11.046875 L14.765625,16.078125 C14.21875,16.625 14.21875,17.5 14.765625,17.9921875 L16.296875,19.5234375 C16.84375,20.0703125 17.71875,20.0703125 18.2109375,19.5234375 L23.2421875,14.4921875 C23.7890625,14 23.7890625,13.125 23.2421875,12.578125 Z"></path>
                                    <path d="M10.4453125,0.65625 C9.7890625,1.203125 9.7890625,2.1328125 10.3359375,2.6796875 C9.7890625,2.1328125 8.9140625,2.1328125 8.421875,2.6796875 C7.875,3.2265625 7.875,4.1015625 8.421875,4.59375 C7.875,4.046875 7,4.046875 6.5078125,4.59375 C5.9609375,5.140625 5.9609375,6.015625 6.5078125,6.5078125 L2.4609375,2.4609375 C1.9140625,1.9140625 1.0390625,1.9140625 0.546875,2.4609375 L0.546875,2.4609375 C0,3.0078125 0,3.8828125 0.546875,4.375 L6.5625,10.390625 L3.828125,10.390625 C3.0625,10.390625 2.4609375,10.9921875 2.4609375,11.7578125 L2.4609375,11.7578125 C2.4609375,12.4140625 2.8984375,12.9609375 3.5546875,13.0703125 L10.171875,14.4921875 C10.609375,14.6015625 11.046875,14.7109375 11.484375,14.875 L14.7109375,16.1875 L20.125,10.7734375 L19.1953125,8.4765625 C18.7578125,7.4375 18.15625,6.5078125 17.390625,5.7421875 L12.46875,0.8203125 C11.8125,0.328125 10.9921875,0.21875 10.4453125,0.65625 Z"></path>
                                    <line x1="8.3671875" y1="4.6484375" x2="9.5703125" y2="5.796875"></line>
                                    <line x1="10.3359375" y1="2.734375" x2="11.484375" y2="3.8828125"></line>
                                    <line x1="6.453125" y1="6.5625" x2="7.6015625" y2="7.7109375"></line>
                                </g>
                                <path d="M16.078125,6.9453125 C16.734375,7.6015625 17.171875,8.3125 17.5546875,9.1328125 L18.1015625,10.4453125"></path>
                                <line x1="8.3671875" y1="4.6484375" x2="9.5703125" y2="5.796875" fill="#FFFFFF" fill-rule="nonzero"></line>
                                <line x1="10.3359375" y1="2.734375" x2="11.484375" y2="3.8828125" fill="#FFFFFF" fill-rule="nonzero"></line>
                                <line x1="6.453125" y1="6.5625" x2="7.6015625" y2="7.7109375" fill="#FFFFFF" fill-rule="nonzero"></line>
                            </g>
                            <g transform="translate(23.515625, 8.750000)" id="Path" stroke="#263238" stroke-linecap="round" stroke-linejoin="round">
                                <g transform="translate(0.000000, 3.281250)">
                                    <line x1="1.53125" y1="2.4609375" x2="1.53125" y2="0.2734375"></line>
                                    <line x1="0.4375" y1="1.3671875" x2="2.625" y2="1.3671875"></line>
                                </g>
                                <g transform="translate(3.828125, 0.000000)">
                                    <line x1="1.09375" y1="2.4609375" x2="1.09375" y2="0.2734375"></line>
                                    <line x1="0" y1="1.3671875" x2="2.1875" y2="1.3671875"></line>
                                </g>
                            </g>
                            <g transform="translate(12.578125, 0.000000)" id="Path" stroke="#263238" stroke-linecap="round" stroke-linejoin="round">
                                <path d="M9.953125,9.0234375 L1.75,9.0234375 C0.984375,9.0234375 0.3828125,8.421875 0.3828125,7.65625 L0.3828125,1.640625 C0.3828125,0.875 0.984375,0.2734375 1.75,0.2734375 L9.953125,0.2734375 C10.71875,0.2734375 11.3203125,0.875 11.3203125,1.640625 L11.3203125,7.65625 C11.375,8.421875 10.71875,9.0234375 9.953125,9.0234375 Z" fill="#FFD740" fill-rule="nonzero"></path>
                                <polyline points="2.296875 6.2890625 4.7578125 4.6484375 7.21875 6.2890625 9.4609375 3.0078125"></polyline>
                            </g>
                        </g>
                        <g id="Group" transform="translate(8.203125, 33.359375)" stroke="#263238" stroke-linecap="round" stroke-linejoin="round">
                            <line x1="12.3046875" y1="0.2734375" x2="3.0078125" y2="0.2734375" id="Path"></line>
                            <line x1="0.546875" y1="1.3671875" x2="0" y2="1.3671875" id="Path"></line>
                            <line x1="10.1171875" y1="1.3671875" x2="1.640625" y2="1.3671875" id="Path"></line>
                        </g>
                    </g>
                </g>
            </g>
        </g>
    </g>
</svg>