<?xml version="1.0" encoding="UTF-8"?>
<svg width="21px" height="21px" viewBox="0 0 21 21" version="1.1" xmlns="http://www.w3.org/2000/svg" xmlns:xlink="http://www.w3.org/1999/xlink">
    <title>credit-card@3x</title>
    <g id="5.-Pages" stroke="none" stroke-width="1" fill="none" fill-rule="evenodd">
        <g id="5.2.4-Order-History" transform="translate(-31.000000, -106.000000)" fill-rule="nonzero">
            <g id="Top-Info" transform="translate(0.000000, 79.000000)">
                <g id="credit-card" transform="translate(31.000000, 27.000000)">
                    <path d="M15.7500003,18.64984 L2.13888892,18.64984 C1.49566669,18.64984 0.972222238,18.1213625 0.972222238,17.4719554 L0.972222238,8.44150655 C0.972222238,7.79209949 1.49566669,7.26362191 2.13888892,7.26362191 L15.7500003,7.26362191 C16.3932225,7.26362191 16.9166669,7.79209949 16.9166669,8.44150655 L16.9166669,17.4719554 C16.9166669,18.1213625 16.3932225,18.64984 15.7500003,18.64984 Z M2.13888892,7.65625013 C1.70994447,7.65625013 1.36111113,8.00843763 1.36111113,8.44150655 L1.36111113,17.4719554 C1.36111113,17.9050243 1.70994447,18.2572118 2.13888892,18.2572118 L15.7500003,18.2572118 C16.1789447,18.2572118 16.527778,17.9050243 16.527778,17.4719554 L16.527778,8.44150655 C16.527778,8.00843763 16.1789447,7.65625013 15.7500003,7.65625013 L2.13888892,7.65625013 Z" id="Shape" fill="#FFFFFF"></path>
                    <path d="M19.6388892,3.5336539 L6.02777788,3.5336539 C5.49072231,3.5336539 5.05555564,3.97300487 5.05555564,4.51522443 L5.05555564,6.6746796 L12.0555556,6.6746796 L15.7500003,6.6746796 C16.7148336,6.6746796 17.5000003,7.46739596 17.5000003,8.44150655 L17.5000003,14.5272438 L19.6388892,14.5272438 C20.1759448,14.5272438 20.6111114,14.0878929 20.6111114,13.5456733 L20.6111114,4.51522443 C20.6111114,3.97300487 20.1759448,3.5336539 19.6388892,3.5336539 Z" id="Path" fill="#FFD740"></path>
                    <path d="M19.6388892,14.7235579 L17.5000003,14.7235579 C17.392667,14.7235579 17.3055558,14.6356092 17.3055558,14.5272438 C17.3055558,14.4188784 17.392667,14.3309297 17.5000003,14.3309297 L19.6388892,14.3309297 C20.0678337,14.3309297 20.416667,13.9787422 20.416667,13.5456733 L20.416667,4.51522443 C20.416667,4.08215552 20.0678337,3.72996801 19.6388892,3.72996801 L6.02777788,3.72996801 C5.59883342,3.72996801 5.25000009,4.08215552 5.25000009,4.51522443 L5.25000009,6.6746796 C5.25000009,6.78304498 5.16288897,6.8709937 5.05555564,6.8709937 C4.9482223,6.8709937 4.86111119,6.78304498 4.86111119,6.6746796 L4.86111119,4.51522443 C4.86111119,3.86581737 5.38455564,3.3373398 6.02777788,3.3373398 L19.6388892,3.3373398 C20.2821114,3.3373398 20.8055559,3.86581737 20.8055559,4.51522443 L20.8055559,13.5456733 C20.8055559,14.1950804 20.2821114,14.7235579 19.6388892,14.7235579 Z" id="Path" fill="#FFFFFF"></path>
                    <g id="Group" transform="translate(0.777778, 9.030449)">
                        <rect id="Rectangle" fill="#40C4FF" x="0.388888895" y="0.392628212" width="15.5555558" height="1.96314106"></rect>
                        <path d="M15.9444447,2.55208337 L0.388888895,2.55208337 C0.28155556,2.55208337 0.194444448,2.46413466 0.194444448,2.35576927 L0.194444448,0.392628212 C0.194444448,0.284262825 0.28155556,0.196314106 0.388888895,0.196314106 L15.9444447,0.196314106 C16.051778,0.196314106 16.1388892,0.284262825 16.1388892,0.392628212 L16.1388892,2.35576927 C16.1388892,2.46413466 16.051778,2.55208337 15.9444447,2.55208337 Z M0.583333343,2.15945516 L15.7500003,2.15945516 L15.7500003,0.588942317 L0.583333343,0.588942317 L0.583333343,2.15945516 Z" id="Shape" fill="#FFFFFF"></path>
                    </g>
                    <path d="M14.777778,17.0793272 L12.0555558,17.0793272 C11.7339446,17.0793272 11.4722224,16.8150884 11.4722224,16.4903849 L11.4722224,15.3125003 C11.4722224,14.9877967 11.7339446,14.7235579 12.0555558,14.7235579 L14.777778,14.7235579 C15.0993891,14.7235579 15.3611114,14.9877967 15.3611114,15.3125003 L15.3611114,16.4903849 C15.3611114,16.8150884 15.0993891,17.0793272 14.777778,17.0793272 Z M12.0555558,15.1161861 C11.9486113,15.1161861 11.8611113,15.2041349 11.8611113,15.3125003 L11.8611113,16.4903849 C11.8611113,16.5987503 11.9486113,16.686699 12.0555558,16.686699 L14.777778,16.686699 C14.8847225,16.686699 14.9722225,16.5987503 14.9722225,16.4903849 L14.9722225,15.3125003 C14.9722225,15.2041349 14.8847225,15.1161861 14.777778,15.1161861 L12.0555558,15.1161861 Z" id="Shape" fill="#FFFFFF"></path>
                    <path d="M7.00000011,15.3125002 L3.11111116,15.3125002 C3.00377783,15.3125002 2.91666671,15.2245515 2.91666671,15.1161861 C2.91666671,15.0078208 3.00377783,14.919872 3.11111116,14.919872 L7.00000011,14.919872 C7.10733345,14.919872 7.19444456,15.0078208 7.19444456,15.1161861 C7.19444456,15.2245515 7.10733345,15.3125002 7.00000011,15.3125002 Z" id="Path" fill="#FFFFFF"></path>
                    <path d="M7.00000011,16.8830131 L3.11111116,16.8830131 C3.00377783,16.8830131 2.91666671,16.7950644 2.91666671,16.686699 C2.91666671,16.5783336 3.00377783,16.4903849 3.11111116,16.4903849 L7.00000011,16.4903849 C7.10733345,16.4903849 7.19444456,16.5783336 7.19444456,16.686699 C7.19444456,16.7950644 7.10733345,16.8830131 7.00000011,16.8830131 Z" id="Path" fill="#FFFFFF"></path>
                    <path d="M5.63888898,20.2203529 L5.25000009,20.2203529 C5.14266675,20.2203529 5.05555564,20.1324042 5.05555564,20.0240388 C5.05555564,19.9156734 5.14266675,19.8277247 5.25000009,19.8277247 L5.63888898,19.8277247 C5.74622232,19.8277247 5.83333343,19.9156734 5.83333343,20.0240388 C5.83333343,20.1324042 5.74622232,20.2203529 5.63888898,20.2203529 Z" id="Path" fill="#FFFFFF"></path>
                    <path d="M12.6388891,20.2203529 L6.41666677,20.2203529 C6.30933344,20.2203529 6.22222232,20.1324042 6.22222232,20.0240388 C6.22222232,19.9156734 6.30933344,19.8277247 6.41666677,19.8277247 L12.6388891,19.8277247 C12.7462224,19.8277247 12.8333335,19.9156734 12.8333335,20.0240388 C12.8333335,20.1324042 12.7462224,20.2203529 12.6388891,20.2203529 Z" id="Path" fill="#FFFFFF"></path>
                    <path d="M16.527778,2.15945516 L16.1388892,2.15945516 C16.0315558,2.15945516 15.9444447,2.07150644 15.9444447,1.96314106 C15.9444447,1.85477567 16.0315558,1.76682695 16.1388892,1.76682695 L16.527778,1.76682695 C16.6351114,1.76682695 16.7222225,1.85477567 16.7222225,1.96314106 C16.7222225,2.07150644 16.6351114,2.15945516 16.527778,2.15945516 Z" id="Path" fill="#FFFFFF"></path>
                    <path d="M15.3611114,2.15945516 L9.13888904,2.15945516 C9.0315557,2.15945516 8.94444459,2.07150644 8.94444459,1.96314106 C8.94444459,1.85477567 9.0315557,1.76682695 9.13888904,1.76682695 L15.3611114,1.76682695 C15.4684447,1.76682695 15.5555558,1.85477567 15.5555558,1.96314106 C15.5555558,2.07150644 15.4684447,2.15945516 15.3611114,2.15945516 Z" id="Path" fill="#FFFFFF"></path>
                    <path d="M1.94444448,3.72996801 L0.388888895,3.72996801 C0.28155556,3.72996801 0.194444448,3.64201929 0.194444448,3.5336539 C0.194444448,3.42528852 0.28155556,3.3373398 0.388888895,3.3373398 L1.94444448,3.3373398 C2.05177781,3.3373398 2.13888892,3.42528852 2.13888892,3.5336539 C2.13888892,3.64201929 2.05177781,3.72996801 1.94444448,3.72996801 Z" id="Path" fill="#FFFFFF"></path>
                    <path d="M1.16666669,4.51522443 L1.16666669,4.51522443 C1.05933335,4.51522443 0.972222238,4.42727571 0.972222238,4.31891033 L0.972611127,2.74839748 C0.972611127,2.64003209 1.05972224,2.55208338 1.16705557,2.55208338 L1.16705557,2.55208338 C1.27438891,2.55208338 1.36150002,2.64003209 1.36150002,2.74839748 L1.36111113,4.31891033 C1.36111113,4.42727571 1.27400002,4.51522443 1.16666669,4.51522443 Z" id="Path" fill="#FFFFFF"></path>
                    <path d="M4.27816674,1.37419874 L2.72261116,1.37419874 C2.61527782,1.37419874 2.52816671,1.28625002 2.52816671,1.17788463 C2.52816671,1.06951925 2.61527782,0.981570529 2.72261116,0.981570529 L4.27816674,0.981570529 C4.38550007,0.981570529 4.47261118,1.06951925 4.47261118,1.17788463 C4.47261118,1.28625002 4.38550007,1.37419874 4.27816674,1.37419874 Z" id="Path" fill="#FFFFFF"></path>
                    <path d="M3.50038895,2.15945516 C3.39305561,2.15945516 3.3059445,2.07150644 3.3059445,1.96314106 L3.3059445,0.392628212 C3.3059445,0.284262825 3.39305561,0.196314106 3.50038895,0.196314106 C3.60772228,0.196314106 3.69483339,0.284262825 3.69483339,0.392628212 L3.69483339,1.96314106 C3.69483339,2.07150644 3.60772228,2.15945516 3.50038895,2.15945516 Z" id="Path" fill="#FFFFFF"></path>
                    <path d="M19.4444448,6.8709937 C19.3371114,6.8709937 19.2500003,6.78304498 19.2500003,6.6746796 L19.2500003,5.10416675 C19.2500003,4.99580136 19.1625003,4.90785264 19.0555559,4.90785264 L17.5000003,4.90785264 C17.392667,4.90785264 17.3055558,4.81990392 17.3055558,4.71153854 C17.3055558,4.60317315 17.392667,4.51522443 17.5000003,4.51522443 L19.0555559,4.51522443 C19.377167,4.51522443 19.6388892,4.77946322 19.6388892,5.10416675 L19.6388892,6.6746796 C19.6388892,6.78304498 19.5517781,6.8709937 19.4444448,6.8709937 Z" id="Path" fill="#263238"></path>
                </g>
            </g>
        </g>
    </g>
</svg>