<?xml version="1.0" encoding="UTF-8"?>
<svg width="21px" height="21px" viewBox="0 0 21 21" version="1.1" xmlns="http://www.w3.org/2000/svg" xmlns:xlink="http://www.w3.org/1999/xlink">
    <title>Сredit-card icon@3x</title>
    <g id="5.-Pages" stroke="none" stroke-width="1" fill="none" fill-rule="evenodd">
        <g id="5.2-My-Cards" transform="translate(-31.000000, -106.000000)" fill-rule="nonzero">
            <g id="Top-Info" transform="translate(0.000000, 75.000000)">
                <g id="credit-card" transform="translate(31.000000, 31.000000)">
                    <path d="M15.75,19.1826923 L2.13888889,19.1826923 C1.49566667,19.1826923 0.972222222,18.6391154 0.972222222,17.9711538 L0.972222222,8.68269231 C0.972222222,8.01473077 1.49566667,7.47115385 2.13888889,7.47115385 L15.75,7.47115385 C16.3932222,7.47115385 16.9166667,8.01473077 16.9166667,8.68269231 L16.9166667,17.9711538 C16.9166667,18.6391154 16.3932222,19.1826923 15.75,19.1826923 Z M2.13888889,7.875 C1.70994444,7.875 1.36111111,8.23725 1.36111111,8.68269231 L1.36111111,17.9711538 C1.36111111,18.4165962 1.70994444,18.7788462 2.13888889,18.7788462 L15.75,18.7788462 C16.1789444,18.7788462 16.5277778,18.4165962 16.5277778,17.9711538 L16.5277778,8.68269231 C16.5277778,8.23725 16.1789444,7.875 15.75,7.875 L2.13888889,7.875 Z" id="Shape" fill="#263238"></path>
                    <path d="M19.6388889,3.63461538 L6.02777778,3.63461538 C5.49072222,3.63461538 5.05555556,4.08651923 5.05555556,4.64423077 L5.05555556,6.86538462 L12.0555556,6.86538462 L15.75,6.86538462 C16.7148333,6.86538462 17.5,7.68075 17.5,8.68269231 L17.5,14.9423077 L19.6388889,14.9423077 C20.1759444,14.9423077 20.6111111,14.4904038 20.6111111,13.9326923 L20.6111111,4.64423077 C20.6111111,4.08651923 20.1759444,3.63461538 19.6388889,3.63461538 Z" id="Path" fill="#FFD740"></path>
                    <path d="M19.6388889,15.1442308 L17.5,15.1442308 C17.3926667,15.1442308 17.3055556,15.0537692 17.3055556,14.9423077 C17.3055556,14.8308462 17.3926667,14.7403846 17.5,14.7403846 L19.6388889,14.7403846 C20.0678333,14.7403846 20.4166667,14.3781346 20.4166667,13.9326923 L20.4166667,4.64423077 C20.4166667,4.19878846 20.0678333,3.83653846 19.6388889,3.83653846 L6.02777778,3.83653846 C5.59883333,3.83653846 5.25,4.19878846 5.25,4.64423077 L5.25,6.86538462 C5.25,6.97684615 5.16288889,7.06730769 5.05555556,7.06730769 C4.94822222,7.06730769 4.86111111,6.97684615 4.86111111,6.86538462 L4.86111111,4.64423077 C4.86111111,3.97626923 5.38455556,3.43269231 6.02777778,3.43269231 L19.6388889,3.43269231 C20.2821111,3.43269231 20.8055556,3.97626923 20.8055556,4.64423077 L20.8055556,13.9326923 C20.8055556,14.6006538 20.2821111,15.1442308 19.6388889,15.1442308 Z" id="Path" fill="#263238"></path>
                    <g id="Group" transform="translate(0.777778, 9.288462)">
                        <rect id="Rectangle" fill="#40C4FF" x="0.388888889" y="0.403846154" width="15.5555556" height="2.01923077"></rect>
                        <path d="M15.9444444,2.625 L0.388888889,2.625 C0.281555556,2.625 0.194444444,2.53453846 0.194444444,2.42307692 L0.194444444,0.403846154 C0.194444444,0.292384615 0.281555556,0.201923077 0.388888889,0.201923077 L15.9444444,0.201923077 C16.0517778,0.201923077 16.1388889,0.292384615 16.1388889,0.403846154 L16.1388889,2.42307692 C16.1388889,2.53453846 16.0517778,2.625 15.9444444,2.625 Z M0.583333333,2.22115385 L15.75,2.22115385 L15.75,0.605769231 L0.583333333,0.605769231 L0.583333333,2.22115385 Z" id="Shape" fill="#263238"></path>
                    </g>
                    <path d="M14.7777778,17.5673077 L12.0555556,17.5673077 C11.7339444,17.5673077 11.4722222,17.2955192 11.4722222,16.9615385 L11.4722222,15.75 C11.4722222,15.4160192 11.7339444,15.1442308 12.0555556,15.1442308 L14.7777778,15.1442308 C15.0993889,15.1442308 15.3611111,15.4160192 15.3611111,15.75 L15.3611111,16.9615385 C15.3611111,17.2955192 15.0993889,17.5673077 14.7777778,17.5673077 Z M12.0555556,15.5480769 C11.9486111,15.5480769 11.8611111,15.6385385 11.8611111,15.75 L11.8611111,16.9615385 C11.8611111,17.073 11.9486111,17.1634615 12.0555556,17.1634615 L14.7777778,17.1634615 C14.8847222,17.1634615 14.9722222,17.073 14.9722222,16.9615385 L14.9722222,15.75 C14.9722222,15.6385385 14.8847222,15.5480769 14.7777778,15.5480769 L12.0555556,15.5480769 Z" id="Shape" fill="#263238"></path>
                    <path d="M7,15.75 L3.11111111,15.75 C3.00377778,15.75 2.91666667,15.6595385 2.91666667,15.5480769 C2.91666667,15.4366154 3.00377778,15.3461538 3.11111111,15.3461538 L7,15.3461538 C7.10733333,15.3461538 7.19444444,15.4366154 7.19444444,15.5480769 C7.19444444,15.6595385 7.10733333,15.75 7,15.75 Z" id="Path" fill="#263238"></path>
                    <path d="M7,17.3653846 L3.11111111,17.3653846 C3.00377778,17.3653846 2.91666667,17.2749231 2.91666667,17.1634615 C2.91666667,17.052 3.00377778,16.9615385 3.11111111,16.9615385 L7,16.9615385 C7.10733333,16.9615385 7.19444444,17.052 7.19444444,17.1634615 C7.19444444,17.2749231 7.10733333,17.3653846 7,17.3653846 Z" id="Path" fill="#263238"></path>
                    <path d="M5.63888889,20.7980769 L5.25,20.7980769 C5.14266667,20.7980769 5.05555556,20.7076154 5.05555556,20.5961538 C5.05555556,20.4846923 5.14266667,20.3942308 5.25,20.3942308 L5.63888889,20.3942308 C5.74622222,20.3942308 5.83333333,20.4846923 5.83333333,20.5961538 C5.83333333,20.7076154 5.74622222,20.7980769 5.63888889,20.7980769 Z" id="Path" fill="#263238"></path>
                    <path d="M12.6388889,20.7980769 L6.41666667,20.7980769 C6.30933333,20.7980769 6.22222222,20.7076154 6.22222222,20.5961538 C6.22222222,20.4846923 6.30933333,20.3942308 6.41666667,20.3942308 L12.6388889,20.3942308 C12.7462222,20.3942308 12.8333333,20.4846923 12.8333333,20.5961538 C12.8333333,20.7076154 12.7462222,20.7980769 12.6388889,20.7980769 Z" id="Path" fill="#263238"></path>
                    <path d="M16.5277778,2.22115385 L16.1388889,2.22115385 C16.0315556,2.22115385 15.9444444,2.13069231 15.9444444,2.01923077 C15.9444444,1.90776923 16.0315556,1.81730769 16.1388889,1.81730769 L16.5277778,1.81730769 C16.6351111,1.81730769 16.7222222,1.90776923 16.7222222,2.01923077 C16.7222222,2.13069231 16.6351111,2.22115385 16.5277778,2.22115385 Z" id="Path" fill="#263238"></path>
                    <path d="M15.3611111,2.22115385 L9.13888889,2.22115385 C9.03155556,2.22115385 8.94444444,2.13069231 8.94444444,2.01923077 C8.94444444,1.90776923 9.03155556,1.81730769 9.13888889,1.81730769 L15.3611111,1.81730769 C15.4684444,1.81730769 15.5555556,1.90776923 15.5555556,2.01923077 C15.5555556,2.13069231 15.4684444,2.22115385 15.3611111,2.22115385 Z" id="Path" fill="#263238"></path>
                    <path d="M1.94444444,3.83653846 L0.388888889,3.83653846 C0.281555556,3.83653846 0.194444444,3.74607692 0.194444444,3.63461538 C0.194444444,3.52315385 0.281555556,3.43269231 0.388888889,3.43269231 L1.94444444,3.43269231 C2.05177778,3.43269231 2.13888889,3.52315385 2.13888889,3.63461538 C2.13888889,3.74607692 2.05177778,3.83653846 1.94444444,3.83653846 Z" id="Path" fill="#263238"></path>
                    <path d="M1.16666667,4.64423077 L1.16666667,4.64423077 C1.05933333,4.64423077 0.972222222,4.55376923 0.972222222,4.44230769 L0.972611111,2.82692308 C0.972611111,2.71546154 1.05972222,2.625 1.16705556,2.625 L1.16705556,2.625 C1.27438889,2.625 1.3615,2.71546154 1.3615,2.82692308 L1.36111111,4.44230769 C1.36111111,4.55376923 1.274,4.64423077 1.16666667,4.64423077 Z" id="Path" fill="#263238"></path>
                    <path d="M4.27816667,1.41346154 L2.72261111,1.41346154 C2.61527778,1.41346154 2.52816667,1.323 2.52816667,1.21153846 C2.52816667,1.10007692 2.61527778,1.00961538 2.72261111,1.00961538 L4.27816667,1.00961538 C4.3855,1.00961538 4.47261111,1.10007692 4.47261111,1.21153846 C4.47261111,1.323 4.3855,1.41346154 4.27816667,1.41346154 Z" id="Path" fill="#263238"></path>
                    <path d="M3.50038889,2.22115385 C3.39305556,2.22115385 3.30594444,2.13069231 3.30594444,2.01923077 L3.30594444,0.403846154 C3.30594444,0.292384615 3.39305556,0.201923077 3.50038889,0.201923077 C3.60772222,0.201923077 3.69483333,0.292384615 3.69483333,0.403846154 L3.69483333,2.01923077 C3.69483333,2.13069231 3.60772222,2.22115385 3.50038889,2.22115385 Z" id="Path" fill="#263238"></path>
                    <path d="M19.4444444,7.06730769 C19.3371111,7.06730769 19.25,6.97684615 19.25,6.86538462 L19.25,5.25 C19.25,5.13853846 19.1625,5.04807692 19.0555556,5.04807692 L17.5,5.04807692 C17.3926667,5.04807692 17.3055556,4.95761538 17.3055556,4.84615385 C17.3055556,4.73469231 17.3926667,4.64423077 17.5,4.64423077 L19.0555556,4.64423077 C19.3771667,4.64423077 19.6388889,4.91601923 19.6388889,5.25 L19.6388889,6.86538462 C19.6388889,6.97684615 19.5517778,7.06730769 19.4444444,7.06730769 Z" id="Path" fill="#263238"></path>
                </g>
            </g>
        </g>
    </g>
</svg>