<?xml version="1.0" encoding="UTF-8"?>
<svg width="20px" height="20px" viewBox="0 0 20 20" version="1.1" xmlns="http://www.w3.org/2000/svg" xmlns:xlink="http://www.w3.org/1999/xlink">
    <title>Savings_icon@3x</title>
    <g id="5.-Pages" stroke="none" stroke-width="1" fill="none" fill-rule="evenodd">
        <g id="5.3-Saving" transform="translate(-32.000000, -107.000000)" fill-rule="nonzero">
            <g id="Top-Profile-image" transform="translate(0.000000, 76.000000)">
                <g id="savings" transform="translate(32.000000, 31.000000)">
                    <path d="M15.6896552,9.01448276 L15.6896552,5 C15.6896552,4.80965517 15.5351724,4.65517241 15.3448276,4.65517241 L5,4.65517241 C4.80965517,4.65517241 4.65517241,4.80965517 4.65517241,5 L4.65517241,10.5172414 C4.65517241,10.7075862 4.80965517,10.862069 5,10.862069 L13.7372414,10.862069 C14.1093103,10.0110345 14.8155172,9.34172414 15.6896552,9.01448276 Z" id="Path" fill="#4DB6AC"></path>
                    <path d="M13.7372414,11.0344828 L5,11.0344828 C4.71482759,11.0344828 4.48275862,10.8024138 4.48275862,10.5172414 L4.48275862,5 C4.48275862,4.71482759 4.71482759,4.48275862 5,4.48275862 L15.3448276,4.48275862 C15.63,4.48275862 15.862069,4.71482759 15.862069,5 L15.862069,9.01448276 C15.862069,9.10965517 15.7848276,9.18689655 15.6896552,9.18689655 C15.5944828,9.18689655 15.5172414,9.10965517 15.5172414,9.01448276 L15.5172414,5 C15.5172414,4.90482759 15.4396552,4.82758621 15.3448276,4.82758621 L5,4.82758621 C4.90517241,4.82758621 4.82758621,4.90482759 4.82758621,5 L4.82758621,10.5172414 C4.82758621,10.612069 4.90517241,10.6896552 5,10.6896552 L13.7372414,10.6896552 C13.8324138,10.6896552 13.9096552,10.7668966 13.9096552,10.862069 C13.9096552,10.9572414 13.8324138,11.0344828 13.7372414,11.0344828 Z" id="Path" fill="#FFFFFF"></path>
                    <path d="M9.13793103,15.6896552 C9.11724138,15.6896552 9.09689655,15.6858621 9.07655172,15.6782759 L6.34517241,14.6375862 C5.77482759,14.4203448 5.17551724,14.3103448 4.56517241,14.3103448 L3.62068966,14.3103448 C3.52551724,14.3103448 3.44827586,14.2331034 3.44827586,14.137931 C3.44827586,14.0427586 3.52551724,13.9655172 3.62068966,13.9655172 L4.56517241,13.9655172 C5.21793103,13.9655172 5.85793103,14.0834483 6.46793103,14.3158621 L9.19931034,15.3565517 C9.28862069,15.3903448 9.33310345,15.49 9.29896552,15.5789655 C9.27310345,15.6475862 9.20724138,15.6896552 9.13793103,15.6896552 Z" id="Path" fill="#FFFFFF"></path>
                    <path d="M16.0344828,19.8275862 L11.0310345,19.8275862 C10.2127586,19.8275862 9.40689655,19.6868966 8.63689655,19.4096552 L6.02517241,18.4693103 C5.66793103,18.3406897 5.29448276,18.2758621 4.91551724,18.2758621 L3.62068966,18.2758621 C3.52551724,18.2758621 3.44827586,18.1986207 3.44827586,18.1034483 C3.44827586,18.0082759 3.52551724,17.9310345 3.62068966,17.9310345 L4.91551724,17.9310345 C5.33448276,17.9310345 5.74724138,18.0031034 6.14172414,18.1448276 L8.75344828,19.0851724 C9.48655172,19.3493103 10.2527586,19.4827586 11.0310345,19.4827586 L16.0344828,19.4827586 C16.4148276,19.4827586 16.7241379,19.1734483 16.7241379,18.7931034 C16.7241379,18.4127586 16.4148276,18.1034483 16.0344828,18.1034483 L12.0689655,18.1034483 C11.9737931,18.1034483 11.8965517,18.0262069 11.8965517,17.9310345 C11.8965517,17.8358621 11.9737931,17.7586207 12.0689655,17.7586207 L16.0344828,17.7586207 C16.6048276,17.7586207 17.0689655,18.2227586 17.0689655,18.7931034 C17.0689655,19.3634483 16.6048276,19.8275862 16.0344828,19.8275862 Z" id="Path" fill="#FFFFFF"></path>
                    <g id="Group" transform="translate(0.000000, 13.103448)">
                        <path d="M0.344827586,0.517241379 L0.344827586,5.51724138 C0.344827586,5.70758621 0.499310345,5.86206897 0.689655172,5.86206897 L2.5862069,5.86206897 C2.77655172,5.86206897 2.93103448,5.70758621 2.93103448,5.51724138 L2.93103448,0.517241379 C2.93103448,0.326896552 2.77655172,0.172413793 2.5862069,0.172413793 L0.689655172,0.172413793 C0.499310345,0.172413793 0.344827586,0.326896552 0.344827586,0.517241379 Z" id="Path" fill="#40C4FF"></path>
                        <path d="M2.5862069,6.03448276 L0.689655172,6.03448276 C0.404482759,6.03448276 0.172413793,5.80241379 0.172413793,5.51724138 L0.172413793,0.517241379 C0.172413793,0.232068966 0.404482759,0 0.689655172,0 L2.5862069,0 C2.87137931,0 3.10344828,0.232068966 3.10344828,0.517241379 L3.10344828,5.51724138 C3.10344828,5.80241379 2.87137931,6.03448276 2.5862069,6.03448276 Z M0.689655172,0.344827586 C0.594827586,0.344827586 0.517241379,0.422413793 0.517241379,0.517241379 L0.517241379,5.51724138 C0.517241379,5.61206897 0.594827586,5.68965517 0.689655172,5.68965517 L2.5862069,5.68965517 C2.68103448,5.68965517 2.75862069,5.61206897 2.75862069,5.51724138 L2.75862069,0.517241379 C2.75862069,0.422413793 2.68103448,0.344827586 2.5862069,0.344827586 L0.689655172,0.344827586 Z" id="Shape" fill="#FFFFFF"></path>
                    </g>
                    <path d="M11.5517241,17.4137931 L9.31034483,17.4137931 C9.21517241,17.4137931 9.13793103,17.3365517 9.13793103,17.2413793 C9.13793103,17.1462069 9.21517241,17.0689655 9.31034483,17.0689655 L11.5517241,17.0689655 C11.932069,17.0689655 12.2413793,16.7596552 12.2413793,16.3793103 C12.2413793,15.9989655 11.932069,15.6896552 11.5517241,15.6896552 L9.13793103,15.6896552 C9.04275862,15.6896552 8.96551724,15.6124138 8.96551724,15.5172414 C8.96551724,15.422069 9.04275862,15.3448276 9.13793103,15.3448276 L11.5517241,15.3448276 C12.122069,15.3448276 12.5862069,15.8089655 12.5862069,16.3793103 C12.5862069,16.9496552 12.122069,17.4137931 11.5517241,17.4137931 Z" id="Path" fill="#FFFFFF"></path>
                    <g id="Group" transform="translate(7.931034, 5.517241)">
                        <circle id="Oval" fill="#FFFFFF" cx="2.24137931" cy="2.24137931" r="2.06896552"></circle>
                        <path d="M2.24137931,4.48275862 C1.00551724,4.48275862 0,3.47724138 0,2.24137931 C0,1.00551724 1.00551724,0 2.24137931,0 C3.47724138,0 4.48275862,1.00551724 4.48275862,2.24137931 C4.48275862,3.47724138 3.47724138,4.48275862 2.24137931,4.48275862 Z M2.24137931,0.344827586 C1.19586207,0.344827586 0.344827586,1.19551724 0.344827586,2.24137931 C0.344827586,3.28724138 1.19586207,4.13793103 2.24137931,4.13793103 C3.28689655,4.13793103 4.13793103,3.28724138 4.13793103,2.24137931 C4.13793103,1.19551724 3.28689655,0.344827586 2.24137931,0.344827586 Z" id="Shape" fill="#263238"></path>
                    </g>
                    <path d="M10.4310345,8.79310345 L9.48275862,8.79310345 C9.38758621,8.79310345 9.31034483,8.71586207 9.31034483,8.62068966 C9.31034483,8.52551724 9.38758621,8.44827586 9.48275862,8.44827586 L10.4310345,8.44827586 C10.5734483,8.44827586 10.6896552,8.33241379 10.6896552,8.18965517 C10.6896552,8.04689655 10.5734483,7.93103448 10.4310345,7.93103448 L9.9137931,7.93103448 C9.58103448,7.93103448 9.31034483,7.66034483 9.31034483,7.32758621 C9.31034483,6.99482759 9.58103448,6.72413793 9.9137931,6.72413793 L10.6896552,6.72413793 C10.7848276,6.72413793 10.862069,6.80137931 10.862069,6.89655172 C10.862069,6.99172414 10.7848276,7.06896552 10.6896552,7.06896552 L9.9137931,7.06896552 C9.77137931,7.06896552 9.65517241,7.18482759 9.65517241,7.32758621 C9.65517241,7.47034483 9.77137931,7.5862069 9.9137931,7.5862069 L10.4310345,7.5862069 C10.7637931,7.5862069 11.0344828,7.85689655 11.0344828,8.18965517 C11.0344828,8.52241379 10.7637931,8.79310345 10.4310345,8.79310345 Z" id="Path" fill="#263238"></path>
                    <path d="M10.1724138,7.06896552 C10.0772414,7.06896552 10,6.99172414 10,6.89655172 L10,6.37931034 C10,6.28413793 10.0772414,6.20689655 10.1724138,6.20689655 C10.2675862,6.20689655 10.3448276,6.28413793 10.3448276,6.37931034 L10.3448276,6.89655172 C10.3448276,6.99206897 10.2675862,7.06896552 10.1724138,7.06896552 Z" id="Path" fill="#263238"></path>
                    <path d="M10.1724138,9.31034483 C10.0772414,9.31034483 10,9.23310345 10,9.13793103 L10,8.62068966 C10,8.52551724 10.0772414,8.44827586 10.1724138,8.44827586 C10.2675862,8.44827586 10.3448276,8.52551724 10.3448276,8.62068966 L10.3448276,9.13793103 C10.3448276,9.23344828 10.2675862,9.31034483 10.1724138,9.31034483 Z" id="Path" fill="#263238"></path>
                    <path d="M13.5124138,10 L6.83241379,10 C6.7662069,10 6.70551724,9.96172414 6.67689655,9.90172414 C6.42793103,9.38 5.99413793,8.97827586 5.45517241,8.77137931 C5.38862069,8.74586207 5.34482759,8.68172414 5.34482759,8.61034483 L5.34482759,6.90724138 C5.34482759,6.83586207 5.38896552,6.77172414 5.45517241,6.7462069 C5.9937931,6.53931034 6.42758621,6.13758621 6.67689655,5.61551724 C6.70551724,5.55551724 6.7662069,5.51724138 6.83241379,5.51724138 L13.512069,5.51724138 C13.5782759,5.51724138 13.6389655,5.55551724 13.6675862,5.61551724 C13.9168966,6.13758621 14.3503448,6.53931034 14.8893103,6.7462069 C14.9555172,6.77172414 14.9996552,6.83586207 14.9996552,6.90724138 L14.9996552,8.61034483 C14.9996552,8.68172414 14.9558621,8.74586207 14.8893103,8.77137931 C14.3506897,8.97862069 13.9165517,9.38 13.6675862,9.90172414 C13.6393103,9.96172414 13.5786207,10 13.5124138,10 Z M6.93896552,9.65517241 L13.4058621,9.65517241 C13.6806897,9.13655172 14.1182759,8.73 14.6551724,8.49482759 L14.6551724,7.02241379 C14.1182759,6.78758621 13.6806897,6.38103448 13.4058621,5.86172414 L6.93896552,5.86172414 C6.66413793,6.38068966 6.22655172,6.78758621 5.68965517,7.02241379 L5.68965517,8.49482759 C6.22655172,8.73 6.66413793,9.13655172 6.93896552,9.65517241 Z" id="Shape" fill="#263238"></path>
                    <g id="Group" transform="translate(13.793103, 9.310345)">
                        <circle id="Oval" fill="#FFD740" cx="3.10344828" cy="2.93103448" r="2.75862069"></circle>
                        <path d="M3.10344828,5.86206897 C1.48724138,5.86206897 0.172413793,4.54724138 0.172413793,2.93103448 C0.172413793,1.31482759 1.48724138,0 3.10344828,0 C4.71965517,0 6.03448276,1.31482759 6.03448276,2.93103448 C6.03448276,4.54724138 4.71965517,5.86206897 3.10344828,5.86206897 Z M3.10344828,0.344827586 C1.67724138,0.344827586 0.517241379,1.50482759 0.517241379,2.93103448 C0.517241379,4.35724138 1.67724138,5.51724138 3.10344828,5.51724138 C4.52965517,5.51724138 5.68965517,4.35724138 5.68965517,2.93103448 C5.68965517,1.50482759 4.52965517,0.344827586 3.10344828,0.344827586 Z" id="Shape" fill="#FFFFFF"></path>
                    </g>
                    <path d="M16.8965517,11.5517241 C16.8013793,11.5517241 16.7241379,11.4744828 16.7241379,11.3793103 L16.7241379,10.862069 C16.7241379,10.7668966 16.8013793,10.6896552 16.8965517,10.6896552 C16.9917241,10.6896552 17.0689655,10.7668966 17.0689655,10.862069 L17.0689655,11.3793103 C17.0689655,11.4744828 16.9917241,11.5517241 16.8965517,11.5517241 Z" id="Path" fill="#263238"></path>
                    <path d="M16.8965517,13.7931034 C16.8013793,13.7931034 16.7241379,13.7158621 16.7241379,13.6206897 L16.7241379,13.1034483 C16.7241379,13.0082759 16.8013793,12.9310345 16.8965517,12.9310345 C16.9917241,12.9310345 17.0689655,13.0082759 17.0689655,13.1034483 L17.0689655,13.6206897 C17.0689655,13.7158621 16.9917241,13.7931034 16.8965517,13.7931034 Z" id="Path" fill="#263238"></path>
                    <path d="M17.1551724,13.2758621 L16.2068966,13.2758621 C16.1117241,13.2758621 16.0344828,13.1986207 16.0344828,13.1034483 C16.0344828,13.0082759 16.1117241,12.9310345 16.2068966,12.9310345 L17.1551724,12.9310345 C17.2975862,12.9310345 17.4137931,12.8148276 17.4137931,12.6724138 C17.4137931,12.53 17.2975862,12.4137931 17.1551724,12.4137931 L16.637931,12.4137931 C16.3051724,12.4137931 16.0344828,12.1431034 16.0344828,11.8103448 C16.0344828,11.4775862 16.3051724,11.2068966 16.637931,11.2068966 L17.4137931,11.2068966 C17.5089655,11.2068966 17.5862069,11.2841379 17.5862069,11.3793103 C17.5862069,11.4744828 17.5089655,11.5517241 17.4137931,11.5517241 L16.637931,11.5517241 C16.4955172,11.5517241 16.3793103,11.667931 16.3793103,11.8103448 C16.3793103,11.9527586 16.4955172,12.0689655 16.637931,12.0689655 L17.1551724,12.0689655 C17.487931,12.0689655 17.7586207,12.3396552 17.7586207,12.6724138 C17.7586207,13.0051724 17.487931,13.2758621 17.1551724,13.2758621 Z" id="Path" fill="#263238"></path>
                    <path d="M19.6551724,2.06896552 L19.3103448,2.06896552 C19.2151724,2.06896552 19.137931,1.99172414 19.137931,1.89655172 C19.137931,1.80137931 19.2151724,1.72413793 19.3103448,1.72413793 L19.6551724,1.72413793 C19.7503448,1.72413793 19.8275862,1.80137931 19.8275862,1.89655172 C19.8275862,1.99172414 19.7503448,2.06896552 19.6551724,2.06896552 Z" id="Path" fill="#FFFFFF"></path>
                    <path d="M18.6206897,2.06896552 L14.8275862,2.06896552 C14.7324138,2.06896552 14.6551724,1.99172414 14.6551724,1.89655172 C14.6551724,1.80137931 14.7324138,1.72413793 14.8275862,1.72413793 L18.6206897,1.72413793 C18.7158621,1.72413793 18.7931034,1.80137931 18.7931034,1.89655172 C18.7931034,1.99172414 18.7158621,2.06896552 18.6206897,2.06896552 Z" id="Path" fill="#FFFFFF"></path>
                    <path d="M17.9310345,3.10344828 L13.4482759,3.10344828 C13.3531034,3.10344828 13.2758621,3.0262069 13.2758621,2.93103448 C13.2758621,2.83586207 13.3531034,2.75862069 13.4482759,2.75862069 L17.9310345,2.75862069 C18.0262069,2.75862069 18.1034483,2.83586207 18.1034483,2.93103448 C18.1034483,3.0262069 18.0262069,3.10344828 17.9310345,3.10344828 Z" id="Path" fill="#FFFFFF"></path>
                    <path d="M6.20689655,1.20689655 L4.82758621,1.20689655 C4.73241379,1.20689655 4.65517241,1.12965517 4.65517241,1.03448276 C4.65517241,0.939310345 4.73241379,0.862068966 4.82758621,0.862068966 L6.20689655,0.862068966 C6.30206897,0.862068966 6.37931034,0.939310345 6.37931034,1.03448276 C6.37931034,1.12965517 6.30206897,1.20689655 6.20689655,1.20689655 Z" id="Path" fill="#FFFFFF"></path>
                    <path d="M5.51724138,1.89655172 C5.42206897,1.89655172 5.34482759,1.81931034 5.34482759,1.72413793 L5.34482759,0.344827586 C5.34482759,0.249655172 5.42206897,0.172413793 5.51724138,0.172413793 C5.61241379,0.172413793 5.68965517,0.249655172 5.68965517,0.344827586 L5.68965517,1.72413793 C5.68965517,1.81931034 5.61241379,1.89655172 5.51724138,1.89655172 Z" id="Path" fill="#FFFFFF"></path>
                    <path d="M3.44827586,3.10344828 L2.06896552,3.10344828 C1.9737931,3.10344828 1.89655172,3.0262069 1.89655172,2.93103448 C1.89655172,2.83586207 1.9737931,2.75862069 2.06896552,2.75862069 L3.44827586,2.75862069 C3.54344828,2.75862069 3.62068966,2.83586207 3.62068966,2.93103448 C3.62068966,3.0262069 3.54344828,3.10344828 3.44827586,3.10344828 Z" id="Path" fill="#FFFFFF"></path>
                    <path d="M2.75862069,3.79310345 C2.66344828,3.79310345 2.5862069,3.71586207 2.5862069,3.62068966 L2.5862069,2.24137931 C2.5862069,2.1462069 2.66344828,2.06896552 2.75862069,2.06896552 C2.8537931,2.06896552 2.93103448,2.1462069 2.93103448,2.24137931 L2.93103448,3.62068966 C2.93103448,3.71586207 2.8537931,3.79310345 2.75862069,3.79310345 Z" id="Path" fill="#FFFFFF"></path>
                </g>
            </g>
        </g>
    </g>
</svg>