<?xml version="1.0" encoding="UTF-8"?>
<svg width="16px" height="18px" viewBox="0 0 16 18" version="1.1" xmlns="http://www.w3.org/2000/svg" xmlns:xlink="http://www.w3.org/1999/xlink">
    <title>notification@3x</title>
    <g id="5.-Pages" stroke="none" stroke-width="1" fill="none" fill-rule="evenodd">
        <g id="5.0-All-Pages" transform="translate(-281.000000, -47.000000)">
            <g id="notification" transform="translate(280.000000, 47.000000)">
                <polygon id="Path_14643" points="0 0 18 0 18 18 0 18"></polygon>
                <path d="M6.51724138,14.5862069 L3.10344828,14.5862069 C2.2464547,14.5862069 1.55172414,13.8914763 1.55172414,13.0344828 C1.55172414,12.1774892 2.2464547,11.4827586 3.10344828,11.4827586 L4.03448276,11.4827586 L4.03448276,8.37931034 C4.03448276,5.6369309 6.25762055,3.4137931 9,3.4137931 C11.7423794,3.4137931 13.9655172,5.6369309 13.9655172,8.37931034 L13.9655172,11.4827586 L14.8965517,11.4827586 C15.7535453,11.4827586 16.4482759,12.1774892 16.4482759,13.0344828 C16.4482759,13.8914763 15.7535453,14.5862069 14.8965517,14.5862069 L11.4827586,14.5862069 C11.4827586,15.9573966 10.3711897,17.0689655 9,17.0689655 C7.62881028,17.0689655 6.51724138,15.9573966 6.51724138,14.5862069 Z M7.13793103,14.5862069 C7.13793103,15.6145992 7.97160771,16.4482759 9,16.4482759 C10.0283923,16.4482759 10.862069,15.6145992 10.862069,14.5862069 L7.13793103,14.5862069 Z M13.3448276,11.4827586 L13.3448276,8.37931034 C13.3448276,5.97972833 11.399582,4.03448276 9,4.03448276 C6.60041798,4.03448276 4.65517241,5.97972833 4.65517241,8.37931034 L4.65517241,11.4827586 L13.3448276,11.4827586 Z M3.10344828,12.1034483 C2.58925213,12.1034483 2.17241379,12.5202866 2.17241379,13.0344828 C2.17241379,13.5486789 2.58925213,13.9655172 3.10344828,13.9655172 L14.8965517,13.9655172 C15.4107479,13.9655172 15.8275862,13.5486789 15.8275862,13.0344828 C15.8275862,12.5202866 15.4107479,12.1034483 14.8965517,12.1034483 L3.10344828,12.1034483 Z M10.5517241,2.48275862 C10.5517241,2.65415734 10.412778,2.79310345 10.2413793,2.79310345 C10.0699806,2.79310345 9.93103448,2.65415734 9.93103448,2.48275862 C9.93103448,1.96856247 9.51419615,1.55172414 9,1.55172414 C8.48580385,1.55172414 8.06896552,1.96856247 8.06896552,2.48275862 C8.06896552,2.65415734 7.93001941,2.79310345 7.75862069,2.79310345 C7.58722197,2.79310345 7.44827586,2.65415734 7.44827586,2.48275862 C7.44827586,1.62576504 8.14300642,0.931034483 9,0.931034483 C9.85699358,0.931034483 10.5517241,1.62576504 10.5517241,2.48275862 L10.5517241,2.48275862 Z M6.20689655,10.2413793 C6.20689655,10.412778 6.06795044,10.5517241 5.89655172,10.5517241 C5.72515301,10.5517241 5.5862069,10.412778 5.5862069,10.2413793 L5.5862069,8.37931034 C5.5862069,6.49392447 7.11461413,4.96551724 9,4.96551724 C9.17139872,4.96551724 9.31034483,5.10446335 9.31034483,5.27586207 C9.31034483,5.44726078 9.17139872,5.5862069 9,5.5862069 C7.45741156,5.5862069 6.20689655,6.83672191 6.20689655,8.37931034 L6.20689655,10.2413793 Z" id="Path_14644" fill="#FFFFFF" fill-rule="nonzero"></path>
            </g>
        </g>
    </g>
</svg>