<?xml version="1.0" encoding="UTF-8"?>
<svg width="21px" height="21px" viewBox="0 0 21 21" version="1.1" xmlns="http://www.w3.org/2000/svg" xmlns:xlink="http://www.w3.org/1999/xlink">
    <title>Notification Icon@3x</title>
    <g id="5.-Pages" stroke="none" stroke-width="1" fill="none" fill-rule="evenodd">
        <g id="5.5-Notifications" transform="translate(-32.000000, -106.000000)" fill-rule="nonzero">
            <g id="Top-Notification-Info" transform="translate(0.000000, 75.000000)">
                <g id="messaging" transform="translate(32.000000, 31.000000)">
                    <path d="M8.0625,11.592 C8.0625,10.144875 9.24,8.967 10.6875,8.967 L12.1875,8.967 L12.1875,4.842 C12.1875,3.806625 11.347875,2.967 10.3125,2.967 L2.0625,2.967 C1.027125,2.967 0.1875,3.806625 0.1875,4.842 L0.1875,9.717 C0.1875,10.752375 1.027125,11.592 2.0625,11.592 L3.1875,11.592 C3.3945,11.592 3.5625,11.76 3.5625,11.967 L3.5625,13.68675 C3.5625,14.020875 3.966375,14.188125 4.202625,13.951875 L6.013125,12.141375 C6.364875,11.789625 6.8415,11.592375 7.339125,11.592375 L8.0625,11.592 L8.0625,11.592 Z" id="Path" fill="#FFD740"></path>
                    <g id="Group" transform="translate(8.625000, 9.375000)">
                        <path d="M12.1875,2.217 L12.1875,7.092 C12.1875,8.127375 11.347875,8.967 10.3125,8.967 L9.1875,8.967 C8.9805,8.967 8.8125,9.135 8.8125,9.342 L8.8125,11.06175 C8.8125,11.395875 8.408625,11.563125 8.172375,11.326875 L6.361875,9.516375 C6.010125,9.164625 5.5335,8.967375 5.035875,8.967375 L2.0625,8.967375 C1.027125,8.967375 0.1875,8.12775 0.1875,7.092375 L0.1875,2.217375 C0.1875,1.182 1.027125,0.342374874 2.0625,0.342374874 L10.3125,0.342374874 C11.347875,0.342 12.1875,1.18125 12.1875,2.217 Z" id="Path" fill="#40C4FF"></path>
                        <path d="M8.43375,11.62575 C8.289,11.62575 8.14875,11.56875 8.039625,11.459625 L6.22875,9.649125 C5.91,9.33 5.48625,9.154875 5.0355,9.154875 L2.0625,9.154875 C0.925125,9.154875 0,8.229375 0,7.092375 L0,2.217375 C0,1.080375 0.925125,0.154875 2.0625,0.154875 L10.3125,0.154875 C11.449875,0.154875 12.375,1.080375 12.375,2.217375 L12.375,7.092375 C12.375,8.229375 11.449875,9.154875 10.3125,9.154875 L9.1875,9.154875 C9.084,9.154875 9,9.23925 9,9.342375 L9,11.062125 C9,11.293875 8.866875,11.493 8.65275,11.581875 C8.581125,11.611125 8.506875,11.62575 8.43375,11.62575 Z M2.0625,0.5295 C1.132125,0.5295 0.375,1.286625 0.375,2.217 L0.375,7.092 C0.375,8.022375 1.132125,8.7795 2.0625,8.7795 L5.035875,8.7795 C5.58675,8.7795 6.104625,8.994 6.49425,9.383625 L8.305125,11.194125 C8.387625,11.276625 8.4825,11.245875 8.5095,11.234625 C8.5365,11.22375 8.625,11.178 8.625,11.06175 L8.625,9.342 C8.625,9.031875 8.877375,8.7795 9.1875,8.7795 L10.3125,8.7795 C11.242875,8.7795 12,8.022375 12,7.092 L12,2.217 C12,1.286625 11.242875,0.5295 10.3125,0.5295 L2.0625,0.5295 Z" id="Shape" fill="#263238"></path>
                    </g>
                    <path d="M3.94125,14.25075 C3.868125,14.25075 3.793875,14.236125 3.72225,14.2065 C3.508125,14.117625 3.375,13.9185 3.375,13.68675 L3.375,11.967 C3.375,11.863875 3.291,11.7795 3.1875,11.7795 L2.0625,11.7795 C0.925125,11.7795 0,10.854 0,9.717 L0,4.842 C0,3.705 0.925125,2.7795 2.0625,2.7795 L10.3125,2.7795 C11.449875,2.7795 12.375,3.705 12.375,4.842 L12.375,8.967 C12.375,9.0705 12.291,9.1545 12.1875,9.1545 C12.084,9.1545 12,9.0705 12,8.967 L12,4.842 C12,3.911625 11.242875,3.1545 10.3125,3.1545 L2.0625,3.1545 C1.132125,3.1545 0.375,3.911625 0.375,4.842 L0.375,9.717 C0.375,10.647375 1.132125,11.4045 2.0625,11.4045 L3.1875,11.4045 C3.497625,11.4045 3.75,11.656875 3.75,11.967 L3.75,13.68675 C3.75,13.803 3.8385,13.84875 3.865875,13.86 C3.892875,13.8705 3.98775,13.901625 4.07025,13.8195 L5.881125,12.009 C6.270375,11.619375 6.78825,11.404875 7.3395,11.404875 L8.0625,11.404875 C8.166,11.404875 8.25,11.488875 8.25,11.592375 C8.25,11.695875 8.166,11.779875 8.0625,11.779875 L7.339125,11.779875 C6.888375,11.779875 6.464625,11.955375 6.145875,12.274125 L4.335,14.084625 C4.22625,14.19375 4.086,14.25075 3.94125,14.25075 Z" id="Path" fill="#263238"></path>
                    <path d="M18.5625,12.342 L11.0625,12.342 C10.959,12.342 10.875,12.258 10.875,12.1545 C10.875,12.051 10.959,11.967 11.0625,11.967 L18.5625,11.967 C18.666,11.967 18.75,12.051 18.75,12.1545 C18.75,12.258 18.666,12.342 18.5625,12.342 Z" id="Path" fill="#263238"></path>
                    <path d="M18.5625,14.217 L11.0625,14.217 C10.959,14.217 10.875,14.133 10.875,14.0295 C10.875,13.926 10.959,13.842 11.0625,13.842 L18.5625,13.842 C18.666,13.842 18.75,13.926 18.75,14.0295 C18.75,14.133 18.666,14.217 18.5625,14.217 Z" id="Path" fill="#263238"></path>
                    <path d="M14.8125,16.092 L11.0625,16.092 C10.959,16.092 10.875,16.008 10.875,15.9045 C10.875,15.801 10.959,15.717 11.0625,15.717 L14.8125,15.717 C14.916,15.717 15,15.801 15,15.9045 C15,16.008 14.916,16.092 14.8125,16.092 Z" id="Path" fill="#263238"></path>
                    <path d="M9.9375,5.592 L2.4375,5.592 C2.334,5.592 2.25,5.508 2.25,5.4045 C2.25,5.301 2.334,5.217 2.4375,5.217 L9.9375,5.217 C10.041,5.217 10.125,5.301 10.125,5.4045 C10.125,5.508 10.041,5.592 9.9375,5.592 Z" id="Path" fill="#263238"></path>
                    <path d="M9.9375,7.467 L2.4375,7.467 C2.334,7.467 2.25,7.383 2.25,7.2795 C2.25,7.176 2.334,7.092 2.4375,7.092 L9.9375,7.092 C10.041,7.092 10.125,7.176 10.125,7.2795 C10.125,7.383 10.041,7.467 9.9375,7.467 Z" id="Path" fill="#263238"></path>
                    <path d="M6.1875,9.342 L2.4375,9.342 C2.334,9.342 2.25,9.258 2.25,9.1545 C2.25,9.051 2.334,8.967 2.4375,8.967 L6.1875,8.967 C6.291,8.967 6.375,9.051 6.375,9.1545 C6.375,9.258 6.291,9.342 6.1875,9.342 Z" id="Path" fill="#263238"></path>
                    <path d="M13.3125,1.125 L11.8125,1.125 C11.709,1.125 11.625,1.041 11.625,0.9375 C11.625,0.834 11.709,0.75 11.8125,0.75 L13.3125,0.75 C13.416375,0.75 13.5,0.834 13.5,0.9375 C13.5,1.041 13.416375,1.125 13.3125,1.125 Z" id="Path" fill="#263238"></path>
                    <path d="M12.5625,1.875 C12.459,1.875 12.375,1.791 12.375,1.6875 L12.375,0.1875 C12.375,0.084 12.459,0 12.5625,0 C12.666,0 12.75,0.084 12.75,0.1875 L12.75,1.6875 C12.75,1.791 12.666375,1.875 12.5625,1.875 Z" id="Path" fill="#263238"></path>
                    <path d="M15.5625,3 L14.0625,3 C13.959,3 13.875,2.916 13.875,2.8125 C13.875,2.709 13.959,2.625 14.0625,2.625 L15.5625,2.625 C15.666,2.625 15.75,2.709 15.75,2.8125 C15.75,2.916 15.666375,3 15.5625,3 Z" id="Path" fill="#263238"></path>
                    <path d="M14.8125,3.75 C14.709,3.75 14.625,3.666 14.625,3.5625 L14.625,2.0625 C14.625,1.959 14.709,1.875 14.8125,1.875 C14.916,1.875 15,1.959 15,2.0625 L15,3.5625 C15,3.666 14.916375,3.75 14.8125,3.75 Z" id="Path" fill="#263238"></path>
                    <path d="M18,8.0295 L13.6875,8.0295 C13.584,8.0295 13.5,7.9455 13.5,7.842 C13.5,7.7385 13.584,7.6545 13.6875,7.6545 L18,7.6545 C18.1035,7.6545 18.1875,7.7385 18.1875,7.842 C18.1875,7.9455 18.1035,8.0295 18,8.0295 Z" id="Path" fill="#263238"></path>
                    <path d="M19.5,8.0295 L18.75,8.0295 C18.6465,8.0295 18.5625,7.9455 18.5625,7.842 C18.5625,7.7385 18.6465,7.6545 18.75,7.6545 L19.5,7.6545 C19.6035,7.6545 19.6875,7.7385 19.6875,7.842 C19.6875,7.9455 19.6035,8.0295 19.5,8.0295 Z" id="Path" fill="#263238"></path>
                    <path d="M7.3125,16.092 L3,16.092 C2.8965,16.092 2.8125,16.008 2.8125,15.9045 C2.8125,15.801 2.8965,15.717 3,15.717 L7.3125,15.717 C7.416,15.717 7.5,15.801 7.5,15.9045 C7.5,16.008 7.416,16.092 7.3125,16.092 Z" id="Path" fill="#263238"></path>
                    <path d="M2.25,16.092 L1.5,16.092 C1.3965,16.092 1.3125,16.008 1.3125,15.9045 C1.3125,15.801 1.3965,15.717 1.5,15.717 L2.25,15.717 C2.3535,15.717 2.4375,15.801 2.4375,15.9045 C2.4375,16.008 2.3535,16.092 2.25,16.092 Z" id="Path" fill="#263238"></path>
                </g>
            </g>
        </g>
    </g>
</svg>