<svg xmlns="http://www.w3.org/2000/svg" width="18" height="18" viewBox="0 0 18 18">
    <g fill="none" fill-rule="evenodd">
        <g>
            <g>
                <path d="M0 0L18 0 18 18 0 18z" transform="translate(-280 -47) translate(280 47)"/>
                <path fill="#333" fill-rule="nonzero" d="M6.517 14.586H3.103c-.857 0-1.551-.695-1.551-1.552 0-.857.694-1.551 1.551-1.551h.931V8.379c0-2.742 2.224-4.965 4.966-4.965s4.966 2.223 4.966 4.965v3.104h.93c.858 0 1.552.694 1.552 1.551s-.694 1.552-1.551 1.552h-3.414c0 1.371-1.112 2.483-2.483 2.483s-2.483-1.112-2.483-2.483zm.62 0c0 1.029.835 1.862 1.863 1.862s1.862-.833 1.862-1.862H7.138zm6.208-3.103V8.379c0-2.4-1.945-4.345-4.345-4.345-2.4 0-4.345 1.946-4.345 4.345v3.104h8.69zm-10.242.62c-.514 0-.93.417-.93.931 0 .515.416.932.93.932h11.794c.514 0 .93-.417.93-.932 0-.514-.416-.93-.93-.93H3.103zm7.449-9.62c0 .171-.14.31-.31.31-.172 0-.311-.139-.311-.31 0-.514-.417-.931-.931-.931s-.931.417-.931.93c0 .172-.139.311-.31.311-.172 0-.31-.139-.31-.31C7.448 1.626 8.142.93 9 .93s1.552.695 1.552 1.552zM6.207 10.24c0 .172-.139.31-.31.31-.172 0-.31-.138-.31-.31V8.38c0-1.885 1.528-3.413 3.413-3.413.171 0 .31.138.31.31 0 .171-.139.31-.31.31-1.543 0-2.793 1.25-2.793 2.793v1.862z" transform="translate(-280 -47) translate(280 47)"/>
            </g>
        </g>
    </g>
</svg>
