<svg xmlns="http://www.w3.org/2000/svg" width="24" height="24" viewBox="0 0 24 24">
    <g fill="none" fill-rule="evenodd">
        <g>
            <g>
                <g>
                    <g>
                        <path d="M0 0L24 0 24 24 0 24z" transform="translate(-31 -754) translate(0 710) translate(25.5 43.3) translate(5.5 .7)"/>
                        <path fill="#333" fill-rule="nonzero" d="M5.38 13.241c-.686 0-1.242-.555-1.242-1.241s.556-1.241 1.241-1.241c.686 0 1.242.555 1.242 1.241s-.556 1.241-1.242 1.241zm13.24 0c-.685 0-1.24-.555-1.24-1.241s.555-1.241 1.24-1.241c.686 0 1.242.555 1.242 1.241s-.556 1.241-1.241 1.241zM12 6.621c-.686 0-1.241-.556-1.241-1.242 0-.685.555-1.241 1.241-1.241s1.241.556 1.241 1.241c0 .686-.555 1.242-1.241 1.242zm0 13.241c-.686 0-1.241-.556-1.241-1.241 0-.686.555-1.242 1.241-1.242s1.241.556 1.241 1.242c0 .685-.555 1.241-1.241 1.241zm6.62-7.448c.23 0 .414-.185.414-.414 0-.229-.185-.414-.413-.414-.229 0-.414.185-.414.414 0 .229.185.414.414.414zM12 19.034c.229 0 .414-.185.414-.413 0-.229-.185-.414-.414-.414-.229 0-.414.185-.414.414 0 .228.185.413.414.413zm0-13.24c.229 0 .414-.186.414-.415 0-.228-.185-.413-.414-.413-.229 0-.414.185-.414.413 0 .229.185.414.414.414zm-6.62 6.62c.228 0 .413-.185.413-.414 0-.229-.185-.414-.414-.414-.228 0-.413.185-.413.414 0 .229.185.414.413.414zm3.889.041c.047-.14.165-.245.31-.275.145-.03.295.02.393.13.098.112.13.266.083.407l-.604 1.81 3.27-1.225-2.022-2.018c-.199-.199-.283-.485-.224-.76.06-.275.255-.501.519-.6l3.269-1.226c.298-.112.635-.042.865.18.23.22.311.554.21.857l-.604 1.81c-.073.217-.307.334-.525.262-.217-.072-.334-.307-.262-.524l.604-1.81-3.269 1.225 2.017 2.017c.2.199.284.485.224.76-.06.275-.255.501-.518.6L9.735 15.3c-.298.112-.634.043-.864-.178-.23-.222-.312-.555-.211-.858l.609-1.809zm9.05-8.118C14.253.984 8.275 1.394 4.702 5.27c-3.573 3.876-3.495 9.868.178 13.65 3.672 3.78 9.66 4.034 13.638.577.173-.15.434-.132.584.04.15.173.132.435-.04.585-4.224 3.673-10.558 3.495-14.57-.41C.482 15.809.134 9.483 3.693 5.162 7.252.84 13.528-.03 18.128 3.159s5.988 9.372 3.191 14.22c-.073.13-.21.21-.359.21-.148 0-.286-.08-.36-.208-.073-.129-.073-.287.002-.415 2.111-3.656 1.682-8.246-1.071-11.446-.37-.426-.775-.822-1.21-1.183h-.001z" transform="translate(-31 -754) translate(0 710) translate(25.5 43.3) translate(5.5 .7)"/>
                    </g>
                </g>
            </g>
        </g>
    </g>
</svg>
