<svg xmlns="http://www.w3.org/2000/svg" width="20" height="20" viewBox="0 0 20 20">
    <g fill="none" fill-rule="evenodd">
        <g>
            <g>
                <g>
                    <path d="M0 0L20 0 20 20 0 20z" transform="translate(-35 -227) translate(35 227)"/>
                    <path fill="#FFF" fill-rule="nonzero" d="M4.483 11.034c-.572 0-1.035-.463-1.035-1.034s.463-1.034 1.035-1.034c.571 0 1.034.463 1.034 1.034s-.463 1.034-1.034 1.034zm11.034 0c-.571 0-1.034-.463-1.034-1.034s.463-1.034 1.034-1.034c.572 0 1.035.463 1.035 1.034s-.463 1.034-1.035 1.034zM10 5.517c-.571 0-1.034-.463-1.034-1.034 0-.572.463-1.035 1.034-1.035s1.034.463 1.034 1.035c0 .571-.463 1.034-1.034 1.034zm0 11.035c-.571 0-1.034-.463-1.034-1.035 0-.571.463-1.034 1.034-1.034s1.034.463 1.034 1.034c0 .572-.463 1.035-1.034 1.035zm5.517-6.207c.19 0 .345-.155.345-.345 0-.19-.154-.345-.345-.345-.19 0-.345.155-.345.345 0 .19.155.345.345.345zM10 15.862c.19 0 .345-.154.345-.345 0-.19-.155-.345-.345-.345-.19 0-.345.155-.345.345 0 .19.155.345.345.345zm0-11.034c.19 0 .345-.155.345-.345 0-.19-.155-.345-.345-.345-.19 0-.345.154-.345.345 0 .19.155.345.345.345zm-5.517 5.517c.19 0 .345-.155.345-.345 0-.19-.155-.345-.345-.345-.19 0-.345.155-.345.345 0 .19.154.345.345.345zm3.241.034c.04-.117.137-.204.258-.229.121-.025.246.017.328.11.082.091.108.22.07.337l-.504 1.51 2.724-1.022-1.684-1.682C8.75 9.238 8.68 9 8.729 8.77c.05-.23.213-.418.432-.5l2.725-1.021c.248-.094.529-.036.72.149.192.184.26.462.176.714l-.504 1.509c-.06.18-.256.278-.437.218-.18-.06-.279-.256-.218-.437l.503-1.508-2.724 1.02 1.68 1.682c.167.166.237.404.187.634-.05.229-.212.417-.432.5l-2.724 1.02c-.249.094-.53.036-.72-.149-.192-.184-.26-.462-.176-.714l.507-1.508zm7.543-6.765c-3.39-2.794-8.372-2.453-11.35.777-2.977 3.23-2.912 8.224.149 11.375 3.06 3.151 8.05 3.363 11.365.481.144-.125.362-.11.487.034.125.144.11.362-.035.487-3.519 3.061-8.798 2.913-12.14-.34C.401 13.173.111 7.9 3.077 4.3 6.043.7 11.273-.025 15.107 2.632c3.833 2.658 4.99 7.81 2.659 11.85-.061.108-.175.175-.3.175-.123 0-.237-.066-.299-.173-.062-.107-.061-.24.002-.346 1.759-3.046 1.4-6.871-.893-9.538-.309-.355-.646-.685-1.008-.986h-.001z" transform="translate(-35 -227) translate(35 227)"/>
                </g>
            </g>
        </g>
    </g>
</svg>
