<?xml version="1.0" encoding="UTF-8"?>
<svg width="22px" height="22px" viewBox="0 0 22 22" version="1.1" xmlns="http://www.w3.org/2000/svg" xmlns:xlink="http://www.w3.org/1999/xlink">
    <title>overviews@3x</title>
    <g id="5.-Pages" stroke="none" stroke-width="1" fill="none" fill-rule="evenodd">
        <g id="5.0-All-Pages" transform="translate(-32.000000, -756.000000)">
            <g id="Footer-Menu" transform="translate(0.000000, 711.000000)">
                <g id="Overview" transform="translate(25.500000, 43.300000)">
                    <g id="overviews" transform="translate(5.500000, 0.700000)">
                        <polygon id="Path_14607" points="0 0 24 0 24 24 0 24"></polygon>
                        <path d="M5.37931034,13.2413793 C4.69371548,13.2413793 4.13793103,12.6855949 4.13793103,12 C4.13793103,11.3144051 4.69371548,10.7586207 5.37931034,10.7586207 C6.06490521,10.7586207 6.62068966,11.3144051 6.62068966,12 C6.62068966,12.6855949 6.06490521,13.2413793 5.37931034,13.2413793 Z M18.6206897,13.2413793 C17.9350948,13.2413793 17.3793103,12.6855949 17.3793103,12 C17.3793103,11.3144051 17.9350948,10.7586207 18.6206897,10.7586207 C19.3062845,10.7586207 19.862069,11.3144051 19.862069,12 C19.862069,12.6855949 19.3062845,13.2413793 18.6206897,13.2413793 Z M12,6.62068966 C11.3144051,6.62068966 10.7586207,6.06490521 10.7586207,5.37931034 C10.7586207,4.69371548 11.3144051,4.13793103 12,4.13793103 C12.6855949,4.13793103 13.2413793,4.69371548 13.2413793,5.37931034 C13.2413793,6.06490521 12.6855949,6.62068966 12,6.62068966 Z M12,19.862069 C11.3144051,19.862069 10.7586207,19.3062845 10.7586207,18.6206897 C10.7586207,17.9350948 11.3144051,17.3793103 12,17.3793103 C12.6855949,17.3793103 13.2413793,17.9350948 13.2413793,18.6206897 C13.2413793,19.3062845 12.6855949,19.862069 12,19.862069 Z M18.6206897,12.4137931 C18.8492213,12.4137931 19.0344828,12.2285316 19.0344828,12 C19.0344828,11.7714684 18.8492213,11.5862069 18.6206897,11.5862069 C18.392158,11.5862069 18.2068966,11.7714684 18.2068966,12 C18.2068966,12.2285316 18.392158,12.4137931 18.6206897,12.4137931 Z M12,19.0344828 C12.2285316,19.0344828 12.4137931,18.8492213 12.4137931,18.6206897 C12.4137931,18.392158 12.2285316,18.2068966 12,18.2068966 C11.7714684,18.2068966 11.5862069,18.392158 11.5862069,18.6206897 C11.5862069,18.8492213 11.7714684,19.0344828 12,19.0344828 Z M12,5.79310345 C12.2285316,5.79310345 12.4137931,5.60784197 12.4137931,5.37931034 C12.4137931,5.15077872 12.2285316,4.96551724 12,4.96551724 C11.7714684,4.96551724 11.5862069,5.15077872 11.5862069,5.37931034 C11.5862069,5.60784197 11.7714684,5.79310345 12,5.79310345 Z M5.37931034,12.4137931 C5.60784197,12.4137931 5.79310345,12.2285316 5.79310345,12 C5.79310345,11.7714684 5.60784197,11.5862069 5.37931034,11.5862069 C5.15077872,11.5862069 4.96551724,11.7714684 4.96551724,12 C4.96551724,12.2285316 5.15077872,12.4137931 5.37931034,12.4137931 Z M9.26896552,12.4551724 C9.31568107,12.3147301 9.43377312,12.2098784 9.57875753,12.1801141 C9.72374194,12.1503498 9.87359213,12.2001947 9.97186099,12.3108728 C10.0701298,12.4215508 10.101888,12.5762473 10.0551724,12.7166897 L9.45144828,14.5274483 L12.7204138,13.3017931 L10.6990345,11.2841379 C10.5000456,11.0851727 10.4157911,10.7987283 10.475363,10.5237103 C10.5349349,10.2486922 10.7301696,10.0227882 10.9936552,9.924 L14.2626207,8.69834483 C14.5613109,8.58626352 14.8978287,8.65584785 15.1275729,8.87719751 C15.3573171,9.09854718 15.4393735,9.43224311 15.3384828,9.73489655 L14.7335172,11.5448276 C14.661187,11.7619326 14.4265533,11.8792958 14.2094483,11.8069655 C13.9923432,11.7346353 13.8749801,11.5000016 13.9473103,11.2828966 L14.5510345,9.47255172 L11.282069,10.6977931 L13.2993103,12.7150345 C13.4982992,12.9139997 13.5825537,13.2004441 13.5229818,13.4754621 C13.4634099,13.7504802 13.2681752,13.9763842 13.0046897,14.0751724 L9.73572414,15.3004138 C9.43703394,15.4124951 9.10051609,15.3429108 8.87077193,15.1215611 C8.64102777,14.9002114 8.55897129,14.5665155 8.65986207,14.2638621 L9.26896552,12.4551724 Z M18.3198621,4.33737931 C14.2522585,0.98447408 8.27374562,1.3937532 4.70101755,5.26970292 C1.12828947,9.14565263 1.2063073,15.1376506 4.87873944,18.9192659 C8.55117158,22.7008811 14.5383139,22.9543634 18.5172414,19.4966897 C18.6897828,19.3467729 18.9511867,19.3651138 19.1011034,19.5376552 C19.2510202,19.7101965 19.2326793,19.9716005 19.0601379,20.1215172 C14.8368602,23.7950833 8.50252777,23.6174271 4.4917887,19.7129253 C0.481049631,15.8084235 0.133451043,9.48114096 3.69234572,5.16079016 C7.25124039,0.840439359 13.5279928,-0.0300253308 18.1282664,3.15880593 C22.72854,6.3476372 24.1158891,12.5307264 21.3190345,17.3793103 C21.2456435,17.5083934 21.1087145,17.5882565 20.9602269,17.5885829 C20.8117393,17.5889094 20.6744605,17.5096491 20.6005027,17.38089 C20.5265448,17.2521308 20.5272478,17.0936153 20.6023448,16.9655172 C22.7131503,13.3101996 22.2835139,8.72011001 19.5310345,5.52 C19.1605458,5.09369633 18.7560434,4.6981891 18.3215172,4.33737931 L18.3198621,4.33737931 Z" id="Path_14608" fill="#FFFFFF" fill-rule="nonzero"></path>
                    </g>
                </g>
            </g>
        </g>
    </g>
</svg>