<svg xmlns="http://www.w3.org/2000/svg" width="20" height="20" viewBox="0 0 20 20">
    <g fill="none" fill-rule="evenodd">
        <g fill="#FFF" fill-rule="nonzero">
            <g>
                <g>
                    <path d="M1.314 7.963c-.33-.627-.355-1.37-.064-2.017l1.719-3.477c.35-.659 1.046-1.06 1.792-1.035l3.87.25c.705.072 1.338.464 1.715 1.064l6.332 10.423c.41.714.165 1.624-.547 2.036L9.682 18.93c-.713.41-1.624.167-2.037-.544L1.314 7.963zm.646-.372l6.332 10.427c.207.355.662.476 1.019.272l6.449-3.723c.355-.207.477-.661.274-1.018L9.701 3.118c-.253-.384-.662-.637-1.118-.693l-3.87-.25c-.446-.006-.86.232-1.077.621L1.917 6.273c-.182.424-.166.906.042 1.318h.001zm5.47 3.021c-.09-.177-.027-.394.145-.493.172-.1.392-.047.5.12l2.637 4.515c.088.176.023.39-.148.49-.17.098-.388.046-.497-.118L7.43 10.612zm1.936-1.118c-.097-.177-.036-.4.139-.501.175-.102.398-.047.505.125l2.637 4.515c.088.176.023.39-.148.49-.17.098-.388.046-.497-.118L9.366 9.494zm-3.542-4.9c.115-.067.257-.067.373 0 .115.066.186.19.186.322 0 .133-.07.256-.186.323-.445.257-.598.826-.34 1.272.256.445.826.598 1.27.34.446-.256.599-.826.342-1.271-.067-.115-.067-.257 0-.373.066-.115.19-.186.322-.186.133 0 .256.07.323.186.462.802.187 1.826-.614 2.289-.802.463-1.827.188-2.29-.614-.462-.801-.187-1.826.614-2.289v.001zm7.533.854c-.16-.13-.185-.364-.055-.524.13-.16.364-.185.524-.055l5.153 4.172c.23.186.377.457.408.752.031.295-.056.59-.243.82l-1.19 1.471c-.081.111-.217.168-.353.149-.137-.02-.251-.112-.298-.241-.047-.13-.02-.274.072-.377l1.189-1.468c.13-.16.105-.394-.055-.524l-5.155-4.172.003-.003zM.52.344c.081-.19.3-.277.49-.195.189.08.276.3.195.489-.371.583-.44 1.308-.183 1.95.257.641.806 1.12 1.477 1.286.19.081.277.3.196.49-.082.189-.3.276-.49.195-.854-.244-1.546-.87-1.876-1.694C0 2.04.07 1.109.52.344z" transform="translate(-35 -317) translate(35 227) translate(0 90)"/>
                </g>
            </g>
        </g>
    </g>
</svg>
