<?xml version="1.0" encoding="UTF-8"?>
<svg width="19px" height="21px" viewBox="0 0 19 21" version="1.1" xmlns="http://www.w3.org/2000/svg" xmlns:xlink="http://www.w3.org/1999/xlink">
    <title>pages@3x</title>
    <g id="5.-Pages" stroke="none" stroke-width="1" fill="none" fill-rule="evenodd">
        <g id="5.0-All-Pages" transform="translate(-106.000000, -756.000000)">
            <g id="Footer-Menu" transform="translate(0.000000, 711.000000)">
                <g id="pages" transform="translate(103.000000, 43.000000)">
                    <polygon id="Path_14579" points="0 0 25 0 25 25 0 25"></polygon>
                    <path d="M16.6840517,2.28146552 C16.764892,2.36228135 16.8103204,2.47189879 16.8103448,2.5862069 L16.8103448,6.47974138 C16.8103448,6.71779515 17.0033255,6.91077586 17.2413793,6.91077586 L18.5297414,6.89655172 C18.7677951,6.89393315 18.9628986,7.08479107 18.9655172,7.32284483 C18.9681358,7.56089859 18.7772779,7.75600209 18.5392241,7.75862069 L17.2556034,7.77284483 L17.2413793,7.77284483 C16.527218,7.77284483 15.9482759,7.19390269 15.9482759,6.47974138 L15.9482759,3.01724138 L4.74137931,3.01724138 C4.50332554,3.01724138 4.31034483,3.21022209 4.31034483,3.44827586 L4.31034483,21.5517241 C4.31034483,21.7897779 4.50332554,21.9827586 4.74137931,21.9827586 L20.2586207,21.9827586 C20.4966745,21.9827586 20.6896552,21.7897779 20.6896552,21.5517241 L20.6896552,7.35818966 L18.4008621,5.04310345 C18.2786653,4.93687554 18.2263079,4.77112696 18.2653083,4.61397932 C18.3043088,4.45683167 18.4280877,4.33479613 18.5857727,4.29802851 C18.7434577,4.2612609 18.908447,4.31596399 19.012931,4.43965517 L21.5517241,7.00387931 L21.5517241,21.5517241 C21.5517241,22.2658855 20.972782,22.8448276 20.2586207,22.8448276 L4.74137931,22.8448276 C4.027218,22.8448276 3.44827586,22.2658855 3.44827586,21.5517241 L3.44827586,3.44827586 C3.44827586,2.73411455 4.027218,2.15517241 4.74137931,2.15517241 L16.3793103,2.15517241 C16.4936185,2.15517241 16.6032359,2.20062527 16.6840517,2.28146552 Z M7.75862069,10.3448276 C7.77366381,10.0926814 7.98958927,9.9000628 8.24181034,9.9137931 L16.7586207,9.9137931 C17.0096772,9.90313353 17.2236401,10.0941718 17.2413793,10.3448276 C17.2263362,10.5969738 17.0104107,10.7895924 16.7581897,10.7758621 L8.24137931,10.7758621 C7.99024036,10.7867526 7.77613978,10.5955913 7.75862069,10.3448276 Z M7.75862069,13.362069 C7.77366381,13.1099228 7.98958927,12.9173042 8.24181034,12.9310345 L16.7586207,12.9310345 C17.0096772,12.9203749 17.2236401,13.1114132 17.2413793,13.362069 C17.2263362,13.6142151 17.0104107,13.8068338 16.7581897,13.7931034 L8.24137931,13.7931034 C7.99024036,13.8039939 7.77613978,13.6128327 7.75862069,13.362069 Z M7.75862069,16.3793103 C7.75862069,16.1413793 7.88793103,15.9482759 8.04439655,15.9482759 L13.0762931,15.9482759 C13.2340517,15.9482759 13.362069,16.1482759 13.362069,16.3793103 C13.362069,16.6172414 13.2327586,16.8103448 13.0762931,16.8103448 L8.04439655,16.8103448 C7.88793103,16.8103448 7.75862069,16.6103448 7.75862069,16.3793103 Z M15.5172414,17.6724138 C14.8030801,17.6724138 14.2241379,17.0934717 14.2241379,16.3793103 C14.2241379,15.665149 14.8030801,15.0862069 15.5172414,15.0862069 C16.2314027,15.0862069 16.8103448,15.665149 16.8103448,16.3793103 C16.8103448,17.0934717 16.2314027,17.6724138 15.5172414,17.6724138 Z M15.5172414,16.8103448 C15.7552952,16.8103448 15.9482759,16.6173641 15.9482759,16.3793103 C15.9482759,16.1412566 15.7552952,15.9482759 15.5172414,15.9482759 C15.2791876,15.9482759 15.0862069,16.1412566 15.0862069,16.3793103 C15.0862069,16.6173641 15.2791876,16.8103448 15.5172414,16.8103448 Z" id="Path_14580" fill="#FFFFFF" fill-rule="nonzero"></path>
                </g>
            </g>
        </g>
    </g>
</svg>