<svg xmlns="http://www.w3.org/2000/svg" width="25" height="25" viewBox="0 0 25 25">
    <g fill="none" fill-rule="evenodd">
        <g>
            <g>
                <g>
                    <path fill="#40C4FF" fill-opacity=".5" d="M8 8H17V18H8z" transform="translate(-103 -753) translate(0 710) translate(103 43)"/>
                    <g>
                        <path d="M0 0L25 0 25 25 0 25z" transform="translate(-103 -753) translate(0 710) translate(103 43)"/>
                        <path fill="#333" fill-rule="nonzero" d="M16.684 2.281c.08.081.126.19.126.305V6.48c0 .238.193.43.431.43l1.289-.013c.238-.003.433.188.436.426.002.238-.189.433-.427.436l-1.283.014h-.015c-.714 0-1.293-.58-1.293-1.293V3.017H4.741c-.238 0-.43.193-.43.431v18.104c0 .238.192.43.43.43H20.26c.238 0 .43-.192.43-.43V7.358l-2.288-2.315c-.122-.106-.175-.272-.136-.429.04-.157.163-.28.32-.316.158-.037.323.018.428.142l2.539 2.564v14.548c0 .714-.58 1.293-1.293 1.293H4.74c-.714 0-1.293-.58-1.293-1.293V3.448c0-.714.58-1.293 1.293-1.293H16.38c.115 0 .224.046.305.126zM7.76 10.345c.015-.252.23-.445.483-.431h8.517c.25-.01.465.18.482.43-.015.253-.23.446-.483.432H8.241c-.25.01-.465-.18-.482-.431zm0 3.017c.015-.252.23-.445.483-.431h8.517c.25-.01.465.18.482.431-.015.252-.23.445-.483.431H8.241c-.25.011-.465-.18-.482-.43zm0 3.017c0-.238.129-.43.285-.43h5.032c.158 0 .286.2.286.43 0 .238-.13.431-.286.431H8.044c-.156 0-.285-.2-.285-.43zm7.758 1.293c-.714 0-1.293-.579-1.293-1.293s.58-1.293 1.293-1.293c.714 0 1.293.58 1.293 1.293 0 .714-.579 1.293-1.293 1.293zm0-.862c.238 0 .431-.193.431-.43 0-.239-.193-.432-.43-.432-.239 0-.432.193-.432.431s.193.431.431.431z" transform="translate(-103 -753) translate(0 710) translate(103 43)"/>
                    </g>
                </g>
            </g>
        </g>
    </g>
</svg>
