<svg xmlns="http://www.w3.org/2000/svg" width="22" height="23" viewBox="0 0 22 23">
    <g fill="none" fill-rule="evenodd">
        <g fill-rule="nonzero">
            <g>
                <g>
                    <path fill="#FFD740" d="M10.241 10.59H19.344V12.507H10.241z" transform="translate(-32 -104) translate(31 104) translate(1)"/>
                    <path fill="#40C4FF" d="M2.655 7.044H7.206999999999999V8.961H2.655z" transform="translate(-32 -104) translate(31 104) translate(1)"/>
                    <path fill="#263238" d="M18.017 1.198H16.5c-.105 0-.19-.086-.19-.192 0-.106.085-.191.19-.191h1.517c.105 0 .19.085.19.191s-.085.192-.19.192z" transform="translate(-32 -104) translate(31 104) translate(1)"/>
                    <path fill="#263238" d="M17.259 1.965c-.105 0-.19-.086-.19-.192V.24c0-.106.085-.192.19-.192.104 0 .19.086.19.192v1.533c0 .106-.086.192-.19.192zM20.293 3.306h-1.517c-.105 0-.19-.086-.19-.191 0-.106.085-.192.19-.192h1.517c.105 0 .19.086.19.192 0 .105-.085.191-.19.191z" transform="translate(-32 -104) translate(31 104) translate(1)"/>
                    <path fill="#263238" d="M19.534 4.073c-.104 0-.19-.086-.19-.192V2.348c0-.106.086-.192.19-.192.105 0 .19.086.19.192V3.88c0 .106-.085.192-.19.192zM21.62 9.727h-3.603c-.104 0-.19-.086-.19-.192V5.894c0-.078.047-.148.118-.177.07-.03.152-.013.207.041L21.755 9.4c.054.055.07.137.04.209-.029.071-.098.118-.174.118zm-3.413-.383h2.956l-2.956-2.988v2.988z" transform="translate(-32 -104) translate(31 104) translate(1)"/>
                    <path fill="#263238" d="M20.672 22.952H8.914c-.628 0-1.138-.516-1.138-1.15V6.852c0-.634.51-1.15 1.138-1.15h9.103c.05 0 .099.02.135.056L21.755 9.4c.036.036.055.084.055.135v12.267c0 .634-.51 1.15-1.138 1.15zM8.914 6.085c-.419 0-.759.344-.759.767v14.95c0 .423.34.767.759.767h11.758c.419 0 .759-.344.759-.767V9.615l-3.492-3.53H8.914z" transform="translate(-32 -104) translate(31 104) translate(1)"/>
                    <path fill="#263238" d="M19.345 14.71H10.24c-.104 0-.19-.085-.19-.191s.086-.192.19-.192h9.104c.105 0 .19.086.19.192 0 .106-.085.191-.19.191zM19.345 16.627H10.24c-.104 0-.19-.086-.19-.192 0-.105.086-.191.19-.191h9.104c.105 0 .19.086.19.191 0 .106-.085.192-.19.192zM19.345 18.544H10.24c-.104 0-.19-.086-.19-.192 0-.106.086-.192.19-.192h9.104c.105 0 .19.086.19.192 0 .106-.085.192-.19.192z" transform="translate(-32 -104) translate(31 104) translate(1)"/>
                    <path fill="#263238" d="M19.345 18.544H10.24c-.104 0-.19-.086-.19-.192 0-.106.086-.192.19-.192h9.104c.105 0 .19.086.19.192 0 .106-.085.192-.19.192zM14.034 4.169h-3.603c-.105 0-.19-.086-.19-.192V.335c0-.077.047-.147.118-.177.07-.03.152-.013.206.042L14.17 3.84c.054.055.07.138.04.21-.029.071-.098.118-.175.118zm-3.413-.384h2.956L10.62.798v2.987z" transform="translate(-32 -104) translate(31 104) translate(1)"/>
                    <path fill="#263238" d="M7.207 17.394h-5.88c-.627 0-1.137-.516-1.137-1.15V1.294C.19.66.7.144 1.328.144h9.103c.05 0 .099.02.134.056L14.17 3.84c.035.036.055.085.055.136v1.15c0 .106-.085.192-.19.192-.104 0-.19-.086-.19-.192v-1.07L10.354.526H1.328c-.419 0-.759.344-.759.767v14.95c0 .423.34.766.759.766h5.879c.105 0 .19.086.19.192 0 .106-.085.192-.19.192z" transform="translate(-32 -104) translate(31 104) translate(1)"/>
                    <path fill="#263238" d="M7.207 5.319H2.655c-.105 0-.19-.086-.19-.192 0-.106.085-.192.19-.192h4.552c.105 0 .19.086.19.192 0 .106-.085.192-.19.192zM7.207 7.235H2.655c-.105 0-.19-.085-.19-.191s.085-.192.19-.192h4.552c.105 0 .19.086.19.192 0 .106-.085.191-.19.191zM7.207 9.152H2.655c-.105 0-.19-.086-.19-.192 0-.105.085-.191.19-.191h4.552c.105 0 .19.086.19.191 0 .106-.085.192-.19.192zM7.207 11.069H2.655c-.105 0-.19-.086-.19-.192 0-.106.085-.192.19-.192h4.552c.105 0 .19.086.19.192 0 .106-.085.192-.19.192zM7.207 12.985H2.655c-.105 0-.19-.085-.19-.191s.085-.192.19-.192h4.552c.105 0 .19.086.19.192 0 .106-.085.191-.19.191zM6.448 19.885H2.655c-.105 0-.19-.085-.19-.191s.085-.192.19-.192h3.793c.105 0 .19.086.19.192 0 .106-.085.191-.19.191zM1.897 19.885h-.38c-.104 0-.19-.085-.19-.191s.086-.192.19-.192h.38c.104 0 .19.086.19.192 0 .106-.086.191-.19.191zM19.345 10.877H10.24c-.104 0-.19-.086-.19-.192 0-.105.086-.191.19-.191h9.104c.105 0 .19.086.19.191 0 .106-.085.192-.19.192zM19.345 12.794H10.24c-.104 0-.19-.086-.19-.192 0-.106.086-.192.19-.192h9.104c.105 0 .19.086.19.192 0 .106-.085.192-.19.192z" transform="translate(-32 -104) translate(31 104) translate(1)"/>
                </g>
            </g>
        </g>
    </g>
</svg>
