<?xml version="1.0" encoding="UTF-8"?>
<svg width="22px" height="23px" viewBox="0 0 22 23" version="1.1" xmlns="http://www.w3.org/2000/svg" xmlns:xlink="http://www.w3.org/1999/xlink">
    <title>paperwork icon@3x</title>
    <g id="6.-Components" stroke="none" stroke-width="1" fill="none" fill-rule="evenodd">
        <g id="6.0-Components" transform="translate(-32.000000, -104.000000)" fill-rule="nonzero">
            <g id="Top-Info-Box" transform="translate(0.000000, 76.000000)">
                <g id="Content" transform="translate(32.000000, 25.000000)">
                    <g id="paperwork" transform="translate(0.000000, 3.000000)">
                        <rect id="Rectangle" fill="#FFD740" x="10.2413793" y="10.5895833" width="9.10344828" height="1.91666667"></rect>
                        <rect id="Rectangle" fill="#40C4FF" x="2.65517241" y="7.04375" width="4.55172414" height="1.91666667"></rect>
                        <path d="M18.0172414,1.19791667 L16.5,1.19791667 C16.3953103,1.19791667 16.3103448,1.11205 16.3103448,1.00625 C16.3103448,0.90045 16.3953103,0.814583333 16.5,0.814583333 L18.0172414,0.814583333 C18.121931,0.814583333 18.2068966,0.90045 18.2068966,1.00625 C18.2068966,1.11205 18.121931,1.19791667 18.0172414,1.19791667 Z" id="Path" fill="#FFFFFF"></path>
                        <path d="M17.2586207,1.96458333 C17.153931,1.96458333 17.0689655,1.87871667 17.0689655,1.77291667 L17.0689655,0.239583333 C17.0689655,0.133783333 17.153931,0.0479166667 17.2586207,0.0479166667 C17.3633103,0.0479166667 17.4482759,0.133783333 17.4482759,0.239583333 L17.4482759,1.77291667 C17.4482759,1.87871667 17.3633103,1.96458333 17.2586207,1.96458333 Z" id="Path" fill="#FFFFFF"></path>
                        <path d="M20.2931034,3.30625 L18.7758621,3.30625 C18.6711724,3.30625 18.5862069,3.22038333 18.5862069,3.11458333 C18.5862069,3.00878333 18.6711724,2.92291667 18.7758621,2.92291667 L20.2931034,2.92291667 C20.3977931,2.92291667 20.4827586,3.00878333 20.4827586,3.11458333 C20.4827586,3.22038333 20.3977931,3.30625 20.2931034,3.30625 Z" id="Path" fill="#FFFFFF"></path>
                        <path d="M19.5344828,4.07291667 C19.4297931,4.07291667 19.3448276,3.98705 19.3448276,3.88125 L19.3448276,2.34791667 C19.3448276,2.24211667 19.4297931,2.15625 19.5344828,2.15625 C19.6391724,2.15625 19.7241379,2.24211667 19.7241379,2.34791667 L19.7241379,3.88125 C19.7241379,3.98705 19.6391724,4.07291667 19.5344828,4.07291667 Z" id="Path" fill="#FFFFFF"></path>
                        <path d="M21.6206897,9.72708333 L18.0172414,9.72708333 C17.9125517,9.72708333 17.8275862,9.64121667 17.8275862,9.53541667 L17.8275862,5.89375 C17.8275862,5.81631667 17.8738621,5.74616667 17.9447931,5.71665 C18.0157241,5.68675 18.0968966,5.70361667 18.1515172,5.75805 L21.7549655,9.39971667 C21.8092069,9.45453333 21.8255172,9.53695 21.795931,9.60863333 C21.7663448,9.68031667 21.6973103,9.72708333 21.6206897,9.72708333 Z M18.2068966,9.34375 L21.1628621,9.34375 L18.2068966,6.35643333 L18.2068966,9.34375 Z" id="Shape" fill="#FFFFFF"></path>
                        <path d="M20.6724138,22.9520833 L8.9137931,22.9520833 C8.28641379,22.9520833 7.77586207,22.4361167 7.77586207,21.8020833 L7.77586207,6.85208333 C7.77586207,6.21805 8.28641379,5.70208333 8.9137931,5.70208333 L18.0172414,5.70208333 C18.0676897,5.70208333 18.1158621,5.7224 18.1515172,5.75805 L21.7549655,9.39971667 C21.7906207,9.43575 21.8103448,9.48443333 21.8103448,9.53541667 L21.8103448,21.8020833 C21.8103448,22.4361167 21.2997931,22.9520833 20.6724138,22.9520833 Z M8.9137931,6.08541667 C8.49541379,6.08541667 8.15517241,6.42926667 8.15517241,6.85208333 L8.15517241,21.8020833 C8.15517241,22.2249 8.49541379,22.56875 8.9137931,22.56875 L20.6724138,22.56875 C21.0907931,22.56875 21.4310345,22.2249 21.4310345,21.8020833 L21.4310345,9.61476667 L17.9387241,6.08541667 L8.9137931,6.08541667 Z" id="Shape" fill="#FFFFFF"></path>
                        <path d="M19.3448276,14.7104167 L10.2413793,14.7104167 C10.1366897,14.7104167 10.0517241,14.62455 10.0517241,14.51875 C10.0517241,14.41295 10.1366897,14.3270833 10.2413793,14.3270833 L19.3448276,14.3270833 C19.4495172,14.3270833 19.5344828,14.41295 19.5344828,14.51875 C19.5344828,14.62455 19.4495172,14.7104167 19.3448276,14.7104167 Z" id="Path" fill="#FFFFFF"></path>
                        <path d="M19.3448276,16.6270833 L10.2413793,16.6270833 C10.1366897,16.6270833 10.0517241,16.5412167 10.0517241,16.4354167 C10.0517241,16.3296167 10.1366897,16.24375 10.2413793,16.24375 L19.3448276,16.24375 C19.4495172,16.24375 19.5344828,16.3296167 19.5344828,16.4354167 C19.5344828,16.5412167 19.4495172,16.6270833 19.3448276,16.6270833 Z" id="Path" fill="#FFFFFF"></path>
                        <path d="M19.3448276,18.54375 L10.2413793,18.54375 C10.1366897,18.54375 10.0517241,18.4578833 10.0517241,18.3520833 C10.0517241,18.2462833 10.1366897,18.1604167 10.2413793,18.1604167 L19.3448276,18.1604167 C19.4495172,18.1604167 19.5344828,18.2462833 19.5344828,18.3520833 C19.5344828,18.4578833 19.4495172,18.54375 19.3448276,18.54375 Z" id="Path" fill="#263238"></path>
                        <path d="M19.3448276,18.54375 L10.2413793,18.54375 C10.1366897,18.54375 10.0517241,18.4578833 10.0517241,18.3520833 C10.0517241,18.2462833 10.1366897,18.1604167 10.2413793,18.1604167 L19.3448276,18.1604167 C19.4495172,18.1604167 19.5344828,18.2462833 19.5344828,18.3520833 C19.5344828,18.4578833 19.4495172,18.54375 19.3448276,18.54375 Z" id="Path" fill="#FFFFFF"></path>
                        <path d="M14.0344828,4.16875 L10.4310345,4.16875 C10.3263448,4.16875 10.2413793,4.08288333 10.2413793,3.97708333 L10.2413793,0.335416667 C10.2413793,0.257983333 10.2876552,0.187833333 10.3585862,0.158316667 C10.4298966,0.128416667 10.511069,0.1449 10.5653103,0.199716667 L14.1687586,3.84138333 C14.223,3.8962 14.2393103,3.97861667 14.2097241,4.0503 C14.1801379,4.12198333 14.1111034,4.16875 14.0344828,4.16875 Z M10.6206897,3.78541667 L13.5766552,3.78541667 L10.6206897,0.7981 L10.6206897,3.78541667 Z" id="Shape" fill="#FFFFFF"></path>
                        <path d="M7.20689655,17.39375 L1.32758621,17.39375 C0.700206897,17.39375 0.189655172,16.8777833 0.189655172,16.24375 L0.189655172,1.29375 C0.189655172,0.659716667 0.700206897,0.14375 1.32758621,0.14375 L10.4310345,0.14375 C10.4814828,0.14375 10.5296552,0.164066667 10.5653103,0.199716667 L14.1687586,3.84138333 C14.2044138,3.87741667 14.2241379,3.9261 14.2241379,3.97708333 L14.2241379,5.12708333 C14.2241379,5.23288333 14.1391724,5.31875 14.0344828,5.31875 C13.9297931,5.31875 13.8448276,5.23288333 13.8448276,5.12708333 L13.8448276,4.05643333 L10.3525172,0.527083333 L1.32758621,0.527083333 C0.909206897,0.527083333 0.568965517,0.870933333 0.568965517,1.29375 L0.568965517,16.24375 C0.568965517,16.6665667 0.909206897,17.0104167 1.32758621,17.0104167 L7.20689655,17.0104167 C7.31158621,17.0104167 7.39655172,17.0962833 7.39655172,17.2020833 C7.39655172,17.3078833 7.31158621,17.39375 7.20689655,17.39375 Z" id="Path" fill="#FFFFFF"></path>
                        <path d="M7.20689655,5.31875 L2.65517241,5.31875 C2.55048276,5.31875 2.46551724,5.23288333 2.46551724,5.12708333 C2.46551724,5.02128333 2.55048276,4.93541667 2.65517241,4.93541667 L7.20689655,4.93541667 C7.31158621,4.93541667 7.39655172,5.02128333 7.39655172,5.12708333 C7.39655172,5.23288333 7.31158621,5.31875 7.20689655,5.31875 Z" id="Path" fill="#FFFFFF"></path>
                        <path d="M7.20689655,7.23541667 L2.65517241,7.23541667 C2.55048276,7.23541667 2.46551724,7.14955 2.46551724,7.04375 C2.46551724,6.93795 2.55048276,6.85208333 2.65517241,6.85208333 L7.20689655,6.85208333 C7.31158621,6.85208333 7.39655172,6.93795 7.39655172,7.04375 C7.39655172,7.14955 7.31158621,7.23541667 7.20689655,7.23541667 Z" id="Path" fill="#FFFFFF"></path>
                        <path d="M7.20689655,9.15208333 L2.65517241,9.15208333 C2.55048276,9.15208333 2.46551724,9.06621667 2.46551724,8.96041667 C2.46551724,8.85461667 2.55048276,8.76875 2.65517241,8.76875 L7.20689655,8.76875 C7.31158621,8.76875 7.39655172,8.85461667 7.39655172,8.96041667 C7.39655172,9.06621667 7.31158621,9.15208333 7.20689655,9.15208333 Z" id="Path" fill="#FFFFFF"></path>
                        <path d="M7.20689655,11.06875 L2.65517241,11.06875 C2.55048276,11.06875 2.46551724,10.9828833 2.46551724,10.8770833 C2.46551724,10.7712833 2.55048276,10.6854167 2.65517241,10.6854167 L7.20689655,10.6854167 C7.31158621,10.6854167 7.39655172,10.7712833 7.39655172,10.8770833 C7.39655172,10.9828833 7.31158621,11.06875 7.20689655,11.06875 Z" id="Path" fill="#FFFFFF"></path>
                        <path d="M7.20689655,12.9854167 L2.65517241,12.9854167 C2.55048276,12.9854167 2.46551724,12.89955 2.46551724,12.79375 C2.46551724,12.68795 2.55048276,12.6020833 2.65517241,12.6020833 L7.20689655,12.6020833 C7.31158621,12.6020833 7.39655172,12.68795 7.39655172,12.79375 C7.39655172,12.89955 7.31158621,12.9854167 7.20689655,12.9854167 Z" id="Path" fill="#FFFFFF"></path>
                        <path d="M6.44827586,19.8854167 L2.65517241,19.8854167 C2.55048276,19.8854167 2.46551724,19.79955 2.46551724,19.69375 C2.46551724,19.58795 2.55048276,19.5020833 2.65517241,19.5020833 L6.44827586,19.5020833 C6.55296552,19.5020833 6.63793103,19.58795 6.63793103,19.69375 C6.63793103,19.79955 6.55296552,19.8854167 6.44827586,19.8854167 Z" id="Path" fill="#FFFFFF"></path>
                        <path d="M1.89655172,19.8854167 L1.51724138,19.8854167 C1.41255172,19.8854167 1.32758621,19.79955 1.32758621,19.69375 C1.32758621,19.58795 1.41255172,19.5020833 1.51724138,19.5020833 L1.89655172,19.5020833 C2.00124138,19.5020833 2.0862069,19.58795 2.0862069,19.69375 C2.0862069,19.79955 2.00124138,19.8854167 1.89655172,19.8854167 Z" id="Path" fill="#FFFFFF"></path>
                        <path d="M19.3448276,10.8770833 L10.2413793,10.8770833 C10.1366897,10.8770833 10.0517241,10.7912167 10.0517241,10.6854167 C10.0517241,10.5796167 10.1366897,10.49375 10.2413793,10.49375 L19.3448276,10.49375 C19.4495172,10.49375 19.5344828,10.5796167 19.5344828,10.6854167 C19.5344828,10.7912167 19.4495172,10.8770833 19.3448276,10.8770833 Z" id="Path" fill="#FFFFFF"></path>
                        <path d="M19.3448276,12.79375 L10.2413793,12.79375 C10.1366897,12.79375 10.0517241,12.7078833 10.0517241,12.6020833 C10.0517241,12.4962833 10.1366897,12.4104167 10.2413793,12.4104167 L19.3448276,12.4104167 C19.4495172,12.4104167 19.5344828,12.4962833 19.5344828,12.6020833 C19.5344828,12.7078833 19.4495172,12.79375 19.3448276,12.79375 Z" id="Path" fill="#FFFFFF"></path>
                    </g>
                </g>
            </g>
        </g>
    </g>
</svg>