<svg xmlns="http://www.w3.org/2000/svg" width="69" height="12" viewBox="0 0 69 12">
    <g fill="none" fill-rule="evenodd">
        <g>
            <g>
                <g transform="translate(-293 -17) translate(293.667 17) translate(42.333)">
                    <rect width="21" height="10.333" x=".5" y=".833" stroke="#000" opacity=".35" rx="2.667"/>
                    <path fill="#000" fill-rule="nonzero" d="M23 4v4c.805-.339 1.328-1.127 1.328-2S23.805 4.339 23 4" opacity=".4"/>
                    <rect width="18" height="7.333" x="2" y="2.333" fill="#000" fill-rule="nonzero" rx="1.333"/>
                </g>
                <path fill="#000" fill-rule="nonzero" d="M29.664 2.608c2.216 0 4.347.852 5.953 2.378.12.118.314.117.433-.003l1.156-1.167c.06-.06.094-.143.093-.228 0-.086-.035-.168-.096-.228-4.215-4.04-10.865-4.04-15.08 0-.06.06-.095.142-.096.228 0 .085.033.168.093.228l1.157 1.167c.119.12.312.121.433.003 1.606-1.527 3.738-2.378 5.954-2.378zm0 3.796c1.217 0 2.391.452 3.294 1.27.122.115.314.113.433-.006L34.546 6.5c.06-.061.094-.144.093-.23 0-.087-.036-.17-.098-.229-2.748-2.556-7.004-2.556-9.752 0-.062.06-.098.142-.099.229 0 .086.033.169.094.23l1.155 1.167c.119.119.31.121.433.005.902-.816 2.075-1.269 3.292-1.27zm2.219 2.784c.061-.06.095-.144.094-.23-.002-.087-.04-.169-.104-.227-1.275-1.079-3.143-1.079-4.419 0-.064.058-.102.14-.103.226-.002.087.032.17.093.231l1.998 2.016c.059.059.138.092.222.092.083 0 .163-.033.221-.092l1.998-2.016zM1 7.333h1c.552 0 1 .448 1 1v2c0 .553-.448 1-1 1H1c-.552 0-1-.447-1-1v-2c0-.552.448-1 1-1zm4.667-2h1c.552 0 1 .448 1 1v4c0 .553-.448 1-1 1h-1c-.553 0-1-.447-1-1v-4c0-.552.447-1 1-1zM10.333 3h1c.553 0 1 .448 1 1v6.333c0 .553-.447 1-1 1h-1c-.552 0-1-.447-1-1V4c0-.552.448-1 1-1zM15 .667h1c.552 0 1 .447 1 1v8.666c0 .553-.448 1-1 1h-1c-.552 0-1-.447-1-1V1.667c0-.553.448-1 1-1z" transform="translate(-293 -17) translate(293.667 17)"/>
            </g>
        </g>
    </g>
</svg>
