<svg xmlns="http://www.w3.org/2000/svg" width="67" height="12" viewBox="0 0 67 12">
    <g fill="none" fill-rule="evenodd">
        <g>
            <g>
                <g>
                    <g>
                        <path stroke="#FFF" d="M18.915.833c1.047 0 1.434.092 1.818.297.346.186.618.457.803.803.206.385.297.772.297 1.819h0v4.496c0 1.047-.091 1.434-.297 1.819-.185.346-.457.617-.803.803-.384.205-.771.297-1.818.297h0H3.752c-1.047 0-1.434-.092-1.819-.297-.346-.186-.617-.457-.803-.803-.205-.385-.297-.772-.297-1.819h0V3.752c0-1.047.092-1.434.297-1.819.186-.346.457-.617.803-.803.385-.205.772-.297 1.819-.297h0z" opacity=".35" transform="translate(-294 -17) translate(21 7) translate(273 10) translate(42)"/>
                        <path fill="#FFF" fill-rule="nonzero" d="M23.333 4v4c.805-.339 1.328-1.127 1.328-2s-.523-1.661-1.328-2" opacity=".4" transform="translate(-294 -17) translate(21 7) translate(273 10) translate(42)"/>
                        <path fill="#FFF" fill-rule="nonzero" d="M4.043 2.333h14.581c.594 0 .81.062 1.027.178.217.117.388.287.504.504.116.218.178.433.178 1.028v3.914c0 .595-.062.81-.178 1.028-.116.217-.287.387-.504.504-.217.116-.433.178-1.027.178H4.043c-.595 0-.81-.062-1.028-.178-.217-.117-.387-.287-.504-.504-.116-.218-.178-.433-.178-1.028V4.043c0-.595.062-.81.178-1.028.117-.217.287-.387.504-.504.218-.116.433-.178 1.028-.178z" transform="translate(-294 -17) translate(21 7) translate(273 10) translate(42)"/>
                    </g>
                    <path fill="#FFF" fill-rule="nonzero" d="M29.667 2.615c2.225 0 4.364.854 5.977 2.386.121.118.315.117.435-.003l1.16-1.17c.061-.062.095-.144.094-.23 0-.086-.035-.168-.096-.228-4.232-4.052-10.908-4.052-15.14 0-.062.06-.096.142-.097.228 0 .086.033.168.094.23l1.16 1.17c.12.12.314.121.436.003 1.612-1.532 3.752-2.386 5.977-2.386zm0 3.808c1.222 0 2.401.454 3.307 1.273.123.117.316.114.435-.005l1.16-1.17c.06-.062.094-.145.094-.232-.001-.086-.037-.169-.1-.23-2.758-2.563-7.031-2.563-9.79 0-.063.061-.098.144-.1.23 0 .087.034.17.095.231l1.16 1.17c.119.12.312.123.434.006.906-.819 2.084-1.273 3.305-1.273zm2.228 2.793c.062-.061.096-.145.094-.231-.001-.087-.039-.17-.103-.228-1.281-1.082-3.157-1.082-4.437 0-.065.059-.102.14-.104.227-.002.087.032.171.094.232l2.006 2.022c.058.06.138.093.222.093.084 0 .164-.034.223-.093l2.005-2.022zM1 7.333h1c.552 0 1 .448 1 1v2c0 .553-.448 1-1 1H1c-.552 0-1-.447-1-1v-2c0-.552.448-1 1-1zm4.667-2h1c.552 0 1 .448 1 1v4c0 .553-.448 1-1 1h-1c-.553 0-1-.447-1-1v-4c0-.552.447-1 1-1zM10.333 3h1c.553 0 1 .448 1 1v6.333c0 .553-.447 1-1 1h-1c-.552 0-1-.447-1-1V4c0-.552.448-1 1-1zM15 .667h1c.552 0 1 .447 1 1v8.666c0 .553-.448 1-1 1h-1c-.552 0-1-.447-1-1V1.667c0-.553.448-1 1-1z" transform="translate(-294 -17) translate(21 7) translate(273 10)"/>
                </g>
            </g>
        </g>
    </g>
</svg>
