<?xml version="1.0" encoding="UTF-8"?>
<svg width="65px" height="65px" viewBox="0 0 65 65" version="1.1" xmlns="http://www.w3.org/2000/svg" xmlns:xlink="http://www.w3.org/1999/xlink">
    <title>rejected@3x</title>
    <g id="5.-Pages" stroke="none" stroke-width="1" fill="none" fill-rule="evenodd">
        <g id="5.2.7-Payment-Rejected" transform="translate(-157.000000, -525.000000)" fill-rule="nonzero">
            <g id="rejected" transform="translate(157.000000, 525.000000)">
                <path d="M1.12068966,33.0603448 C0.81137931,33.0603448 0.560344828,32.8093103 0.560344828,32.5 C0.560344828,14.8883621 14.8883621,0.560344828 32.5,0.560344828 C32.8093103,0.560344828 33.0603448,0.81137931 33.0603448,1.12068966 C33.0603448,1.43 32.8093103,1.68103448 32.5,1.68103448 C15.5069828,1.68103448 1.68103448,15.5058621 1.68103448,32.5 C1.68103448,32.8093103 1.43,33.0603448 1.12068966,33.0603448 Z" id="Path" fill="#FFFFFF"></path>
                <path d="M35.862069,1.68103448 L34.7413793,1.68103448 C34.432069,1.68103448 34.1810345,1.43 34.1810345,1.12068966 C34.1810345,0.81137931 34.432069,0.560344828 34.7413793,0.560344828 L35.862069,0.560344828 C36.1713793,0.560344828 36.4224138,0.81137931 36.4224138,1.12068966 C36.4224138,1.43 36.1713793,1.68103448 35.862069,1.68103448 Z" id="Path" fill="#FFFFFF"></path>
                <path d="M32.5,64.4396552 C32.1906897,64.4396552 31.9396552,64.1886207 31.9396552,63.8793103 C31.9396552,63.57 32.1906897,63.3189655 32.5,63.3189655 C49.4930172,63.3189655 63.3189655,49.4941379 63.3189655,32.5 C63.3189655,32.1906897 63.57,31.9396552 63.8793103,31.9396552 C64.1886207,31.9396552 64.4396552,32.1906897 64.4396552,32.5 C64.4396552,50.1116379 50.1116379,64.4396552 32.5,64.4396552 Z" id="Path" fill="#FFFFFF"></path>
                <path d="M30.2586207,64.4396552 L29.137931,64.4396552 C28.8286207,64.4396552 28.5775862,64.1886207 28.5775862,63.8793103 C28.5775862,63.57 28.8286207,63.3189655 29.137931,63.3189655 L30.2586207,63.3189655 C30.567931,63.3189655 30.8189655,63.57 30.8189655,63.8793103 C30.8189655,64.1886207 30.567931,64.4396552 30.2586207,64.4396552 Z" id="Path" fill="#FFFFFF"></path>
                <path d="M32.5,59.9568966 C17.3594828,59.9568966 5.04310345,47.6393966 5.04310345,32.5 C5.04310345,17.3606034 17.3594828,5.04310345 32.5,5.04310345 C47.6405172,5.04310345 59.9568966,17.3606034 59.9568966,32.5 C59.9568966,47.6393966 47.6405172,59.9568966 32.5,59.9568966 Z M32.5,6.1637931 C17.9781034,6.1637931 6.1637931,17.9781034 6.1637931,32.5 C6.1637931,47.0218966 17.9781034,58.8362069 32.5,58.8362069 C47.0218966,58.8362069 58.8362069,47.0218966 58.8362069,32.5 C58.8362069,17.9781034 47.0218966,6.1637931 32.5,6.1637931 Z" id="Shape" fill="#FFFFFF"></path>
                <g id="Group" transform="translate(11.206897, 11.206897)">
                    <path d="M21.2931034,1.12068966 C10.1523276,1.12068966 1.12068966,10.1523276 1.12068966,21.2931034 C1.12068966,32.4338793 10.1523276,41.4655172 21.2931034,41.4655172 C32.4338793,41.4655172 41.4655172,32.4338793 41.4655172,21.2931034 C41.4655172,10.1523276 32.4338793,1.12068966 21.2931034,1.12068966 Z" id="Path" fill="#FF5252"></path>
                    <path d="M21.2931034,42.0258621 C9.86094828,42.0258621 0.560344828,32.7252586 0.560344828,21.2931034 C0.560344828,9.86094828 9.86094828,0.560344828 21.2931034,0.560344828 C32.7252586,0.560344828 42.0258621,9.86094828 42.0258621,21.2931034 C42.0258621,32.7252586 32.7252586,42.0258621 21.2931034,42.0258621 Z M21.2931034,1.68103448 C10.479569,1.68103448 1.68103448,10.479569 1.68103448,21.2931034 C1.68103448,32.1066379 10.479569,40.9051724 21.2931034,40.9051724 C32.1066379,40.9051724 40.9051724,32.1066379 40.9051724,21.2931034 C40.9051724,10.479569 32.1066379,1.68103448 21.2931034,1.68103448 Z" id="Shape" fill="#FFFFFF"></path>
                </g>
                <path d="M56.0344828,3.92241379 L51.5517241,3.92241379 C51.2424138,3.92241379 50.9913793,3.67137931 50.9913793,3.36206897 C50.9913793,3.05275862 51.2424138,2.80172414 51.5517241,2.80172414 L56.0344828,2.80172414 C56.3437931,2.80172414 56.5948276,3.05275862 56.5948276,3.36206897 C56.5948276,3.67137931 56.3437931,3.92241379 56.0344828,3.92241379 Z" id="Path" fill="#FFFFFF"></path>
                <path d="M53.7931034,6.1637931 C53.4837931,6.1637931 53.2327586,5.91275862 53.2327586,5.60344828 L53.2327586,1.12068966 C53.2327586,0.81137931 53.4837931,0.560344828 53.7931034,0.560344828 C54.1024138,0.560344828 54.3534483,0.81137931 54.3534483,1.12068966 L54.3534483,5.60344828 C54.3534483,5.91275862 54.1024138,6.1637931 53.7931034,6.1637931 Z" id="Path" fill="#FFFFFF"></path>
                <path d="M63.8793103,11.2068966 L59.3965517,11.2068966 C59.0872414,11.2068966 58.8362069,10.9558621 58.8362069,10.6465517 C58.8362069,10.3372414 59.0872414,10.0862069 59.3965517,10.0862069 L63.8793103,10.0862069 C64.1886207,10.0862069 64.4396552,10.3372414 64.4396552,10.6465517 C64.4396552,10.9558621 64.1886207,11.2068966 63.8793103,11.2068966 Z" id="Path" fill="#FFFFFF"></path>
                <path d="M61.637931,13.4482759 C61.3286207,13.4482759 61.0775862,13.1972414 61.0775862,12.887931 L61.0775862,8.40517241 C61.0775862,8.09586207 61.3286207,7.84482759 61.637931,7.84482759 C61.9472414,7.84482759 62.1982759,8.09586207 62.1982759,8.40517241 L62.1982759,12.887931 C62.1982759,13.1972414 61.9472414,13.4482759 61.637931,13.4482759 Z" id="Path" fill="#FFFFFF"></path>
                <g id="Group" transform="translate(21.293103, 21.293103)">
                    <path d="M18.3389655,1.69784483 L11.2068966,8.82991379 L4.07482759,1.69784483 C3.41810345,1.04112069 2.35456897,1.04112069 1.69784483,1.69784483 C1.04112069,2.35456897 1.04112069,3.41810345 1.69784483,4.07482759 L8.82991379,11.2068966 L1.69784483,18.3389655 C1.04112069,18.9956897 1.04112069,20.0592241 1.69784483,20.7159483 C2.35456897,21.3726724 3.41810345,21.3726724 4.07482759,20.7159483 L11.2068966,13.5838793 L18.3389655,20.7159483 C18.9956897,21.3726724 20.0592241,21.3726724 20.7159483,20.7159483 C21.3726724,20.0592241 21.3726724,18.9956897 20.7159483,18.3389655 L13.5838793,11.2068966 L20.7159483,4.07482759 C21.3726724,3.41810345 21.3726724,2.35456897 20.7159483,1.69784483 C20.0603448,1.04112069 18.9956897,1.04112069 18.3389655,1.69784483 Z" id="Path" fill="#FFFFFF"></path>
                    <path d="M2.88577586,21.7682759 C2.31198276,21.7682759 1.73818966,21.5497414 1.30112069,21.1126724 C0.8775,20.6890517 0.644396552,20.1264655 0.644396552,19.5280172 C0.644396552,18.9284483 0.8775,18.3658621 1.30112069,17.9433621 L8.03758621,11.2068966 L1.30112069,4.47043103 C0.8775,4.04793103 0.644396552,3.48534483 0.644396552,2.88577586 C0.644396552,2.28732759 0.8775,1.72474138 1.30112069,1.30112069 C2.17413793,0.428103448 3.59741379,0.428103448 4.47043103,1.30112069 L11.2068966,8.03758621 L17.9433621,1.30112069 C18.8152586,0.428103448 20.2385345,0.426982759 21.1126724,1.30112069 C21.5362931,1.72474138 21.7693966,2.28732759 21.7693966,2.88577586 C21.7693966,3.48534483 21.5362931,4.04793103 21.1126724,4.47043103 L14.3762069,11.2068966 L21.1126724,17.9433621 C21.5362931,18.3658621 21.7693966,18.9284483 21.7693966,19.5280172 C21.7693966,20.1264655 21.5362931,20.6890517 21.1126724,21.1126724 C20.2407759,21.984569 18.8175,21.9856897 17.9433621,21.1126724 L11.2068966,14.3762069 L4.47043103,21.1126724 C4.03448276,21.5497414 3.45956897,21.7682759 2.88577586,21.7682759 Z M2.88577586,1.7662069 C2.59887931,1.7662069 2.31198276,1.87491379 2.09344828,2.09344828 C1.88275862,2.30525862 1.76508621,2.58655172 1.76508621,2.88577586 C1.76508621,3.185 1.88163793,3.4662931 2.09344828,3.67810345 L9.22551724,10.8101724 C9.44405172,11.0287069 9.44405172,11.3839655 9.22551724,11.6025 L2.09344828,18.734569 C1.88275862,18.9463793 1.76508621,19.2276724 1.76508621,19.5268966 C1.76508621,19.8261207 1.88163793,20.1074138 2.09344828,20.3192241 C2.53163793,20.7562931 3.23991379,20.7562931 3.67810345,20.3192241 L10.8101724,13.1871552 C11.0287069,12.9686207 11.3839655,12.9686207 11.6025,13.1871552 L18.734569,20.3192241 C19.1727586,20.7562931 19.8810345,20.7562931 20.3192241,20.3192241 C20.5299138,20.1074138 20.6475862,19.8261207 20.6475862,19.5268966 C20.6475862,19.2276724 20.5310345,18.9463793 20.3192241,18.734569 L13.1871552,11.6025 C12.9686207,11.3839655 12.9686207,11.0287069 13.1871552,10.8101724 L20.3192241,3.67810345 C20.5299138,3.4662931 20.6475862,3.185 20.6475862,2.88577586 C20.6475862,2.58655172 20.5310345,2.30525862 20.3192241,2.09344828 C19.8810345,1.65637931 19.1727586,1.65637931 18.734569,2.09344828 L11.6025,9.22551724 C11.3839655,9.44405172 11.0287069,9.44405172 10.8101724,9.22551724 L3.67810345,2.09344828 C3.45956897,1.87491379 3.17267241,1.7662069 2.88577586,1.7662069 Z" id="Shape" fill="#263238"></path>
                </g>
            </g>
        </g>
    </g>
</svg>