<svg xmlns="http://www.w3.org/2000/svg" width="19" height="19" viewBox="0 0 19 19">
    <g fill="none" fill-rule="evenodd">
        <g fill="#000">
            <g>
                <g>
                    <g>
                        <path d="M5.65 7.19c.087.043.144.13.15.226.006.096-.04.189-.121.242-.081.053-.185.06-.271.016L.449 5.194c-.294-.146-.47-.456-.447-.785.023-.327.242-.609.553-.713l5.08-1.693c.14-.045.292.032.339.172.047.14-.028.293-.168.342L.726 4.21c-.103.034-.176.128-.184.238-.008.109.051.212.15.26l4.958 2.48v.002zm.207.298l2.223 4.587c.048.099.15.159.26.152.11-.007.204-.079.24-.183L12.392.9c.033-.097.008-.204-.063-.277-.072-.074-.18-.1-.277-.068l-4.12 1.334c-.14.042-.288-.036-.334-.176-.045-.14.03-.29.168-.339L11.886.04c.292-.094.613-.015.829.204.215.22.289.541.19.832L9.091 12.22c-.106.311-.39.528-.719.548-.329.02-.637-.16-.78-.457L5.2 7.377 9.36 3.22c.107-.102.275-.1.38.004.104.104.105.273.003.379L5.857 7.488zM3.64 9.257L.457 7.572c-.085-.045-.14-.133-.144-.23-.004-.096.045-.187.127-.239.082-.051.185-.055.27-.01l3.33 1.763 1.763 3.33c.033.063.04.137.02.206-.022.068-.07.126-.133.16-.064.033-.138.04-.207.019-.068-.021-.126-.069-.16-.132L3.64 9.256z" transform="translate(-48 -231) translate(31 230) translate(1.536) rotate(45 11.12 30.262)"/>
                    </g>
                </g>
            </g>
        </g>
    </g>
</svg>
