<?xml version="1.0" encoding="UTF-8"?>
<svg width="6px" height="11px" viewBox="0 0 6 11" version="1.1" xmlns="http://www.w3.org/2000/svg" xmlns:xlink="http://www.w3.org/1999/xlink">
    <title>Right Path@3x</title>
    <g id="5.-Pages" stroke="none" stroke-width="1" fill="none" fill-rule="evenodd">
        <g id="5.5-Notifications" transform="translate(-309.000000, -240.000000)" fill="#FFFFFF" fill-rule="nonzero" stroke="#FFFFFF">
            <g id="1st-Notification" transform="translate(32.000000, 210.000000)">
                <path d="M284.837711,33 C284.795156,33.0007445 284.754727,33.0177926 284.725656,33.0472747 L279.987536,37.6289585 L275.277643,33.0702214 C275.213556,33.0114502 275.11188,33.0114502 275.047794,33.0702214 C275.017243,33.0983139 275,33.1369486 275,33.1773058 C275,33.217663 275.017243,33.2562977 275.047794,33.2843902 L279.870595,37.9540362 C279.901355,37.9838043 279.943591,38.0003797 279.987536,37.9999295 C280.030478,38.001232 280.071823,37.9844268 280.100444,37.9540362 L284.955505,33.2614436 C285.016362,33.1996365 285.014578,33.1031947 284.951473,33.0434503 C284.92131,33.0149713 284.880265,32.9993031 284.837711,33 Z" id="Right-Path" transform="translate(280.000000, 35.500000) rotate(-90.000000) translate(-280.000000, -35.500000) "></path>
            </g>
        </g>
    </g>
</svg>