<?xml version="1.0" encoding="UTF-8"?>
<svg width="23px" height="23px" viewBox="0 0 23 23" version="1.1" xmlns="http://www.w3.org/2000/svg" xmlns:xlink="http://www.w3.org/1999/xlink">
    <title>Group@3x</title>
    <g id="5.-Pages" stroke="none" stroke-width="1" fill="none" fill-rule="evenodd">
        <g id="5.6-Settings" transform="translate(-320.000000, -755.000000)">
            <g id="Footer-Menu" transform="translate(0.000000, 711.000000)">
                <g id="Settings" transform="translate(315.000000, 43.300000)">
                    <g id="Group" transform="translate(5.000000, 0.700000)">
                        <circle id="active" fill-opacity="0.6" fill="#40C4FF" cx="11.5" cy="11.5" r="4.5"></circle>
                        <g id="settings">
                            <polygon id="Path_14577" points="0 0 23 0 23 23 0 23"></polygon>
                            <path d="M11.5,8.72413793 C10.7635843,8.72312281 10.0571399,9.0156907 9.53706897,9.53706897 C9.43750495,9.6401552 9.29006566,9.6814981 9.15141951,9.64520749 C9.01277336,9.60891689 8.90449691,9.50064044 8.8682063,9.36199428 C8.83191569,9.22334813 8.8732586,9.07590884 8.97634483,8.97634483 C10.1803005,7.77237442 12.0670738,7.5865312 13.482791,8.53246932 C14.8985081,9.47840744 15.4488728,11.2926704 14.7973043,12.8657287 C14.1457358,14.438787 12.4737048,15.3325228 10.8037575,15.0003635 C9.13381009,14.6682043 7.93103448,13.2026609 7.93103448,11.5 C7.93103448,11.2809905 8.10857674,11.1034483 8.32758621,11.1034483 C8.54659568,11.1034483 8.72413793,11.2809905 8.72413793,11.5 C8.72413793,13.0330663 9.96693371,14.2758621 11.5,14.2758621 C13.0330663,14.2758621 14.2758621,13.0330663 14.2758621,11.5 C14.2758621,9.96693371 13.0330663,8.72413793 11.5,8.72413793 L11.5,8.72413793 Z M9.12068966,2.37931034 C9.1192139,2.06464909 9.2430433,1.7623407 9.46483691,1.53913345 C9.68663051,1.3159262 9.98814607,1.19017861 10.3028103,1.18965517 L12.6971897,1.18965517 C13.0117561,1.19049497 13.3130872,1.31634367 13.5348123,1.53948198 C13.7565374,1.7626203 13.8804691,2.06474495 13.8793103,2.37931034 L13.8793103,4.62458621 C14.166232,4.70290737 14.4482752,4.79811351 14.7239655,4.9097069 L16.2661552,3.37068966 C16.4875032,3.14679363 16.7889047,3.02026771 17.1037427,3.01907712 C17.4185807,3.01788652 17.7209304,3.14212928 17.9439655,3.36434483 L19.6372414,5.05762069 C19.8590659,5.28086176 19.9830393,5.58313276 19.9818492,5.89784103 C19.9806591,6.21254931 19.8544032,6.51387403 19.6308966,6.73543103 L18.3532069,8.01034483 C18.566689,8.36468668 18.7505216,8.7360656 18.9028276,9.12068966 L20.6206897,9.12068966 C20.9353509,9.1192139 21.2376593,9.2430433 21.4608666,9.46483691 C21.6840738,9.68663051 21.8098214,9.98814607 21.8103448,10.3028103 L21.8103448,12.6971897 C21.809505,13.0117561 21.6836563,13.3130872 21.460518,13.5348123 C21.2373797,13.7565374 20.935255,13.8804691 20.6206897,13.8793103 L19.1673276,13.8793103 C19.0366161,14.3595475 18.8583434,14.825554 18.6351552,15.2704138 L19.6293103,16.2661552 C19.8532064,16.4875032 19.9797323,16.7889047 19.9809229,17.1037427 C19.9821135,17.4185807 19.8578707,17.7209304 19.6356552,17.9439655 L17.9423793,19.6372414 C17.7191382,19.8590659 17.4168672,19.9830393 17.102159,19.9818492 C16.7874507,19.9806591 16.486126,19.8544032 16.264569,19.6308966 L15.2688276,18.6351552 C14.8244742,18.8582429 14.3590039,19.0365138 13.8793103,19.1673276 L13.8793103,20.6206897 C13.8807861,20.9353509 13.7569567,21.2376593 13.5351631,21.4608666 C13.3133695,21.6840738 13.0118539,21.8098214 12.6971897,21.8103448 L10.3028103,21.8103448 C9.98824394,21.809505 9.68691277,21.6836563 9.46518766,21.460518 C9.24346256,21.2373797 9.11953088,20.935255 9.12068966,20.6206897 L9.12068966,18.9028276 C8.7360656,18.7505216 8.36468668,18.566689 8.01034483,18.3532069 L6.73384483,19.6293103 C6.51249678,19.8532064 6.21109533,19.9797323 5.89625732,19.9809229 C5.58141931,19.9821135 5.27906955,19.8578707 5.05603448,19.6356552 L3.36275862,17.9423793 C3.14093406,17.7191382 3.01696068,17.4168672 3.01815079,17.102159 C3.01934089,16.7874507 3.14559683,16.486126 3.36910345,16.264569 L4.91089655,14.7227759 C4.79919831,14.4475294 4.70398957,14.1658757 4.62577586,13.8793103 L2.37931034,13.8793103 C2.06464909,13.8807861 1.7623407,13.7569567 1.53913345,13.5351631 C1.3159262,13.3133695 1.19017861,13.0118539 1.18965517,12.6971897 L1.18965517,10.3028103 C1.19049497,9.98824394 1.31634367,9.68691277 1.53948198,9.46518766 C1.7626203,9.24346256 2.06474495,9.11953088 2.37931034,9.12068966 L4.88908621,9.12068966 C4.96839655,8.91765517 5.05762069,8.71832184 5.15675862,8.52268966 L3.37068966,6.73384483 C3.14679363,6.51249678 3.02026771,6.21109533 3.01907712,5.89625732 C3.01788652,5.58141931 3.14212928,5.27906955 3.36434483,5.05603448 L5.05762069,3.36275862 C5.28086176,3.14093406 5.58313276,3.01696068 5.89784103,3.01815079 C6.21254931,3.01934089 6.51387403,3.14559683 6.73543103,3.36910345 L8.52427586,5.15794828 C8.71990805,5.06013218 8.91924138,4.97090805 9.12227586,4.89027586 L9.12227586,2.37931034 L9.12068966,2.37931034 Z M8.3842931,6.13981034 L6.17312069,3.92982759 C6.10028937,3.85541775 6.00088165,3.81298796 5.89676642,3.81187244 C5.79265119,3.81075692 5.69235719,3.85104704 5.61794828,3.92387931 L3.92467241,5.61715517 C3.85149848,5.69141254 3.81100957,5.79181734 3.81220095,5.89606302 C3.81339233,6.0003087 3.85616533,6.09976194 3.93101724,6.17232759 L6.14218966,8.3835 C5.8487339,8.86264822 5.61665145,9.37677344 5.45139655,9.9137931 L2.37931034,9.9137931 C2.27512038,9.91273637 2.17478401,9.95314192 2.10040356,10.0261091 C2.02602311,10.0990764 1.98370049,10.1986193 1.98275862,10.3028103 L1.98275862,12.6971897 C1.98338355,12.8014808 2.02560586,12.9012095 2.10005603,12.9742451 C2.17450619,13.0472807 2.27502642,13.0875824 2.37931034,13.0862069 L5.25827586,13.0862069 C5.37027532,13.7157908 5.57192279,14.3260748 5.85706897,14.8984483 L3.92982759,16.8268793 C3.85541775,16.8997106 3.81298796,16.9991184 3.81187244,17.1032336 C3.81075692,17.2073488 3.85104704,17.3076428 3.92387931,17.3820517 L5.61715517,19.0753276 C5.69141254,19.1485015 5.79181734,19.1889904 5.89606302,19.1877991 C6.0003087,19.1866077 6.09976194,19.1438347 6.17232759,19.0689828 L7.90922414,17.3320862 C8.51607349,17.7786491 9.19371747,18.1199511 9.9137931,18.3417069 L9.9137931,20.6206897 C9.91273637,20.7248796 9.95314192,20.825216 10.0261091,20.8995964 C10.0990764,20.9739769 10.1986193,21.0162995 10.3028103,21.0172414 L12.6971897,21.0172414 C12.8014808,21.0166165 12.9012095,20.9743941 12.9742451,20.899944 C13.0472807,20.8254938 13.0875824,20.7249736 13.0862069,20.6206897 L13.0862069,18.5348276 C13.9085985,18.3883626 14.6963426,18.0893776 15.4088103,17.6532931 L16.8268793,19.0713621 C16.8997106,19.1457719 16.9991184,19.1882017 17.1032336,19.1893172 C17.2073488,19.1904327 17.3076428,19.1501426 17.3820517,19.0773103 L19.0753276,17.3840345 C19.1485015,17.3097771 19.1889904,17.2093723 19.1877991,17.1051266 C19.1866077,17.000881 19.1438347,16.9014277 19.0689828,16.8288621 L17.6509138,15.4107931 C18.0875062,14.6977796 18.3867692,13.9093394 18.5332414,13.0862069 L20.6206897,13.0862069 C20.7248796,13.0872636 20.825216,13.0468581 20.8995964,12.9738909 C20.9739769,12.9009236 21.0162995,12.8013807 21.0172414,12.6971897 L21.0172414,10.3028103 C21.0167229,10.1984858 20.9745343,10.0986946 20.9000606,10.025636 C20.825587,9.95257733 20.725005,9.91231051 20.6206897,9.9137931 L18.3417069,9.9137931 C18.1202346,9.19407313 17.7793401,8.51670788 17.3332759,7.91001724 L19.0701724,6.17312069 C19.1445823,6.10028937 19.187012,6.00088165 19.1881276,5.89676642 C19.1892431,5.79265119 19.148953,5.69235719 19.0761207,5.61794828 L17.3828448,3.92467241 C17.3085875,3.85149848 17.2081827,3.81100957 17.103937,3.81220095 C16.9996913,3.81339233 16.9002381,3.85616533 16.8276724,3.93101724 L14.8988448,5.85984483 C14.3264105,5.57425163 13.715988,5.37220191 13.0862069,5.25986207 L13.0862069,2.37931034 C13.0872636,2.27512038 13.0468581,2.17478401 12.9738909,2.10040356 C12.9009236,2.02602311 12.8013807,1.98370049 12.6971897,1.98275862 L10.3028103,1.98275862 C10.1984858,1.98327712 10.0986946,2.02546574 10.025636,2.09993937 C9.95257733,2.17441301 9.91231051,2.27499502 9.9137931,2.37931034 L9.9137931,5.4502069 C9.37708566,5.61527319 8.86323195,5.84708689 8.3842931,6.1402069 L8.3842931,6.13981034 Z M11.5,12.2931034 C11.0619811,12.2931034 10.7068966,11.9380189 10.7068966,11.5 C10.7068966,11.0619811 11.0619811,10.7068966 11.5,10.7068966 C11.9380189,10.7068966 12.2931034,11.0619811 12.2931034,11.5 C12.2931034,11.9380189 11.9380189,12.2931034 11.5,12.2931034 Z" id="Path_14578" fill="#333333"></path>
                        </g>
                    </g>
                </g>
            </g>
        </g>
    </g>
</svg>