<svg xmlns="http://www.w3.org/2000/svg" width="23" height="23" viewBox="0 0 23 23">
    <g fill="none" fill-rule="evenodd">
        <g>
            <g>
                <g>
                    <g>
                        <path d="M0 0L23 0 23 23 0 23z" transform="translate(-320 -754) translate(0 710) translate(315 43.3) translate(5 .7)"/>
                        <path fill="#333" d="M11.5 8.724c-.736 0-1.443.292-1.963.813-.1.103-.247.144-.386.108-.138-.036-.247-.144-.283-.283-.036-.139.005-.286.108-.386 1.204-1.204 3.091-1.39 4.507-.444 1.416.946 1.966 2.76 1.314 4.334-.651 1.573-2.323 2.467-3.993 2.134-1.67-.332-2.873-1.797-2.873-3.5 0-.219.178-.397.397-.397.219 0 .396.178.396.397 0 1.533 1.243 2.776 2.776 2.776 1.533 0 2.776-1.243 2.776-2.776 0-1.533-1.243-2.776-2.776-2.776zM9.12 2.38c0-.314.123-.617.345-.84.222-.223.523-.349.838-.35h2.394c.315.001.616.127.838.35.222.224.345.526.344.84v2.246c.287.078.57.173.845.285l1.542-1.54c.222-.223.523-.35.838-.35.315-.002.617.122.84.344l1.693 1.694c.222.223.346.525.345.84-.001.315-.128.616-.351.837L18.353 8.01c.214.355.398.726.55 1.11h1.718c.314 0 .617.123.84.345.223.222.349.523.35.838v2.394c-.001.315-.127.616-.35.838-.224.222-.526.345-.84.344h-1.454c-.13.48-.309.947-.532 1.391l.994.996c.224.222.35.523.352.838.001.315-.123.617-.345.84l-1.694 1.693c-.223.222-.525.346-.84.345-.315-.001-.616-.128-.837-.351l-.996-.996c-.445.223-.91.402-1.39.532v1.454c.002.314-.122.617-.344.84-.222.223-.523.349-.838.35h-2.394c-.315-.001-.616-.127-.838-.35-.222-.224-.345-.526-.344-.84v-1.718c-.385-.152-.756-.336-1.11-.55L6.733 19.63c-.222.224-.523.35-.838.352-.315.001-.617-.123-.84-.345l-1.693-1.694c-.222-.223-.346-.525-.345-.84.001-.315.128-.616.351-.837l1.542-1.542c-.112-.275-.207-.557-.285-.844H2.379c-.314.002-.617-.122-.84-.344-.223-.222-.349-.523-.35-.838v-2.394c.001-.315.127-.616.35-.838.224-.222.526-.345.84-.344h2.51c.08-.203.169-.403.268-.598L3.37 6.733c-.224-.22-.35-.522-.352-.837-.001-.315.123-.617.345-.84l1.694-1.693c.223-.222.525-.346.84-.345.315.001.616.128.837.351l1.79 1.789c.195-.098.394-.187.597-.268V2.38h-.001zm-.736 3.76l-2.21-2.21C6.1 3.856 6 3.814 5.896 3.813c-.104-.001-.205.039-.28.112L3.926 5.617c-.074.074-.114.175-.113.28.001.103.044.203.119.275l2.211 2.212c-.293.479-.525.993-.69 1.53H2.378c-.104-.001-.204.04-.279.112-.074.073-.116.173-.117.277v2.394c0 .104.043.204.117.277.075.073.175.114.28.112h2.878c.112.63.314 1.24.6 1.812L3.93 16.827c-.075.073-.117.172-.118.276-.001.104.039.205.112.28l1.693 1.692c.074.074.175.114.28.113.103-.001.203-.044.275-.119l1.737-1.737c.607.447 1.285.788 2.005 1.01v2.279c-.001.104.04.204.112.279.073.074.173.116.277.117h2.394c.104 0 .204-.043.277-.117.073-.075.114-.175.112-.28v-2.085c.823-.147 1.61-.446 2.323-.882l1.418 1.418c.073.075.172.117.276.118.104.001.205-.039.28-.112l1.692-1.693c.074-.074.114-.175.113-.279-.001-.104-.044-.204-.119-.276l-1.418-1.418c.437-.713.736-1.502.882-2.325h2.088c.104.001.204-.04.279-.112.074-.073.116-.173.117-.277v-2.394c0-.105-.042-.204-.117-.277-.074-.073-.175-.114-.28-.112h-2.278c-.222-.72-.563-1.397-1.009-2.004l1.737-1.737c.075-.073.117-.172.118-.276.001-.104-.039-.205-.112-.28l-1.693-1.692c-.074-.074-.175-.114-.28-.113-.103.001-.203.044-.275.119l-1.93 1.929c-.572-.286-1.182-.488-1.812-.6V2.38c.001-.105-.04-.205-.112-.28-.073-.074-.173-.116-.277-.117h-2.394c-.105 0-.204.042-.277.117-.073.074-.114.175-.112.28v3.07c-.537.165-1.05.397-1.53.69zm3.116 6.154c-.438 0-.793-.355-.793-.793 0-.438.355-.793.793-.793.438 0 .793.355.793.793 0 .438-.355.793-.793.793z" transform="translate(-320 -754) translate(0 710) translate(315 43.3) translate(5 .7)"/>
                    </g>
                </g>
            </g>
        </g>
    </g>
</svg>
