<svg xmlns="http://www.w3.org/2000/svg" width="18" height="18" viewBox="0 0 18 18">
    <g fill="none" fill-rule="evenodd">
        <g fill="#FFF">
            <g>
                <g>
                    <g>
                        <path d="M9 6.577c-.643-.001-1.26.254-1.713.71-.087.09-.216.126-.337.094-.121-.032-.216-.126-.247-.247-.032-.121.004-.25.094-.337 1.051-1.05 2.698-1.213 3.934-.387 1.236.825 1.716 2.409 1.147 3.782-.569 1.373-2.028 2.153-3.486 1.864-1.457-.29-2.507-1.57-2.507-3.056 0-.191.155-.346.346-.346.19 0 .346.155.346.346 0 1.338 1.085 2.423 2.423 2.423S11.423 10.338 11.423 9 10.338 6.577 9 6.577zM6.923 1.038c-.001-.274.107-.538.3-.733C7.417.11 7.68 0 7.955 0h2.09c.275 0 .538.11.731.305.194.195.302.459.3.733v1.96c.251.069.498.152.738.25l1.346-1.344c.194-.196.457-.306.732-.307.274-.001.538.107.733.301l1.478 1.478c.194.195.302.46.3.734 0 .275-.11.538-.305.731l-1.116 1.113c.187.31.347.633.48.97h1.5c.274-.002.538.106.733.3.195.193.305.456.305.731v2.09c0 .275-.11.538-.305.731-.195.194-.459.302-.733.3h-1.27c-.113.42-.269.827-.464 1.215l.868.87c.196.193.306.456.307.73.001.275-.107.54-.301.734l-1.478 1.478c-.195.194-.46.302-.734.3-.275 0-.538-.11-.731-.305l-.87-.87c-.387.195-.793.35-1.212.465v1.269c.001.274-.107.538-.3.733-.194.195-.457.305-.732.305h-2.09c-.275 0-.538-.11-.731-.305-.194-.195-.302-.459-.3-.733v-1.5c-.337-.133-.66-.293-.97-.48L4.84 16.096c-.194.196-.457.306-.732.307-.274.001-.538-.107-.733-.301l-1.478-1.478c-.194-.195-.302-.46-.3-.734 0-.275.11-.538.305-.731l1.346-1.346c-.097-.24-.18-.486-.249-.736H1.04c-.275.001-.54-.107-.734-.3C.11 10.583 0 10.32 0 10.045v-2.09c0-.275.11-.538.305-.731.195-.194.459-.302.733-.3H3.23c.07-.178.147-.352.234-.523L1.903 4.84c-.195-.194-.305-.457-.306-.732-.001-.274.107-.538.301-.733l1.478-1.478c.195-.194.46-.302.734-.3.275 0 .538.11.731.305l1.561 1.562c.171-.085.345-.163.522-.234V1.038zM6.28 4.321l-1.93-1.93c-.063-.064-.15-.101-.241-.102-.091-.001-.179.034-.244.098L2.388 3.865c-.063.065-.099.152-.098.243.001.091.039.178.104.241l1.93 1.93c-.256.419-.459.868-.603 1.336H1.038c-.09 0-.178.035-.243.098-.065.064-.102.151-.103.242v2.09c0 .091.038.178.103.242s.152.099.243.098h2.514c.097.55.273 1.082.522 1.582L2.392 13.65c-.065.063-.102.15-.103.241-.001.091.034.179.098.243l1.478 1.479c.065.063.152.099.243.098.091-.001.178-.039.241-.104l1.517-1.516c.53.39 1.12.688 1.75.881v1.99c-.002.09.034.178.097.243.064.065.151.102.242.103h2.09c.091 0 .178-.038.242-.103s.099-.152.098-.243V15.14c.717-.128 1.405-.39 2.027-.77l1.238 1.238c.063.065.15.102.241.103.091.001.179-.034.243-.098l1.479-1.478c.063-.065.099-.152.098-.243-.001-.091-.039-.178-.104-.241l-1.238-1.238c.381-.623.643-1.31.77-2.03h1.823c.09.002.178-.034.243-.097.065-.064.102-.151.103-.242v-2.09c0-.091-.038-.178-.103-.242s-.152-.099-.243-.098h-1.99c-.193-.628-.49-1.22-.88-1.749l1.516-1.516c.065-.063.102-.15.103-.241.001-.091-.034-.179-.098-.244l-1.478-1.478c-.065-.063-.152-.099-.243-.098-.091.001-.178.039-.241.104l-1.684 1.684c-.5-.25-1.033-.426-1.582-.524V1.038c0-.09-.035-.178-.098-.243-.064-.065-.151-.102-.242-.103h-2.09c-.091 0-.178.038-.242.103s-.099.152-.098.243V3.72c-.468.144-.917.347-1.335.602zM9 9.692c-.382 0-.692-.31-.692-.692 0-.382.31-.692.692-.692.382 0 .692.31.692.692 0 .382-.31.692-.692.692z" transform="translate(-36 -460) translate(35 227) translate(1 232) translate(0 1)"/>
                    </g>
                </g>
            </g>
        </g>
    </g>
</svg>
