<?xml version="1.0" encoding="UTF-8"?>
<svg width="35px" height="36px" viewBox="0 0 35 36" version="1.1" xmlns="http://www.w3.org/2000/svg" xmlns:xlink="http://www.w3.org/1999/xlink">
    <title>smart-tv-box@3x</title>
    <g id="5.-Pages" stroke="none" stroke-width="1" fill="none" fill-rule="evenodd" stroke-linecap="round" stroke-linejoin="round">
        <g id="5.4-Waiting-bills" transform="translate(-248.000000, -487.000000)" stroke="#263238">
            <g id="List-of-Bills" transform="translate(32.000000, 250.000000)">
                <g id="4th-Movie-Subscraption" transform="translate(158.000000, 212.000000)">
                    <g id="Group" transform="translate(59.000000, 25.500000)">
                        <g transform="translate(21.875000, 12.578125)">
                            <path d="M7.3828125,21.875 L1.3671875,21.875 C0.6015625,21.875 0,21.2734375 0,20.5078125 L0,1.3671875 C0,0.6015625 0.6015625,0 1.3671875,0 L7.3828125,0 C8.1484375,0 8.75,0.6015625 8.75,1.3671875 L8.75,20.5078125 C8.75,21.2734375 8.1484375,21.875 7.3828125,21.875 Z" id="Path"></path>
                            <circle id="Oval" fill="#40C4FF" fill-rule="nonzero" cx="4.375" cy="13.671875" r="2.1875"></circle>
                            <circle id="Oval" cx="4.375" cy="13.671875" r="1.09375"></circle>
                            <line x1="1.640625" y1="2.1875" x2="2.734375" y2="2.1875" id="Path"></line>
                            <line x1="6.015625" y1="2.1875" x2="7.109375" y2="2.1875" id="Path"></line>
                            <line x1="1.640625" y1="4.921875" x2="2.734375" y2="4.921875" id="Path"></line>
                            <line x1="3.828125" y1="4.921875" x2="4.921875" y2="4.921875" id="Path"></line>
                            <line x1="6.015625" y1="4.921875" x2="7.109375" y2="4.921875" id="Path"></line>
                            <line x1="1.640625" y1="6.5625" x2="2.734375" y2="6.5625" id="Path"></line>
                            <line x1="3.828125" y1="6.5625" x2="4.921875" y2="6.5625" id="Path"></line>
                            <line x1="6.015625" y1="6.5625" x2="7.109375" y2="6.5625" id="Path"></line>
                            <line x1="1.640625" y1="8.203125" x2="2.734375" y2="8.203125" id="Path"></line>
                            <line x1="3.828125" y1="8.203125" x2="4.921875" y2="8.203125" id="Path"></line>
                            <line x1="3.828125" y1="9.84375" x2="4.921875" y2="9.84375" id="Path"></line>
                            <line x1="6.015625" y1="8.203125" x2="7.109375" y2="8.203125" id="Path"></line>
                            <line x1="1.640625" y1="17.5" x2="2.734375" y2="17.5" id="Path"></line>
                            <line x1="3.828125" y1="17.5" x2="4.921875" y2="17.5" id="Path"></line>
                            <line x1="6.015625" y1="17.5" x2="7.109375" y2="17.5" id="Path"></line>
                        </g>
                        <g transform="translate(25.156250, 0.000000)">
                            <path d="M0.21875,2.296875 C2.5703125,-0.0546875 6.3984375,-0.0546875 8.75,2.296875" id="Path"></path>
                            <path d="M1.8046875,3.8828125 C3.28125,2.40625 5.7421875,2.40625 7.21875,3.8828125" id="Path"></path>
                            <path d="M3.3359375,5.4140625 C3.9921875,4.7578125 5.03125,4.7578125 5.6328125,5.4140625" id="Path"></path>
                        </g>
                        <g transform="translate(7.109375, 33.906250)">
                            <line x1="11.484375" y1="0.546875" x2="12.03125" y2="0.546875" id="Path"></line>
                            <line x1="0" y1="0.546875" x2="10.390625" y2="0.546875" id="Path"></line>
                        </g>
                        <g transform="translate(7.109375, 1.093750)">
                            <line x1="0.546875" y1="0.546875" x2="0" y2="0.546875" id="Path"></line>
                            <line x1="12.03125" y1="0.546875" x2="1.640625" y2="0.546875" id="Path"></line>
                        </g>
                        <g transform="translate(0.000000, 4.921875)">
                            <path d="M20.78125,26.25 L4.1015625,26.25 C1.859375,26.25 0,24.390625 0,22.1484375 L0,4.1015625 C0,1.859375 1.859375,0 4.1015625,0 L22.1484375,0 C24.390625,0 26.25,1.859375 26.25,4.1015625 L26.25,6.5625" id="Path"></path>
                            <g transform="translate(7.656250, 9.296875)" id="Path">
                                <path d="M9.5703125,7.65625 L1.3671875,7.65625 C0.6015625,7.65625 0,7.0546875 0,6.2890625 L0,1.3671875 C0,0.6015625 0.6015625,0 1.3671875,0 L9.5703125,0 C10.3359375,0 10.9375,0.6015625 10.9375,1.3671875 L10.9375,6.2890625 C10.9375,7.0546875 10.3359375,7.65625 9.5703125,7.65625 Z" fill="#FFD740" fill-rule="nonzero"></path>
                                <g transform="translate(1.640625, 1.640625)">
                                    <polyline points="0 0.4375 3.5546875 0.4375 5.46875 3.9921875 7.3828125 0.4375"></polyline>
                                    <line x1="1.640625" y1="3.9921875" x2="1.640625" y2="1.53125"></line>
                                </g>
                            </g>
                            <circle id="Oval" fill="#40C4FF" fill-rule="nonzero" cx="9.84375" cy="2.4609375" r="1"></circle>
                            <circle id="Oval" fill="#40C4FF" fill-rule="nonzero" cx="13.125" cy="2.4609375" r="1"></circle>
                            <circle id="Oval" fill="#40C4FF" fill-rule="nonzero" cx="16.40625" cy="2.4609375" r="1"></circle>
                            <path d="M21.328125,1.640625 L21.875,1.640625 C23.40625,1.640625 24.609375,2.84375 24.609375,4.375 L24.609375,4.921875" id="Path"></path>
                        </g>
                    </g>
                </g>
            </g>
        </g>
    </g>
</svg>