<?xml version="1.0" encoding="UTF-8"?>
<svg width="63px" height="70px" viewBox="0 0 63 70" version="1.1" xmlns="http://www.w3.org/2000/svg" xmlns:xlink="http://www.w3.org/1999/xlink">
    <title>digital-signature@3x</title>
    <g id="1.-Welcome" stroke="none" stroke-width="1" fill="none" fill-rule="evenodd">
        <g id="1.4-SMS-Verification-Code-OTP" transform="translate(-156.000000, -168.000000)" fill-rule="nonzero">
            <g id="digital-signature" transform="translate(156.000000, 168.000000)">
                <path d="M41.6367241,41.637931 L27.1539655,41.637931 C26.8208621,41.637931 26.5505172,41.3675862 26.5505172,41.0344828 C26.5505172,40.7013793 26.8208621,40.4310345 27.1539655,40.4310345 L41.6367241,40.4310345 C41.9698276,40.4310345 42.2401724,40.7013793 42.2401724,41.0344828 C42.2401724,41.3675862 41.9698276,41.637931 41.6367241,41.637931 Z" id="Path" fill="#FFFFFF"></path>
                <path d="M41.6367241,47.6724138 L27.1539655,47.6724138 C26.8208621,47.6724138 26.5505172,47.402069 26.5505172,47.0689655 C26.5505172,46.7358621 26.8208621,46.4655172 27.1539655,46.4655172 L41.6367241,46.4655172 C41.9698276,46.4655172 42.2401724,46.7358621 42.2401724,47.0689655 C42.2401724,47.402069 41.9698276,47.6724138 41.6367241,47.6724138 Z" id="Path" fill="#FFFFFF"></path>
                <g id="Group" transform="translate(45.862069, 47.068966)">
                    <path d="M0.797758621,0.797758621 L0.797758621,11.0382759 L3.78482759,8.0512069 L8.05241379,12.3187931 C8.52431034,12.7906897 9.28827586,12.7906897 9.75896552,12.3187931 L12.3187931,9.75896552 C12.7906897,9.28706897 12.7906897,8.52310345 12.3187931,8.05241379 L8.0512069,3.78482759 L11.0382759,0.797758621 L0.797758621,0.797758621 L0.797758621,0.797758621 Z" id="Path" fill="#FF5252"></path>
                    <path d="M8.90568966,13.2746552 C8.44224138,13.2746552 7.97758621,13.0984483 7.62517241,12.7460345 L3.78482759,8.90568966 L1.225,11.4655172 C1.0512069,11.6393103 0.791724138,11.69 0.567241379,11.5958621 C0.341551724,11.502931 0.194310345,11.282069 0.194310345,11.0382759 L0.194310345,0.797758621 C0.194310345,0.464655172 0.464655172,0.194310345 0.797758621,0.194310345 L11.0382759,0.194310345 C11.282069,0.194310345 11.502931,0.341551724 11.5958621,0.567241379 C11.6887931,0.792931034 11.6368966,1.05241379 11.4655172,1.225 L8.90568966,3.78482759 L12.7460345,7.62637931 C13.452069,8.33241379 13.452069,9.48017241 12.7460345,10.1862069 L10.1862069,12.7460345 C9.83258621,13.0984483 9.36913793,13.2746552 8.90568966,13.2746552 Z M3.78603448,7.44896552 C3.94051724,7.44896552 4.095,7.50810345 4.21327586,7.62517241 L8.47965517,11.8915517 C8.715,12.1268966 9.09758621,12.1268966 9.33293103,11.8915517 L11.8927586,9.33172414 C12.1281034,9.09637931 12.1281034,8.7137931 11.8927586,8.47844828 L7.62637931,4.21086207 C7.39103448,3.97551724 7.39103448,3.59293103 7.62637931,3.35758621 L9.58275862,1.4012069 L1.40241379,1.4012069 L1.40241379,9.58155172 L3.36,7.62517241 C3.47706897,7.50810345 3.63155172,7.44896552 3.78603448,7.44896552 Z" id="Shape" fill="#FFFFFF"></path>
                </g>
                <g id="Group" transform="translate(13.275862, 7.241379)">
                    <polygon id="Path" fill="#FFD740" points="7.84362069 10.2586207 4.22293103 7.84482759 0.602241379 10.2586207 0.602241379 0.603448276 7.84362069 0.603448276"></polygon>
                    <path d="M7.84362069,10.862069 C7.72655172,10.862069 7.61068966,10.8282759 7.50931034,10.7606897 L4.22293103,8.57017241 L0.936551724,10.7606897 C0.750689655,10.8837931 0.512931034,10.8946552 0.316206897,10.7896552 C0.120689655,10.6846552 -0.0024137931,10.4806897 -0.0024137931,10.2586207 L-0.0024137931,0.603448276 C-0.0024137931,0.270344828 0.267931034,0 0.601034483,0 L7.84241379,0 C8.17551724,0 8.44586207,0.270344828 8.44586207,0.603448276 L8.44586207,10.2586207 C8.44586207,10.4818966 8.32275862,10.6858621 8.12724138,10.7896552 C8.03913793,10.837931 7.94137931,10.862069 7.84362069,10.862069 Z M4.22293103,7.24137931 C4.34,7.24137931 4.45586207,7.27517241 4.55724138,7.34275862 L7.24017241,9.13017241 L7.24017241,1.20689655 L1.20568966,1.20689655 L1.20568966,9.13017241 L3.88862069,7.34275862 C3.99,7.27517241 4.10586207,7.24137931 4.22293103,7.24137931 Z" id="Shape" fill="#FFFFFF"></path>
                </g>
                <path d="M15.0862069,60.3448276 L3.01724138,60.3448276 C1.35293103,60.3448276 0,58.9544828 0,57.2443103 L0,47.7568966 C0,46.0455172 1.35293103,44.6551724 3.01724138,44.6551724 L15.0862069,44.6551724 C16.7505172,44.6551724 18.1034483,46.0455172 18.1034483,47.7556897 L18.1034483,57.2431034 C18.1034483,58.9544828 16.7505172,60.3448276 15.0862069,60.3448276 Z M3.01724138,45.862069 C2.01913793,45.862069 1.20689655,46.7117241 1.20689655,47.7556897 L1.20689655,57.2431034 C1.20689655,58.2882759 2.01913793,59.137931 3.01724138,59.137931 L15.0862069,59.137931 C16.0843103,59.137931 16.8965517,58.2882759 16.8965517,57.2443103 L16.8965517,47.7568966 C16.8965517,46.7117241 16.0843103,45.862069 15.0862069,45.862069 L3.01724138,45.862069 Z" id="Shape" fill="#FFFFFF"></path>
                <path d="M15.0862069,45.862069 L11.4655172,45.862069 C11.1324138,45.862069 10.862069,45.5917241 10.862069,45.2586207 L10.862069,41.0344828 C10.862069,40.7025862 10.5905172,40.4310345 10.2586207,40.4310345 L7.84482759,40.4310345 C7.51293103,40.4310345 7.24137931,40.7025862 7.24137931,41.0344828 L7.24137931,45.2586207 C7.24137931,45.5917241 6.97103448,45.862069 6.63793103,45.862069 L3.01724138,45.862069 C2.68413793,45.862069 2.4137931,45.5917241 2.4137931,45.2586207 L2.4137931,41.0344828 C2.4137931,38.0401724 4.85051724,35.6034483 7.84482759,35.6034483 L10.2586207,35.6034483 C13.252931,35.6034483 15.6896552,38.0401724 15.6896552,41.0344828 L15.6896552,45.2586207 C15.6896552,45.5917241 15.4193103,45.862069 15.0862069,45.862069 Z M12.0689655,44.6551724 L14.4827586,44.6551724 L14.4827586,41.0344828 C14.4827586,38.7051724 12.587931,36.8103448 10.2586207,36.8103448 L7.84482759,36.8103448 C5.51551724,36.8103448 3.62068966,38.7051724 3.62068966,41.0344828 L3.62068966,44.6551724 L6.03448276,44.6551724 L6.03448276,41.0344828 C6.03448276,40.0363793 6.84672414,39.2241379 7.84482759,39.2241379 L10.2586207,39.2241379 C11.2567241,39.2241379 12.0689655,40.0363793 12.0689655,41.0344828 L12.0689655,44.6551724 Z" id="Shape" fill="#FFFFFF"></path>
                <g id="Group" transform="translate(26.551724, 24.137931)">
                    <path d="M25.947069,12.0689655 L1.80913793,12.0689655 C1.14293103,12.0689655 0.602241379,11.5282759 0.602241379,10.862069 L0.602241379,2.4137931 C0.602241379,1.74758621 1.14293103,1.20689655 1.80913793,1.20689655 L25.947069,1.20689655 C26.6132759,1.20689655 27.1539655,1.74758621 27.1539655,2.4137931 L27.1539655,10.862069 C27.1539655,11.5282759 26.6144828,12.0689655 25.947069,12.0689655 Z" id="Path" fill="#40C4FF"></path>
                    <path d="M25.947069,12.6724138 L1.80913793,12.6724138 C0.811034483,12.6724138 -0.00120689655,11.8601724 -0.00120689655,10.862069 L-0.00120689655,2.4137931 C-0.00120689655,1.41568966 0.811034483,0.603448276 1.80913793,0.603448276 L25.947069,0.603448276 C26.9451724,0.603448276 27.7574138,1.41568966 27.7574138,2.4137931 L27.7574138,10.862069 C27.7574138,11.8601724 26.9451724,12.6724138 25.947069,12.6724138 Z M1.80913793,1.81034483 C1.47724138,1.81034483 1.20568966,2.08189655 1.20568966,2.4137931 L1.20568966,10.862069 C1.20568966,11.1939655 1.47724138,11.4655172 1.80913793,11.4655172 L25.947069,11.4655172 C26.2789655,11.4655172 26.5505172,11.1939655 26.5505172,10.862069 L26.5505172,2.4137931 C26.5505172,2.08189655 26.2789655,1.81034483 25.947069,1.81034483 L1.80913793,1.81034483 Z" id="Shape" fill="#FFFFFF"></path>
                </g>
                <path d="M50.085,46.0563793 C49.7518966,46.0563793 49.4815517,45.7860345 49.4815517,45.452931 L49.4815517,38.6206897 C49.4815517,38.2875862 49.7518966,38.0172414 50.085,38.0172414 C50.4181034,38.0172414 50.6884483,38.2875862 50.6884483,38.6206897 L50.6884483,45.452931 C50.6884483,45.7872414 50.4181034,46.0563793 50.085,46.0563793 Z" id="Path" fill="#FFFFFF"></path>
                <path d="M47.0677586,66.3793103 L9.65396552,66.3793103 C7.65775862,66.3793103 6.03327586,64.7548276 6.03327586,62.7586207 L6.03327586,62.1551724 C6.03327586,61.822069 6.30362069,61.5517241 6.63672414,61.5517241 C6.96982759,61.5517241 7.24017241,61.822069 7.24017241,62.1551724 L7.24017241,62.7586207 C7.24017241,64.0898276 8.32275862,65.1724138 9.65396552,65.1724138 L47.0677586,65.1724138 C48.3989655,65.1724138 49.4815517,64.0898276 49.4815517,62.7586207 L49.4815517,58.9737931 C49.4815517,58.6406897 49.7518966,58.3703448 50.085,58.3703448 C50.4181034,58.3703448 50.6884483,58.6406897 50.6884483,58.9737931 L50.6884483,62.7586207 C50.6884483,64.7548276 49.0639655,66.3793103 47.0677586,66.3793103 Z" id="Path" fill="#FFFFFF"></path>
                <path d="M6.63672414,34.497931 C6.30362069,34.497931 6.03327586,34.2275862 6.03327586,33.8944828 L6.03327586,10.862069 C6.03327586,8.86586207 7.65775862,7.24137931 9.65396552,7.24137931 L47.0677586,7.24137931 C49.0639655,7.24137931 50.6884483,8.86586207 50.6884483,10.862069 L50.6884483,22.9310345 C50.6884483,23.2641379 50.4181034,23.5344828 50.085,23.5344828 C49.7518966,23.5344828 49.4815517,23.2641379 49.4815517,22.9310345 L49.4815517,10.862069 C49.4815517,9.53086207 48.3989655,8.44827586 47.0677586,8.44827586 L9.65396552,8.44827586 C8.32275862,8.44827586 7.24017241,9.53086207 7.24017241,10.862069 L7.24017241,33.8944828 C7.24017241,34.2275862 6.96982759,34.497931 6.63672414,34.497931 Z" id="Path" fill="#FFFFFF"></path>
                <path d="M34.9987931,31.3793103 L31.3781034,31.3793103 C31.045,31.3793103 30.7746552,31.1089655 30.7746552,30.7758621 C30.7746552,30.4427586 31.045,30.1724138 31.3781034,30.1724138 L34.9987931,30.1724138 C35.3318966,30.1724138 35.6022414,30.4427586 35.6022414,30.7758621 C35.6022414,31.1089655 35.3318966,31.3793103 34.9987931,31.3793103 Z" id="Path" fill="#263238"></path>
                <path d="M42.2401724,31.3793103 L38.6194828,31.3793103 C38.2863793,31.3793103 38.0160345,31.1089655 38.0160345,30.7758621 C38.0160345,30.4427586 38.2863793,30.1724138 38.6194828,30.1724138 L42.2401724,30.1724138 C42.5732759,30.1724138 42.8436207,30.4427586 42.8436207,30.7758621 C42.8436207,31.1089655 42.5732759,31.3793103 42.2401724,31.3793103 Z" id="Path" fill="#263238"></path>
                <path d="M49.4815517,31.3793103 L45.8608621,31.3793103 C45.5277586,31.3793103 45.2574138,31.1089655 45.2574138,30.7758621 C45.2574138,30.4427586 45.5277586,30.1724138 45.8608621,30.1724138 L49.4815517,30.1724138 C49.8146552,30.1724138 50.085,30.4427586 50.085,30.7758621 C50.085,31.1089655 49.8146552,31.3793103 49.4815517,31.3793103 Z" id="Path" fill="#263238"></path>
                <path d="M19.3103448,4.82758621 L18.1034483,4.82758621 C17.7703448,4.82758621 17.5,4.55724138 17.5,4.22413793 C17.5,3.89103448 17.7703448,3.62068966 18.1034483,3.62068966 L19.3103448,3.62068966 C19.6434483,3.62068966 19.9137931,3.89103448 19.9137931,4.22413793 C19.9137931,4.55724138 19.6434483,4.82758621 19.3103448,4.82758621 Z" id="Path" fill="#FFFFFF"></path>
                <path d="M41.0344828,4.82758621 L21.7241379,4.82758621 C21.3910345,4.82758621 21.1206897,4.55724138 21.1206897,4.22413793 C21.1206897,3.89103448 21.3910345,3.62068966 21.7241379,3.62068966 L41.0344828,3.62068966 C41.3675862,3.62068966 41.637931,3.89103448 41.637931,4.22413793 C41.637931,4.55724138 41.3675862,4.82758621 41.0344828,4.82758621 Z" id="Path" fill="#FFFFFF"></path>
                <path d="M41.0344828,70 L39.8275862,70 C39.4944828,70 39.2241379,69.7296552 39.2241379,69.3965517 C39.2241379,69.0634483 39.4944828,68.7931034 39.8275862,68.7931034 L41.0344828,68.7931034 C41.3675862,68.7931034 41.637931,69.0634483 41.637931,69.3965517 C41.637931,69.7296552 41.3675862,70 41.0344828,70 Z" id="Path" fill="#FFFFFF"></path>
                <path d="M37.4137931,70 L18.1034483,70 C17.7703448,70 17.5,69.7296552 17.5,69.3965517 C17.5,69.0634483 17.7703448,68.7931034 18.1034483,68.7931034 L37.4137931,68.7931034 C37.7468966,68.7931034 38.0172414,69.0634483 38.0172414,69.3965517 C38.0172414,69.7296552 37.7468966,70 37.4137931,70 Z" id="Path" fill="#FFFFFF"></path>
                <path d="M54.3103448,3.62068966 L49.4827586,3.62068966 C49.1496552,3.62068966 48.8793103,3.35034483 48.8793103,3.01724138 C48.8793103,2.68413793 49.1496552,2.4137931 49.4827586,2.4137931 L54.3103448,2.4137931 C54.6434483,2.4137931 54.9137931,2.68413793 54.9137931,3.01724138 C54.9137931,3.35034483 54.6434483,3.62068966 54.3103448,3.62068966 Z" id="Path" fill="#FFFFFF"></path>
                <path d="M51.8965517,6.03448276 C51.5634483,6.03448276 51.2931034,5.76413793 51.2931034,5.43103448 L51.2931034,0.603448276 C51.2931034,0.270344828 51.5634483,0 51.8965517,0 C52.2296552,0 52.5,0.270344828 52.5,0.603448276 L52.5,5.43103448 C52.5,5.76413793 52.2296552,6.03448276 51.8965517,6.03448276 Z" id="Path" fill="#FFFFFF"></path>
                <path d="M62.1551724,11.4655172 L57.3275862,11.4655172 C56.9944828,11.4655172 56.7241379,11.1951724 56.7241379,10.862069 C56.7241379,10.5289655 56.9944828,10.2586207 57.3275862,10.2586207 L62.1551724,10.2586207 C62.4882759,10.2586207 62.7586207,10.5289655 62.7586207,10.862069 C62.7586207,11.1951724 62.4882759,11.4655172 62.1551724,11.4655172 Z" id="Path" fill="#FFFFFF"></path>
                <path d="M59.7413793,13.8793103 C59.4082759,13.8793103 59.137931,13.6089655 59.137931,13.2758621 L59.137931,8.44827586 C59.137931,8.11517241 59.4082759,7.84482759 59.7413793,7.84482759 C60.0744828,7.84482759 60.3448276,8.11517241 60.3448276,8.44827586 L60.3448276,13.2758621 C60.3448276,13.6089655 60.0744828,13.8793103 59.7413793,13.8793103 Z" id="Path" fill="#FFFFFF"></path>
                <path d="M46.4643103,18.1034483 C46.1312069,18.1034483 45.8608621,17.8331034 45.8608621,17.5 L45.8608621,12.6724138 C45.8608621,12.3405172 45.5893103,12.0689655 45.2574138,12.0689655 L40.4298276,12.0689655 C40.0967241,12.0689655 39.8263793,11.7986207 39.8263793,11.4655172 C39.8263793,11.1324138 40.0967241,10.862069 40.4298276,10.862069 L45.2574138,10.862069 C46.2555172,10.862069 47.0677586,11.6743103 47.0677586,12.6724138 L47.0677586,17.5 C47.0677586,17.8331034 46.7974138,18.1034483 46.4643103,18.1034483 Z" id="Path" fill="#FFFFFF"></path>
            </g>
        </g>
    </g>
</svg>