<?xml version="1.0" encoding="UTF-8"?>
<svg width="95px" height="95px" viewBox="0 0 95 95" version="1.1" xmlns="http://www.w3.org/2000/svg" xmlns:xlink="http://www.w3.org/1999/xlink">
    <title>mobile-interface@3x</title>
    <g id="5.-Pages" stroke="none" stroke-width="1" fill="none" fill-rule="evenodd">
        <g id="5.9.1-Splash-image" transform="translate(-141.000000, -185.000000)" fill-rule="nonzero">
            <g id="mobile-interface" transform="translate(141.000000, 185.000000)">
                <path d="M51.0565,77.8252632 C49.518,76.9023158 48.6,75.2871579 48.6,73.5052632 L48.6,67.7149474 C43.177,63.3056842 40.1,57.3065263 40.1,51.0227368 C40.1,43.208 44.8022,36.2892632 52,31.9962105 L52,21 L1,21 L1,85 L52,85 L52,78.2311579 C51.6787,78.1166316 51.3574,78.0054737 51.0565,77.8252632 Z" id="Path" fill="#FFD740"></path>
                <path d="M48.6,73.3705185 L48.6,67.5131852 C47.648,66.7311852 46.798,65.8827407 45.9939,65.0087407 L26.5,74.7777778 L1,62 L1,85 L52,85 L52,78.1528148 C51.6787,78.036963 51.3574,77.9245185 51.0565,77.7422222 C49.518,76.8068889 48.6,75.173037 48.6,73.3705185 Z" id="Path" fill="#FFFFFF"></path>
                <path d="M52.1451613,86 L0.85483871,86 C0.382967742,86 0,85.6137889 0,85.1379216 L0,61.8618053 C0,61.5635262 0.153870968,61.2859369 0.405193548,61.1290387 C0.656516129,60.9704162 0.971096774,60.9583471 1.23609677,61.0911072 L26.5,73.8291774 L45.7236129,64.1359681 C46.1441935,63.9238968 46.6588065,64.0963125 46.8708065,64.5221792 C47.0828065,64.9480459 46.910129,65.4652929 46.4878387,65.6790884 L26.8829677,75.5654033 C26.6419032,75.6860942 26.3580968,75.6860942 26.1187419,75.5654033 L1.70967742,63.2566481 L1.70967742,84.2758432 L51.2903226,84.2758432 L51.2903226,78.2085356 C51.2903226,77.7326683 51.6732903,77.3464572 52.1451613,77.3464572 C52.6170323,77.3464572 53,77.7326683 53,78.2085356 L53,85.1379216 C53,85.6137889 52.6170323,86 52.1451613,86 Z" id="Path" fill="#263238"></path>
                <path d="M30.2142857,18 L20.7857143,18 C20.352,18 20,17.552 20,17 C20,16.448 20.352,16 20.7857143,16 L30.2142857,16 C30.648,16 31,16.448 31,17 C31,17.552 30.648,18 30.2142857,18 Z" id="Path" fill="#263238"></path>
                <path d="M26.5,95 C23.4676667,95 21,92.5323333 21,89.5 C21,86.4676667 23.4676667,84 26.5,84 C29.5323333,84 32,86.4676667 32,89.5 C32,92.5323333 29.5323333,95 26.5,95 Z M26.5,85.8333333 C24.4778333,85.8333333 22.8333333,87.4778333 22.8333333,89.5 C22.8333333,91.5221667 24.4778333,93.1666667 26.5,93.1666667 C28.5221667,93.1666667 30.1666667,91.5221667 30.1666667,89.5 C30.1666667,87.4778333 28.5221667,85.8333333 26.5,85.8333333 Z" id="Shape" fill="#263238"></path>
                <path d="M17.5,40 C15.56975,40 14,38.43025 14,36.5 C14,34.56975 15.56975,33 17.5,33 C19.43025,33 21,34.56975 21,36.5 C21,38.43025 19.43025,40 17.5,40 Z M17.5,34.75 C16.53575,34.75 15.75,35.53575 15.75,36.5 C15.75,37.46425 16.53575,38.25 17.5,38.25 C18.46425,38.25 19.25,37.46425 19.25,36.5 C19.25,35.53575 18.46425,34.75 17.5,34.75 Z" id="Shape" fill="#263238"></path>
                <path d="M35.5,40 C33.56975,40 32,38.43025 32,36.5 C32,34.56975 33.56975,33 35.5,33 C37.43025,33 39,34.56975 39,36.5 C39,38.43025 37.43025,40 35.5,40 Z M35.5,34.75 C34.53575,34.75 33.75,35.53575 33.75,36.5 C33.75,37.46425 34.53575,38.25 35.5,38.25 C36.46425,38.25 37.25,37.46425 37.25,36.5 C37.25,35.53575 36.46425,34.75 35.5,34.75 Z" id="Shape" fill="#263238"></path>
                <path d="M26.0008831,56 C22.6981308,56 19.5949566,54.7462327 17.2583035,52.4694739 C16.9138988,52.1336433 16.9138988,51.5877034 17.2583035,51.2518729 C17.6027081,50.9160424 18.1625865,50.9160424 18.5069911,51.2518729 C22.6398469,55.2801171 29.3619192,55.2801171 33.4930089,51.2518729 C33.8374135,50.9160424 34.3972919,50.9160424 34.7416965,51.2518729 C35.0861012,51.5877034 35.0861012,52.1336433 34.7416965,52.4694739 C32.4068096,54.7462327 29.3036354,56 26.0008831,56 Z" id="Path" fill="#263238"></path>
                <g id="Group" transform="translate(42.000000, 30.000000)">
                    <path d="M26.5,1.38372414 C12.3370323,1.38372414 0.85483871,10.6063448 0.85483871,21.9814253 C0.85483871,28.0749119 4.16819355,33.5315862 9.40322581,37.302682 L9.40322581,44.8946513 C9.40322581,46.1837241 10.7658387,47.0127816 11.9044839,46.4154483 L20.3930323,41.9646284 C22.3540323,42.3508352 24.3919677,42.57741 26.5,42.57741 C40.6629677,42.57741 52.1451613,33.3547893 52.1451613,21.9797088 C52.1451613,10.6063448 40.6629677,1.38372414 26.5,1.38372414 Z" id="Path" fill="#40C4FF"></path>
                    <path d="M11.1129032,47.4745134 C10.653,47.4745134 10.1948065,47.3492107 9.78448387,47.0986054 C9.01,46.6282912 8.5483871,45.8043831 8.5483871,44.8963678 L8.5483871,37.7403831 C3.10990323,33.6774866 0,27.9564751 0,21.9831418 C0,10.1514789 11.8873871,0.527203065 26.5,0.527203065 C41.1126129,0.527203065 53,10.1514789 53,21.9831418 C53,33.8148046 41.1126129,43.4390805 26.5,43.4390805 C24.5543871,43.4390805 22.5472258,43.2468352 20.5246774,42.8674943 L12.2994194,47.1792797 C11.925,47.3766743 11.5163871,47.4745134 11.1129032,47.4745134 Z M26.5,2.24367816 C12.831129,2.24367816 1.70967742,11.0989732 1.70967742,21.9831418 C1.70967742,27.5256398 4.69648387,32.8570115 9.90245161,36.6075096 C10.1247097,36.7671418 10.2580645,37.028046 10.2580645,37.3043985 L10.2580645,44.8963678 C10.2580645,45.3323525 10.5452903,45.5537778 10.6700968,45.6293027 C10.7931935,45.7031111 11.124871,45.8575939 11.5095484,45.6567663 L19.9980968,41.2059464 C20.1690645,41.1149732 20.3673871,41.0840766 20.558871,41.125272 C22.5711613,41.5200613 24.5714839,41.7226054 26.5017097,41.7226054 C40.1705806,41.7226054 51.2920323,32.8673103 51.2920323,21.9831418 C51.2920323,11.0989732 40.168871,2.24367816 26.5,2.24367816 Z" id="Shape" fill="#263238"></path>
                </g>
                <path d="M47.8709677,95 L5.12903226,95 C2.30122581,95 0,92.6925714 0,89.8571429 L0,16.1428571 C0,13.3074286 2.30122581,11 5.12903226,11 L47.8709677,11 C50.6987742,11 53,13.3074286 53,16.1428571 L53,31.6194286 C53,32.0925714 52.6170323,32.4765714 52.1451613,32.4765714 C51.6732903,32.4765714 51.2903226,32.0925714 51.2903226,31.6194286 L51.2903226,16.1428571 C51.2903226,14.252 49.7567419,12.7142857 47.8709677,12.7142857 L5.12903226,12.7142857 C3.24325806,12.7142857 1.70967742,14.252 1.70967742,16.1428571 L1.70967742,89.8571429 C1.70967742,91.748 3.24325806,93.2857143 5.12903226,93.2857143 L47.8709677,93.2857143 C49.7567419,93.2857143 51.2903226,91.748 51.2903226,89.8571429 L51.2903226,78.6817143 C51.2903226,78.2085714 51.6732903,77.8245714 52.1451613,77.8245714 C52.6170323,77.8245714 53,78.2085714 53,78.6817143 L53,89.8571429 C53,92.6925714 50.6987742,95 47.8709677,95 Z" id="Path" fill="#263238"></path>
                <path d="M83.1470588,45 L55.8529412,45 C55.3821176,45 55,44.552 55,44 C55,43.448 55.3821176,43 55.8529412,43 L83.1470588,43 C83.6178824,43 84,43.448 84,44 C84,44.552 83.6178824,45 83.1470588,45 Z" id="Path" fill="#37474F"></path>
                <path d="M83.1470588,52 L55.8529412,52 C55.3821176,52 55,51.552 55,51 C55,50.448 55.3821176,50 55.8529412,50 L83.1470588,50 C83.6178824,50 84,50.448 84,51 C84,51.552 83.6178824,52 83.1470588,52 Z" id="Path" fill="#37474F"></path>
                <path d="M69.1666667,60 L55.8333333,60 C55.3733333,60 55,59.552 55,59 C55,58.448 55.3733333,58 55.8333333,58 L69.1666667,58 C69.6266667,58 70,58.448 70,59 C70,59.552 69.6266667,60 69.1666667,60 Z" id="Path" fill="#37474F"></path>
                <path d="M14.8125,82 C14.664625,82 14.515125,81.9593725 14.385125,81.8781174 C14.14625,81.7302332 14,81.4685919 14,81.1874494 L14,69.8117414 C14,69.5305989 14.14625,69.2689576 14.385125,69.1210734 C14.624,68.9731892 14.924625,68.9601884 15.174875,69.0853211 L26.549875,74.7731752 C26.826125,74.9113088 27,75.1924513 27,75.4995954 C27,75.8067395 26.826125,76.087882 26.5515,76.2260156 L15.1765,81.9138696 C15.061125,81.9707482 14.937625,82 14.8125,82 Z M15.625,71.1264482 L15.625,79.8727426 L24.37075,75.4995954 L15.625,71.1264482 Z" id="Shape" fill="#263238"></path>
                <path d="M38.1875,82 C38.062375,82 37.938875,81.9707482 37.8235,81.9138696 L26.4485,76.2260156 C26.173875,76.087882 26,75.8067395 26,75.4995954 C26,75.1924513 26.173875,74.9113088 26.4485,74.7731752 L37.8235,69.0853211 C38.075375,68.9601884 38.374375,68.9731892 38.61325,69.1210734 C38.852125,69.2689576 39,69.5305989 39,69.8117414 L39,81.1874494 C39,81.4685919 38.85375,81.7302332 38.614875,81.8781174 C38.484875,81.9593725 38.335375,82 38.1875,82 Z M28.62925,75.4995954 L37.375,79.8727426 L37.375,71.1264482 L28.62925,75.4995954 Z" id="Shape" fill="#263238"></path>
                <path d="M52.1451613,22 L0.85483871,22 C0.382967742,22 0,21.552 0,21 C0,20.448 0.382967742,20 0.85483871,20 L52.1451613,20 C52.6170323,20 53,20.448 53,21 C53,21.552 52.6170323,22 52.1451613,22 Z" id="Path" fill="#263238"></path>
                <path d="M63,82 L61,82 C60.448,82 60,81.552 60,81 C60,80.448 60.448,80 61,80 L63,80 C63.552,80 64,80.448 64,81 C64,81.552 63.552,82 63,82 Z" id="Path" fill="#263238"></path>
                <path d="M85.1666667,82 L66.8333333,82 C66.3733333,82 66,81.552 66,81 C66,80.448 66.3733333,80 66.8333333,80 L85.1666667,80 C85.6266667,80 86,80.448 86,81 C86,81.552 85.6266667,82 85.1666667,82 Z" id="Path" fill="#263238"></path>
                <path d="M65.1,5 L57.9,5 C57.4032,5 57,4.552 57,4 C57,3.448 57.4032,3 57.9,3 L65.1,3 C65.5968,3 66,3.448 66,4 C66,4.552 65.5968,5 65.1,5 Z" id="Path" fill="#263238"></path>
                <path d="M62,9 C61.448,9 61,8.5968 61,8.1 L61,0.9 C61,0.4032 61.448,0 62,0 C62.552,0 63,0.4032 63,0.9 L63,8.1 C63,8.5968 62.552,9 62,9 Z" id="Path" fill="#263238"></path>
                <path d="M77.1,18 L69.9,18 C69.4032,18 69,17.552 69,17 C69,16.448 69.4032,16 69.9,16 L77.1,16 C77.5968,16 78,16.448 78,17 C78,17.552 77.5968,18 77.1,18 Z" id="Path" fill="#263238"></path>
                <path d="M73,21 C72.448,21 72,20.5968 72,20.1 L72,12.9 C72,12.4032 72.448,12 73,12 C73.552,12 74,12.4032 74,12.9 L74,20.1 C74,20.5968 73.552,21 73,21 Z" id="Path" fill="#263238"></path>
            </g>
        </g>
    </g>
</svg>