<?xml version="1.0" encoding="UTF-8"?>
<svg width="35px" height="35px" viewBox="0 0 35 35" version="1.1" xmlns="http://www.w3.org/2000/svg" xmlns:xlink="http://www.w3.org/1999/xlink">
    <title>support icon@3x</title>
    <g id="2.-Home" stroke="none" stroke-width="1" fill="none" fill-rule="evenodd">
        <g id="2.0-Home" transform="translate(-290.000000, -209.000000)" fill-rule="nonzero">
            <g id="TOP-SECTION" transform="translate(0.000000, 74.000000)">
                <g id="BIG-BUTTONS" transform="translate(32.000000, 122.000000)">
                    <g id="Support" transform="translate(244.000000, 0.000000)">
                        <g id="support" transform="translate(14.000000, 13.000000)">
                            <path d="M0.603448276,17.8017241 C0.436896552,17.8017241 0.301724138,17.6665517 0.301724138,17.5 C0.301724138,8.01681034 8.01681034,0.301724138 17.5,0.301724138 C17.6665517,0.301724138 17.8017241,0.436896552 17.8017241,0.603448276 C17.8017241,0.77 17.6665517,0.905172414 17.5,0.905172414 C8.34931034,0.905172414 0.905172414,8.34991379 0.905172414,17.5 C0.905172414,17.6665517 0.77,17.8017241 0.603448276,17.8017241 Z" id="Path" fill="#FFFFFF"></path>
                            <path d="M19.3103448,0.905172414 L18.7068966,0.905172414 C18.5403448,0.905172414 18.4051724,0.77 18.4051724,0.603448276 C18.4051724,0.436896552 18.5403448,0.301724138 18.7068966,0.301724138 L19.3103448,0.301724138 C19.4768966,0.301724138 19.612069,0.436896552 19.612069,0.603448276 C19.612069,0.77 19.4768966,0.905172414 19.3103448,0.905172414 Z" id="Path" fill="#FFFFFF"></path>
                            <path d="M17.5,34.6982759 C17.3334483,34.6982759 17.1982759,34.5631034 17.1982759,34.3965517 C17.1982759,34.23 17.3334483,34.0948276 17.5,34.0948276 C26.6506897,34.0948276 34.0948276,26.6500862 34.0948276,17.5 C34.0948276,17.3334483 34.23,17.1982759 34.3965517,17.1982759 C34.5631034,17.1982759 34.6982759,17.3334483 34.6982759,17.5 C34.6982759,26.9831897 26.9831897,34.6982759 17.5,34.6982759 Z" id="Path" fill="#FFFFFF"></path>
                            <path d="M16.2931034,34.6982759 L15.6896552,34.6982759 C15.5231034,34.6982759 15.387931,34.5631034 15.387931,34.3965517 C15.387931,34.23 15.5231034,34.0948276 15.6896552,34.0948276 L16.2931034,34.0948276 C16.4596552,34.0948276 16.5948276,34.23 16.5948276,34.3965517 C16.5948276,34.5631034 16.4596552,34.6982759 16.2931034,34.6982759 Z" id="Path" fill="#FFFFFF"></path>
                            <g id="Group" transform="translate(2.413793, 2.413793)">
                                <path d="M15.0862069,0.603448276 C7.0875,0.603448276 0.603448276,7.0875 0.603448276,15.0862069 C0.603448276,23.0849138 7.0875,29.5689655 15.0862069,29.5689655 C23.0849138,29.5689655 29.5689655,23.0849138 29.5689655,15.0862069 C29.5689655,7.0875 23.0849138,0.603448276 15.0862069,0.603448276 Z M15.0862069,24.137931 C10.0872414,24.137931 6.03448276,20.0851724 6.03448276,15.0862069 C6.03448276,10.0872414 10.0872414,6.03448276 15.0862069,6.03448276 C20.0851724,6.03448276 24.137931,10.0872414 24.137931,15.0862069 C24.137931,20.0851724 20.0851724,24.137931 15.0862069,24.137931 Z" id="Shape" fill="#FF5252"></path>
                                <path d="M15.0862069,29.8706897 C6.93422414,29.8706897 0.301724138,23.2387931 0.301724138,15.0862069 C0.301724138,6.93362069 6.93422414,0.301724138 15.0862069,0.301724138 C23.2381897,0.301724138 29.8706897,6.93362069 29.8706897,15.0862069 C29.8706897,23.2387931 23.2381897,29.8706897 15.0862069,29.8706897 Z M15.0862069,0.905172414 C7.26672414,0.905172414 0.905172414,7.26672414 0.905172414,15.0862069 C0.905172414,22.9056897 7.26672414,29.2672414 15.0862069,29.2672414 C22.9056897,29.2672414 29.2672414,22.9056897 29.2672414,15.0862069 C29.2672414,7.26672414 22.9056897,0.905172414 15.0862069,0.905172414 Z M15.0862069,24.4396552 C9.92853448,24.4396552 5.73275862,20.2438793 5.73275862,15.0862069 C5.73275862,9.92853448 9.92853448,5.73275862 15.0862069,5.73275862 C20.2438793,5.73275862 24.4396552,9.92853448 24.4396552,15.0862069 C24.4396552,20.2438793 20.2438793,24.4396552 15.0862069,24.4396552 Z M15.0862069,6.3362069 C10.2616379,6.3362069 6.3362069,10.2616379 6.3362069,15.0862069 C6.3362069,19.9107759 10.2616379,23.8362069 15.0862069,23.8362069 C19.9107759,23.8362069 23.8362069,19.9107759 23.8362069,15.0862069 C23.8362069,10.2616379 19.9107759,6.3362069 15.0862069,6.3362069 Z" id="Shape" fill="#FFFFFF"></path>
                            </g>
                            <path d="M30.1724138,2.11206897 L27.7586207,2.11206897 C27.592069,2.11206897 27.4568966,1.97689655 27.4568966,1.81034483 C27.4568966,1.6437931 27.592069,1.50862069 27.7586207,1.50862069 L30.1724138,1.50862069 C30.3389655,1.50862069 30.4741379,1.6437931 30.4741379,1.81034483 C30.4741379,1.97689655 30.3389655,2.11206897 30.1724138,2.11206897 Z" id="Path" fill="#FFFFFF"></path>
                            <path d="M28.9655172,3.31896552 C28.7989655,3.31896552 28.6637931,3.1837931 28.6637931,3.01724138 L28.6637931,0.603448276 C28.6637931,0.436896552 28.7989655,0.301724138 28.9655172,0.301724138 C29.132069,0.301724138 29.2672414,0.436896552 29.2672414,0.603448276 L29.2672414,3.01724138 C29.2672414,3.1837931 29.132069,3.31896552 28.9655172,3.31896552 Z" id="Path" fill="#FFFFFF"></path>
                            <path d="M34.3965517,6.03448276 L31.9827586,6.03448276 C31.8162069,6.03448276 31.6810345,5.89931034 31.6810345,5.73275862 C31.6810345,5.5662069 31.8162069,5.43103448 31.9827586,5.43103448 L34.3965517,5.43103448 C34.5631034,5.43103448 34.6982759,5.5662069 34.6982759,5.73275862 C34.6982759,5.89931034 34.5631034,6.03448276 34.3965517,6.03448276 Z" id="Path" fill="#FFFFFF"></path>
                            <path d="M33.1896552,7.24137931 C33.0231034,7.24137931 32.887931,7.1062069 32.887931,6.93965517 L32.887931,4.52586207 C32.887931,4.35931034 33.0231034,4.22413793 33.1896552,4.22413793 C33.3562069,4.22413793 33.4913793,4.35931034 33.4913793,4.52586207 L33.4913793,6.93965517 C33.4913793,7.1062069 33.3562069,7.24137931 33.1896552,7.24137931 Z" id="Path" fill="#FFFFFF"></path>
                            <g id="Group" transform="translate(13.879310, 25.344828)" fill="#FFFFFF">
                                <path d="M3.62068966,1.20689655 C2.63224138,1.20689655 1.68301724,1.04275862 0.792327586,0.750086207 L0.333103448,6.25896552 C1.38974138,6.50396552 2.48922414,6.63793103 3.62068966,6.63793103 C4.75215517,6.63793103 5.85163793,6.50396552 6.90827586,6.25896552 L6.44905172,0.750086207 C5.55836207,1.04275862 4.60913793,1.20689655 3.62068966,1.20689655 Z" id="Path"></path>
                                <path d="M3.62068966,6.93965517 C2.49948276,6.93965517 1.37043103,6.80931034 0.264913793,6.55224138 C0.11887931,6.51784483 0.0199137931,6.38267241 0.0325862069,6.23301724 L0.491810345,0.724137931 C0.499655172,0.632413793 0.548534483,0.549137931 0.625775862,0.497844828 C0.703017241,0.447155172 0.799568966,0.43387931 0.886465517,0.462844828 C2.66784483,1.05 4.57293103,1.05 6.35491379,0.462844828 C6.44181034,0.432672414 6.53836207,0.446551724 6.61560345,0.497844828 C6.69284483,0.549137931 6.74172414,0.632413793 6.74956897,0.724137931 L7.2087931,6.23301724 C7.22146552,6.38267241 7.1225,6.51844828 6.97646552,6.55224138 C5.87094828,6.80931034 4.74189655,6.93965517 3.62068966,6.93965517 Z M0.655948276,6.02181034 C2.61353448,6.4387931 4.62784483,6.4387931 6.58543103,6.02181034 L6.17931034,1.14836207 C4.50474138,1.62689655 2.73663793,1.62689655 1.06206897,1.14836207 L0.655948276,6.02181034 Z" id="Shape"></path>
                            </g>
                            <g id="Group" transform="translate(13.879310, 2.413793)" fill="#FFFFFF">
                                <path d="M3.62068966,6.03448276 C4.60913793,6.03448276 5.55836207,6.19862069 6.44905172,6.4912931 L6.90827586,0.982413793 C5.85163793,0.737413793 4.75215517,0.603448276 3.62068966,0.603448276 C2.48922414,0.603448276 1.38974138,0.737413793 0.333103448,0.982413793 L0.792327586,6.4912931 C1.68301724,6.19862069 2.63224138,6.03448276 3.62068966,6.03448276 Z" id="Path"></path>
                                <path d="M6.44905172,6.79362069 C6.41706897,6.79362069 6.38568966,6.7887931 6.35491379,6.77853448 C4.57353448,6.19137931 2.66844828,6.19137931 0.886465517,6.77853448 C0.798362069,6.80810345 0.702413793,6.79422414 0.625775862,6.74353448 C0.548534483,6.69224138 0.499655172,6.60896552 0.491810345,6.51724138 L0.0325862069,1.00836207 C0.0199137931,0.858706897 0.11887931,0.722931034 0.264913793,0.689137931 C2.47534483,0.175 4.76603448,0.175 6.97646552,0.689137931 C7.1225,0.723534483 7.22146552,0.858706897 7.2087931,1.00836207 L6.74956897,6.51724138 C6.74172414,6.60896552 6.69284483,6.69224138 6.61560345,6.74353448 C6.56551724,6.77612069 6.50758621,6.79362069 6.44905172,6.79362069 Z M3.62068966,5.73275862 C4.48301724,5.73275862 5.34232759,5.85405172 6.17931034,6.09362069 L6.58543103,1.22017241 C4.62784483,0.803189655 2.61353448,0.803189655 0.655948276,1.22017241 L1.06206897,6.09362069 C1.89905172,5.85405172 2.75836207,5.73275862 3.62068966,5.73275862 Z" id="Shape"></path>
                            </g>
                            <g id="Group" transform="translate(2.413793, 13.879310)" fill="#FFFFFF">
                                <path d="M6.03448276,3.62068966 C6.03448276,2.63224138 6.19862069,1.68301724 6.4912931,0.792327586 L0.982413793,0.333103448 C0.737413793,1.38974138 0.603448276,2.48922414 0.603448276,3.62068966 C0.603448276,4.75215517 0.737413793,5.85163793 0.982413793,6.90827586 L6.4912931,6.44905172 C6.19862069,5.55836207 6.03448276,4.60913793 6.03448276,3.62068966 Z" id="Path"></path>
                                <path d="M0.982413793,7.20939655 C0.84362069,7.20939655 0.720517241,7.11344828 0.689137931,6.97586207 C0.432068966,5.87094828 0.301724138,4.7412931 0.301724138,3.62068966 C0.301724138,2.50008621 0.432068966,1.37043103 0.689137931,0.264913793 C0.722931034,0.119482759 0.858103448,0.0187068966 1.00775862,0.0325862069 L6.51663793,0.491810345 C6.60836207,0.499655172 6.69224138,0.549137931 6.74293103,0.625775862 C6.79362069,0.703017241 6.80689655,0.798965517 6.77793103,0.887068966 C6.48465517,1.77775862 6.3362069,2.69741379 6.3362069,3.62068966 C6.3362069,4.54396552 6.48525862,5.46422414 6.77793103,6.35431034 C6.80689655,6.44241379 6.79362069,6.53836207 6.74293103,6.61560345 C6.69224138,6.69224138 6.60836207,6.74172414 6.51663793,6.74956897 L1.00775862,7.20818966 C0.999310345,7.2087931 0.990862069,7.20939655 0.982413793,7.20939655 Z M1.21956897,0.655948276 C1.01077586,1.63534483 0.905172414,2.63103448 0.905172414,3.62068966 C0.905172414,4.61034483 1.01077586,5.60603448 1.21956897,6.58543103 L6.09301724,6.17931034 C5.85405172,5.34232759 5.73275862,4.48301724 5.73275862,3.62068966 C5.73275862,2.75836207 5.85405172,1.89905172 6.09301724,1.06206897 L1.21956897,0.655948276 Z" id="Shape"></path>
                            </g>
                            <g id="Group" transform="translate(25.344828, 13.879310)" fill="#FFFFFF">
                                <path d="M1.20689655,3.62068966 C1.20689655,4.60913793 1.04275862,5.55836207 0.750086207,6.44905172 L6.25896552,6.90827586 C6.50396552,5.85163793 6.63793103,4.75215517 6.63793103,3.62068966 C6.63793103,2.48922414 6.50396552,1.38974138 6.25896552,0.333103448 L0.750086207,0.792327586 C1.04275862,1.68301724 1.20689655,2.63224138 1.20689655,3.62068966 Z" id="Path"></path>
                                <path d="M6.25896552,7.20939655 C6.25051724,7.20939655 6.24206897,7.2087931 6.23362069,7.20818966 L0.724741379,6.74896552 C0.633017241,6.74112069 0.549137931,6.69163793 0.498448276,6.615 C0.447758621,6.53775862 0.434482759,6.44181034 0.463448276,6.3537069 C0.756724138,5.46301724 0.905172414,4.54336207 0.905172414,3.62008621 C0.905172414,2.69681034 0.75612069,1.77655172 0.463448276,0.886465517 C0.434482759,0.798362069 0.447758621,0.702413793 0.498448276,0.625172414 C0.549137931,0.548534483 0.633017241,0.499051724 0.724741379,0.491206897 L6.23362069,0.0319827586 C6.38206897,0.0181034483 6.51844828,0.11887931 6.55224138,0.264310345 C6.80931034,1.37043103 6.93965517,2.50008621 6.93965517,3.62068966 C6.93965517,4.7412931 6.80931034,5.87094828 6.55224138,6.97646552 C6.52086207,7.11344828 6.39836207,7.20939655 6.25896552,7.20939655 Z M1.14836207,6.17931034 L6.02181034,6.58543103 C6.23060345,5.60603448 6.3362069,4.61034483 6.3362069,3.62068966 C6.3362069,2.63103448 6.23060345,1.63534483 6.02181034,0.655948276 L1.14836207,1.06206897 C1.38732759,1.89905172 1.50862069,2.75836207 1.50862069,3.62068966 C1.50862069,4.48301724 1.38732759,5.34232759 1.14836207,6.17931034 Z" id="Shape"></path>
                            </g>
                            <g id="Group" transform="translate(11.465517, 12.672414)">
                                <path d="M5.12931034,8.90086207 L1.50862069,8.90086207 C1.12784483,8.90086207 0.7875,8.66189655 0.657155172,8.30405172 C0.527413793,7.94560345 0.636034483,7.54431034 0.928706897,7.30051724 L4.00689655,4.73586207 C4.14508621,4.6212069 4.22413793,4.45163793 4.22413793,4.27181034 L4.22413793,3.16810345 C4.22413793,2.835 3.95318966,2.56465517 3.62068966,2.56465517 L3.01724138,2.56465517 C2.68474138,2.56465517 2.4137931,2.835 2.4137931,3.16810345 L2.4137931,4.375 C2.4137931,4.87465517 2.00887931,5.28017241 1.50862069,5.28017241 C1.00836207,5.28017241 0.603448276,4.87465517 0.603448276,4.375 L0.603448276,3.16810345 C0.603448276,1.83689655 1.68603448,0.754310345 3.01724138,0.754310345 L3.62068966,0.754310345 C4.95189655,0.754310345 6.03448276,1.83689655 6.03448276,3.16810345 L6.03448276,4.27181034 C6.03448276,4.98931034 5.71827586,5.66577586 5.16672414,6.12560345 L4.00931034,7.09051724 L5.12931034,7.09051724 C5.62956897,7.09051724 6.03448276,7.49603448 6.03448276,7.99568966 C6.03448276,8.49534483 5.62956897,8.90086207 5.12931034,8.90086207 Z" id="Path" fill="#40C4FF"></path>
                                <path d="M5.12931034,9.20258621 L1.50862069,9.20258621 C1.00232759,9.20258621 0.54612069,8.88275862 0.373534483,8.40724138 C0.201551724,7.93051724 0.346982759,7.39284483 0.735603448,7.0687931 L3.8137931,4.50413793 C3.88258621,4.4462069 3.92241379,4.36232759 3.92241379,4.27181034 L3.92241379,3.16810345 C3.92241379,3.00215517 3.78724138,2.86637931 3.62068966,2.86637931 L3.01724138,2.86637931 C2.85068966,2.86637931 2.71551724,3.00215517 2.71551724,3.16810345 L2.71551724,4.375 C2.71551724,5.04060345 2.17422414,5.58189655 1.50862069,5.58189655 C0.843017241,5.58189655 0.301724138,5.04060345 0.301724138,4.375 L0.301724138,3.16810345 C0.301724138,1.67094828 1.52008621,0.452586207 3.01724138,0.452586207 L3.62068966,0.452586207 C5.11784483,0.452586207 6.3362069,1.67094828 6.3362069,3.16810345 L6.3362069,4.27181034 C6.3362069,5.07982759 5.98017241,5.83956897 5.35982759,6.35732759 L4.84267241,6.7887931 L5.12931034,6.7887931 C5.79491379,6.7887931 6.3362069,7.33008621 6.3362069,7.99568966 C6.3362069,8.6612931 5.79491379,9.20258621 5.12931034,9.20258621 Z M3.01724138,2.26293103 L3.62068966,2.26293103 C4.11974138,2.26293103 4.52586207,2.66905172 4.52586207,3.16810345 L4.52586207,4.27181034 C4.52586207,4.54094828 4.40698276,4.795 4.2,4.96698276 L1.12181034,7.53163793 C0.9275,7.69396552 0.854482759,7.96310345 0.940775862,8.20086207 C1.02706897,8.43922414 1.25517241,8.59853448 1.50801724,8.59853448 L5.1287069,8.59853448 C5.4612069,8.59853448 5.73215517,8.32818966 5.73215517,7.99508621 C5.73215517,7.66198276 5.4612069,7.39163793 5.1287069,7.39163793 L4.0087069,7.39163793 C3.88198276,7.39163793 3.76853448,7.31198276 3.72508621,7.1925 C3.68163793,7.07362069 3.71784483,6.93965517 3.81560345,6.85818966 L4.97301724,5.89327586 C5.45577586,5.49017241 5.73275862,4.89939655 5.73275862,4.2712069 L5.73275862,3.16810345 C5.73275862,2.00344828 4.78534483,1.05603448 3.62068966,1.05603448 L3.01724138,1.05603448 C1.85258621,1.05603448 0.905172414,2.00344828 0.905172414,3.16810345 L0.905172414,4.375 C0.905172414,4.70810345 1.17612069,4.97844828 1.50862069,4.97844828 C1.84112069,4.97844828 2.11206897,4.70810345 2.11206897,4.375 L2.11206897,3.16810345 C2.11206897,2.66905172 2.51818966,2.26293103 3.01724138,2.26293103 Z" id="Shape" fill="#FFFFFF"></path>
                            </g>
                            <g id="Group" transform="translate(16.896552, 12.672414)">
                                <path d="M5.12931034,0.754310345 C4.62905172,0.754310345 4.22413793,1.15982759 4.22413793,1.65948276 L4.22413793,4.07327586 L2.4137931,4.07327586 L2.4137931,1.65948276 C2.4137931,1.15982759 2.00887931,0.754310345 1.50862069,0.754310345 C1.00836207,0.754310345 0.603448276,1.15982759 0.603448276,1.65948276 L0.603448276,4.97844828 C0.603448276,5.47810345 1.00836207,5.88362069 1.50862069,5.88362069 L4.22413793,5.88362069 L4.22413793,7.99568966 C4.22413793,8.49534483 4.62905172,8.90086207 5.12931034,8.90086207 C5.62956897,8.90086207 6.03448276,8.49534483 6.03448276,7.99568966 L6.03448276,1.65948276 C6.03448276,1.15982759 5.62956897,0.754310345 5.12931034,0.754310345 Z" id="Path" fill="#40C4FF"></path>
                                <path d="M5.12931034,9.20258621 C4.4637069,9.20258621 3.92241379,8.6612931 3.92241379,7.99568966 L3.92241379,6.18534483 L1.50862069,6.18534483 C0.843017241,6.18534483 0.301724138,5.64405172 0.301724138,4.97844828 L0.301724138,1.65948276 C0.301724138,0.99387931 0.843017241,0.452586207 1.50862069,0.452586207 C2.17422414,0.452586207 2.71551724,0.99387931 2.71551724,1.65948276 L2.71551724,3.77155172 L3.92241379,3.77155172 L3.92241379,1.65948276 C3.92241379,0.99387931 4.4637069,0.452586207 5.12931034,0.452586207 C5.79491379,0.452586207 6.3362069,0.99387931 6.3362069,1.65948276 L6.3362069,7.99568966 C6.3362069,8.6612931 5.79491379,9.20258621 5.12931034,9.20258621 Z M1.50862069,1.05603448 C1.17612069,1.05603448 0.905172414,1.32637931 0.905172414,1.65948276 L0.905172414,4.97844828 C0.905172414,5.31155172 1.17612069,5.58189655 1.50862069,5.58189655 L4.22413793,5.58189655 C4.39068966,5.58189655 4.52586207,5.71706897 4.52586207,5.88362069 L4.52586207,7.99568966 C4.52586207,8.3287931 4.79681034,8.59913793 5.12931034,8.59913793 C5.46181034,8.59913793 5.73275862,8.3287931 5.73275862,7.99568966 L5.73275862,1.65948276 C5.73275862,1.32637931 5.46181034,1.05603448 5.12931034,1.05603448 C4.79681034,1.05603448 4.52586207,1.32637931 4.52586207,1.65948276 L4.52586207,4.07327586 C4.52586207,4.23982759 4.39068966,4.375 4.22413793,4.375 L2.4137931,4.375 C2.24724138,4.375 2.11206897,4.23982759 2.11206897,4.07327586 L2.11206897,1.65948276 C2.11206897,1.32637931 1.84112069,1.05603448 1.50862069,1.05603448 Z" id="Shape" fill="#FFFFFF"></path>
                            </g>
                        </g>
                    </g>
                </g>
            </g>
        </g>
    </g>
</svg>