<svg xmlns="http://www.w3.org/2000/svg" width="18" height="18" viewBox="0 0 18 18">
    <g fill="none" fill-rule="evenodd">
        <g fill="#FFF">
            <g>
                <g>
                    <path d="M14.287 2.59C10.885-.216 5.885.126 2.897 3.37c-2.988 3.24-2.923 8.252.149 11.415 3.07 3.163 8.078 3.375 11.406.483.144-.125.363-.11.488.034.126.145.11.363-.034.489-3.532 3.072-8.83 2.923-12.184-.342C-.632 12.183-.923 6.89 2.053 3.278 5.03-.335 10.28-1.063 14.127 1.604c3.847 2.667 5.007 7.838 2.668 11.893-.061.108-.176.175-.3.175s-.239-.066-.3-.174c-.063-.107-.062-.24 0-.347 1.766-3.057 1.407-6.896-.895-9.573-.31-.356-.648-.687-1.012-.989h-.001zm-9.23 2.519l.676-.677c.145-.146.347-.219.552-.2.205.018.39.127.507.296l1.334 1.93c.19.276.156.647-.08.883l-.575.574 2.781 2.781.577-.577c.233-.233.599-.27.873-.086l1.75 1.17c.173.115.284.3.304.507.02.206-.053.41-.2.557l-1.025 1.026c-.5.5-1.257.645-1.907.365-1.298-.592-2.47-1.425-3.457-2.455-1.124-1.107-2.053-2.396-2.749-3.812-.321-.664-.187-1.458.334-1.979l.303-.304h.001zm.489.489l-.304.304c-.313.312-.393.789-.2 1.187.662 1.346 1.546 2.572 2.615 3.625.925.968 2.026 1.751 3.243 2.309.39.167.842.081 1.143-.218l1.025-1.025-1.748-1.171-.577.577c-.27.27-.708.27-.979 0L6.983 8.405c-.13-.13-.203-.306-.203-.49s.073-.36.203-.49l.572-.573-1.334-1.93-.677.676h.002z" transform="translate(-36 -508) translate(35 227) translate(1 280) translate(0 1)"/>
                </g>
            </g>
        </g>
    </g>
</svg>
