<svg xmlns="http://www.w3.org/2000/svg" width="35" height="35" viewBox="0 0 35 35">
    <g fill="none" fill-rule="evenodd">
        <g fill-rule="nonzero">
            <g>
                <g>
                    <g>
                        <g>
                            <path fill="#263238" d="M.603 17.802c-.166 0-.301-.135-.301-.302C.302 8.017 8.017.302 17.5.302c.167 0 .302.135.302.301 0 .167-.135.302-.302.302C8.35.905.905 8.35.905 17.5c0 .167-.135.302-.302.302zM19.31.905h-.603c-.167 0-.302-.135-.302-.302 0-.166.135-.301.302-.301h.603c.167 0 .302.135.302.301 0 .167-.135.302-.302.302zM17.5 34.698c-.167 0-.302-.135-.302-.301 0-.167.135-.302.302-.302 9.15 0 16.595-7.445 16.595-16.595 0-.167.135-.302.302-.302.166 0 .301.135.301.302 0 9.483-7.715 17.198-17.198 17.198zM16.293 34.698h-.603c-.167 0-.302-.135-.302-.301 0-.167.135-.302.302-.302h.603c.167 0 .302.135.302.302 0 .166-.135.301-.302.301z" transform="translate(-290 -209) translate(0 74) translate(32 122) translate(244) translate(14 13)"/>
                            <g>
                                <path fill="#FF5252" d="M15.086.603C7.088.603.603 7.088.603 15.086c0 7.999 6.485 14.483 14.483 14.483 7.999 0 14.483-6.484 14.483-14.483 0-7.998-6.484-14.483-14.483-14.483zm0 23.535c-4.999 0-9.052-4.053-9.052-9.052s4.053-9.052 9.052-9.052c5 0 9.052 4.053 9.052 9.052 0 5-4.053 9.052-9.052 9.052z" transform="translate(-290 -209) translate(0 74) translate(32 122) translate(244) translate(14 13) translate(2.414 2.414)"/>
                                <path fill="#263238" d="M15.086 29.87C6.934 29.87.302 23.24.302 15.087.302 6.934 6.934.302 15.086.302c8.152 0 14.785 6.632 14.785 14.784 0 8.153-6.633 14.785-14.785 14.785zm0-28.965C7.266.905.906 7.267.906 15.086c0 7.82 6.36 14.181 14.18 14.181 7.82 0 14.181-6.361 14.181-14.18 0-7.82-6.361-14.182-14.18-14.182zm0 23.535c-5.157 0-9.353-4.196-9.353-9.354 0-5.157 4.196-9.353 9.353-9.353 5.158 0 9.354 4.196 9.354 9.353 0 5.158-4.196 9.354-9.354 9.354zm0-18.104c-4.824 0-8.75 3.926-8.75 8.75 0 4.825 3.926 8.75 8.75 8.75 4.825 0 8.75-3.925 8.75-8.75 0-4.824-3.925-8.75-8.75-8.75z" transform="translate(-290 -209) translate(0 74) translate(32 122) translate(244) translate(14 13) translate(2.414 2.414)"/>
                            </g>
                            <path fill="#263238" d="M30.172 2.112H27.76c-.167 0-.302-.135-.302-.302 0-.166.135-.301.302-.301h2.413c.167 0 .302.135.302.301 0 .167-.135.302-.302.302z" transform="translate(-290 -209) translate(0 74) translate(32 122) translate(244) translate(14 13)"/>
                            <path fill="#263238" d="M28.966 3.319c-.167 0-.302-.135-.302-.302V.603c0-.166.135-.301.302-.301.166 0 .301.135.301.301v2.414c0 .167-.135.302-.301.302zM34.397 6.034h-2.414c-.167 0-.302-.135-.302-.301 0-.167.135-.302.302-.302h2.414c.166 0 .301.135.301.302 0 .166-.135.301-.301.301z" transform="translate(-290 -209) translate(0 74) translate(32 122) translate(244) translate(14 13)"/>
                            <path fill="#263238" d="M33.19 7.241c-.167 0-.302-.135-.302-.301V4.526c0-.167.135-.302.302-.302.166 0 .301.135.301.302V6.94c0 .166-.135.301-.301.301z" transform="translate(-290 -209) translate(0 74) translate(32 122) translate(244) translate(14 13)"/>
                            <g>
                                <path fill="#FFF" d="M3.62 1.207c-.988 0-1.937-.164-2.828-.457L.333 6.26c1.057.245 2.156.379 3.288.379 1.131 0 2.23-.134 3.287-.379L6.45.75c-.89.293-1.84.457-2.828.457z" transform="translate(-290 -209) translate(0 74) translate(32 122) translate(244) translate(14 13) translate(13.88 25.345)"/>
                                <path fill="#263238" d="M3.62 6.94c-1.12 0-2.25-.13-3.355-.388-.146-.034-.245-.17-.232-.319L.492.724C.5.632.549.55.626.498.703.448.8.434.886.463c1.782.587 3.687.587 5.469 0 .087-.03.183-.016.26.035.078.051.127.134.135.226l.459 5.509c.012.15-.087.285-.233.32-1.105.256-2.234.387-3.355.387zM.657 6.022c1.958.417 3.972.417 5.93 0l-.407-4.874c-1.674.479-3.442.479-5.117 0L.656 6.022z" transform="translate(-290 -209) translate(0 74) translate(32 122) translate(244) translate(14 13) translate(13.88 25.345)"/>
                            </g>
                            <g>
                                <path fill="#FFF" d="M3.62 6.034c.99 0 1.938.165 2.83.457L6.907.982C5.852.737 4.752.603 3.621.603 2.489.603 1.39.737.333.983l.46 5.508c.89-.292 1.84-.457 2.828-.457z" transform="translate(-290 -209) translate(0 74) translate(32 122) translate(244) translate(14 13) translate(13.88 2.414)"/>
                                <path fill="#263238" d="M6.45 6.794c-.033 0-.064-.005-.095-.015-1.781-.588-3.687-.588-5.469 0-.088.03-.184.015-.26-.035C.549 6.692.5 6.609.492 6.517l-.46-5.509C.02.858.12.723.266.69c2.21-.514 4.501-.514 6.711 0 .146.035.245.17.233.32l-.46 5.508c-.007.092-.056.175-.133.227-.05.032-.108.05-.167.05zM3.62 5.733c.863 0 1.722.121 2.56.36l.405-4.873C4.628.803 2.614.803.655 1.22l.407 4.874c.837-.24 1.696-.361 2.559-.361z" transform="translate(-290 -209) translate(0 74) translate(32 122) translate(244) translate(14 13) translate(13.88 2.414)"/>
                            </g>
                            <g>
                                <path fill="#FFF" d="M6.034 3.62c0-.988.165-1.937.457-2.828L.982.333C.737 1.39.603 2.49.603 3.621c0 1.131.134 2.23.38 3.287L6.49 6.45c-.292-.89-.457-1.84-.457-2.828z" transform="translate(-290 -209) translate(0 74) translate(32 122) translate(244) translate(14 13) translate(2.414 13.88)"/>
                                <path fill="#263238" d="M.982 7.21c-.138 0-.261-.097-.293-.234C.432 5.87.302 4.74.302 3.62S.432 1.37.689.265C.723.119.86.019 1.008.033l5.509.459c.091.008.175.057.226.134.05.077.064.173.035.261-.293.89-.442 1.81-.442 2.734 0 .923.15 1.843.442 2.733.029.088.016.184-.035.262-.05.076-.135.126-.226.134l-5.51.458-.025.001zM1.22.655C1.01 1.636.905 2.63.905 3.62c0 .99.106 1.985.315 2.964l4.873-.406c-.239-.837-.36-1.696-.36-2.558 0-.863.121-1.722.36-2.559L1.22.656z" transform="translate(-290 -209) translate(0 74) translate(32 122) translate(244) translate(14 13) translate(2.414 13.88)"/>
                            </g>
                            <g>
                                <path fill="#FFF" d="M1.207 3.62c0 .99-.164 1.938-.457 2.83l5.509.458c.245-1.056.379-2.156.379-3.287 0-1.132-.134-2.231-.379-3.288L.75.793c.293.89.457 1.84.457 2.828z" transform="translate(-290 -209) translate(0 74) translate(32 122) translate(244) translate(14 13) translate(25.345 13.88)"/>
                                <path fill="#263238" d="M6.259 7.21l-.025-.002-5.51-.459C.634 6.741.55 6.692.499 6.615c-.05-.077-.064-.173-.035-.261.294-.891.442-1.81.442-2.734 0-.923-.149-1.843-.442-2.734C.434.798.448.702.498.626.55.548.633.498.725.49L6.234.032c.148-.014.284.087.318.232.257 1.106.388 2.236.388 3.357 0 1.12-.13 2.25-.388 3.355-.031.137-.154.233-.293.233zm-5.11-1.03l4.873.405c.209-.979.314-1.975.314-2.964 0-.99-.105-1.986-.314-2.965l-4.874.406c.24.837.36 1.696.36 2.559 0 .862-.12 1.721-.36 2.558z" transform="translate(-290 -209) translate(0 74) translate(32 122) translate(244) translate(14 13) translate(25.345 13.88)"/>
                            </g>
                            <g>
                                <path fill="#40C4FF" d="M5.13 8.9H1.508c-.381 0-.721-.238-.852-.596-.13-.358-.021-.76.272-1.003l3.078-2.565c.138-.115.217-.284.217-.464V3.168c0-.333-.27-.603-.603-.603h-.604c-.332 0-.603.27-.603.603v1.207c0 .5-.405.905-.905.905s-.906-.405-.906-.905V3.168C.603 1.837 1.686.754 3.017.754h.604c1.33 0 2.413 1.083 2.413 2.414v1.104c0 .717-.316 1.394-.867 1.854l-1.158.965h1.12c.5 0 .905.405.905.905S5.63 8.9 5.13 8.9z" transform="translate(-290 -209) translate(0 74) translate(32 122) translate(244) translate(14 13) translate(11.466 12.672)"/>
                                <path fill="#263238" d="M5.13 9.203H1.508c-.507 0-.963-.32-1.135-.796C.202 7.931.347 7.393.736 7.07l3.078-2.565c.069-.058.108-.142.108-.232V3.168c0-.166-.135-.302-.301-.302h-.604c-.166 0-.301.136-.301.302v1.207c0 .666-.542 1.207-1.207 1.207-.666 0-1.207-.541-1.207-1.207V3.168C.302 1.671 1.52.453 3.017.453h.604c1.497 0 2.715 1.218 2.715 2.715v1.104c0 .808-.356 1.568-.976 2.085l-.517.432h.286c.666 0 1.207.541 1.207 1.207 0 .665-.541 1.207-1.207 1.207zm-2.113-6.94h.604c.499 0 .905.406.905.905v1.104c0 .269-.119.523-.326.695L1.122 7.532c-.195.162-.268.431-.181.669.086.238.314.398.567.398h3.62c.333 0 .604-.27.604-.604 0-.333-.27-.603-.603-.603h-1.12c-.127 0-.24-.08-.284-.2-.043-.118-.007-.252.09-.334l1.158-.965c.483-.403.76-.994.76-1.622V3.168c0-1.165-.948-2.112-2.112-2.112h-.604c-1.164 0-2.112.947-2.112 2.112v1.207c0 .333.271.603.604.603.332 0 .603-.27.603-.603V3.168c0-.499.406-.905.905-.905z" transform="translate(-290 -209) translate(0 74) translate(32 122) translate(244) translate(14 13) translate(11.466 12.672)"/>
                            </g>
                            <g>
                                <path fill="#40C4FF" d="M5.13.754c-.5 0-.906.406-.906.905v2.414h-1.81V1.66c0-.5-.405-.905-.905-.905s-.906.406-.906.905v3.32c0 .5.405.905.906.905h2.715v2.112c0 .5.405.905.905.905s.905-.406.905-.905V1.659c0-.5-.404-.905-.905-.905z" transform="translate(-290 -209) translate(0 74) translate(32 122) translate(244) translate(14 13) translate(16.897 12.672)"/>
                                <path fill="#263238" d="M5.13 9.203c-.666 0-1.208-.542-1.208-1.207v-1.81H1.51c-.666 0-1.207-.542-1.207-1.208V1.66C.302.994.843.453 1.509.453c.665 0 1.207.54 1.207 1.206v2.113h1.206V1.659c0-.665.542-1.206 1.207-1.206.666 0 1.207.54 1.207 1.206v6.337c0 .665-.541 1.207-1.207 1.207zM1.508 1.056c-.333 0-.604.27-.604.603v3.32c0 .333.271.603.604.603h2.715c.167 0 .302.135.302.302v2.112c0 .333.27.603.603.603.333 0 .604-.27.604-.603V1.659c0-.333-.271-.603-.604-.603-.332 0-.603.27-.603.603v2.414c0 .167-.135.302-.302.302h-1.81c-.167 0-.302-.135-.302-.302V1.66c0-.333-.27-.603-.603-.603z" transform="translate(-290 -209) translate(0 74) translate(32 122) translate(244) translate(14 13) translate(16.897 12.672)"/>
                            </g>
                        </g>
                    </g>
                </g>
            </g>
        </g>
    </g>
</svg>
