<?xml version="1.0" encoding="UTF-8"?>
<svg width="23px" height="23px" viewBox="0 0 23 23" version="1.1" xmlns="http://www.w3.org/2000/svg" xmlns:xlink="http://www.w3.org/1999/xlink">
    <title>Transaction Icon@3x</title>
    <g id="5.-Pages" stroke="none" stroke-width="1" fill="none" fill-rule="evenodd">
        <g id="5.1-Transactions" transform="translate(-32.000000, -104.000000)" fill-rule="nonzero">
            <g id="Top-All-Pages-Box" transform="translate(0.000000, 76.000000)">
                <g id="Transaction-Icon" transform="translate(32.000000, 28.000000)">
                    <g id="Group" transform="translate(8.271930, 8.271930)">
                        <path d="M3.22807018,6.05263158 C1.66810526,6.05263158 0.403508772,4.78803509 0.403508772,3.22807018 C0.403508772,1.66810526 1.66810526,0.403508772 3.22807018,0.403508772 C4.78803509,0.403508772 6.05263158,1.66810526 6.05263158,3.22807018 C6.05263158,4.78803509 4.78803509,6.05263158 3.22807018,6.05263158 Z" id="Path" fill="#4DB6AC"></path>
                        <path d="M3.22807018,6.25438596 C1.55915789,6.25438596 0.201754386,4.89698246 0.201754386,3.22807018 C0.201754386,1.55915789 1.55915789,0.201754386 3.22807018,0.201754386 C4.89698246,0.201754386 6.25438596,1.55915789 6.25438596,3.22807018 C6.25438596,4.89698246 4.89698246,6.25438596 3.22807018,6.25438596 Z M3.22807018,0.605263158 C1.78189474,0.605263158 0.605263158,1.78189474 0.605263158,3.22807018 C0.605263158,4.67424561 1.78189474,5.85087719 3.22807018,5.85087719 C4.67424561,5.85087719 5.85087719,4.67424561 5.85087719,3.22807018 C5.85087719,1.78189474 4.67424561,0.605263158 3.22807018,0.605263158 Z" id="Shape" fill="#263238"></path>
                    </g>
                    <path d="M11.8026316,12.7105263 L10.6929825,12.7105263 C10.581614,12.7105263 10.4912281,12.6201404 10.4912281,12.5087719 C10.4912281,12.3974035 10.581614,12.3070175 10.6929825,12.3070175 L11.8026316,12.3070175 C11.9692807,12.3070175 12.1052632,12.1714386 12.1052632,12.004386 C12.1052632,11.8373333 11.9692807,11.7017544 11.8026316,11.7017544 L11.1973684,11.7017544 C10.8079825,11.7017544 10.4912281,11.385 10.4912281,10.995614 C10.4912281,10.6062281 10.8079825,10.2894737 11.1973684,10.2894737 L12.1052632,10.2894737 C12.2166316,10.2894737 12.3070175,10.3798596 12.3070175,10.4912281 C12.3070175,10.6025965 12.2166316,10.6929825 12.1052632,10.6929825 L11.1973684,10.6929825 C11.0303158,10.6929825 10.8947368,10.8285614 10.8947368,10.995614 C10.8947368,11.1626667 11.0303158,11.2982456 11.1973684,11.2982456 L11.8026316,11.2982456 C12.1920175,11.2982456 12.5087719,11.615 12.5087719,12.004386 C12.5087719,12.3937719 12.1920175,12.7105263 11.8026316,12.7105263 Z" id="Path" fill="#263238"></path>
                    <path d="M11.5,10.6929825 C11.3886316,10.6929825 11.2982456,10.6025965 11.2982456,10.4912281 L11.2982456,9.88596491 C11.2982456,9.77459649 11.3886316,9.68421053 11.5,9.68421053 C11.6113684,9.68421053 11.7017544,9.77459649 11.7017544,9.88596491 L11.7017544,10.4912281 C11.7017544,10.6025965 11.6113684,10.6929825 11.5,10.6929825 Z" id="Path" fill="#263238"></path>
                    <path d="M11.5,13.3157895 C11.3886316,13.3157895 11.2982456,13.2254035 11.2982456,13.1140351 L11.2982456,12.5087719 C11.2982456,12.3974035 11.3886316,12.3070175 11.5,12.3070175 C11.6113684,12.3070175 11.7017544,12.3974035 11.7017544,12.5087719 L11.7017544,13.1140351 C11.7017544,13.2254035 11.6113684,13.3157895 11.5,13.3157895 Z" id="Path" fill="#263238"></path>
                    <g id="Group" transform="translate(3.429825, 3.026316)">
                        <path d="M8.27192982,2.42105263 C11.0141754,2.42105263 13.3440351,4.19729825 14.1861579,6.65789474 L12.8549825,6.65789474 L15.0742807,8.87719298 L17.2935789,6.65789474 L16.284807,6.65789474 C15.3805439,3.07070175 12.1359298,0.403508772 8.27192982,0.403508772 C4.40792982,0.403508772 1.16331579,3.07070175 0.259052632,6.65789474 L2.35770175,6.65789474 C3.19982456,4.19729825 5.52968421,2.42105263 8.27192982,2.42105263 Z" id="Path" fill="#FFD740"></path>
                        <path d="M15.0738772,9.07894737 C15.0222281,9.07894737 14.9705789,9.05917544 14.9310351,9.02003509 L12.7117368,6.80073684 C12.6540351,6.74303509 12.6366842,6.6562807 12.6681579,6.58082456 C12.6996316,6.50536842 12.7730702,6.45614035 12.8545789,6.45614035 L13.8968421,6.45614035 C12.9861228,4.15170175 10.7607719,2.62280702 8.27192982,2.62280702 C5.68785965,2.62280702 3.38785965,4.27033333 2.5485614,6.72326316 C2.5207193,6.80477193 2.44405263,6.85964912 2.35770175,6.85964912 L0.259052632,6.85964912 C0.196912281,6.85964912 0.138,6.831 0.0996666667,6.78177193 C0.0613333333,6.73254386 0.0480175439,6.66878947 0.0633508772,6.60866667 C1.01442105,2.83626316 4.38977193,0.201754386 8.27192982,0.201754386 C12.1012281,0.201754386 15.4378421,2.76564912 16.4401579,6.45614035 L17.2931754,6.45614035 C17.3746842,6.45614035 17.4485263,6.50536842 17.4795965,6.58082456 C17.5106667,6.6562807 17.4933158,6.74303509 17.4360175,6.80073684 L15.2167193,9.02003509 C15.1771754,9.05917544 15.1255263,9.07894737 15.0738772,9.07894737 Z M13.341614,6.85964912 L15.0738772,8.59191228 L16.8061404,6.85964912 L16.2844035,6.85964912 C16.192,6.85964912 16.1112982,6.79670175 16.0891053,6.70712281 C15.1832281,3.1142807 11.9688772,0.605263158 8.27192982,0.605263158 C4.66173684,0.605263158 1.51154386,2.99807018 0.52254386,6.45614035 L2.21526316,6.45614035 C3.14777193,3.91605263 5.56357895,2.21929825 8.27192982,2.21929825 C11.0282982,2.21929825 13.4820351,3.97657895 14.3770175,6.59252632 C14.3984035,6.65426316 14.3883158,6.72205263 14.3507895,6.77531579 C14.3124561,6.82817544 14.2511228,6.85964912 14.1861579,6.85964912 L13.341614,6.85964912 Z" id="Shape" fill="#263238"></path>
                    </g>
                    <g id="Group" transform="translate(2.219298, 11.096491)">
                        <path d="M9.48245614,6.85964912 C6.74021053,6.85964912 4.41035088,5.08340351 3.56822807,2.62280702 L4.89940351,2.62280702 L2.68010526,0.403508772 L0.460807018,2.62280702 L1.46957895,2.62280702 C2.37384211,6.21 5.61845614,8.87719298 9.48245614,8.87719298 C13.3464561,8.87719298 16.5910702,6.21 17.4953333,2.62280702 L15.3966842,2.62280702 C14.5545614,5.08340351 12.2247018,6.85964912 9.48245614,6.85964912 Z" id="Path" fill="#FFD740"></path>
                        <path d="M9.48245614,9.07894737 C5.65275439,9.07894737 2.31654386,6.51505263 1.31422807,2.8245614 L0.461210526,2.8245614 C0.379701754,2.8245614 0.305859649,2.77533333 0.274789474,2.69987719 C0.243315789,2.62442105 0.260666667,2.53766667 0.318368421,2.47996491 L2.53766667,0.260666667 C2.61635088,0.181982456 2.74426316,0.181982456 2.82294737,0.260666667 L5.04224561,2.47996491 C5.09994737,2.53766667 5.11729825,2.62442105 5.08582456,2.69987719 C5.05475439,2.77533333 4.98131579,2.8245614 4.89980702,2.8245614 L3.85754386,2.8245614 C4.76785965,5.129 6.99321053,6.65789474 9.48245614,6.65789474 C12.0661228,6.65789474 14.3665263,5.00996491 15.2062281,2.5574386 C15.2336667,2.47592982 15.3103333,2.42105263 15.3966842,2.42105263 L17.4949298,2.42105263 C17.5570702,2.42105263 17.6159825,2.44970175 17.6543158,2.49892982 C17.6926491,2.54815789 17.7059649,2.61191228 17.6906316,2.67203509 C16.7395614,6.4444386 13.3642105,9.07894737 9.48245614,9.07894737 Z M0.948245614,2.42105263 L1.46998246,2.42105263 C1.56238596,2.42105263 1.64308772,2.484 1.66568421,2.57357895 C2.57115789,6.16642105 5.78550877,8.6754386 9.48245614,8.6754386 C13.0926491,8.6754386 16.2428421,6.28263158 17.2318421,2.8245614 L15.5395263,2.8245614 C14.606614,5.36505263 12.190807,7.06140351 9.48245614,7.06140351 C6.72568421,7.06140351 4.27235088,5.30412281 3.37736842,2.68817544 C3.35638596,2.6264386 3.36647368,2.55864912 3.404,2.50538596 C3.44152632,2.45212281 3.50326316,2.42105263 3.56822807,2.42105263 L4.41236842,2.42105263 L2.68010526,0.688789474 L0.948245614,2.42105263 Z" id="Shape" fill="#263238"></path>
                    </g>
                    <path d="M0.201754386,11.7017544 C0.0903859649,11.7017544 0,11.6113684 0,11.5 C0,5.15885965 5.15885965,0 11.5,0 C11.6113684,0 11.7017544,0.0903859649 11.7017544,0.201754386 C11.7017544,0.313122807 11.6113684,0.403508772 11.5,0.403508772 C5.38119298,0.403508772 0.403508772,5.38119298 0.403508772,11.5 C0.403508772,11.6113684 0.313122807,11.7017544 0.201754386,11.7017544 Z" id="Path" fill="#263238"></path>
                    <path d="M12.7105263,0.403508772 L12.3070175,0.403508772 C12.1956491,0.403508772 12.1052632,0.313122807 12.1052632,0.201754386 C12.1052632,0.0903859649 12.1956491,0 12.3070175,0 L12.7105263,0 C12.8218947,0 12.9122807,0.0903859649 12.9122807,0.201754386 C12.9122807,0.313122807 12.8218947,0.403508772 12.7105263,0.403508772 Z" id="Path" fill="#263238"></path>
                    <path d="M11.5,23 C11.3886316,23 11.2982456,22.909614 11.2982456,22.7982456 C11.2982456,22.6868772 11.3886316,22.5964912 11.5,22.5964912 C17.6184035,22.5964912 22.5964912,17.618807 22.5964912,11.5 C22.5964912,11.3886316 22.6868772,11.2982456 22.7982456,11.2982456 C22.909614,11.2982456 23,11.3886316 23,11.5 C23,17.8411404 17.8411404,23 11.5,23 Z" id="Path" fill="#263238"></path>
                    <path d="M10.6929825,23 L10.2894737,23 C10.1781053,23 10.0877193,22.909614 10.0877193,22.7982456 C10.0877193,22.6868772 10.1781053,22.5964912 10.2894737,22.5964912 L10.6929825,22.5964912 C10.8043509,22.5964912 10.8947368,22.6868772 10.8947368,22.7982456 C10.8947368,22.909614 10.8043509,23 10.6929825,23 Z" id="Path" fill="#263238"></path>
                    <path d="M19.9736842,1.21052632 L18.3596491,1.21052632 C18.2482807,1.21052632 18.1578947,1.12014035 18.1578947,1.00877193 C18.1578947,0.897403509 18.2482807,0.807017544 18.3596491,0.807017544 L19.9736842,0.807017544 C20.0850526,0.807017544 20.1754386,0.897403509 20.1754386,1.00877193 C20.1754386,1.12014035 20.0850526,1.21052632 19.9736842,1.21052632 Z" id="Path" fill="#263238"></path>
                    <path d="M19.1666667,2.01754386 C19.0552982,2.01754386 18.9649123,1.92715789 18.9649123,1.81578947 L18.9649123,0.201754386 C18.9649123,0.0903859649 19.0552982,0 19.1666667,0 C19.2780351,0 19.3684211,0.0903859649 19.3684211,0.201754386 L19.3684211,1.81578947 C19.3684211,1.92715789 19.2780351,2.01754386 19.1666667,2.01754386 Z" id="Path" fill="#263238"></path>
                    <path d="M22.7982456,3.83333333 L21.1842105,3.83333333 C21.0728421,3.83333333 20.9824561,3.74294737 20.9824561,3.63157895 C20.9824561,3.52021053 21.0728421,3.42982456 21.1842105,3.42982456 L22.7982456,3.42982456 C22.909614,3.42982456 23,3.52021053 23,3.63157895 C23,3.74294737 22.909614,3.83333333 22.7982456,3.83333333 Z" id="Path" fill="#263238"></path>
                    <path d="M21.9912281,4.64035088 C21.8798596,4.64035088 21.7894737,4.54996491 21.7894737,4.43859649 L21.7894737,2.8245614 C21.7894737,2.71319298 21.8798596,2.62280702 21.9912281,2.62280702 C22.1025965,2.62280702 22.1929825,2.71319298 22.1929825,2.8245614 L22.1929825,4.43859649 C22.1929825,4.54996491 22.1025965,4.64035088 21.9912281,4.64035088 Z" id="Path" fill="#263238"></path>
                </g>
            </g>
        </g>
    </g>
</svg>