<?xml version="1.0" encoding="UTF-8"?>
<svg width="64px" height="62px" viewBox="0 0 64 62" version="1.1" xmlns="http://www.w3.org/2000/svg" xmlns:xlink="http://www.w3.org/1999/xlink">
    <title>income@3x</title>
    <g id="5.-Pages" stroke="none" stroke-width="1" fill="none" fill-rule="evenodd">
        <g id="5.1.2-Receive-Transaction-Details" transform="translate(-157.000000, -115.000000)" fill-rule="nonzero">
            <g id="Top-Header" transform="translate(32.000000, 115.000000)">
                <g id="income" transform="translate(125.000000, 0.000000)">
                    <path d="M47.797,33.25 L41.5,33.25 C39.57,33.25 38,31.68 38,29.75 C38,27.82 39.57,26.25 41.5,26.25 L44.481,26.25 C46.697,26.25 48.5,24.447 48.5,22.231 C48.5,20.764 47.738,19.457 46.461,18.734 C45.184,18.011 43.671,18.03 42.413,18.785 L39.257,20.679 C39.019,20.822 38.713,20.744 38.571,20.508 C38.429,20.271 38.506,19.964 38.742,19.822 L41.898,17.928 C43.468,16.986 45.358,16.962 46.953,17.864 C48.547,18.767 49.499,20.399 49.499,22.231 C49.499,24.999 47.248,27.25 44.48,27.25 L41.5,27.25 C40.122,27.25 39,28.372 39,29.75 C39,31.128 40.122,32.25 41.5,32.25 L47.797,32.25 C49.142,32.25 50.45,31.866 51.583,31.138 L54.259,29.418 C55.956,28.327 57.919,27.75 59.937,27.75 L62.5,27.75 C62.776,27.75 63,27.526 63,27.25 L63,15.75 C63,15.474 62.776,15.25 62.5,15.25 L61.973,15.25 C60.597,15.25 59.235,14.892 58.036,14.215 L54.684,12.32 C50.876,10.168 46.197,10.258 42.476,12.555 L29.467,20.584 C29.232,20.73 28.924,20.656 28.779,20.421 C28.634,20.186 28.707,19.878 28.942,19.733 L41.951,11.704 C45.983,9.215 51.051,9.118 55.176,11.45 L58.528,13.345 C59.577,13.937 60.768,14.251 61.972,14.251 L62.5,14.251 C63.327,14.251 64,14.924 64,15.751 L64,27.251 C64,28.078 63.327,28.751 62.5,28.751 L59.937,28.751 C58.112,28.751 56.335,29.273 54.8,30.26 L52.123,31.981 C50.83,32.811 49.334,33.25 47.797,33.25 Z" id="Path" fill="#263238"></path>
                    <path d="M41.5,34.75 C38.743,34.75 36.5,32.507 36.5,29.75 C36.5,26.993 38.743,24.75 41.5,24.75 L43.5,24.75 L43.5,23.25 C43.5,22.698 43.052,22.25 42.5,22.25 L12.5,22.25 C11.948,22.25 11.5,22.698 11.5,23.25 L11.5,39.25 C11.5,39.802 11.948,40.25 12.5,40.25 L42.5,40.25 C43.052,40.25 43.5,39.802 43.5,39.25 L43.5,34.75 L41.5,34.75 Z" id="Path" fill="#4DB6AC"></path>
                    <path d="M42.5,40.75 L12.5,40.75 C11.673,40.75 11,40.077 11,39.25 L11,23.25 C11,22.423 11.673,21.75 12.5,21.75 L42.5,21.75 C43.327,21.75 44,22.423 44,23.25 L44,24.75 C44,25.026 43.776,25.25 43.5,25.25 C43.224,25.25 43,25.026 43,24.75 L43,23.25 C43,22.974 42.776,22.75 42.5,22.75 L12.5,22.75 C12.224,22.75 12,22.974 12,23.25 L12,39.25 C12,39.526 12.224,39.75 12.5,39.75 L42.5,39.75 C42.776,39.75 43,39.526 43,39.25 L43,34.75 C43,34.474 43.224,34.25 43.5,34.25 C43.776,34.25 44,34.474 44,34.75 L44,39.25 C44,40.077 43.327,40.75 42.5,40.75 Z" id="Path" fill="#263238"></path>
                    <path d="M29.5,3.5 L25.5,3.5 C25.224,3.5 25,3.276 25,3 C25,2.724 25.224,2.5 25.5,2.5 L29.5,2.5 C29.776,2.5 30,2.724 30,3 C30,3.276 29.776,3.5 29.5,3.5 Z" id="Path" fill="#263238"></path>
                    <path d="M27.5,5.5 C27.224,5.5 27,5.276 27,5 L27,1 C27,0.724 27.224,0.5 27.5,0.5 C27.776,0.5 28,0.724 28,1 L28,5 C28,5.276 27.776,5.5 27.5,5.5 Z" id="Path" fill="#263238"></path>
                    <path d="M21.5,9 L17.5,9 C17.224,9 17,8.776 17,8.5 C17,8.224 17.224,8 17.5,8 L21.5,8 C21.776,8 22,8.224 22,8.5 C22,8.776 21.776,9 21.5,9 Z" id="Path" fill="#263238"></path>
                    <path d="M19.5,11 C19.224,11 19,10.776 19,10.5 L19,6.5 C19,6.224 19.224,6 19.5,6 C19.776,6 20,6.224 20,6.5 L20,10.5 C20,10.776 19.776,11 19.5,11 Z" id="Path" fill="#263238"></path>
                    <path d="M26,49.5 C25.941,49.5 25.88,49.49 25.822,49.467 L17.902,46.45 C16.248,45.82 14.511,45.5 12.74,45.5 L10,45.5 C9.724,45.5 9.5,45.276 9.5,45 C9.5,44.724 9.724,44.5 10,44.5 L12.739,44.5 C14.632,44.5 16.489,44.842 18.258,45.516 L26.178,48.533 C26.436,48.631 26.565,48.92 26.467,49.179 C26.391,49.377 26.201,49.5 26,49.5 Z" id="Path" fill="#263238"></path>
                    <path d="M46,61.5 L31.49,61.5 C29.116,61.5 26.78,61.092 24.546,60.288 L16.972,57.561 C15.937,57.189 14.854,57 13.755,57 L10,57 C9.724,57 9.5,56.776 9.5,56.5 C9.5,56.224 9.724,56 10,56 L13.755,56 C14.971,56 16.167,56.209 17.312,56.621 L24.886,59.348 C27.011,60.113 29.233,60.5 31.491,60.5 L46,60.5 C47.103,60.5 48,59.603 48,58.5 C48,57.397 47.103,56.5 46,56.5 L34.5,56.5 C34.224,56.5 34,56.276 34,56 C34,55.724 34.224,55.5 34.5,55.5 L46,55.5 C47.654,55.5 49,56.846 49,58.5 C49,60.154 47.654,61.5 46,61.5 Z" id="Path" fill="#263238"></path>
                    <g id="Group" transform="translate(0.000000, 42.000000)">
                        <path d="M0.5,1.5 L0.5,16 C0.5,16.552 0.948,17 1.5,17 L7,17 C7.552,17 8,16.552 8,16 L8,1.5 C8,0.948 7.552,0.5 7,0.5 L1.5,0.5 C0.948,0.5 0.5,0.948 0.5,1.5 Z" id="Path" fill="#40C4FF"></path>
                        <path d="M7,17.5 L1.5,17.5 C0.673,17.5 0,16.827 0,16 L0,1.5 C0,0.673 0.673,0 1.5,0 L7,0 C7.827,0 8.5,0.673 8.5,1.5 L8.5,16 C8.5,16.827 7.827,17.5 7,17.5 Z M1.5,1 C1.224,1 1,1.224 1,1.5 L1,16 C1,16.276 1.224,16.5 1.5,16.5 L7,16.5 C7.276,16.5 7.5,16.276 7.5,16 L7.5,1.5 C7.5,1.224 7.276,1 7,1 L1.5,1 Z" id="Shape" fill="#263238"></path>
                    </g>
                    <path d="M33,54.5 L26.5,54.5 C26.224,54.5 26,54.276 26,54 C26,53.724 26.224,53.5 26.5,53.5 L33,53.5 C34.103,53.5 35,52.603 35,51.5 C35,50.397 34.103,49.5 33,49.5 L26,49.5 C25.724,49.5 25.5,49.276 25.5,49 C25.5,48.724 25.724,48.5 26,48.5 L33,48.5 C34.654,48.5 36,49.846 36,51.5 C36,53.154 34.654,54.5 33,54.5 Z" id="Path" fill="#263238"></path>
                    <path d="M12.5,19.75 L11.5,19.75 C11.224,19.75 11,19.526 11,19.25 C11,18.974 11.224,18.75 11.5,18.75 L12.5,18.75 C12.776,18.75 13,18.974 13,19.25 C13,19.526 12.776,19.75 12.5,19.75 Z" id="Path" fill="#263238"></path>
                    <path d="M25.5,19.75 L14.5,19.75 C14.224,19.75 14,19.526 14,19.25 C14,18.974 14.224,18.75 14.5,18.75 L25.5,18.75 C25.776,18.75 26,18.974 26,19.25 C26,19.526 25.776,19.75 25.5,19.75 Z" id="Path" fill="#263238"></path>
                    <path d="M43.5,44 L42.5,44 C42.224,44 42,43.776 42,43.5 C42,43.224 42.224,43 42.5,43 L43.5,43 C43.776,43 44,43.224 44,43.5 C44,43.776 43.776,44 43.5,44 Z" id="Path" fill="#263238"></path>
                    <path d="M40.5,44 L29.5,44 C29.224,44 29,43.776 29,43.5 C29,43.224 29.224,43 29.5,43 L40.5,43 C40.776,43 41,43.224 41,43.5 C41,43.776 40.776,44 40.5,44 Z" id="Path" fill="#263238"></path>
                    <g id="Group" transform="translate(21.000000, 24.000000)">
                        <circle id="Oval" fill="#FFFFFF" cx="6.5" cy="7.25" r="6"></circle>
                        <path d="M6.5,13.75 C2.916,13.75 0,10.834 0,7.25 C0,3.666 2.916,0.75 6.5,0.75 C10.084,0.75 13,3.666 13,7.25 C13,10.834 10.084,13.75 6.5,13.75 Z M6.5,1.75 C3.467,1.75 1,4.217 1,7.25 C1,10.283 3.467,12.75 6.5,12.75 C9.533,12.75 12,10.283 12,7.25 C12,4.217 9.533,1.75 6.5,1.75 Z" id="Shape" fill="#263238"></path>
                    </g>
                    <path d="M28.25,34.25 L25.5,34.25 C25.224,34.25 25,34.026 25,33.75 C25,33.474 25.224,33.25 25.5,33.25 L28.25,33.25 C28.664,33.25 29,32.914 29,32.5 C29,32.086 28.664,31.75 28.25,31.75 L26.75,31.75 C25.785,31.75 25,30.965 25,30 C25,29.035 25.785,28.25 26.75,28.25 L29,28.25 C29.276,28.25 29.5,28.474 29.5,28.75 C29.5,29.026 29.276,29.25 29,29.25 L26.75,29.25 C26.336,29.25 26,29.587 26,30 C26,30.413 26.336,30.75 26.75,30.75 L28.25,30.75 C29.215,30.75 30,31.535 30,32.5 C30,33.465 29.215,34.25 28.25,34.25 Z" id="Path" fill="#263238"></path>
                    <path d="M27.5,29.25 C27.224,29.25 27,29.026 27,28.75 L27,27.25 C27,26.974 27.224,26.75 27.5,26.75 C27.776,26.75 28,26.974 28,27.25 L28,28.75 C28,29.027 27.776,29.25 27.5,29.25 Z" id="Path" fill="#263238"></path>
                    <path d="M27.5,35.75 C27.224,35.75 27,35.526 27,35.25 L27,33.75 C27,33.474 27.224,33.25 27.5,33.25 C27.776,33.25 28,33.474 28,33.75 L28,35.25 C28,35.527 27.776,35.75 27.5,35.75 Z" id="Path" fill="#263238"></path>
                    <path d="M37.186,37.75 L17.815,37.75 C17.622,37.75 17.447,37.639 17.364,37.465 C16.641,35.951 15.383,34.787 13.821,34.187 C13.628,34.113 13.5,33.927 13.5,33.72 L13.5,28.781 C13.5,28.574 13.627,28.388 13.821,28.314 C15.383,27.713 16.642,26.549 17.364,25.035 C17.447,24.861 17.622,24.75 17.815,24.75 L37.185,24.75 C37.378,24.75 37.554,24.861 37.636,25.035 C37.805,25.389 38.012,25.735 38.252,26.065 C38.415,26.288 38.365,26.601 38.142,26.764 C37.919,26.927 37.606,26.877 37.443,26.654 C37.232,26.363 37.042,26.06 36.877,25.75 L18.123,25.75 C17.327,27.255 16.057,28.435 14.5,29.116 L14.5,33.386 C16.057,34.067 17.326,35.245 18.123,36.751 L36.877,36.751 C37.47,35.634 38.342,34.681 39.414,33.98 C39.643,33.829 39.955,33.894 40.106,34.125 C40.257,34.356 40.192,34.666 39.961,34.817 C38.953,35.476 38.149,36.392 37.637,37.466 C37.554,37.639 37.378,37.75 37.186,37.75 Z" id="Path" fill="#263238"></path>
                </g>
            </g>
        </g>
    </g>
</svg>