<?xml version="1.0" encoding="UTF-8"?>
<svg width="58px" height="58px" viewBox="0 0 58 58" version="1.1" xmlns="http://www.w3.org/2000/svg" xmlns:xlink="http://www.w3.org/1999/xlink">
    <title>budget-balance@3x</title>
    <g id="5.-Pages" stroke="none" stroke-width="1" fill="none" fill-rule="evenodd">
        <g id="5.1.1-Send-Transaction-Details" transform="translate(-158.000000, -118.000000)" fill-rule="nonzero">
            <g id="Top-Header" transform="translate(32.000000, 118.000000)">
                <g id="budget-balance" transform="translate(126.000000, 0.307692)">
                    <path d="M1,29.5 C0.724,29.5 0.5,29.276 0.5,29 C0.5,13.285 13.285,0.5 29,0.5 C29.276,0.5 29.5,0.724 29.5,1 C29.5,1.276 29.276,1.5 29,1.5 C13.836,1.5 1.5,13.836 1.5,29 C1.5,29.276 1.276,29.5 1,29.5 Z" id="Path" fill="#263238"></path>
                    <path d="M32,1.5 L31,1.5 C30.724,1.5 30.5,1.276 30.5,1 C30.5,0.724 30.724,0.5 31,0.5 L32,0.5 C32.276,0.5 32.5,0.724 32.5,1 C32.5,1.276 32.276,1.5 32,1.5 Z" id="Path" fill="#263238"></path>
                    <path d="M29,57.5 C28.724,57.5 28.5,57.276 28.5,57 C28.5,56.724 28.724,56.5 29,56.5 C44.163,56.5 56.5,44.164 56.5,29 C56.5,28.724 56.724,28.5 57,28.5 C57.276,28.5 57.5,28.724 57.5,29 C57.5,44.715 44.715,57.5 29,57.5 Z" id="Path" fill="#263238"></path>
                    <path d="M27,57.5 L26,57.5 C25.724,57.5 25.5,57.276 25.5,57 C25.5,56.724 25.724,56.5 26,56.5 L27,56.5 C27.276,56.5 27.5,56.724 27.5,57 C27.5,57.276 27.276,57.5 27,57.5 Z" id="Path" fill="#263238"></path>
                    <g id="Group" transform="translate(15.000000, 15.000000)">
                        <path d="M14,27.5 C6.544,27.5 0.5,21.456 0.5,14 C0.5,6.544 6.544,0.5 14,0.5 C21.456,0.5 27.5,6.544 27.5,14 C27.5,21.456 21.456,27.5 14,27.5 Z" id="Path" fill="#FFD740"></path>
                        <path d="M14,28 C6.28,28 0,21.72 0,14 C0,6.28 6.28,0 14,0 C21.72,0 28,6.28 28,14 C28,21.72 21.72,28 14,28 Z M14,1 C6.832,1 1,6.832 1,14 C1,21.168 6.832,27 14,27 C21.168,27 27,21.168 27,14 C27,6.832 21.168,1 14,1 Z" id="Shape" fill="#263238"></path>
                    </g>
                    <path d="M50,3.5 L46,3.5 C45.724,3.5 45.5,3.276 45.5,3 C45.5,2.724 45.724,2.5 46,2.5 L50,2.5 C50.276,2.5 50.5,2.724 50.5,3 C50.5,3.276 50.276,3.5 50,3.5 Z" id="Path" fill="#263238"></path>
                    <path d="M48,5.5 C47.724,5.5 47.5,5.276 47.5,5 L47.5,1 C47.5,0.724 47.724,0.5 48,0.5 C48.276,0.5 48.5,0.724 48.5,1 L48.5,5 C48.5,5.276 48.276,5.5 48,5.5 Z" id="Path" fill="#263238"></path>
                    <path d="M57,10 L53,10 C52.724,10 52.5,9.776 52.5,9.5 C52.5,9.224 52.724,9 53,9 L57,9 C57.276,9 57.5,9.224 57.5,9.5 C57.5,9.776 57.276,10 57,10 Z" id="Path" fill="#263238"></path>
                    <path d="M55,12 C54.724,12 54.5,11.776 54.5,11.5 L54.5,7.5 C54.5,7.224 54.724,7 55,7 C55.276,7 55.5,7.224 55.5,7.5 L55.5,11.5 C55.5,11.776 55.276,12 55,12 Z" id="Path" fill="#263238"></path>
                    <g id="Group" transform="translate(22.000000, 19.000000)">
                        <path d="M9,8.5 L5,8.5 C4.173,8.5 3.5,7.827 3.5,7 C3.5,6.173 4.173,5.5 5,5.5 L11.5,5.5 L11.5,2.5 L8.5,2.5 L8.5,0.5 L5.5,0.5 L5.5,2.5 L5,2.5 C2.519,2.5 0.5,4.519 0.5,7 C0.5,9.481 2.519,11.5 5,11.5 L9,11.5 C9.827,11.5 10.5,12.173 10.5,13 C10.5,13.827 9.827,14.5 9,14.5 L2,14.5 L2,17.5 L5.5,17.5 L5.5,19.5 L8.5,19.5 L8.5,17.5 L9,17.5 C11.481,17.5 13.5,15.481 13.5,13 C13.5,10.519 11.481,8.5 9,8.5 Z" id="Path" fill="#FFFFFF"></path>
                        <path d="M8.5,20 L5.5,20 C5.224,20 5,19.776 5,19.5 L5,18 L2,18 C1.724,18 1.5,17.776 1.5,17.5 L1.5,14.5 C1.5,14.224 1.724,14 2,14 L9,14 C9.552,14 10,13.551 10,13 C10,12.449 9.552,12 9,12 L5,12 C2.243,12 0,9.757 0,7 C0,4.243 2.243,2 5,2 L5,0.5 C5,0.224 5.224,0 5.5,0 L8.5,0 C8.776,0 9,0.224 9,0.5 L9,2 L11.5,2 C11.776,2 12,2.224 12,2.5 L12,5.5 C12,5.776 11.776,6 11.5,6 L5,6 C4.449,6 4,6.449 4,7 C4,7.551 4.449,8 5,8 L9,8 C11.757,8 14,10.243 14,13 C14,15.757 11.757,18 9,18 L9,19.5 C9,19.776 8.776,20 8.5,20 Z M6,19 L8,19 L8,17.5 C8,17.224 8.224,17 8.5,17 L9,17 C11.206,17 13,15.206 13,13 C13,10.794 11.206,9 9,9 L5,9 C3.897,9 3,8.103 3,7 C3,5.897 3.897,5 5,5 L11,5 L11,3 L8.5,3 C8.224,3 8,2.776 8,2.5 L8,1 L6,1 L6,2.5 C6,2.776 5.776,3 5.5,3 L5,3 C2.794,3 1,4.794 1,7 C1,9.206 2.794,11 5,11 L9,11 C10.103,11 11,11.897 11,13 C11,14.103 10.103,15 9,15 L2.5,15 L2.5,17 L5.5,17 C5.776,17 6,17.224 6,17.5 L6,19 Z" id="Shape" fill="#263238"></path>
                    </g>
                    <g id="Group" transform="translate(4.000000, 4.000000)">
                        <path d="M25,6 L25,1 C11.745,1 1,11.745 1,25 L6,25 C6,14.507 14.507,6 25,6 Z" id="Path" fill="#FF5252"></path>
                        <path d="M6,25.5 L1,25.5 C0.724,25.5 0.5,25.276 0.5,25 C0.5,11.491 11.491,0.5 25,0.5 C25.276,0.5 25.5,0.724 25.5,1 L25.5,6 C25.5,6.276 25.276,6.5 25,6.5 C14.799,6.5 6.5,14.799 6.5,25 C6.5,25.276 6.276,25.5 6,25.5 Z M1.505,24.5 L5.506,24.5 C5.768,14.145 14.144,5.769 24.5,5.506 L24.5,1.505 C11.938,1.769 1.769,11.938 1.505,24.5 Z" id="Shape" fill="#263238"></path>
                    </g>
                    <path d="M53,29.5 L48,29.5 C47.724,29.5 47.5,29.276 47.5,29 C47.5,18.799 39.201,10.5 29,10.5 C28.724,10.5 28.5,10.276 28.5,10 L28.5,5 C28.5,4.724 28.724,4.5 29,4.5 C42.51,4.5 53.5,15.491 53.5,29 C53.5,29.276 53.276,29.5 53,29.5 Z M48.494,28.5 L52.495,28.5 C52.231,15.938 42.062,5.769 29.5,5.505 L29.5,9.506 C39.855,9.769 48.231,18.145 48.494,28.5 Z" id="Shape" fill="#263238"></path>
                    <g id="Group" transform="translate(28.000000, 28.000000)">
                        <path d="M1,20 L1,25 C14.255,25 25,14.255 25,1 L20,1 C20,11.493 11.493,20 1,20 Z" id="Path" fill="#40C4FF"></path>
                        <path d="M1,25.5 C0.724,25.5 0.5,25.276 0.5,25 L0.5,20 C0.5,19.724 0.724,19.5 1,19.5 C11.201,19.5 19.5,11.201 19.5,1 C19.5,0.724 19.724,0.5 20,0.5 L25,0.5 C25.276,0.5 25.5,0.724 25.5,1 C25.5,14.509 14.51,25.5 1,25.5 Z M1.5,20.494 L1.5,24.495 C14.062,24.231 24.231,14.062 24.495,1.5 L20.494,1.5 C20.231,11.855 11.855,20.231 1.5,20.494 Z" id="Shape" fill="#263238"></path>
                    </g>
                    <path d="M29,53.5 C15.491,53.5 4.5,42.509 4.5,29 C4.5,28.724 4.724,28.5 5,28.5 L10,28.5 C10.276,28.5 10.5,28.724 10.5,29 C10.5,39.201 18.799,47.5 29,47.5 C29.276,47.5 29.5,47.724 29.5,48 L29.5,53 C29.5,53.276 29.276,53.5 29,53.5 Z M5.505,29.5 C5.769,42.062 15.938,52.231 28.5,52.495 L28.5,48.494 C18.145,48.231 9.769,39.855 9.506,29.5 L5.505,29.5 Z" id="Shape" fill="#263238"></path>
                </g>
            </g>
        </g>
    </g>
</svg>