<?xml version="1.0" encoding="UTF-8"?>
<svg width="23px" height="23px" viewBox="0 0 23 23" version="1.1" xmlns="http://www.w3.org/2000/svg" xmlns:xlink="http://www.w3.org/1999/xlink">
    <title>Transaction Icon@3x</title>
    <g id="5.-Pages" stroke="none" stroke-width="1" fill="none" fill-rule="evenodd">
        <g id="5.1-Transactions" transform="translate(-33.000000, -104.000000)" fill-rule="nonzero">
            <g id="Top-All-Pages-Box" transform="translate(0.000000, 76.000000)">
                <g id="Transaction-Icon" transform="translate(33.000000, 28.000000)">
                    <g id="Group" transform="translate(8.327586, 8.327586)">
                        <path d="M3.17241379,5.94827586 C1.63934483,5.94827586 0.396551724,4.70548276 0.396551724,3.17241379 C0.396551724,1.63934483 1.63934483,0.396551724 3.17241379,0.396551724 C4.70548276,0.396551724 5.94827586,1.63934483 5.94827586,3.17241379 C5.94827586,4.70548276 4.70548276,5.94827586 3.17241379,5.94827586 Z" id="Path" fill="#4DB6AC"></path>
                        <path d="M3.17241379,6.14655172 C1.53227586,6.14655172 0.198275862,4.81255172 0.198275862,3.17241379 C0.198275862,1.53227586 1.53227586,0.198275862 3.17241379,0.198275862 C4.81255172,0.198275862 6.14655172,1.53227586 6.14655172,3.17241379 C6.14655172,4.81255172 4.81255172,6.14655172 3.17241379,6.14655172 Z M3.17241379,0.594827586 C1.75117241,0.594827586 0.594827586,1.75117241 0.594827586,3.17241379 C0.594827586,4.59365517 1.75117241,5.75 3.17241379,5.75 C4.59365517,5.75 5.75,4.59365517 5.75,3.17241379 C5.75,1.75117241 4.59365517,0.594827586 3.17241379,0.594827586 Z" id="Shape" fill="#263238"></path>
                    </g>
                    <path d="M11.7974138,12.6896552 L10.7068966,12.6896552 C10.5974483,12.6896552 10.5086207,12.6008276 10.5086207,12.4913793 C10.5086207,12.381931 10.5974483,12.2931034 10.7068966,12.2931034 L11.7974138,12.2931034 C11.9611897,12.2931034 12.0948276,12.1598621 12.0948276,11.9956897 C12.0948276,11.8315172 11.9611897,11.6982759 11.7974138,11.6982759 L11.2025862,11.6982759 C10.8199138,11.6982759 10.5086207,11.3869828 10.5086207,11.0043103 C10.5086207,10.6216379 10.8199138,10.3103448 11.2025862,10.3103448 L12.0948276,10.3103448 C12.2042759,10.3103448 12.2931034,10.3991724 12.2931034,10.5086207 C12.2931034,10.618069 12.2042759,10.7068966 12.0948276,10.7068966 L11.2025862,10.7068966 C11.0384138,10.7068966 10.9051724,10.8401379 10.9051724,11.0043103 C10.9051724,11.1684828 11.0384138,11.3017241 11.2025862,11.3017241 L11.7974138,11.3017241 C12.1800862,11.3017241 12.4913793,11.6130172 12.4913793,11.9956897 C12.4913793,12.3783621 12.1800862,12.6896552 11.7974138,12.6896552 Z" id="Path" fill="#FFFFFF"></path>
                    <path d="M11.5,10.7068966 C11.3905517,10.7068966 11.3017241,10.618069 11.3017241,10.5086207 L11.3017241,9.9137931 C11.3017241,9.80434483 11.3905517,9.71551724 11.5,9.71551724 C11.6094483,9.71551724 11.6982759,9.80434483 11.6982759,9.9137931 L11.6982759,10.5086207 C11.6982759,10.618069 11.6094483,10.7068966 11.5,10.7068966 Z" id="Path" fill="#FFFFFF"></path>
                    <path d="M11.5,13.2844828 C11.3905517,13.2844828 11.3017241,13.1956552 11.3017241,13.0862069 L11.3017241,12.4913793 C11.3017241,12.381931 11.3905517,12.2931034 11.5,12.2931034 C11.6094483,12.2931034 11.6982759,12.381931 11.6982759,12.4913793 L11.6982759,13.0862069 C11.6982759,13.1956552 11.6094483,13.2844828 11.5,13.2844828 Z" id="Path" fill="#FFFFFF"></path>
                    <g id="Group" transform="translate(3.568966, 3.172414)">
                        <path d="M8.12931034,2.37931034 C10.8242759,2.37931034 13.1139655,4.12493103 13.941569,6.54310345 L12.6333448,6.54310345 L14.8143793,8.72413793 L16.9954138,6.54310345 L16.0040345,6.54310345 C15.1153621,3.01775862 11.9266897,0.396551724 8.12931034,0.396551724 C4.33193103,0.396551724 1.14325862,3.01775862 0.254586207,6.54310345 L2.31705172,6.54310345 C3.14465517,4.12493103 5.43434483,2.37931034 8.12931034,2.37931034 Z" id="Path" fill="#FFD740"></path>
                        <path d="M14.8139828,8.92241379 C14.7632241,8.92241379 14.7124655,8.90298276 14.6736034,8.86451724 L12.492569,6.68348276 C12.4358621,6.62677586 12.4188103,6.54151724 12.4497414,6.46736207 C12.4806724,6.3932069 12.5528448,6.34482759 12.6329483,6.34482759 L13.6572414,6.34482759 C12.7622241,4.08012069 10.5752414,2.57758621 8.12931034,2.57758621 C5.5897931,2.57758621 3.32944828,4.1967069 2.50462069,6.60734483 C2.47725862,6.68744828 2.40191379,6.74137931 2.31705172,6.74137931 L0.254586207,6.74137931 C0.193517241,6.74137931 0.13562069,6.71322414 0.0979482759,6.66484483 C0.0602758621,6.61646552 0.0471896552,6.55381034 0.0622586207,6.49472414 C0.996931034,2.78736207 4.31408621,0.198275862 8.12931034,0.198275862 C11.8925862,0.198275862 15.1716724,2.71796552 16.1567069,6.34482759 L16.9950172,6.34482759 C17.0751207,6.34482759 17.1476897,6.3932069 17.1782241,6.46736207 C17.2087586,6.54151724 17.1917069,6.62677586 17.1353966,6.68348276 L14.9543621,8.86451724 C14.9155,8.90298276 14.8647414,8.92241379 14.8139828,8.92241379 Z M13.1115862,6.74137931 L14.8139828,8.44377586 L16.5163793,6.74137931 L16.0036379,6.74137931 C15.9128276,6.74137931 15.8335172,6.67951724 15.8117069,6.59148276 C14.9214483,3.06058621 11.7625172,0.594827586 8.12931034,0.594827586 C4.58136207,0.594827586 1.48548276,2.94637931 0.513534483,6.34482759 L2.17706897,6.34482759 C3.0935,3.84853448 5.46765517,2.18103448 8.12931034,2.18103448 C10.8381552,2.18103448 13.2495862,3.90801724 14.1291379,6.47886207 C14.1501552,6.53953448 14.1402414,6.60615517 14.1033621,6.6585 C14.0656897,6.71044828 14.0054138,6.74137931 13.941569,6.74137931 L13.1115862,6.74137931 Z" id="Shape" fill="#FFFFFF"></path>
                    </g>
                    <g id="Group" transform="translate(2.379310, 11.103448)">
                        <path d="M9.31896552,6.74137931 C6.624,6.74137931 4.33431034,4.99575862 3.5067069,2.57758621 L4.81493103,2.57758621 L2.63389655,0.396551724 L0.452862069,2.57758621 L1.44424138,2.57758621 C2.33291379,6.10293103 5.52158621,8.72413793 9.31896552,8.72413793 C13.1163448,8.72413793 16.3050172,6.10293103 17.1936897,2.57758621 L15.1312241,2.57758621 C14.3036207,4.99575862 12.013931,6.74137931 9.31896552,6.74137931 Z" id="Path" fill="#FFD740"></path>
                        <path d="M9.31896552,8.92241379 C5.5552931,8.92241379 2.27660345,6.40272414 1.29156897,2.77586207 L0.453258621,2.77586207 C0.373155172,2.77586207 0.300586207,2.72748276 0.270051724,2.65332759 C0.23912069,2.57917241 0.256172414,2.49391379 0.31287931,2.4372069 L2.49391379,0.256172414 C2.57124138,0.178844828 2.69694828,0.178844828 2.77427586,0.256172414 L4.95531034,2.4372069 C5.01201724,2.49391379 5.02906897,2.57917241 4.99813793,2.65332759 C4.96760345,2.72748276 4.89543103,2.77586207 4.81532759,2.77586207 L3.79103448,2.77586207 C4.68565517,5.04056897 6.87263793,6.54310345 9.31896552,6.54310345 C11.8580862,6.54310345 14.1188276,4.92358621 14.9440517,2.51334483 C14.9710172,2.43324138 15.0463621,2.37931034 15.1312241,2.37931034 L17.1932931,2.37931034 C17.2543621,2.37931034 17.3122586,2.40746552 17.349931,2.45584483 C17.3876034,2.50422414 17.4006897,2.56687931 17.3856207,2.62596552 C16.4509483,6.33332759 13.1337931,8.92241379 9.31896552,8.92241379 Z M0.931896552,2.37931034 L1.44463793,2.37931034 C1.53544828,2.37931034 1.61475862,2.44117241 1.63696552,2.5292069 C2.52682759,6.06010345 5.68575862,8.52586207 9.31896552,8.52586207 C12.8669138,8.52586207 15.9627931,6.17431034 16.9347414,2.77586207 L15.2716034,2.77586207 C14.3547759,5.27255172 11.9806207,6.93965517 9.31896552,6.93965517 C6.60972414,6.93965517 4.19868966,5.21267241 3.31913793,2.64182759 C3.29851724,2.58115517 3.30843103,2.51453448 3.34531034,2.46218966 C3.38218966,2.40984483 3.44286207,2.37931034 3.5067069,2.37931034 L4.3362931,2.37931034 L2.63389655,0.676913793 L0.931896552,2.37931034 Z" id="Shape" fill="#FFFFFF"></path>
                    </g>
                    <path d="M0.396551724,11.6982759 C0.287103448,11.6982759 0.198275862,11.6094483 0.198275862,11.5 C0.198275862,5.26818966 5.26818966,0.198275862 11.5,0.198275862 C11.6094483,0.198275862 11.6982759,0.287103448 11.6982759,0.396551724 C11.6982759,0.506 11.6094483,0.594827586 11.5,0.594827586 C5.48668966,0.594827586 0.594827586,5.48668966 0.594827586,11.5 C0.594827586,11.6094483 0.506,11.6982759 0.396551724,11.6982759 Z" id="Path" fill="#FFFFFF"></path>
                    <path d="M12.6896552,0.594827586 L12.2931034,0.594827586 C12.1836552,0.594827586 12.0948276,0.506 12.0948276,0.396551724 C12.0948276,0.287103448 12.1836552,0.198275862 12.2931034,0.198275862 L12.6896552,0.198275862 C12.7991034,0.198275862 12.887931,0.287103448 12.887931,0.396551724 C12.887931,0.506 12.7991034,0.594827586 12.6896552,0.594827586 Z" id="Path" fill="#FFFFFF"></path>
                    <path d="M11.5,22.8017241 C11.3905517,22.8017241 11.3017241,22.7128966 11.3017241,22.6034483 C11.3017241,22.494 11.3905517,22.4051724 11.5,22.4051724 C17.5129138,22.4051724 22.4051724,17.5133103 22.4051724,11.5 C22.4051724,11.3905517 22.494,11.3017241 22.6034483,11.3017241 C22.7128966,11.3017241 22.8017241,11.3905517 22.8017241,11.5 C22.8017241,17.7318103 17.7318103,22.8017241 11.5,22.8017241 Z" id="Path" fill="#FFFFFF"></path>
                    <path d="M10.7068966,22.8017241 L10.3103448,22.8017241 C10.2008966,22.8017241 10.112069,22.7128966 10.112069,22.6034483 C10.112069,22.494 10.2008966,22.4051724 10.3103448,22.4051724 L10.7068966,22.4051724 C10.8163448,22.4051724 10.9051724,22.494 10.9051724,22.6034483 C10.9051724,22.7128966 10.8163448,22.8017241 10.7068966,22.8017241 Z" id="Path" fill="#FFFFFF"></path>
                    <path d="M19.8275862,1.38793103 L18.2413793,1.38793103 C18.131931,1.38793103 18.0431034,1.29910345 18.0431034,1.18965517 C18.0431034,1.0802069 18.131931,0.99137931 18.2413793,0.99137931 L19.8275862,0.99137931 C19.9370345,0.99137931 20.0258621,1.0802069 20.0258621,1.18965517 C20.0258621,1.29910345 19.9370345,1.38793103 19.8275862,1.38793103 Z" id="Path" fill="#FFFFFF"></path>
                    <path d="M19.0344828,2.18103448 C18.9250345,2.18103448 18.8362069,2.0922069 18.8362069,1.98275862 L18.8362069,0.396551724 C18.8362069,0.287103448 18.9250345,0.198275862 19.0344828,0.198275862 C19.143931,0.198275862 19.2327586,0.287103448 19.2327586,0.396551724 L19.2327586,1.98275862 C19.2327586,2.0922069 19.143931,2.18103448 19.0344828,2.18103448 Z" id="Path" fill="#FFFFFF"></path>
                    <path d="M22.6034483,3.96551724 L21.0172414,3.96551724 C20.9077931,3.96551724 20.8189655,3.87668966 20.8189655,3.76724138 C20.8189655,3.6577931 20.9077931,3.56896552 21.0172414,3.56896552 L22.6034483,3.56896552 C22.7128966,3.56896552 22.8017241,3.6577931 22.8017241,3.76724138 C22.8017241,3.87668966 22.7128966,3.96551724 22.6034483,3.96551724 Z" id="Path" fill="#FFFFFF"></path>
                    <path d="M21.8103448,4.75862069 C21.7008966,4.75862069 21.612069,4.6697931 21.612069,4.56034483 L21.612069,2.97413793 C21.612069,2.86468966 21.7008966,2.77586207 21.8103448,2.77586207 C21.9197931,2.77586207 22.0086207,2.86468966 22.0086207,2.97413793 L22.0086207,4.56034483 C22.0086207,4.6697931 21.9197931,4.75862069 21.8103448,4.75862069 Z" id="Path" fill="#FFFFFF"></path>
                </g>
            </g>
        </g>
    </g>
</svg>