<?xml version="1.0" encoding="UTF-8"?>
<svg width="73px" height="57px" viewBox="0 0 73 57" version="1.1" xmlns="http://www.w3.org/2000/svg" xmlns:xlink="http://www.w3.org/1999/xlink">
    <title>mobile-payment@3x</title>
    <g id="5.-Pages" stroke="none" stroke-width="1" fill="none" fill-rule="evenodd">
        <g id="5.1.3-Transaction-Verification" transform="translate(-151.000000, -119.000000)">
            <g id="Top-Header" transform="translate(32.000000, 120.000000)">
                <g id="mobile-payment" transform="translate(119.000000, 0.000000)">
                    <g id="Group" transform="translate(51.328125, 0.000000)" fill-rule="nonzero">
                        <ellipse id="Oval" fill="#4DB6AC" cx="10.8359375" cy="10.3125" rx="10.265625" ry="10.3125"></ellipse>
                        <path d="M11.7484375,9.73958333 L9.809375,9.73958333 C9.125,9.73958333 8.440625,9.16666667 8.440625,8.36458333 C8.440625,7.67708333 9.0109375,6.98958333 9.809375,6.98958333 L12.6609375,6.98958333 C13.003125,6.98958333 13.23125,6.76041667 13.23125,6.41666667 C13.23125,6.07291667 13.003125,5.84375 12.6609375,5.84375 L11.40625,5.84375 L11.40625,4.58333333 C11.40625,4.23958333 11.178125,4.01041667 10.8359375,4.01041667 C10.49375,4.01041667 10.265625,4.23958333 10.265625,4.58333333 L10.265625,5.95833333 L9.9234375,5.95833333 C8.5546875,5.95833333 7.4140625,7.10416667 7.4140625,8.47916667 C7.4140625,9.85416667 8.5546875,11 9.9234375,11 L11.8625,11 C12.546875,11 13.23125,11.5729167 13.23125,12.375 C13.23125,13.0625 12.6609375,13.75 11.8625,13.75 L9.0109375,13.75 C8.66875,13.75 8.440625,13.9791667 8.440625,14.3229167 C8.440625,14.6666667 8.66875,14.8958333 9.0109375,14.8958333 L10.265625,14.8958333 L10.265625,16.0416667 C10.265625,16.3854167 10.49375,16.6145833 10.8359375,16.6145833 C11.178125,16.6145833 11.40625,16.3854167 11.40625,16.0416667 L11.40625,14.6666667 L11.7484375,14.6666667 C13.1171875,14.6666667 14.2578125,13.5208333 14.2578125,12.1458333 C14.2578125,10.7708333 13.1171875,9.73958333 11.7484375,9.73958333 Z" id="Path" fill="#FFFFFF"></path>
                    </g>
                    <g id="Group" transform="translate(11.406250, 0.000000)" stroke="#263238" stroke-linecap="round" stroke-linejoin="round">
                        <path d="M33.6484375,41.25 L33.6484375,49.2708333 C33.6484375,52.4791667 31.1390625,55 27.9453125,55 L6.2734375,55 C3.0796875,55 0.5703125,52.4791667 0.5703125,49.2708333 L0.5703125,5.72916667 C0.5703125,2.52083333 3.0796875,0 6.2734375,0 L27.9453125,0 C31.1390625,0 33.6484375,2.52083333 33.6484375,5.72916667 L33.6484375,13.75" id="Path"></path>
                        <line x1="33.6484375" y1="48.125" x2="0.5703125" y2="48.125" id="Path"></line>
                        <line x1="0.5703125" y1="6.875" x2="33.6484375" y2="6.875" id="Path"></line>
                        <line x1="13.6875" y1="3.4375" x2="20.53125" y2="3.4375" id="Path" fill="#263238" fill-rule="nonzero"></line>
                        <path d="M19.390625,52.7083333 L14.828125,52.7083333 C14.14375,52.7083333 13.6875,52.25 13.6875,51.5625 L13.6875,51.5625 C13.6875,50.875 14.14375,50.4166667 14.828125,50.4166667 L19.390625,50.4166667 C20.075,50.4166667 20.53125,50.875 20.53125,51.5625 L20.53125,51.5625 C20.53125,52.25 20.075,52.7083333 19.390625,52.7083333 Z" id="Path"></path>
                    </g>
                    <path d="M60.225,55 C59.76875,55 59.3125,54.8854167 58.9703125,54.5416667 L53.2671875,48.9270833 C52.5828125,48.2395833 52.5828125,47.2083333 53.2671875,46.5208333 C53.9515625,45.8333333 54.978125,45.8333333 55.6625,46.5208333 L60.1109375,50.9895833 L69.35,41.7083333 C70.034375,41.0208333 71.0609375,41.0208333 71.7453125,41.7083333 C72.4296875,42.3958333 72.4296875,43.4270833 71.7453125,44.1145833 L61.2515625,54.65625 C61.1375,54.8854167 60.68125,55 60.225,55 Z" id="Path" stroke="#263238" fill="#40C4FF" fill-rule="nonzero" stroke-linecap="round" stroke-linejoin="round"></path>
                    <g id="Group" transform="translate(25.093750, 16.041667)" stroke="#263238" stroke-linecap="round" stroke-linejoin="round">
                        <path d="M31.3671875,22.9166667 L2.8515625,22.9166667 C1.2546875,22.9166667 0,21.65625 0,20.0520833 L0,2.86458333 C0,1.26041667 1.2546875,0 2.8515625,0 L31.3671875,0 C32.9640625,0 34.21875,1.26041667 34.21875,2.86458333 L34.21875,20.0520833 C34.21875,21.65625 32.9640625,22.9166667 31.3671875,22.9166667 Z" id="Path"></path>
                        <rect id="Rectangle" fill="#FFD740" fill-rule="nonzero" x="0" y="4.58333333" width="34.21875" height="4.58333333"></rect>
                        <g transform="translate(22.812500, 13.750000)">
                            <ellipse id="Oval" cx="5.703125" cy="2.86458333" rx="2.28125" ry="2.29166667"></ellipse>
                            <path d="M3.421875,2.86458333 C3.421875,2.17708333 3.7640625,1.48958333 4.334375,1.14583333 C3.9921875,0.802083333 3.421875,0.572916667 2.965625,0.572916667 C1.7109375,0.572916667 0.684375,1.60416667 0.684375,2.86458333 C0.684375,4.125 1.7109375,5.15625 2.965625,5.15625 C3.5359375,5.15625 3.9921875,4.92708333 4.334375,4.58333333 C3.7640625,4.23958333 3.421875,3.55208333 3.421875,2.86458333 Z" id="Path"></path>
                        </g>
                    </g>
                    <g id="Group" transform="translate(0.000000, 29.791667)" stroke="#263238" stroke-linecap="round" stroke-linejoin="round">
                        <line x1="28.515625" y1="1.14583333" x2="6.84375" y2="1.14583333" id="Path"></line>
                        <line x1="1.7109375" y1="3.4375" x2="0.5703125" y2="3.4375" id="Path"></line>
                        <line x1="21.671875" y1="3.4375" x2="3.9921875" y2="3.4375" id="Path"></line>
                    </g>
                </g>
            </g>
        </g>
    </g>
</svg>