<svg xmlns="http://www.w3.org/2000/svg" xmlns:xlink="http://www.w3.org/1999/xlink" width="18" height="18" viewBox="0 0 18 18">
    <defs>
        <circle id="2q94125nla" cx="9" cy="9" r="9"/>
    </defs>
    <g fill="none" fill-rule="evenodd">
        <g>
            <g>
                <g transform="translate(-37 -555) translate(35 227) translate(2 328)">
                    <mask id="4t2lo7hshb" fill="#fff">
                        <use xlink:href="#2q94125nla"/>
                    </mask>
                    <use fill="#D8D8D8" xlink:href="#2q94125nla"/>
                    <g fill-rule="nonzero" mask="url(#4t2lo7hshb)">
                        <g>
                            <path fill="#FFF" d="M0 12.545H26.727V14.181H0zM0 15.273H26.727V16.909H0zM13.636 6.545H26.726999999999997V8.181H13.636zM13.636 4.753L13.636 5.455 26.727 5.455 26.727 3.818 13.636 3.818zM13.636 1.091H26.726999999999997V2.727H13.636zM0 9.818L0 11.455 26.727 11.455 26.727 9.818z" transform="translate(-4.364)"/>
                            <path fill="#E30613" d="M13.636 0H26.726999999999997V1.091H13.636zM13.636 2.727H26.726999999999997V4.3629999999999995H13.636zM13.636 5.455H26.726999999999997V7.091H13.636zM13.636 8.182H26.726999999999997V9.818H13.636zM0 10.909H26.727V12.545H0zM0 14.182H26.727V15.818H0zM0 16.909H26.727V18.544999999999998H0z" transform="translate(-4.364)"/>
                            <path fill="#2D2E83" d="M13.636 8.352V0H0v9.818h13.636V8.352zm-.604-.937l-.242-.163-.242.163.04-.367-.202-.244.28-.04.123-.325.12.326.28.04-.201.245.044.365zm-11.215.081l.12-.326.121.326.28.04-.202.245.04.367-.242-.163-.242.163.04-.367-.242-.244.327-.04zm.924-.692l-.202-.245.28-.04.12-.326.121.326.28.04-.202.245.05.366-.242-.163-.242.163.037-.366zM2.539.817l.28-.04.12-.327.121.326.28.04-.202.283.05.37-.242-.204-.243.204.038-.37-.202-.282zM4.922.774l.28-.04.12-.326.121.326.28.04-.202.245.04.367-.242-.163-.242.163.046-.37-.2-.242zm2.501.081l.28-.04.12-.326.122.325.28.041-.203.245.04.366-.242-.163-.236.166.04-.367-.2-.247zm2.502 0l.28-.04.12-.326.121.325.28.041-.202.245.047.369-.242-.164-.242.164.04-.367-.202-.247zm.524 1.874l.28.04-.202.245.08.408-.242-.164-.28.164.039-.366-.202-.245.28-.04.12-.326.127.284zm1.17 2.976l.28.04-.202.245.04.366-.242-.163-.242.163.045-.369-.202-.245.28-.04.12-.326.123.329zm.162 2.566l-.243-.163-.242.163.04-.366-.202-.245.28-.04.121-.327.12.326.28.041-.242.245.088.366zM9.158 5.664l.28.04-.202.245.04.367-.242-.163-.28.203.04-.366-.201-.245.28-.04.12-.326.165.285zm.121 2.607l-.242-.163-.28.163.04-.366-.201-.245.28-.04.12-.327.121.326.28.041-.162.245.044.366zM6.656 5.622l.28.04-.202.283.04.367-.242-.163-.242.163.04-.367-.202-.244.28-.041.12-.326.128.288zm.12 2.567l-.241-.164-.243.164.04-.367-.201-.244.28-.041.12-.326.121.326.28.04-.202.245.047.367zM4.398 2.526l-.242-.163-.28.163.04-.367-.203-.244.28-.04.12-.327.121.326.28.04-.202.245.086.367zm.805.122l.12-.326.121.326.28.04-.202.245.04.367-.242-.164-.242.164.04-.367-.195-.244.28-.041zm1.576-.163l-.242-.163-.242.163.04-.366-.202-.245.28-.081.12-.326.121.326.28.04-.202.283.047.37zm2.501.082l-.242-.164-.28.164.04-.367-.201-.245.28-.04.12-.326.162.282.28.04-.202.245.043.41zm-1.29.122l.279.04-.202.283.04.366-.24-.159-.241.164v-.368l-.202-.247.28-.041.12-.326.165.288zm.121 2.607l-.242-.163-.242.163.037-.366-.242-.283.28-.04.12-.326.12.326.28.04-.201.245.09.404zM6.132 3.748l.28-.04.12-.326.122.325.28.041-.203.283.04.366-.235-.16-.242.162.04-.366-.202-.285zm-.93.815l.123-.327.121.326.28.04-.202.245.04.367-.202-.163-.242.163.04-.367-.202-.244.244-.04zm5.365.734l-.242-.163-.242.163.04-.366-.202-.245.28-.04.12-.326.122.326.28.04-.203.245.047.366zM9.28 4.441l-.242-.164-.28.164.04-.367-.201-.245.28-.04.161-.367.12.326.28.04-.201.245.043.408zm2.502-1.874l-.243-.164-.242.164V2.2l-.202-.245.28-.04.12-.326.122.326.28.04-.203.245.088.367zm-9.965-.774l.12-.324.121.325.28.041-.202.282.044.368-.243-.204-.282.204.04-.366-.161-.283.283-.043zm1.006.896l.121-.326.121.326.28.04-.202.245.046.367-.242-.163-.242.204.037-.367-.202-.282.283-.044zm.89 1.1l.28-.04.12-.327.121.326.28.04-.202.283.04.367-.236-.202-.242.163.042-.366-.203-.244zm-.888.774l.12-.327.122.326.28.081-.203.245.045.365-.242-.163-.243.163.038-.364-.202-.245.285-.08zm1.291.734l.12.326.28.041-.201.282.04.367-.242-.163-.243.163.04-.367-.197-.241.28-.041.123-.367zm.242 2.932l-.242-.163-.242.163.04-.366-.202-.245.28-.04.12-.326.121.326.28.04-.202.245.047.366zm.766-1.468l-.2-.242.279-.041.12-.326.121.326.28.04-.202.245.04.367-.242-.164-.242.164.046-.37zm2.502.081l-.202-.244.28-.041.12-.326.121.326.28.04-.202.245.04.367-.242-.163-.242.163.047-.367zm2.501 0l-.202-.244.28-.041.12-.326.121.326.28.04-.202.245.04.367-.242-.163-.242.163.047-.367zm2.905-1.344l-.243-.163-.242.163.04-.367-.201-.244.28-.04.12-.327.12.326.28.04-.201.245.047.367zM11.78 4.48l-.242-.163-.242.163.04-.366-.242-.283.28-.04.12-.326.121.326.28.04-.202.245.087.404zm1.13-1.548l.28.04-.202.245.04.367-.242-.163-.243.163.042-.366-.202-.244.28-.04.08-.327.167.325zm.122-1.222l-.242-.163-.242.163.037-.367-.202-.244.28-.041.12-.367.121.326.28.041-.202.245.05.407zM.322.774l.28-.04.125-.327.12.326.28.04-.159.244.04.366-.242-.16-.28.162.039-.368L.323.774zm.28 1.833l.125-.326.162.326.28.04-.202.283.04.367-.24-.16-.28.163.04-.366-.204-.245.28-.082zm.928 1.141l.28-.04.12-.326.122.325.28.041-.203.245.04.366-.242-.163-.242.163.049-.366-.204-.245zm-.523 1.467l-.24-.163-.243.163.04-.367-.201-.244.28-.04.123-.328.121.326.28.04-.202.245.042.368zm.93.038l.12.326.28.04-.202.245.04.407-.242-.163-.28.163.04-.366-.201-.245.28-.04.164-.367zM.322 6.478l.28-.04.12-.327.124.328.28.04-.202.245.04.367-.238-.165-.242.163.04-.367-.202-.244zm.684 2.526L.765 8.84l-.243.164.04-.367-.201-.244.28-.041.12-.326.121.326.28.04-.202.245.047.367zm2.181.081l-.243-.16-.242.162.04-.366-.201-.249.28-.04.12-.326.12.326.28.04-.201.245.047.368zm2.42-.04l-.241-.164-.242.163.04-.366-.202-.245.28-.04.12-.326.121.326.28.04-.202.245.047.366zm2.502.04l-.242-.163-.242.163.037-.367-.202-.244.28-.04.12-.327.121.326.28.04-.242.245.09.367zm2.461.04l-.242-.163-.242.164.04-.367-.202-.244.28-.041.12-.326.122.326.28.04-.203.245.047.367zm2.461.205l-.242-.164-.242.164.04-.367-.202-.245.28-.04.12-.326.122.326.28.04-.203.245.047.367z" transform="translate(-4.364)"/>
                            <path fill="#FFF" d="M5.118 1.636L5.479 1.461 5.791 1.636 5.739 1.243 6 .94 5.639.896 5.482.545 5.326.895 4.909.939 5.222 1.242zM5.118 3.273L5.479 3.054 5.791 3.273 5.739 2.879 6 2.576 5.639 2.533 5.482 2.182 5.27 2.532 4.909 2.575 5.222 2.878zM5.118 5.455L5.479 5.28 5.791 5.455 5.739 5.062 6 4.8 5.639 4.756 5.483 4.364 5.27 4.758 4.909 4.802 5.17 5.064zM5.792 7.089L5.74 6.697 6 6.436 5.64 6.349 5.484 6 5.269 6.35 4.909 6.437 5.169 6.699 5.117 7.091 5.477 6.916zM5.638 8.532L5.482 8.182 5.27 8.532 4.909 8.576 5.17 8.879 5.118 9.273 5.479 9.097 5.791 9.273 5.739 8.879 6 8.576zM6.355 1.986L6.273 1.636 6.189 1.986 6 2.073 6.136 2.336 6.109 2.727 6.273 2.552 6.436 2.727 6.409 2.334 6.545 2.072zM6.109 4.364L6.273 4.188 6.436 4.364 6.409 3.97 6.545 3.667 6.357 3.624 6.272 3.273 6.189 3.622 6 3.666 6.136 3.969zM6.19 5.805L6 5.848 6.137 6.152 6.082 6.545 6.272 6.326 6.436 6.545 6.409 6.152 6.545 5.848 6.356 5.805 6.274 5.455zM6.728 7.469L6.573 7.091 6.417 7.469 6 7.51 6.313 7.762 6.209 8.182 6.57 7.972 6.882 8.14 6.83 7.762 7.091 7.51zM7.297 1.636L7.61 1.461 7.972 1.636 7.92 1.243 8.182.981 7.82.893 7.61.545 7.453.895 7.091.982 7.352 1.245zM7.452 2.531L7.091 2.618 7.352 2.88 7.3 3.273 7.612 3.098 7.973 3.273 7.921 2.88 8.182 2.618 7.821 2.531 7.611 2.182zM7.816 4.714L7.608 4.364 7.452 4.714 7.091 4.757 7.352 5.061 7.3 5.455 7.612 5.279 7.973 5.455 7.869 5.061 8.182 4.757zM7.973 7.091L7.869 6.671 8.182 6.419 7.765 6.378 7.609 6 7.452 6.378 7.091 6.419 7.352 6.71 7.3 7.088 7.613 6.878zM7.764 8.531L7.608 8.182 7.452 8.531 7.091 8.618 7.352 8.88 7.3 9.273 7.612 9.098 7.973 9.273 7.869 8.88 8.182 8.618zM8.908 2.015L8.751 1.636 8.543 2.015 8.182 2.057 8.442 2.349 8.39 2.727 8.751 2.517 9.064 2.727 9.012 2.307 9.273 2.054zM9.273 3.709L8.912 3.622 8.751 3.273 8.543 3.665 8.182 3.709 8.442 3.971 8.39 4.364 8.751 4.189 9.064 4.364 9.012 3.971zM8.543 5.804L8.182 5.891 8.442 6.153 8.39 6.545 8.751 6.371 9.064 6.545 9.012 6.153 9.273 5.891 8.912 5.804 8.703 5.455zM8.907 7.441L8.699 7.091 8.543 7.441 8.182 7.485 8.442 7.788 8.39 8.182 8.703 8.006 9.064 8.182 9.012 7.788 9.273 7.485zM9.926 1.636L10.091 1.461 10.281 1.636 10.226 1.243 10.364.94 10.173.896 10.091.545 10.008.895 9.818.939 9.955 1.242zM10.008 2.532L9.818 2.576 9.955 2.879 9.928 3.273 10.092 3.054 10.281 3.273 10.227 2.879 10.364 2.576 10.174 2.532 10.091 2.182zM10.17 4.756L10.089 4.364 10.007 4.756 9.818 4.8 9.955 5.062 9.927 5.455 10.091 5.28 10.254 5.455 10.227 5.062 10.364 4.8zM10.254 7.091L10.226 6.698 10.364 6.436 10.173 6.349 10.091 6 10.009 6.349 9.818 6.436 9.956 6.698 9.928 7.091 10.093 6.916zM10.17 8.532L10.089 8.182 10.007 8.532 9.818 8.576 9.955 8.879 9.927 9.273 10.091 9.097 10.254 9.273 10.227 8.879 10.364 8.576zM11.635 1.985L11.426 1.636 11.27 1.985 10.909 2.073 11.17 2.335 11.118 2.727 11.43 2.552 11.791 2.727 11.687 2.335 12 2.073zM12 3.666L11.583 3.623 11.426 3.273 11.27 3.623 10.909 3.666 11.17 3.97 11.118 4.364 11.431 4.188 11.792 4.364 11.688 3.97zM11.099 5.805L10.909 5.848 11.046 6.152 11.019 6.545 11.183 6.326 11.372 6.545 11.318 6.152 11.455 5.848 11.265 5.805 11.183 5.455zM11.262 7.484L11.18 7.091 11.099 7.484 10.909 7.527 11.046 7.789 11.019 8.182 11.183 8.007 11.372 8.182 11.318 7.789 11.455 7.527zM13.091.939L12.73.896 12.57.545 12.361.896 12 .939 12.261 1.243 12.209 1.636 12.57 1.461 12.882 1.636 12.83 1.243zM12.361 3.077L12 3.121 12.261 3.424 12.209 3.818 12.57 3.599 12.882 3.818 12.83 3.424 13.091 3.121 12.73 3.077 12.521 2.727zM13.091 4.8L12.728 4.756 12.519 4.364 12.362 4.756 12 4.8 12.262 5.062 12.209 5.455 12.523 5.28 12.886 5.455 12.834 5.062zM13.091 6.982L12.728 6.895 12.519 6.545 12.362 6.895 12 6.982 12.262 7.244 12.209 7.636 12.523 7.462 12.886 7.636 12.834 7.244zM12.726 8.532L12.517 8.182 12.361 8.532 12 8.576 12.261 8.879 12.209 9.273 12.521 9.097 12.882 9.273 12.83 8.879 13.091 8.576z" transform="translate(-4.364)"/>
                        </g>
                    </g>
                </g>
            </g>
        </g>
    </g>
</svg>
