<?xml version="1.0" encoding="UTF-8"?>
<svg width="36px" height="37px" viewBox="0 0 36 37" version="1.1" xmlns="http://www.w3.org/2000/svg" xmlns:xlink="http://www.w3.org/1999/xlink">
    <title>water_bill@3x</title>
    <g id="2.-Home" stroke="none" stroke-width="1" fill="none" fill-rule="evenodd">
        <g id="2.0-Home" transform="translate(-90.000000, -1681.000000)">
            <g id="MONTHLY-BILLS-SECTION" transform="translate(32.000000, 1624.000000)">
                <g id="Water-Montly-subscrabtion" transform="translate(0.000000, 30.000000)">
                    <g id="smart-water" transform="translate(58.000000, 28.000000)">
                        <g id="Group">
                            <circle id="Oval" fill="#FFD740" fill-rule="nonzero" cx="8.4765625" cy="8.4765625" r="8.203125"></circle>
                            <path d="M4.2109375,6.9453125 C6.5625,4.59375 10.390625,4.59375 12.7421875,6.9453125" id="Path" stroke="#263238" stroke-linecap="round" stroke-linejoin="round"></path>
                            <path d="M5.796875,8.53125 C7.2734375,7.0546875 9.734375,7.0546875 11.2109375,8.53125" id="Path" stroke="#263238" stroke-linecap="round" stroke-linejoin="round"></path>
                            <path d="M7.328125,10.0625 C7.984375,9.40625 9.0234375,9.40625 9.625,10.0625" id="Path" stroke="#263238" stroke-linecap="round" stroke-linejoin="round"></path>
                        </g>
                        <g id="Group" transform="translate(15.312500, 27.890625)" stroke="#FFFFFF" stroke-linecap="round" stroke-linejoin="round">
                            <g id="Path">
                                <line x1="10.7734375" y1="0.9296875" x2="11.3203125" y2="0.9296875"></line>
                                <path d="M0.4375,0.9296875 C1.3125,0.0546875 2.6796875,0.0546875 3.5546875,0.9296875"></path>
                                <path d="M3.5,0.9296875 C4.375,0.0546875 5.7421875,0.0546875 6.6171875,0.9296875"></path>
                                <path d="M6.6171875,0.9296875 C7.4921875,0.0546875 8.859375,0.0546875 9.734375,0.9296875"></path>
                            </g>
                            <g transform="translate(6.562500, 3.281250)" id="Path">
                                <line x1="0.1640625" y1="0.984375" x2="0.7109375" y2="0.984375"></line>
                                <g transform="translate(1.640625, 0.000000)">
                                    <path d="M0.1640625,0.984375 C1.0390625,0.109375 2.40625,0.109375 3.28125,0.984375"></path>
                                    <path d="M3.2265625,0.984375 C4.1015625,0.109375 5.46875,0.109375 6.34375,0.984375"></path>
                                    <path d="M6.34375,0.984375 C7.21875,0.109375 8.5859375,0.109375 9.4609375,0.984375"></path>
                                </g>
                            </g>
                        </g>
                        <g id="Group" transform="translate(4.921875, 0.000000)" stroke-linecap="round" stroke-linejoin="round">
                            <path d="M5.0859375,34.125 L5.0859375,34.125 C5.796875,33.4140625 5.9609375,32.3203125 5.46875,31.4453125 L3.609375,28.2734375 L1.75,31.4453125 C1.2578125,32.3203125 1.3671875,33.4140625 2.1328125,34.125 L2.1328125,34.125 C2.8984375,34.9453125 4.2109375,34.9453125 5.0859375,34.125 Z" id="Path" stroke="#FFFFFF" fill="#40C4FF" fill-rule="nonzero"></path>
                            <g id="Path">
                                <g transform="translate(1.093750, 11.484375)" stroke="#FFFFFF">
                                    <path d="M0.2734375,13.671875 L0.2734375,14.21875 C0.2734375,14.984375 0.875,15.5859375 1.640625,15.5859375 L3.28125,15.5859375 C4.046875,15.5859375 4.6484375,14.984375 4.6484375,14.21875 L4.6484375,13.671875"></path>
                                    <path d="M12.8515625,4.6484375 L7.9296875,4.6484375 C6.125,4.6484375 4.6484375,6.125 4.6484375,7.9296875 L4.6484375,9.296875"></path>
                                    <path d="M27.0703125,0.2734375 L27.34375,0.2734375 C28.109375,0.2734375 28.7109375,0.875 28.7109375,1.640625 L28.7109375,3.28125 C28.7109375,4.046875 28.109375,4.6484375 27.34375,4.6484375 L27.0703125,4.6484375"></path>
                                    <path d="M0.2734375,9.296875 L0.2734375,7.9296875 C0.2734375,3.71875 3.71875,0.2734375 7.9296875,0.2734375 L12.8515625,0.2734375"></path>
                                </g>
                                <path d="M25.703125,3.5546875 L18.59375,3.5546875 C17.828125,3.5546875 17.2265625,2.953125 17.2265625,2.1875 L17.2265625,1.640625 C17.2265625,0.875 17.828125,0.2734375 18.59375,0.2734375 L25.703125,0.2734375 C26.46875,0.2734375 27.0703125,0.875 27.0703125,1.640625 L27.0703125,2.1875 C27.0703125,2.953125 26.46875,3.5546875 25.703125,3.5546875 Z" stroke="#FFFFFF"></path>
                                <line x1="23.2421875" y1="3.5546875" x2="23.2421875" y2="5.7421875" stroke="#FFFFFF"></line>
                                <line x1="21.0546875" y1="5.7421875" x2="21.0546875" y2="3.5546875" stroke="#FFFFFF"></line>
                                <path d="M24.8828125,9.0234375 L19.4140625,9.0234375 L19.4140625,8.203125 C19.4140625,7.4375 20.015625,6.8359375 20.78125,6.8359375 L23.515625,6.8359375 C24.28125,6.8359375 24.8828125,7.4375 24.8828125,8.203125 L24.8828125,9.0234375 Z" stroke="#FFFFFF"></path>
                                <path d="M25.703125,18.8671875 L18.59375,18.8671875 C17.828125,18.8671875 17.2265625,18.265625 17.2265625,17.5 L17.2265625,10.390625 C17.2265625,9.625 17.828125,9.0234375 18.59375,9.0234375 L25.703125,9.0234375 C26.46875,9.0234375 27.0703125,9.625 27.0703125,10.390625 L27.0703125,17.5 C27.0703125,18.265625 26.46875,18.8671875 25.703125,18.8671875 Z" stroke="#FFFFFF" fill="#40C4FF" fill-rule="nonzero"></path>
                                <path d="M25.4296875,14.4921875 L25.4296875,16.6796875 C25.4296875,17.0078125 25.2109375,17.2265625 24.8828125,17.2265625 L22.6953125,17.2265625" stroke="#263238"></path>
                                <path d="M16.40625,17.2265625 L17.2265625,17.2265625 L17.2265625,10.6640625 L16.40625,10.6640625 C15.640625,10.6640625 15.0390625,11.265625 15.0390625,12.03125 L15.0390625,15.859375 C15.0390625,16.625 15.640625,17.2265625 16.40625,17.2265625 Z" stroke="#FFFFFF"></path>
                                <path d="M0.2734375,22.96875 L0.2734375,22.96875 C0.2734375,23.5703125 0.765625,24.0625 1.3671875,24.0625 L5.7421875,24.0625 C6.34375,24.0625 6.8359375,23.5703125 6.8359375,22.96875 L6.8359375,22.96875 C6.8359375,22.3671875 6.34375,21.875 5.7421875,21.875 L1.3671875,21.875 C0.765625,21.875 0.2734375,22.3671875 0.2734375,22.96875 Z" stroke="#FFFFFF"></path>
                                <path d="M24.3359375,12.8515625 L19.9609375,12.8515625 C19.6328125,12.8515625 19.4140625,12.6328125 19.4140625,12.3046875 L19.4140625,11.2109375 C19.4140625,10.8828125 19.6328125,10.6640625 19.9609375,10.6640625 L24.3359375,10.6640625 C24.6640625,10.6640625 24.8828125,10.8828125 24.8828125,11.2109375 L24.8828125,12.3046875 C24.8828125,12.6328125 24.6640625,12.8515625 24.3359375,12.8515625 Z" stroke="#263238" fill="#FFFFFF" fill-rule="nonzero"></path>
                            </g>
                        </g>
                        <g id="Group" transform="translate(28.437500, 19.687500)" stroke="#FFFFFF" stroke-linecap="round" stroke-linejoin="round">
                            <g transform="translate(3.828125, 0.000000)" id="Path">
                                <line x1="2.4609375" y1="1.3671875" x2="0.2734375" y2="1.3671875"></line>
                                <line x1="1.3671875" y1="0.2734375" x2="1.3671875" y2="2.4609375"></line>
                            </g>
                            <g transform="translate(0.000000, 3.828125)" id="Path">
                                <line x1="2.4609375" y1="1.09375" x2="0.2734375" y2="1.09375"></line>
                                <line x1="1.3671875" y1="0" x2="1.3671875" y2="2.1875"></line>
                            </g>
                        </g>
                    </g>
                </g>
            </g>
        </g>
    </g>
</svg>