<?xml version="1.0" encoding="UTF-8"?>
<svg width="34px" height="36px" viewBox="0 0 34 36" version="1.1" xmlns="http://www.w3.org/2000/svg" xmlns:xlink="http://www.w3.org/1999/xlink">
    <title>wifi@3x</title>
    <g id="5.-Pages" stroke="none" stroke-width="1" fill="none" fill-rule="evenodd">
        <g id="5.4-Waiting-bills" transform="translate(-90.000000, -487.000000)">
            <g id="List-of-Bills" transform="translate(32.000000, 250.000000)">
                <g id="3rd-Envato-Subscraption" transform="translate(0.000000, 212.000000)">
                    <g id="Group" transform="translate(59.000000, 25.000000)">
                        <g transform="translate(5.645161, 14.677419)" stroke="#263238" stroke-linecap="round" stroke-linejoin="round">
                            <g transform="translate(0.000000, 1.693548)" id="Path">
                                <line x1="8.18548387" y1="0.5" x2="8.75" y2="0.5"></line>
                                <line x1="0.282258065" y1="0.5" x2="7.05645161" y2="0.5"></line>
                            </g>
                            <g id="Path">
                                <line x1="0.846774194" y1="0.5" x2="0.282258065" y2="0.5"></line>
                                <line x1="8.75" y1="0.5" x2="1.97580645" y2="0.5"></line>
                            </g>
                        </g>
                        <g transform="translate(14.677419, 0.000000)">
                            <circle id="Oval" fill="#FFD740" fill-rule="nonzero" cx="8.46774194" cy="8.46774194" r="8.46774194"></circle>
                            <path d="M4.06451613,6.88709677 C6.49193548,4.45967742 10.4435484,4.45967742 12.8709677,6.88709677" id="Path" stroke="#263238" stroke-linecap="round" stroke-linejoin="round"></path>
                            <path d="M5.7016129,8.52419355 C7.22580645,7 9.76612903,7 11.2903226,8.52419355" id="Path" stroke="#263238" stroke-linecap="round" stroke-linejoin="round"></path>
                            <path d="M7.28225806,10.1048387 C7.95967742,9.42741935 9.03225806,9.42741935 9.65322581,10.1048387" id="Path" stroke="#263238" stroke-linecap="round" stroke-linejoin="round"></path>
                        </g>
                        <g transform="translate(0.000000, 11.854839)" stroke="#263238" stroke-linecap="round" stroke-linejoin="round">
                            <path d="M28.7903226,20.3225806 L2.82258065,20.3225806 C1.24193548,20.3225806 0,19.0806452 0,17.5 L0,11.8548387 C0,10.2741935 1.24193548,9.03225806 2.82258065,9.03225806 L28.7903226,9.03225806 C30.3709677,9.03225806 31.6129032,10.2741935 31.6129032,11.8548387 L31.6129032,17.5 C31.6129032,19.0806452 30.3709677,20.3225806 28.7903226,20.3225806 Z" id="Path"></path>
                            <circle id="Oval" cx="21.1693548" cy="14.9596774" r="1.12903226"></circle>
                            <circle id="Oval" cx="25.1209677" cy="14.9596774" r="1.12903226"></circle>
                            <path d="M15.5241935,16.0887097 L4.7983871,16.0887097 C4.45967742,16.0887097 4.23387097,15.8629032 4.23387097,15.5241935 L4.23387097,14.3951613 C4.23387097,14.0564516 4.45967742,13.8306452 4.7983871,13.8306452 L15.5241935,13.8306452 C15.8629032,13.8306452 16.0887097,14.0564516 16.0887097,14.3951613 L16.0887097,15.5241935 C16.0887097,15.8629032 15.8629032,16.0887097 15.5241935,16.0887097 Z" id="Path" fill="#40C4FF" fill-rule="nonzero"></path>
                            <path d="M22.2983871,7.90322581 L22.2983871,0.846774194 C22.2983871,0.39516129 22.6935484,0 23.1451613,0 C23.5967742,0 23.9919355,0.39516129 23.9919355,0.846774194 L23.9919355,7.90322581" id="Path"></path>
                            <path d="M7.90322581,21.4516129 L7.90322581,22.5806452 C7.90322581,22.9193548 7.67741935,23.1451613 7.33870968,23.1451613 L3.9516129,23.1451613 C3.61290323,23.1451613 3.38709677,22.9193548 3.38709677,22.5806452 L3.38709677,21.4516129" id="Path"></path>
                            <path d="M28.2258065,21.4516129 L28.2258065,22.5806452 C28.2258065,22.9193548 28,23.1451613 27.6612903,23.1451613 L24.2741935,23.1451613 C23.9354839,23.1451613 23.7096774,22.9193548 23.7096774,22.5806452 L23.7096774,21.4516129" id="Path"></path>
                            <path d="M27.0967742,10.7258065 L28.5080645,10.7258065 C29.2983871,10.7258065 29.9193548,11.3467742 29.9193548,12.1370968 L29.9193548,13.5483871" id="Path"></path>
                        </g>
                    </g>
                </g>
            </g>
        </g>
    </g>
</svg>