<?xml version="1.0" encoding="UTF-8"?>
<svg width="310px" height="194px" viewBox="0 0 310 194" version="1.1" xmlns="http://www.w3.org/2000/svg" xmlns:xlink="http://www.w3.org/1999/xlink">
    <title>1st Visa Card@3x</title>
    <defs>
        <rect id="path-1" x="0" y="0" width="310" height="190" rx="14"></rect>
        <linearGradient x1="-3.71222449e-13%" y1="1.26318889e-14%" x2="7.07755102e-15%" y2="100%" id="linearGradient-3">
            <stop stop-color="#FFFFFF" stop-opacity="0.101961" offset="0%"></stop>
            <stop stop-color="#FFFFFF" stop-opacity="0" offset="100%"></stop>
        </linearGradient>
        <linearGradient x1="-39.3442623%" y1="1.26318889e-14%" x2="-39.3442623%" y2="100%" id="linearGradient-4">
            <stop stop-color="#FFFFFF" stop-opacity="0.101961" offset="0%"></stop>
            <stop stop-color="#FFFFFF" stop-opacity="0" offset="100%"></stop>
        </linearGradient>
        <linearGradient x1="-36.5853659%" y1="1.26318889e-14%" x2="-36.5853659%" y2="100%" id="linearGradient-5">
            <stop stop-color="#FFFFFF" stop-opacity="0.101961" offset="0%"></stop>
            <stop stop-color="#FFFFFF" stop-opacity="0" offset="100%"></stop>
        </linearGradient>
        <linearGradient x1="-182.352941%" y1="1.26318889e-14%" x2="-182.352941%" y2="100%" id="linearGradient-6">
            <stop stop-color="#FFFFFF" stop-opacity="0.101961" offset="0%"></stop>
            <stop stop-color="#FFFFFF" stop-opacity="0" offset="100%"></stop>
        </linearGradient>
        <linearGradient x1="-269.230769%" y1="1.26318889e-14%" x2="-269.230769%" y2="100%" id="linearGradient-7">
            <stop stop-color="#FFFFFF" stop-opacity="0.101961" offset="0%"></stop>
            <stop stop-color="#FFFFFF" stop-opacity="0" offset="100%"></stop>
        </linearGradient>
        <linearGradient x1="100%" y1="73.1615927%" x2="0%" y2="26.8384073%" id="linearGradient-8">
            <stop stop-color="#DBDBDB" offset="0%"></stop>
            <stop stop-color="#FAFAFA" offset="37.8928829%"></stop>
            <stop stop-color="#DEDEDE" offset="100%"></stop>
        </linearGradient>
        <rect id="path-9" x="0" y="0" width="51.1551155" height="34.8167539" rx="8"></rect>
        <linearGradient x1="80.8394329%" y1="100%" x2="19.1595587%" y2="0%" id="linearGradient-11">
            <stop stop-color="#DBDBDB" offset="0%"></stop>
            <stop stop-color="#FAFAFA" offset="37.9944906%"></stop>
            <stop stop-color="#DEDEDE" offset="100%"></stop>
        </linearGradient>
        <rect id="path-12" x="0" y="0" width="51.1551155" height="34.8167539" rx="8"></rect>
    </defs>
    <g id="5.-Pages" stroke="none" stroke-width="1" fill="none" fill-rule="evenodd">
        <g id="5.2-My-Cards" transform="translate(-32.000000, -277.000000)">
            <g id="Cards" transform="translate(31.000000, 277.000000)">
                <g id="1st-Visa-Card" transform="translate(1.000000, -0.000000)">
                    <g id="card" transform="translate(-0.000000, 0.000000)">
                        <mask id="mask-2" fill="white">
                            <use xlink:href="#path-1"></use>
                        </mask>
                        <use id="BG" fill="#000000" xlink:href="#path-1"></use>
                        <g id="Shape" mask="url(#mask-2)">
                            <polygon id="Path" fill="url(#linearGradient-3)" points="0 0 40.9027778 0 105.486111 190 21.5277778 190 0 126.666667"></polygon>
                            <polygon id="Path" fill="url(#linearGradient-4)" points="118.402778 0 51.6666667 0 116.25 190 182.986111 190"></polygon>
                            <polygon id="Path" fill="url(#linearGradient-5)" points="176.527778 0 64.5833333 0 129.166667 190 241.111111 190"></polygon>
                            <polygon id="Path" fill="url(#linearGradient-6)" points="264.791667 0 200.208333 0 264.791667 190 310 190 310 133"></polygon>
                            <polygon id="Path" fill="url(#linearGradient-7)" points="310 88.6666667 310 190 290.625 190 226.041667 0 279.861111 0"></polygon>
                        </g>
                        <g id="Chip" mask="url(#mask-2)">
                            <g transform="translate(236.336634, 129.319372)">
                                <mask id="mask-10" fill="white">
                                    <use xlink:href="#path-9"></use>
                                </mask>
                                <use id="BG" stroke="none" fill="url(#linearGradient-8)" fill-rule="evenodd" xlink:href="#path-9"></use>
                                <g id="Grid" opacity="0.5" stroke="none" stroke-width="1" fill="none" fill-rule="evenodd" mask="url(#mask-10)">
                                    <path d="M51.4051155,13.6767016 L51.4051155,21.1400524 L-0.25,21.1400524 L-0.25,13.6767016 L51.4051155,13.6767016 Z" id="4" stroke="#A2A2A2" stroke-width="0.5"></path>
                                    <path d="M31.2620008,-0.252646932 C31.5667643,1.25331265 33.1354314,9.33086714 33.1354314,17.408377 C33.1354314,26.1382369 31.3031315,34.8681087 31.3031315,34.8681087 L31.3031315,34.8681087 L19.8949482,35.0667539 C19.851984,34.8681087 18.0196841,26.1382369 18.0196841,17.408377 C18.0196841,9.33070939 19.5884148,1.25300302 19.8225852,0.0923641013 L19.8225852,0.0923641013 Z" id="3" stroke="#A2A2A2" stroke-width="0.5" fill="url(#linearGradient-11)"></path>
                                    <path d="M51.4051155,6.71335079 L51.4051155,28.1034031 L-0.25,28.1034031 L-0.25,6.71335079 L51.4051155,6.71335079 Z" id="2" stroke="#A2A2A2" stroke-width="0.5"></path>
                                    <mask id="mask-13" fill="white">
                                        <use xlink:href="#path-12"></use>
                                    </mask>
                                    <use id="1" stroke="#A2A2A2" xlink:href="#path-12"></use>
                                </g>
                            </g>
                        </g>
                    </g>
                    <g id="Card-number" transform="translate(30.286530, 67.701572)" fill="#FFFFFF">
                        <text id="8156-9624-0018-1395" font-family="Roboto-Regular, Roboto" font-size="17" font-weight="normal" line-spacing="24" letter-spacing="2">
                            <tspan x="-4.54747351e-13" y="35.8467631">8156  9624  0018  1395</tspan>
                        </text>
                        <text id="CARD-NUMBER" opacity="0.300000012" font-family="Roboto-Medium, Roboto" font-size="11" font-weight="400" line-spacing="20" letter-spacing="1">
                            <tspan x="0" y="12">CARD NUMBER</tspan>
                        </text>
                    </g>
                    <g id="Expire-Date" transform="translate(30.286530, 124.556380)" fill="#FFFFFF">
                        <text id="08/20" font-family="Roboto-Regular, Roboto" font-size="17" font-weight="normal" line-spacing="24" letter-spacing="2">
                            <tspan x="0" y="35.8467631">08/2</tspan>
                            <tspan x="43.7763672" y="35.8467631">0</tspan>
                        </text>
                        <text id="EXPIRE-DATE" opacity="0.300000012" font-family="Roboto-Medium, Roboto" font-size="11" font-weight="400" line-spacing="20" letter-spacing="1">
                            <tspan x="0" y="12">EXPIRE DATE</tspan>
                        </text>
                    </g>
                    <g id="CVV" transform="translate(166.575914, 124.556380)" fill="#FFFFFF">
                        <text id="031" font-family="Roboto-Regular, Roboto" font-size="17" font-weight="normal" line-spacing="24" letter-spacing="2">
                            <tspan x="0" y="35.8467631">03</tspan>
                            <tspan x="23.1499023" y="35.8467631">1</tspan>
                        </text>
                        <text opacity="0.300000012" font-family="Roboto-Medium, Roboto" font-size="11" font-weight="400" line-spacing="20" letter-spacing="1">
                            <tspan x="0" y="12">CVV</tspan>
                        </text>
                    </g>
                    <g id="logo-Visa" transform="translate(30.286530, 22.741923)">
                        <path d="M70.6664237,0.558744662 L75.5966782,24.0819949 L69.9417114,24.0819949 L69.2200147,20.5885913 L61.3899061,20.5885913 L60.1063311,24.0819949 L53.6874514,24.0819949 L62.8714953,2.31094393 L62.8714953,2.31094393 L62.8798393,2.28709178 C62.956664,2.07759516 63.5870572,0.558744662 65.7160662,0.558744662 L65.7160662,0.558744662 L70.6664237,0.558744662 Z M66.4005725,6.95682084 L63.1649987,15.7617971 L68.221902,15.7617971 L66.4005725,6.95682084 Z" id="a" fill="#FFFFFF"></path>
                        <path d="M54.1679125,6.21515977 L55.0474176,1.16346831 C55.0474176,1.16346831 52.3345212,0.137936965 49.508043,0.137936965 C46.4513857,0.137936965 39.1932067,1.46632991 39.1932067,7.92537822 C39.1932067,14.0036006 47.7128473,14.0795659 47.7128473,17.2691083 C47.7128473,20.4606498 40.0717067,19.8909102 37.5487834,17.8778301 L36.6340981,23.158417 C36.6340981,23.158417 39.3831798,24.4878094 43.5867118,24.4878094 C47.7882335,24.4878094 54.130722,22.3227988 54.130722,16.4344897 C54.130722,10.3182847 45.5346901,9.74754552 45.5346901,7.08876055 C45.5346901,4.42897603 51.5334177,4.77081981 54.1679125,6.21515977" id="s" fill="#FFFFFF"></path>
                        <polyline id="i" fill="#FFFFFF" points="32.8386565 24.0819949 26.6801102 24.0819949 30.5288247 0.558744662 36.6893813 0.558744662 32.8386565 24.0819949"></polyline>
                        <path d="M28.1275244,0.558744662 L18.3283295,24.0819949 L11.91146,24.0819949 L6.56205845,3.64533414 C4.61311921,2.48148277 2.82354684,1.77734371 1.62749906,1.38336119 C3.36471987,1.95423121 6.35260338,3.17974436 9.25987764,5.51947768 C13.2870947,8.76129034 14.7580481,12.753044 14.9171665,13.2114448 L14.9303138,13.2500321 L14.9303138,13.2500321 L14.9319319,13.2539432 L15.6274948,16.7383508 L21.4985685,0.558744662 L28.1275244,0.558744662 Z" id="v" fill="#FFFFFF"></path>
                        <path d="M14.9319319,13.2549427 L12.8593152,2.67677675 C12.8593152,2.67677675 12.6100383,0.558744662 9.93835303,0.558744662 L0.231631769,0.558744662 L0.118049963,0.956562865 C0.119055111,0.956562865 4.7849555,1.91812345 9.25987764,5.51947768 C13.5387958,8.96390363 14.9319319,13.2549427 14.9319319,13.2549427" id="shape" fill="#F9A533"></path>
                    </g>
                </g>
            </g>
        </g>
    </g>
</svg>