<?xml version="1.0" encoding="UTF-8"?>
<svg width="311px" height="191px" viewBox="0 0 311 191" version="1.1" xmlns="http://www.w3.org/2000/svg" xmlns:xlink="http://www.w3.org/1999/xlink">
    <title>2nd Master Card@3x</title>
    <defs>
        <rect id="path-1" x="0" y="0" width="310" height="190" rx="14"></rect>
        <linearGradient x1="-3.71222449e-13%" y1="1.26318889e-14%" x2="7.07755102e-15%" y2="100%" id="linearGradient-3">
            <stop stop-color="#FFFFFF" stop-opacity="0.101961" offset="0%"></stop>
            <stop stop-color="#FFFFFF" stop-opacity="0" offset="100%"></stop>
        </linearGradient>
        <linearGradient x1="-39.3442623%" y1="1.26318889e-14%" x2="-39.3442623%" y2="100%" id="linearGradient-4">
            <stop stop-color="#FFFFFF" stop-opacity="0.101961" offset="0%"></stop>
            <stop stop-color="#FFFFFF" stop-opacity="0" offset="100%"></stop>
        </linearGradient>
        <linearGradient x1="-36.5853659%" y1="1.26318889e-14%" x2="-36.5853659%" y2="100%" id="linearGradient-5">
            <stop stop-color="#FFFFFF" stop-opacity="0.101961" offset="0%"></stop>
            <stop stop-color="#FFFFFF" stop-opacity="0" offset="100%"></stop>
        </linearGradient>
        <linearGradient x1="-182.352941%" y1="1.26318889e-14%" x2="-182.352941%" y2="100%" id="linearGradient-6">
            <stop stop-color="#FFFFFF" stop-opacity="0.101961" offset="0%"></stop>
            <stop stop-color="#FFFFFF" stop-opacity="0" offset="100%"></stop>
        </linearGradient>
        <linearGradient x1="-269.230769%" y1="1.26318889e-14%" x2="-269.230769%" y2="100%" id="linearGradient-7">
            <stop stop-color="#FFFFFF" stop-opacity="0.101961" offset="0%"></stop>
            <stop stop-color="#FFFFFF" stop-opacity="0" offset="100%"></stop>
        </linearGradient>
        <linearGradient x1="100%" y1="73.1615927%" x2="0%" y2="26.8384073%" id="linearGradient-8">
            <stop stop-color="#DBDBDB" offset="0%"></stop>
            <stop stop-color="#FAFAFA" offset="37.8928829%"></stop>
            <stop stop-color="#DEDEDE" offset="100%"></stop>
        </linearGradient>
        <rect id="path-9" x="0" y="0" width="51.1551155" height="34.8167539" rx="8"></rect>
        <linearGradient x1="80.8394329%" y1="100%" x2="19.1595587%" y2="0%" id="linearGradient-11">
            <stop stop-color="#DBDBDB" offset="0%"></stop>
            <stop stop-color="#FAFAFA" offset="37.9944906%"></stop>
            <stop stop-color="#DEDEDE" offset="100%"></stop>
        </linearGradient>
        <rect id="path-12" x="0" y="0" width="51.1551155" height="34.8167539" rx="8"></rect>
    </defs>
    <g id="5.-Pages" stroke="none" stroke-width="1" fill="none" fill-rule="evenodd">
        <g id="5.2-My-Cards" transform="translate(-32.000000, -486.000000)">
            <g id="Cards" transform="translate(31.000000, 277.000000)">
                <g id="2nd-Master-Card" transform="translate(1.437178, 209.490000)">
                    <g id="card" transform="translate(0.002822, 0.000000)">
                        <mask id="mask-2" fill="white">
                            <use xlink:href="#path-1"></use>
                        </mask>
                        <use id="BG" fill="#000000" xlink:href="#path-1"></use>
                        <g id="Shape" mask="url(#mask-2)">
                            <polygon id="Path" fill="url(#linearGradient-3)" points="0 0 40.9027778 0 105.486111 190 21.5277778 190 0 126.666667"></polygon>
                            <polygon id="Path" fill="url(#linearGradient-4)" points="118.402778 0 51.6666667 0 116.25 190 182.986111 190"></polygon>
                            <polygon id="Path" fill="url(#linearGradient-5)" points="176.527778 0 64.5833333 0 129.166667 190 241.111111 190"></polygon>
                            <polygon id="Path" fill="url(#linearGradient-6)" points="264.791667 0 200.208333 0 264.791667 190 310 190 310 133"></polygon>
                            <polygon id="Path" fill="url(#linearGradient-7)" points="310 88.6666667 310 190 290.625 190 226.041667 0 279.861111 0"></polygon>
                        </g>
                        <g id="Chip" mask="url(#mask-2)">
                            <g transform="translate(236.336634, 129.319372)">
                                <mask id="mask-10" fill="white">
                                    <use xlink:href="#path-9"></use>
                                </mask>
                                <use id="BG" stroke="none" fill="url(#linearGradient-8)" fill-rule="evenodd" xlink:href="#path-9"></use>
                                <g id="Grid" opacity="0.5" stroke="none" stroke-width="1" fill="none" fill-rule="evenodd" mask="url(#mask-10)">
                                    <path d="M51.4051155,13.6767016 L51.4051155,21.1400524 L-0.25,21.1400524 L-0.25,13.6767016 L51.4051155,13.6767016 Z" id="4" stroke="#A2A2A2" stroke-width="0.5"></path>
                                    <path d="M31.2620008,-0.252646932 C31.5667643,1.25331265 33.1354314,9.33086714 33.1354314,17.408377 C33.1354314,26.1382369 31.3031315,34.8681087 31.3031315,34.8681087 L31.3031315,34.8681087 L19.8949482,35.0667539 C19.851984,34.8681087 18.0196841,26.1382369 18.0196841,17.408377 C18.0196841,9.33070939 19.5884148,1.25300302 19.8225852,0.0923641013 L19.8225852,0.0923641013 Z" id="3" stroke="#A2A2A2" stroke-width="0.5" fill="url(#linearGradient-11)"></path>
                                    <path d="M51.4051155,6.71335079 L51.4051155,28.1034031 L-0.25,28.1034031 L-0.25,6.71335079 L51.4051155,6.71335079 Z" id="2" stroke="#A2A2A2" stroke-width="0.5"></path>
                                    <mask id="mask-13" fill="white">
                                        <use xlink:href="#path-12"></use>
                                    </mask>
                                    <use id="1" stroke="#A2A2A2" xlink:href="#path-12"></use>
                                </g>
                            </g>
                        </g>
                    </g>
                    <g id="Card-number" transform="translate(30.358876, 67.645701)" fill="#FFFFFF">
                        <text id="8156-9624-0020-4365" font-family="IBMPlexSans, IBM Plex Sans" font-size="17" font-weight="normal" line-spacing="24" letter-spacing="2">
                            <tspan x="0" y="36.447893">8156  9624  0020  4365</tspan>
                        </text>
                        <text id="CARD-NUMBER" opacity="0.300000012" font-family="IBMPlexSans-Medium, IBM Plex Sans" font-size="11" font-weight="400" line-spacing="20" letter-spacing="1">
                            <tspan x="0" y="11.6002941">CARD NUMBER</tspan>
                        </text>
                    </g>
                    <g id="Expire-Date" transform="translate(30.358876, 125.435701)" fill="#FFFFFF">
                        <text id="08/22" font-family="IBMPlexSans, IBM Plex Sans" font-size="17" font-weight="normal" line-spacing="24" letter-spacing="2">
                            <tspan x="0.20394641" y="35.0742995">08/2</tspan>
                            <tspan x="45.3149464" y="35.0742995">2</tspan>
                        </text>
                        <text id="EXPIRE-DATE" opacity="0.300000012" font-family="IBMPlexSans-Medium, IBM Plex Sans" font-size="11" font-weight="400" line-spacing="20" letter-spacing="1">
                            <tspan x="0.20394641" y="11.0742995">EXPIRE DATE</tspan>
                        </text>
                    </g>
                    <g id="CVV" transform="translate(165.648260, 125.435701)" fill="#FFFFFF">
                        <text id="435" font-family="IBMPlexSans, IBM Plex Sans" font-size="17" font-weight="normal" line-spacing="24" letter-spacing="2">
                            <tspan x="0.9145624" y="35.0742995">435</tspan>
                        </text>
                        <text opacity="0.300000012" font-family="IBMPlexSans-Medium, IBM Plex Sans" font-size="11" font-weight="400" line-spacing="20" letter-spacing="1">
                            <tspan x="0.9145624" y="11.0742995">CVV</tspan>
                        </text>
                    </g>
                    <g id="Group" transform="translate(28.562822, 20.510000)" fill-rule="nonzero">
                        <g id="mastercard">
                            <path d="M28.9081667,27.8921429 C31.8024948,30.5685633 35.593774,32.0512724 39.527,32.0450198 C48.1617052,31.8060989 55.0380323,24.7030288 55.0380323,16.0225 C55.0380323,7.34197123 48.1617052,0.238901064 39.527,-1.98195844e-05 C35.593774,-0.00627236098 31.8024948,1.47643673 28.9081667,4.15285714 C25.5767369,7.19098521 23.676933,11.5016306 23.676933,16.0225 C23.676933,20.5433694 25.5767369,24.8540148 28.9081667,27.8921429 L28.9081667,27.8921429 Z" id="Path_15" fill="#E9B040"></path>
                            <path d="M53.2705833,24.9414286 C53.2705833,24.673176 53.486979,24.4557143 53.7539167,24.4557143 C53.8873714,24.4491282 54.0178152,24.4969934 54.1156468,24.5884478 C54.2134783,24.6799022 54.2704019,24.8071909 54.2735,24.9414286 C54.2782694,25.0813238 54.2250608,25.2169358 54.1265671,25.3159147 C54.0280734,25.4148936 53.8931261,25.4683643 53.7539167,25.4635714 C53.620337,25.4604581 53.4936723,25.4032541 53.4026662,25.3049406 C53.3116601,25.2066271 53.2640296,25.0755407 53.2705833,24.9414286 Z M53.7539167,25.3567143 C53.9786631,25.3515793 54.1596402,25.1697107 54.16475,24.9438571 C54.1609739,24.838201 54.1155505,24.7383887 54.0384885,24.6664135 C53.9614265,24.5944384 53.8590498,24.5562068 53.7539167,24.5601429 C53.5451821,24.5652613 53.3771767,24.7340943 53.3720833,24.9438571 C53.3712645,25.1623832 53.5372791,25.3450541 53.7539167,25.364 L53.7539167,25.3567143 Z M53.70075,25.1891429 L53.592,25.1891429 L53.592,24.7228571 L53.7829167,24.7228571 C53.8211607,24.7186965 53.8596453,24.7281502 53.8916667,24.7495714 C53.94725,24.7762857 53.94725,24.8054286 53.94725,24.8588571 C53.94725,24.9122857 53.9206667,24.9681429 53.8650833,24.9681429 L53.9738333,25.1867143 L53.8360833,25.1867143 L53.7829167,24.9948571 L53.70075,24.9948571 L53.70075,24.9122857 L53.8095,24.9122857 C53.8360833,24.9122857 53.8360833,24.8855714 53.8360833,24.8564286 C53.8360833,24.8272857 53.8360833,24.8297143 53.8095,24.8005714 L53.70075,24.8005714 L53.70075,25.1891429 Z" id="Path_16" fill="#E9B040"></path>
                            <path d="M34.0290833,14.331 C33.9735,13.7554286 33.86475,13.2017143 33.756,12.631 L24.0675833,12.631 C24.184345,12.0643779 24.3303477,11.5042407 24.505,10.9528571 L33.2895833,10.9528571 C33.0978611,10.3732381 32.8795556,9.80657143 32.6346667,9.25285714 L25.1865,9.25285714 C25.4595833,8.67242857 25.7616667,8.10171429 26.0903333,7.55285714 L31.7018333,7.55285714 C31.3401749,6.9647087 30.9363266,6.40384099 30.4935,5.87471429 L27.29625,5.87471429 C27.7911581,5.26814988 28.3307934,4.69987819 28.9105833,4.17471429 C23.6358187,-0.578787484 15.867653,-1.25126971 9.8616392,2.52566652 C3.85562541,6.30260276 1.06123655,13.6174432 3.00929349,20.4629753 C4.95735042,27.3085073 11.1777151,32.0326512 18.26275,32.0474561 C22.2048292,32.0548272 26.005576,30.5724638 28.9105833,27.8945714 C29.4817678,27.3768258 30.0125759,26.815798 30.4983333,26.2164286 L27.29625,26.2164286 C26.8628281,25.6724028 26.4594438,25.1048827 26.0879167,24.5164286 L31.6994167,24.5164286 C32.0513056,23.9738702 32.3623123,23.4056179 32.6298333,22.8164286 L25.1865,22.8164286 C24.9448333,22.2675714 24.7031667,21.7162857 24.5001667,21.1382857 L33.2871667,21.1382857 C33.4704704,20.5799081 33.6253379,20.0125056 33.7511667,19.4382857 C33.8707586,18.8766274 33.9619037,18.3092307 34.02425,17.7382857 C34.0798333,17.1821429 34.1066012,16.6211429 34.1066012,16.0601429 C34.1091017,15.4884311 34.0824831,14.9169599 34.0266667,14.348 L34.0290833,14.331 Z" id="Path_17" fill="#CC2131"></path>
                            <path d="M53.2705833,19.7491429 C53.2647019,19.6152068 53.3125601,19.4845025 53.4034257,19.3863408 C53.4942913,19.2881791 53.6205603,19.2307745 53.7539167,19.227 C53.8931261,19.2222071 54.0280734,19.2756778 54.1265671,19.3746567 C54.2250608,19.4736356 54.2782694,19.6092477 54.2735,19.7491429 C54.2735,20.0375144 54.0408746,20.2712857 53.7539167,20.2712857 C53.4795231,20.2556868 53.2662555,20.0252947 53.2705833,19.7491429 L53.2705833,19.7491429 Z M53.7539167,20.1352857 C53.9005903,20.1518953 54.0437675,20.0826067 54.122297,19.9570133 C54.2008266,19.8314199 54.2008266,19.671723 54.122297,19.5461296 C54.0437675,19.4205361 53.9005903,19.3512476 53.7539167,19.3678571 C53.5430359,19.3678571 53.3720833,19.5396519 53.3720833,19.7515714 C53.3720833,19.963491 53.5430359,20.1352857 53.7539167,20.1352857 Z M53.70075,19.9677143 L53.592,19.9677143 L53.592,19.5281429 L53.8916667,19.5281429 C53.94725,19.5548571 53.94725,19.6107143 53.94725,19.6641429 C53.9392699,19.7118725 53.9085923,19.7526752 53.8650833,19.7734286 L53.9738333,19.9652857 L53.8360833,19.9652857 L53.7829167,19.8001429 L53.70075,19.8001429 L53.70075,19.7127143 L53.7539167,19.7127143 C53.7805,19.7127143 53.8070833,19.7127143 53.8070833,19.686 C53.8070833,19.6592857 53.8336667,19.6592857 53.8336667,19.6301429 C53.8336667,19.615389 53.8217649,19.6034286 53.8070833,19.6034286 C53.8070833,19.5767143 53.7805,19.6034286 53.7539167,19.6034286 L53.70075,19.6034286 L53.70075,19.9677143 Z" id="Path_18" fill="#FFFFFF"></path>
                            <path d="M39.3916667,12.3541429 L39.092,14.1148571 C38.6248097,13.8444431 38.0986719,13.6934966 37.5598333,13.6752857 C36.2741667,13.6752857 35.3703333,14.9405714 35.3703333,16.728 C35.3703333,17.9665714 35.9720833,18.7072857 36.9846667,18.7072857 C37.4928641,18.6817222 37.9886559,18.5405559 38.4346667,18.2944286 L38.135,20.1352857 C37.6461663,20.2833685 37.1398112,20.3650458 36.6294167,20.3781429 C34.7685833,20.3781429 33.61825,19.0302857 33.61825,16.8591429 C33.61825,13.9715714 35.206,11.934 37.4849167,11.934 C37.7514612,11.9298649 38.01755,11.9575832 38.2775833,12.0165714 L38.9639167,12.1817143 C39.1814167,12.2667143 39.237,12.2934286 39.4013333,12.3492857 L39.3916667,12.3541429 Z M33.8623333,13.5684286 L33.698,13.5684286 C33.12525,13.5684286 32.7941667,13.8428571 32.2745833,14.6418571 L32.4389167,13.6242857 L30.87775,13.6242857 L29.8071667,20.2202857 L31.53025,20.2202857 C32.1585833,16.1767143 32.3229167,15.4894286 33.1445833,15.4894286 L33.2533333,15.4894286 C33.3783466,14.8284563 33.5989925,14.1894405 33.90825,13.5927143 L33.8575,13.5635714 L33.8623333,13.5684286 Z M23.954,20.1425714 C23.5592222,20.2879533 23.1419498,20.3619524 22.7215,20.3611429 C22.334006,20.3968636 21.9516839,20.2515731 21.6846706,19.9671258 C21.4176573,19.6826784 21.2956024,19.2906598 21.3536667,18.904 C21.3600554,18.7103488 21.3786202,18.5172971 21.40925,18.326 L21.518,17.6678571 L21.6001667,17.1457143 L22.3396667,12.6358571 L24.0313333,12.6358571 L23.8404167,13.6267143 L24.7321667,13.6267143 L24.5146667,15.249 L23.635,15.249 L23.171,18.0005714 C23.1499366,18.0904364 23.1409954,18.1827399 23.1444167,18.275 C23.1444167,18.6052857 23.30875,18.7412857 23.7171667,18.7412857 C23.8740141,18.7551877 24.0320246,18.7361661 24.1811667,18.6854286 L23.9660833,20.1425714 L23.954,20.1425714 Z M17.3565,15.7128571 C17.3462331,16.5405621 17.8640834,17.2820362 18.6421667,17.5537143 C19.3550833,17.884 19.4638333,17.9932857 19.4638333,18.2701429 C19.4638333,18.683 19.1641667,18.8748571 18.4778333,18.8748571 C17.9578121,18.8724411 17.4411815,18.7905523 16.9456667,18.632 L16.704,20.145 L16.7861667,20.1717143 L17.0858333,20.2275714 C17.2373927,20.2665609 17.3933982,20.2853411 17.5498333,20.2834286 C17.8581905,20.324941 18.1691679,20.3436104 18.48025,20.3392857 C20.2855,20.3392857 21.1385833,19.6495714 21.1385833,18.139 C21.1915353,17.3226755 20.69784,16.5705465 19.93025,16.2981429 C19.19075,15.9678571 19.1085833,15.8852857 19.1085833,15.5817143 C19.1085833,15.2247143 19.40825,15.0595714 19.9568333,15.0595714 C20.3689071,15.0631969 20.7804274,15.0907668 21.1893333,15.1421429 L21.431,13.6291429 C20.933365,13.5446465 20.4300476,13.4983697 19.9254167,13.4907143 C18.009,13.4907143 17.3250833,14.5107143 17.3516667,15.7201429 L17.3565,15.7128571 Z M52.49725,20.2251429 L50.8829167,20.2251429 L50.9650833,19.5912857 C50.5678379,20.055022 49.9861497,20.3174928 49.3773333,20.3077143 C48.11825,20.3077143 47.299,19.2342857 47.299,17.5852857 C47.299,15.385 48.5846667,13.515 50.09025,13.515 C50.7551223,13.5184598 51.3729104,13.8604199 51.7311667,14.4232857 L52.113,12.1112857 L53.8046667,12.1112857 L52.49,20.2251429 L52.49725,20.2251429 Z M49.9790833,18.6854286 C50.7741667,18.6854286 51.3203333,17.7504286 51.3203333,16.456 C51.3203333,15.6035714 51.0206667,15.164 50.4165,15.164 C49.648,15.164 49.07525,16.0722857 49.07525,17.3642857 C49.07525,18.2434286 49.3773333,18.6854286 49.9790833,18.6854286 Z M29.19575,20.0867143 C28.6213148,20.2733371 28.0207719,20.3659942 27.4170833,20.3611429 C26.6115516,20.460747 25.8057984,20.1777476 25.237379,19.5955798 C24.6689597,19.013412 24.4026939,18.1984632 24.5170833,17.391 C24.5170833,15.1348571 25.7761667,13.4567143 27.49925,13.4567143 C28.1376846,13.4169255 28.761721,13.6584507 29.2086609,14.1183195 C29.6556009,14.5781883 29.8811488,15.2108237 29.8265,15.8512857 C29.822869,16.4079273 29.7497991,16.961915 29.609,17.5002857 L26.2256667,17.5002857 C26.2052997,17.5620886 26.196292,17.6270996 26.1990833,17.6921429 C26.1990833,18.4644286 26.7186667,18.8481429 27.7046667,18.8481429 C28.3222694,18.8591301 28.9330872,18.7173494 29.4833333,18.4352857 L29.21025,20.0842857 L29.19575,20.0867143 Z M28.2290833,16.1548571 L28.2290833,15.8245714 C28.2578459,15.5954067 28.1816986,15.3654911 28.0220138,15.199356 C27.862329,15.0332209 27.6363182,14.9487729 27.4074167,14.9697143 C26.86125,14.9697143 26.477,15.3825714 26.3126667,16.1524286 L28.2290833,16.1548571 Z M10.7928333,20.2251429 L9.10116667,20.2251429 L10.0871667,13.9812857 L7.86866667,20.2251429 L6.69175,20.2251429 L6.554,14.0347143 L5.51241667,20.2251429 L3.94883333,20.2251429 L5.29008333,12.1112857 L7.75266667,12.1112857 L7.83483333,17.1457143 L9.47575,12.1112857 L12.1655,12.1112857 L10.82425,20.2251429 L10.7928333,20.2251429 Z M15.0655,17.2817143 C14.9011667,17.2817143 14.8238333,17.255 14.6836667,17.255 C13.717,17.255 13.2336667,17.612 13.2336667,18.2725714 C13.2095108,18.4439678 13.2630705,18.6172212 13.379618,18.7446909 C13.4961655,18.8721606 13.6634296,18.9404255 13.8354167,18.9307143 C14.5483333,18.9307143 15.04375,18.2701429 15.0679167,17.2817143 L15.0655,17.2817143 Z M16.3245833,20.2251429 L14.8963333,20.2251429 L14.9229167,19.5354286 C14.487123,20.0820495 13.8131524,20.3803475 13.1176667,20.3344286 C12.6666245,20.3286733 12.2392375,20.1306861 11.9419392,19.7897722 C11.644641,19.4488584 11.505409,18.9971001 11.5589167,18.547 C11.5589167,16.9247143 12.6536667,15.9897143 14.5700833,15.9897143 C14.761,15.9897143 15.0075,16.0164286 15.283,16.0455714 C15.3221109,15.9115505 15.3408502,15.772361 15.3385833,15.6327143 C15.3385833,15.1931429 15.0389167,15.028 14.2438333,15.028 C13.7643166,15.0222521 13.2860156,15.077744 12.8204167,15.1931429 L12.57875,15.2757143 L12.4144167,15.3024286 L12.6560833,13.8161429 C13.3202766,13.6024233 14.0128583,13.4910644 14.71025,13.4858571 C16.1868333,13.4858571 16.9819167,14.144 16.9819167,15.4092857 C16.9710703,15.8526495 16.9250072,16.2944348 16.8441667,16.7304286 L16.4623333,19.0691429 L16.40675,19.482 L16.3801667,19.8122857 L16.3535833,20.0551429 L16.3221667,20.2202857 L16.3245833,20.2251429 Z M42.1563333,17.2817143 C41.9654167,17.2817143 41.88325,17.255 41.7745,17.255 C40.7885,17.255 40.2979167,17.612 40.2979167,18.2725714 C40.2805785,18.4475868 40.3405463,18.6214312 40.4619553,18.7481128 C40.5833643,18.8747945 40.7539807,18.9415484 40.9286667,18.9307143 C41.6125833,18.9307143 42.137,18.2701429 42.15875,17.2817143 L42.1563333,17.2817143 Z M43.4154167,20.2251429 L41.992,20.2251429 L42.0185833,19.5354286 C41.5827897,20.0820495 40.9088191,20.3803475 40.2133333,20.3344286 C39.7622911,20.3286733 39.3349042,20.1306861 39.0376059,19.7897722 C38.7403076,19.4488584 38.6010757,18.9971001 38.6545833,18.547 C38.6545833,16.9247143 39.7493333,15.9897143 41.66575,15.9897143 C41.895313,15.9967937 42.1243784,16.0154361 42.3520833,16.0455714 C42.3959655,15.9117927 42.4235555,15.7731633 42.43425,15.6327143 C42.43425,15.1931429 42.1345833,15.028 41.3395,15.028 C40.8512141,15.0222502 40.364121,15.077726 39.8895,15.1931429 L39.672,15.2757143 L39.5076667,15.3024286 L39.7493333,13.8161429 C40.4135266,13.6024233 41.1061083,13.4910644 41.8035,13.4858571 C43.2800833,13.4858571 44.0485833,14.144 44.0485833,15.4092857 C44.0521879,15.853468 44.0059798,16.2966443 43.9108333,16.7304286 L43.5555833,19.0691429 L43.5,19.482 L43.4444167,19.8122857 L43.4178333,20.0551429 L43.4178333,20.2202857 L43.4154167,20.2251429 Z M48.0070833,13.5684286 L47.84275,13.5684286 C47.27,13.5684286 46.9389167,13.8428571 46.4193333,14.6418571 L46.5836667,13.6242857 L45.0321667,13.6242857 L43.9905833,20.2251429 L45.68225,20.2251429 C46.313,16.1815714 46.4773333,15.4942857 47.2965833,15.4942857 L47.4053333,15.4942857 C47.5303803,14.8333225 47.7510244,14.1943115 48.06025,13.5975714 L48.0070833,13.5684286 L48.0070833,13.5684286 Z" id="Path_19" fill="#FFFFFF"></path>
                        </g>
                    </g>
                </g>
            </g>
        </g>
    </g>
</svg>